<?xml version="1.0" encoding="utf-8"?>
<!-- Generator: Adobe Illustrator 19.0.1, SVG Export Plug-In . SVG Version: 6.00 Build 0)  -->
<svg version="1.1" id="Layer_1" xmlns="http://www.w3.org/2000/svg" xmlns:xlink="http://www.w3.org/1999/xlink" x="0px" y="0px"
	 viewBox="0 0 476 135" style="enable-background:new 0 0 476 135;" xml:space="preserve">
<style type="text/css">
	.st0{fill:#FFFFFF;}
</style>
<g>
	<g>
		<g>
			<path class="st0" d="M90.3,61H74.4V45.1c0-3.7-3-6.6-6.6-6.6c-3.7,0-6.6,3-6.6,6.6V61H45.2c-3.7,0-6.6,3-6.6,6.6v0
				c0,3.7,3,6.6,6.6,6.6h15.9v15.9c0,3.7,3,6.6,6.6,6.6c3.7,0,6.6-3,6.6-6.6V74.2h15.9c3.7,0,6.6-3,6.6-6.6v0
				C96.9,64,93.9,61,90.3,61z"/>
			<path class="st0" d="M125.2,33.4c0-0.1-0.1-0.2-0.1-0.2c-0.3-0.5-0.6-1-1-1.6c-0.3-0.4-0.6-0.8-0.8-1.3c0,0,0-0.1-0.1-0.1
				c-8.1-12-19.9-21.1-33.8-25.9c-0.1,0-0.1,0-0.2-0.1C88.8,4.1,88.4,4,88,3.9c-0.3-0.1-0.5-0.2-0.8-0.2c-0.3-0.1-0.7-0.2-1-0.3
				C85.6,3.2,85,3,84.4,2.9c-0.2-0.1-0.4-0.1-0.7-0.2c-0.5-0.1-1-0.2-1.5-0.3c-0.2,0-0.4-0.1-0.6-0.1c-1.4-0.3-2.8-0.5-4.2-0.7
				c-0.2,0-0.3,0-0.5-0.1c-0.6-0.1-1.2-0.2-1.8-0.2c-0.1,0-0.2,0-0.3,0C74.1,1.1,73.4,1,72.7,1c-0.2,0-0.4,0-0.6,0
				c-0.5,0-1-0.1-1.4-0.1c-0.3,0-0.6,0-0.9,0c-0.4,0-0.7,0-1.1,0c-0.3,0-0.6,0-0.9,0c-1.2,0-2.3,0-3.4,0.1
				C42.7,2,23.9,13.3,12.5,30.1c-0.1,0.1-0.1,0.2-0.2,0.3c-0.3,0.4-0.5,0.8-0.8,1.2c-0.1,0.1-0.1,0.2-0.2,0.3
				c-0.4,0.7-0.8,1.4-1.2,2c-0.1,0.2-0.2,0.3-0.3,0.5c-0.2,0.3-0.4,0.6-0.5,1c-0.1,0.3-0.3,0.5-0.4,0.8c-0.2,0.3-0.3,0.6-0.5,0.9
				c-0.2,0.4-0.4,0.9-0.6,1.3c-0.1,0.1-0.1,0.3-0.2,0.4c0,0,0,0,0,0C3.3,47.5,1,57.3,1,67.6C1,78.5,3.6,88.9,8.2,98c0,0,0,0,0,0
				c7.8,15.4,21.4,27.3,38,32.9c0.1,0,0.1,0,0.2,0.1c0.4,0.1,0.8,0.3,1.2,0.4c0.3,0.1,0.6,0.2,1,0.3c0.3,0.1,0.6,0.2,0.8,0.2
				c0.6,0.2,1.3,0.4,1.9,0.5c0.1,0,0.2,0,0.3,0.1c0.7,0.2,1.3,0.3,2,0.5c0.1,0,0.1,0,0.2,0c4.5,1,9.3,1.5,14.1,1.5
				c0.8,0,1.6,0,2.4,0c0.3,0,0.7,0,1,0c2.8-0.1,5.6-0.5,8.3-1c0,0,0,0,0,0c0.5-0.1,1.1-0.2,1.6-0.3c0,0,0,0,0,0
				c1.5-0.3,3.1-0.7,4.6-1.1c0.2,0,0.3-0.1,0.5-0.1c0.4-0.1,0.9-0.3,1.3-0.4c0.1,0,0.3-0.1,0.4-0.1c0.7-0.2,1.5-0.5,2.2-0.7
				c0.3-0.1,0.5-0.2,0.8-0.3c0.3-0.1,0.7-0.2,1-0.4c0.3-0.1,0.6-0.2,0.9-0.4c0.3-0.1,0.6-0.2,0.8-0.3c0.6-0.2,1.1-0.5,1.7-0.7
				c0.2-0.1,0.4-0.2,0.5-0.3c0.4-0.2,0.9-0.4,1.3-0.6c0.2-0.1,0.3-0.2,0.5-0.3c0.6-0.3,1.2-0.6,1.7-0.9c0,0,0,0,0,0
				c0.6-0.3,1.3-0.7,1.9-1.1c0,0,0.1,0,0.1,0c19.8-11.6,33.1-33.1,33.1-57.7C134.6,55.1,131.2,43.4,125.2,33.4z M107.4,113.6
				c-4.6,2.4-9.8,4.2-15.7,4.8c-23.1,2.6-38.2-6-55.7-23.3c-2.3-2.3-6.2-4.7-8.1-5.3C20.3,87,15,90.3,12.7,92.1c0,0,0,0,0,0
				c0,0-0.1,0.1-0.3,0.3C9,84.8,7.1,76.4,7.1,67.6c0-18.4,8.2-34.9,21.2-46c4.6-2.3,9.8-4.1,15.5-4.8c23.1-2.6,38.2,6,55.7,23.3
				c2.3,2.3,6.2,4.7,8.1,5.3c7.6,2.7,12.9-0.6,15.2-2.3c0,0,0,0,0,0c0,0,0.1-0.1,0.3-0.3c3.4,7.6,5.3,16,5.3,24.8
				C128.5,86,120.3,102.5,107.4,113.6z"/>
		</g>
		<g>
			<path id="XMLID_36_" class="st0" d="M251,55.4c0-15.8-13.8-30.7-30.7-30.7l-71.5,0v5.3c0,4.3,3.5,7.9,7.9,7.9h63.5
				c9.8,0,17.7,7.9,17.7,17.7v4.3v1.1l-1.1,0h-79.2v13.1h79.2h1.1l0,1.1v6.6c0,9.8-7.9,17.7-17.7,17.7h-63.5c-4.4,0-7.9,3.5-7.9,7.9
				v5.2l71.1,0c7.6,0,14.3-2.7,20.2-7.6c7.4-6.2,10.9-16,10.9-22.8L251,55.4z"/>
			<path id="XMLID_33_" class="st0" d="M262.6,55.4v26.5c0,17,13.8,30.8,30.8,30.8h47.8c12.2,0,22.1-9.9,22.1-22.1V83
				c0-12.2-9.9-22.1-22.1-22.1h-64.3h-1.1v-1.1v-4.4c0-9.7,7.9-17.6,17.6-17.6h62c4.4,0,7.9-3.5,7.9-7.9v-5.2h-69.9
				C276.4,24.7,262.6,38.4,262.6,55.4z M276.8,74.1h64.3c4.9,0,9,4,9,9v7.5c0,4.9-4,9-9,9h-47.8c-9.7,0-17.6-7.9-17.6-17.6v-6.7
				v-1.1H276.8z"/>
			<path id="XMLID_30_" class="st0" d="M374.7,81.9c0,17,13.8,30.8,30.8,30.8h39c17,0,30.8-13.8,30.8-30.8V55.4
				c0-17-13.8-30.8-30.8-30.8h-39c-17,0-30.8,13.8-30.8,30.8V81.9z M387.9,55.4c0-9.7,7.9-17.6,17.6-17.6h39
				c9.7,0,17.6,7.9,17.6,17.6v26.5c0,9.7-7.9,17.6-17.6,17.6h-39c-9.7,0-17.6-7.9-17.6-17.6V55.4z"/>
		</g>
	</g>
</g>
</svg>
