<?xml version="1.0" encoding="utf-8"?>
<!-- Generator: Adobe Illustrator 19.0.1, SVG Export Plug-In . SVG Version: 6.00 Build 0)  -->
<svg version="1.1" id="Layer_1" xmlns="http://www.w3.org/2000/svg" xmlns:xlink="http://www.w3.org/1999/xlink" x="0px" y="0px"
	 viewBox="0 0 90 70" width="90" height="70" style="enable-background:new 0 0 90 70;" xml:space="preserve">
<style type="text/css">
	.st0{fill:#FFFFFF;}
</style>
<path class="st0" d="M34.6,3v60.9l13.8,4.4v-51c0-2.4,1.1-4,2.8-3.5c2.2,0.6,2.7,2.8,2.7,5.2v20.4c8.6,4.2,15.3,0,15.3-11
	c0-11.2-4-16.2-15.6-20c-4.6-1.5-13-4.1-19-5.2"/>
<path class="st0" d="M51,59l22-7.9c2.5-0.9,2.9-2.2,0.9-2.9c-2.1-0.7-5.7-0.5-8.3,0.4l-14.7,5.3v-8.3l0.8-0.3c0,0,4.3-1.5,10.3-2.2
	s13.3,0.1,19,2.3c6.5,2.1,7.2,5.1,5.6,7.2c-1.7,2.1-5.7,3.6-5.7,3.6L50.9,67L51,59"/>
<path class="st0" d="M9.3,59c-6.7-1.9-7.8-5.8-4.7-8c2.8-2.1,7.6-3.6,7.6-3.6l19.7-7v8l-14.2,5.1c-2.5,0.9-2.9,2.2-0.9,2.8
	c2.1,0.7,5.7,0.5,8.2-0.4l6.8-2.5v7.1c-0.4,0.1-0.9,0.2-1.4,0.2c-6.7,1.1-13.9,0.7-21-1.7"/>
<path class="st0" d="M82,68c0.9,0,1.7-0.3,2.3-0.9c0.6-0.6,0.9-1.4,0.9-2.3c0-0.9-0.3-1.7-0.9-2.3s-1.4-0.9-2.3-0.9
	c-1.8,0-3.2,1.4-3.2,3.2c0,0.9,0.3,1.7,0.9,2.3S81.1,68,82,68 M79.3,64.8c0-0.7,0.3-1.4,0.8-1.9s1.2-0.8,1.9-0.8
	c0.7,0,1.4,0.3,1.9,0.8s0.8,1.2,0.8,1.9c0,1.5-1.2,2.7-2.7,2.7c-0.7,0-1.4-0.3-1.9-0.8S79.3,65.5,79.3,64.8"/>
<path class="st0" d="M84,66L84,66c-0.1-0.2-0.1-0.3-0.1-0.4v-0.5c0-0.2,0-0.4-0.1-0.5c-0.1-0.1-0.1-0.1-0.2-0.2
	c0.1-0.1,0.2-0.2,0.3-0.3C84,64,84,63.8,84,63.6c0-0.4-0.2-0.7-0.5-0.9c-0.3,0-0.5-0.1-0.8-0.1h-1.6v0.1v3.4v0.1h0.6v-0.1v-1.4h1
	c0.2,0,0.3,0,0.4,0.1c0.1,0.1,0.2,0.2,0.2,0.4v0.6c0,0.1,0,0.2,0,0.3s0,0.1,0,0.1h0.6L84,66L84,66 M83.2,63.7c0,0.2,0,0.3-0.2,0.4
	c-0.1,0.1-0.3,0.1-0.5,0.1h-1v-1h1c0.1,0,0.3,0,0.3,0.1C83.1,63.3,83.2,63.5,83.2,63.7"/>
</svg>
