<svg xmlns="http://www.w3.org/2000/svg" xmlns:xlink="http://www.w3.org/1999/xlink" preserveAspectRatio="xMidYMid" width="34" height="17" viewBox="-1 -1 36 19">
  <defs>
    <style>
      .cls-1 {
        fill: #fcfcfc;
        fill-rule: evenodd;
      }
    </style>

    <filter id="color-overlay-1" filterUnits="userSpaceOnUse">
      <feFlood flood-color="#fff"/>
      <feComposite operator="in" in2="SourceGraphic"/>
      <feBlend in2="SourceGraphic" result="solidFill"/>
    </filter>
  </defs>
  <path d="M16.636,15.817 L18.668,15.817 C18.668,15.817 19.282,15.762 19.596,15.486 C19.884,15.232 19.875,14.756 19.875,14.756 C19.875,14.756 19.835,12.502 21.101,12.174 C22.348,11.850 23.951,14.328 25.649,15.281 C26.933,16.002 27.909,15.817 27.909,15.817 L32.449,15.820 C32.449,15.820 34.825,15.673 33.698,14.146 C33.606,14.021 33.042,13.017 30.322,10.952 C27.475,8.792 27.856,9.141 31.286,5.404 C33.375,3.128 34.210,1.739 33.949,1.144 C33.700,0.577 32.175,0.675 32.175,0.675 L27.051,0.673 C27.051,0.673 26.672,0.643 26.391,0.780 C26.116,0.915 25.940,1.263 25.940,1.263 C25.940,1.263 25.131,3.057 24.052,4.555 C21.775,7.715 20.864,7.883 20.493,7.686 C19.627,7.229 19.843,5.849 19.843,4.868 C19.843,1.806 20.411,0.529 18.736,0.198 C18.181,0.088 17.772,0.016 16.350,0.004 C14.526,-0.011 12.982,0.009 12.108,0.359 C11.526,0.592 11.077,1.110 11.351,1.140 C11.689,1.177 12.454,1.309 12.860,1.760 C13.384,2.343 13.365,3.652 13.365,3.652 C13.365,3.652 13.666,7.257 12.662,7.705 C11.973,8.012 11.028,7.385 8.998,4.518 C7.958,3.049 7.173,1.395 7.173,1.395 C7.173,1.395 7.022,1.091 6.752,0.929 C6.424,0.732 5.966,0.670 5.966,0.670 L1.108,0.672 C1.108,0.672 0.379,0.688 0.111,0.947 C-0.128,1.178 0.092,1.655 0.092,1.655 C0.092,1.655 3.895,8.985 8.202,12.651 C12.152,16.013 16.636,15.817 16.636,15.817 Z" class="cls-1"/>
</svg>
