<?xml version="1.0" encoding="utf-8"?>
<!-- Generator: Adobe Illustrator 19.0.1, SVG Export Plug-In . SVG Version: 6.00 Build 0)  -->
<svg version="1.1" id="Layer_1" xmlns="http://www.w3.org/2000/svg" xmlns:xlink="http://www.w3.org/1999/xlink" x="0px" y="0px"
	 width="40" height="40"
	 viewBox="0 0 40 40" style="enable-background:new 0 0 40 40;" xml:space="preserve">
<style type="text/css">
	.st0{fill-rule:evenodd;clip-rule:evenodd;fill:#FFFFFF;}
</style>
<path id="WG_x5F_Logo_x5F_MainVersion_x5F_Black1r_1_" class="st0" d="M4.6,20c0-8.5,6.9-15.4,15.4-15.4c8.5,0,15.4,6.9,15.4,15.4
	c0,5.7-3.1,10.6-7.6,13.3c0.9-3.3,1.4-6.8,1.2-10.7c1,0.3,1.5,0.5,2.5,0.7c-1.1-2.9-2.4-5.5-4-8.2c-1.5,2.8-3.4,5.3-5.3,7.4l3.2-0.2
	c-2.7,4.9-6.6,7.3-11.5,8c-1.1-5.5-0.3-14.5,5.9-18.7l0.6,3c1.2-2,3.6-4.5,5.4-6.3c-2.8-1.1-6.1-1.5-9.3-0.9c0.5,0.4,1.2,1,1.7,1.4
	c-7,3-10.9,7.8-13.5,13.5C4.7,21.6,4.6,20.8,4.6,20L4.6,20z M20,39c10.5,0,19-8.5,19-19C39,9.5,30.5,1,20,1C9.5,1,1,9.5,1,20
	C1,30.5,9.5,39,20,39L20,39z"/>
</svg>
