<?xml version="1.0" encoding="utf-8"?>
<!-- Generator: Adobe Illustrator 19.0.1, SVG Export Plug-In . SVG Version: 6.00 Build 0)  -->
<svg version="1.1" id="Layer_1" xmlns="http://www.w3.org/2000/svg" xmlns:xlink="http://www.w3.org/1999/xlink" x="0px" y="0px"
	 viewBox="0 0 170 170" width="170" height="170" style="enable-background:new 0 0 170 170;" xml:space="preserve">
<style type="text/css">
	.st0{fill:#FFFFFF;}
</style>
<path class="st0" d="M86,5c16,0,30.8,4.7,43.5,13c-2,0-4,0-6,0C107.8,19,96,26.7,86,34.8C76,26.7,64.2,19.1,48.5,18
	c-1.7,0-3.7-0.3-5.7,0c12.4-8.4,27-13,43-13 M137.8,24.4c16.8,14.4,27,35.9,27,60c0,18.4-6.3,35-16.8,49c-1.7-20.4-9.7-42-25.8-62
	c-5.7-7-11.7-14.7-19.4-21.5c9.9-11,21.5-19.7,34.9-24.7 M144.1,139.2c-14.4,16-35.5,25.8-59,25.8c-23.4,0-44.5-10-59-26.5
	c5-16,14.7-31,26.5-44C63.3,82.8,76.4,73,85.1,65.7c8.7,7.4,21.8,17,32.5,28.8c11.9,13.5,21.7,28.9,26.3,44.9 M21.9,133.8
	c-10-13.4-16-29.8-16-47.9c0-23.8,10.4-45,27-60c13.4,5,24.8,13.7,34,24.8c-7.7,6.7-13.7,14-19.4,21.5c-16,19.6-24,41-25.7,61"/>
</svg>
