<svg xmlns="http://www.w3.org/2000/svg" xmlns:xlink="http://www.w3.org/1999/xlink" preserveAspectRatio="xMidYMid" width="29.187" height="22.876" viewBox="-1 -1 31.187 24.876">
  <defs>
    <style>
      .cls-1 {
        fill: #fff;
        fill-rule: evenodd;
      }
    </style>
  </defs>
  <path d="M27.552,12.353 L20.572,12.353 L20.572,10.260 L26.452,10.260 L26.457,10.260 C26.804,10.260 27.083,9.979 27.083,9.635 L27.083,9.631 L27.083,2.726 L27.083,2.722 C27.083,2.377 26.804,2.097 26.457,2.097 L26.452,2.097 L23.300,2.097 L23.294,2.097 C22.952,2.097 22.672,2.377 22.672,2.722 L22.672,2.726 L22.672,5.863 L22.672,5.867 C22.672,6.213 22.952,6.493 23.294,6.493 L23.300,6.493 L25.819,6.493 L25.819,8.585 L22.200,8.585 C21.299,8.585 20.572,7.860 20.572,6.963 L20.572,1.627 C20.572,0.732 21.299,0.004 22.200,0.004 L27.552,0.004 C28.449,0.004 29.179,0.732 29.179,1.627 L29.179,10.729 L29.180,10.729 C29.180,11.628 28.449,12.353 27.552,12.353 ZM29.173,22.866 L29.173,22.866 L27.105,22.866 L27.105,16.474 L25.659,16.474 L25.652,16.474 C25.309,16.474 25.036,16.749 25.036,17.090 L25.036,17.094 L25.036,22.866 L22.968,22.866 L22.968,16.474 L21.519,16.474 L21.514,16.474 C21.172,16.474 20.898,16.749 20.898,17.090 L20.898,17.094 L20.898,22.872 L18.830,22.872 L18.830,16.008 C18.830,15.129 19.547,14.413 20.434,14.413 L29.173,14.413 L29.173,22.866 ZM17.266,8.585 L11.912,8.585 C11.013,8.585 10.286,7.860 10.286,6.963 L10.286,1.628 C10.286,0.732 11.013,0.005 11.912,0.005 L17.266,0.005 C18.163,0.005 18.893,0.732 18.893,1.628 L18.893,6.963 C18.893,7.860 18.163,8.585 17.266,8.585 ZM16.790,5.863 L16.790,2.726 L16.790,2.721 C16.790,2.377 16.519,2.097 16.171,2.097 L16.164,2.097 L13.014,2.097 L13.010,2.097 C12.663,2.097 12.385,2.377 12.385,2.721 L12.385,2.726 L12.385,5.863 L12.385,5.867 C12.385,6.213 12.663,6.493 13.010,6.493 L13.014,6.493 L16.164,6.493 L16.171,6.493 C16.519,6.493 16.790,6.213 16.790,5.867 L16.790,5.863 ZM15.571,14.412 C16.456,14.412 17.174,15.128 17.174,16.007 L17.174,21.268 C17.174,22.150 16.456,22.866 15.571,22.866 L10.297,22.866 C9.409,22.866 8.693,22.150 8.693,21.268 L8.693,16.007 C8.693,15.128 9.409,14.412 10.297,14.412 L15.571,14.412 ZM10.761,17.094 L10.761,20.188 C10.761,20.526 11.035,20.805 11.376,20.805 L11.383,20.801 L11.383,20.805 L14.485,20.805 L14.485,20.801 L14.492,20.805 C14.832,20.805 15.106,20.526 15.106,20.188 L15.106,17.094 L15.106,17.090 C15.106,16.749 14.832,16.474 14.492,16.474 L14.485,16.474 L11.383,16.474 L11.376,16.474 C11.035,16.474 10.761,16.749 10.761,17.090 L10.761,17.094 ZM6.979,12.353 L-0.001,12.353 L-0.001,10.260 L5.878,10.260 L5.884,10.260 C6.230,10.260 6.508,9.979 6.508,9.635 L6.508,9.631 L6.508,2.726 L6.508,2.722 C6.508,2.377 6.230,2.097 5.884,2.097 L5.878,2.097 L2.729,2.097 L2.721,2.097 C2.376,2.097 2.098,2.377 2.098,2.722 L2.098,2.726 L2.098,5.863 L2.098,5.867 C2.098,6.213 2.375,6.493 2.721,6.493 L2.729,6.493 L5.248,6.493 L5.248,8.585 L1.626,8.585 C0.726,8.585 -0.001,7.860 -0.001,6.963 L-0.001,1.627 C-0.001,0.732 0.727,0.004 1.626,0.004 L6.979,0.004 C7.877,0.004 8.607,0.732 8.607,1.627 L8.607,10.729 L8.607,10.729 C8.607,11.628 7.877,12.353 6.979,12.353 ZM1.610,14.412 L7.037,14.412 L7.037,16.474 L7.037,16.474 L2.695,16.474 L2.689,16.474 C2.347,16.474 2.073,16.749 2.073,17.090 L2.074,17.094 L2.073,17.094 L2.073,20.188 L2.074,20.188 L2.073,20.189 C2.073,20.528 2.347,20.807 2.689,20.807 L2.695,20.807 L3.145,20.807 L7.037,20.807 L7.037,22.871 L1.610,22.871 L1.610,22.866 C0.723,22.866 0.004,22.150 0.004,21.268 L0.004,16.007 C0.004,15.128 0.723,14.412 1.610,14.412 Z" class="cls-1"/>
</svg>
