<svg width="2048" height="2048" viewBox="0 0 2048 2048" fill="none" xmlns="http://www.w3.org/2000/svg">
<path d="M502.231 1434.11C233.273 1487.92 55 1582.11 55 1689.32C55 1856.56 488.836 1992.13 1024 1992.13C1559.17 1992.13 1993 1856.56 1993 1689.32C1993 1583.35 1818.84 1490.11 1555.09 1436" stroke="#ef9436" stroke-width="110"/>
<path fill-rule="evenodd" clip-rule="evenodd" d="M1525.95 501.474C1525.95 778.431 1330.68 1198.21 1024.47 1713C718.264 1198.21 523 778.431 523 501.474C523 224.517 747.517 0 1024.47 0C1301.43 0 1525.95 224.517 1525.95 501.474ZM1024.47 674.549C1120.06 674.549 1197.55 597.061 1197.55 501.474C1197.55 405.887 1120.06 328.399 1024.47 328.399C928.883 328.399 851.399 405.887 851.399 501.474C851.399 597.061 928.883 674.549 1024.47 674.549Z" fill="#ef9436"/>
</svg>
