<svg width="1920" height="1920" viewBox="0 0 1920 1920" fill="none" xmlns="http://www.w3.org/2000/svg">
<path fill-rule="evenodd" clip-rule="evenodd" d="M1215 34C1133.67 11.3333 1048.67 0 960 0C870.667 0.666667 785.333 12 704 34C622.667 56 546.333 88.3333 475 131C403.667 173.667 338.667 223.667 280 281C221.333 338.333 171.333 403 130 475C88.6667 547 56.6667 623.667 34 705C11.3333 786.333 0 871.333 0 960C0.666667 1049.33 12 1134.67 34 1216C56 1297.33 88.3333 1373.67 131 1445C173.667 1516.33 223.667 1581.33 281 1640C338.333 1698.67 403 1748.67 475 1790C547 1831.33 623.667 1863.33 705 1886C786.333 1908.67 871.333 1920 960 1920C1049.33 1919.33 1134.67 1908 1216 1886L1180 1762C1109.33 1782 1036 1792 960 1792C884 1792 810.333 1782 739 1762C667.667 1742 601.333 1714 540 1678C478.667 1642 422.667 1598.67 372 1548C321.333 1497.33 278 1441 242 1379C206 1317 178 1250.67 158 1180C138 1109.33 128 1036 128 960C127.333 884 137.333 810.333 158 739C178.667 667.667 206.667 601.333 242 540C277.333 478.667 320.667 422.667 372 372C423.333 321.333 479.667 278 541 242C602.333 206 668.333 178 739 158C809.667 138 883.333 128 960 128C1036 128 1109.67 138 1181 158C1252.33 178 1318.67 206 1380 242C1441.33 278 1497.33 321.333 1548 372C1598.67 422.667 1642 479 1678 541C1714 603 1742 669.333 1762 740C1782 810.667 1792 884 1792 960C1792 1036 1782 1109.67 1762 1181L1886 1215C1908.67 1133.67 1920 1048.67 1920 960C1919.33 870.667 1908 785.333 1886 704C1864 622.667 1831.67 546.333 1789 475C1746.33 403.667 1696.33 338.667 1639 280C1581.67 221.333 1517 171.333 1445 130C1373 88.6667 1296.33 56.6667 1215 34ZM1064 1111V392H856V1111H1064ZM1064 1527V1319H856V1527H1064Z" fill="#ef9436"/>
<path d="M1664 1280V1536H1920V1664H1664V1920H1536V1664H1280V1536H1536V1280H1664Z" fill="#ef9436"/>
</svg>
