<svg width="3000" height="3000" viewBox="0 0 3000 3000" fill="none" xmlns="http://www.w3.org/2000/svg">
<path fill-rule="evenodd" clip-rule="evenodd" d="M1594.12 1357.13C1697.2 1543.66 1665.27 1758.71 1522.79 1837.44C1380.32 1916.17 1181.26 1828.78 1078.18 1642.25C975.098 1455.71 1007.03 1240.67 1149.51 1161.94C1291.98 1083.21 1491.04 1170.6 1594.12 1357.13ZM1470.06 1742C1559.82 1692.4 1572.64 1543.7 1498.69 1409.87C1424.73 1276.04 1292.01 1207.77 1202.24 1257.37C1112.48 1306.98 1099.66 1455.68 1173.61 1589.51C1247.57 1723.33 1380.29 1791.61 1470.06 1742Z" fill="#a19f9d"/>
<path d="M1880.43 1198.92C1909.55 1251.62 1890.44 1317.96 1837.73 1347.09C1785.02 1376.22 1718.68 1357.1 1689.56 1304.39C1660.43 1251.69 1679.55 1185.35 1732.25 1156.22C1784.96 1127.09 1851.3 1146.21 1880.43 1198.92Z" fill="#a19f9d"/>
<path d="M982.744 1694.98C1011.87 1747.69 992.754 1814.03 940.047 1843.16C887.34 1872.28 821.001 1853.17 791.875 1800.46C762.748 1747.75 781.864 1681.41 834.571 1652.29C887.278 1623.16 953.617 1642.28 982.744 1694.98Z" fill="#a19f9d"/>
<path d="M325 978.633L0 743.133L325 507.633V679.633H1145.96L914.29 807.633H325V978.633Z" fill="#a19f9d"/>
<path d="M2347 2020.63L2672 2256.13L2347 2491.63V2319.63H1526.42L1758 2191.63H2347V2020.63Z" fill="#a19f9d"/>
<path fill-rule="evenodd" clip-rule="evenodd" d="M659.226 2652.38L0 1459.44L2013.07 347L2672.3 1539.93L659.226 2652.38ZM938.273 2373.6C866.139 2243.06 701.846 2195.72 571.314 2267.85L701.923 2504.2L938.273 2373.6ZM1033.71 2320.86C932.447 2137.62 701.815 2071.16 518.576 2172.42L331.52 1833.93C514.76 1732.67 581.217 1502.03 479.957 1318.79L1638.59 678.52C1739.85 861.76 1970.49 928.217 2153.73 826.957L2340.78 1165.45C2157.54 1266.71 2091.08 1497.34 2192.34 1680.58L1033.71 2320.86ZM278.782 1738.49C409.314 1666.36 456.656 1502.06 384.523 1371.53L148.173 1502.14L278.782 1738.49ZM2393.52 1260.89C2262.99 1333.02 2215.64 1497.31 2287.78 1627.85L2524.13 1497.24L2393.52 1260.89ZM1734.03 625.782C1806.16 756.314 1970.45 803.656 2100.99 731.523L1970.38 495.173L1734.03 625.782Z" fill="#a19f9d"/>
</svg>
