<svg width="3000" height="3000" viewBox="0 0 3000 3000" fill="none" xmlns="http://www.w3.org/2000/svg">
<path d="M1568 1191H1696V1319H1568V1191Z" fill="#a19f9d"/>
<path d="M1248 1191H1376V1319H1248V1191Z" fill="#a19f9d"/>
<path d="M928 1191H1056V1319H928V1191Z" fill="#a19f9d"/>
<path d="M608 1511H736V1639H608V1511Z" fill="#a19f9d"/>
<path d="M1248 1511H1376V1639H1248V1511Z" fill="#a19f9d"/>
<path d="M928 1511H1056V1639H928V1511Z" fill="#a19f9d"/>
<path d="M608 1831H736V1959H608V1831Z" fill="#a19f9d"/>
<path d="M1248 1831H1376V1959H1248V1831Z" fill="#a19f9d"/>
<path d="M928 1831H1056V1959H928V1831Z" fill="#a19f9d"/>
<path d="M2168 1490H2296V2020.49L2548.12 2272.61L2457.61 2363.12L2168 2073.51V1490Z" fill="#a19f9d"/>
<path fill-rule="evenodd" clip-rule="evenodd" d="M1888 423H2016V551H2400V1297.43C2743.35 1374.05 3000 1680.55 3000 2047C3000 2471.15 2656.15 2815 2232 2815C1865.55 2815 1559.05 2558.35 1482.43 2215H224V551H608V423H736V551H1888V423ZM2016 1191H1888V1319H1986.72C1870.09 1358.28 1765.99 1424.8 1681.97 1511H1568V1639H1581.22C1506.95 1757.21 1464 1897.09 1464 2047C1464 2060.42 1464.34 2073.75 1465.02 2087H352V1063H2272V1280.02C2258.75 1279.34 2245.42 1279 2232 1279C2157 1279 2084.52 1289.75 2016 1309.79V1191ZM1888 807H2016V679H2272V935H352V679H608V807H736V679H1888V807ZM2232 2687C2585.46 2687 2872 2400.46 2872 2047C2872 1693.54 2585.46 1407 2232 1407C1878.54 1407 1592 1693.54 1592 2047C1592 2400.46 1878.54 2687 2232 2687Z" fill="#a19f9d"/>
<path fill-rule="evenodd" clip-rule="evenodd" d="M2168 2073.51V1490H2296V2020.49L2548.12 2272.61L2457.61 2363.12L2168 2073.51Z" fill="#a19f9d"/>
</svg>
