<svg width="3000" height="3000" viewBox="0 0 3000 3000" fill="none" xmlns="http://www.w3.org/2000/svg">
<path fill-rule="evenodd" clip-rule="evenodd" d="M1396.67 537.993C1305.36 519.998 1216.05 511 1128.74 511C1040.76 511.666 951.117 520.997 859.807 538.993C768.497 556.988 680.52 584.981 595.875 622.971C511.23 660.962 433.583 708.949 362.934 766.935C292.286 824.92 234.3 893.569 188.979 972.882C160.986 1020.87 139.991 1070.19 125.995 1120.84C111.998 1171.5 105 1224.15 105 1278.8C105.666 1334.12 112.998 1387.11 126.994 1437.76C140.991 1488.42 161.652 1537.4 188.979 1584.73C224.253 1646.07 266.783 1700.75 316.566 1748.77L105 2247.19L742.039 1989.81C780.981 2001.75 820.571 2011.69 860.807 2019.62C952.117 2037.61 1041.43 2046.61 1128.74 2046.61C1216.72 2045.94 1306.36 2036.61 1397.67 2018.62C1488.98 2000.62 1576.96 1972.63 1661.6 1934.64C1746.25 1896.65 1823.89 1848.66 1894.54 1790.67C1965.19 1732.69 2023.18 1664.04 2068.5 1584.73C2096.49 1536.74 2117.49 1487.42 2131.48 1436.76C2145.48 1386.11 2152.48 1333.46 2152.48 1278.8C2151.81 1223.48 2144.48 1170.5 2130.48 1119.84C2116.49 1069.19 2095.83 1020.2 2068.5 972.882C2022.51 892.903 1964.19 824.253 1893.54 766.935C1822.9 709.616 1745.25 661.628 1660.6 622.971C1575.96 584.315 1487.98 555.989 1396.67 537.993ZM1128.74 1918.64C1184.72 1918.64 1241.04 1914.98 1297.7 1907.64C1354.35 1900.31 1410 1888.32 1464.65 1871.65C1519.31 1854.99 1572.29 1835 1623.61 1811.67C1674.93 1788.34 1723.59 1759.35 1769.58 1724.69C1805.57 1698.03 1839.22 1668.7 1870.55 1636.71C1901.87 1604.72 1928.87 1569.73 1951.53 1531.74C1974.19 1493.75 1991.85 1453.76 2004.52 1411.77C2017.18 1369.78 2023.84 1325.46 2024.51 1278.8C2024.51 1232.15 2018.18 1187.83 2005.52 1145.84C1992.85 1103.85 1974.86 1064.19 1951.53 1026.87C1928.2 989.545 1901.21 954.553 1870.55 921.895C1839.89 889.237 1806.23 859.578 1769.58 832.918C1724.25 799.593 1675.93 770.934 1624.61 746.94C1573.29 722.946 1519.97 702.618 1464.65 685.955C1409.33 669.293 1353.68 657.629 1297.7 650.964C1241.71 644.299 1185.39 640.3 1128.74 638.967C1072.75 638.967 1016.43 642.633 959.782 649.965C903.13 657.296 847.477 669.293 792.824 685.955C738.172 702.618 685.185 722.613 633.865 745.94C582.545 769.267 533.891 798.26 487.902 832.918C451.911 859.578 418.253 888.904 386.928 920.895C355.603 952.887 328.61 987.878 305.949 1025.87C283.288 1063.86 265.626 1103.85 252.962 1145.84C240.299 1187.83 233.634 1232.15 232.967 1278.8C232.967 1325.46 239.299 1369.78 251.962 1411.77C264.626 1453.76 282.621 1493.42 305.949 1530.74C325.402 1561.86 347.404 1591.37 371.956 1619.25C376.845 1624.8 381.836 1630.29 386.928 1635.71C412.819 1663.29 440.848 1688.73 471.017 1712.03L343.89 2011.91L737.081 1853.38C755.431 1859.9 774.012 1865.99 792.824 1871.65C845.014 1887.37 897.501 1898.64 950.284 1905.46C953.449 1905.87 956.615 1906.27 959.782 1906.64C1015.77 1913.31 1072.09 1917.31 1128.74 1918.64Z" fill="#a19f9d"/>
<path fill-rule="evenodd" clip-rule="evenodd" d="M2660.35 1930.64C2660.35 1748.36 2477.54 1595.3 2230.53 1552.6C2240.44 1528.96 2248.75 1505.01 2255.45 1480.75C2260.11 1463.89 2263.99 1446.81 2267.1 1429.5C2566.98 1487.54 2788.32 1689.91 2788.32 1930.64C2788.32 2044.82 2738.52 2150.37 2654.17 2235.99L2805 2591.33L2355.69 2409.8C2273.93 2434.75 2184.38 2448.51 2090.49 2448.51C1803.16 2448.51 1556.4 2319.63 1449.41 2135.52C1492.9 2126.22 1535.62 2114.62 1577.58 2100.73C1669.91 2230.84 1864.89 2320.54 2090.49 2320.54C2104.52 2320.54 2118.44 2320.19 2132.22 2319.51C2214.54 2315.43 2292.02 2299.39 2360.96 2273.91L2556.31 2352.84L2493.97 2205.97C2536.25 2176.97 2571.9 2143.43 2599.21 2106.52C2638.31 2053.68 2660.35 1993.92 2660.35 1930.64Z" fill="#a19f9d"/>
<path d="M872.804 1270.81C872.804 1341.48 815.511 1398.77 744.837 1398.77C674.162 1398.77 616.869 1341.48 616.869 1270.81C616.869 1200.13 674.162 1142.84 744.837 1142.84C815.511 1142.84 872.804 1200.13 872.804 1270.81Z" fill="#a19f9d"/>
<path d="M1640.61 1270.81C1640.61 1341.48 1583.32 1398.77 1512.64 1398.77C1441.97 1398.77 1384.67 1341.48 1384.67 1270.81C1384.67 1200.13 1441.97 1142.84 1512.64 1142.84C1583.32 1142.84 1640.61 1200.13 1640.61 1270.81Z" fill="#a19f9d"/>
<path d="M1256.71 1270.81C1256.71 1341.48 1199.41 1398.77 1128.74 1398.77C1058.06 1398.77 1000.77 1341.48 1000.77 1270.81C1000.77 1200.13 1058.06 1142.84 1128.74 1142.84C1199.41 1142.84 1256.71 1200.13 1256.71 1270.81Z" fill="#a19f9d"/>
</svg>
