<?xml version="1.0" encoding="utf-8"?>
<!-- Generator: Adobe Illustrator 19.0.1, SVG Export Plug-In . SVG Version: 6.00 Build 0)  -->
<svg version="1.1" id="Layer_1" xmlns="http://www.w3.org/2000/svg" xmlns:xlink="http://www.w3.org/1999/xlink" x="0px" y="0px"
	 viewBox="206 339.1 183 163.3" style="enable-background:new 206 339.1 183 163.3;" xml:space="preserve">
<path d="M384.2,430.1L384.2,430.1H384l0.1-0.2L384.2,430.1z M385.8,423.7L385.8,423.7l-0.1-0.2h0.1h0.1v0.2H385.8L385.8,423.7z
	 M387.3,429.3v-0.1h0.1l0.3,0.1v0.1h-0.2L387.3,429.3z M388.8,430.9l-0.3,0.4l-0.1,0.2l0.1,0.2l-0.1,0.1h-0.1v0.2l-0.1,0.2h-0.1v0.2
	l-0.2,0.1h-0.1l-0.1-0.2h-0.1l-0.1,0.1v0.2l-0.2-0.1v-0.3l-0.1-0.1l0.1-0.2v-0.2l0.3-0.3h0.2v-0.1h-0.3v-0.1l-0.1,0.2l-0.2,0.3h-0.1
	l-0.2,0.4l-0.2,0.1l-0.1-0.1v-0.2l0.1-0.1v-0.2l0.2-0.4l0.2-0.2l0.1-0.2l-0.1-0.1v-0.2l0.1-0.2V430l-0.1-0.1H387l-0.1-0.1h-0.1
	l-0.1,0.1v0.3l-0.1,0.3l-0.1,0.4l-0.1,0.1h-0.2l0.2-0.1h-0.2l-0.1-0.1l-0.1,0.1l-0.3,0.3h-0.1v0.2l-0.1,0.2h-0.1l-0.1,0.2l-0.1,0.1
	L385,432l-0.1-0.1v-0.1h-0.1l-0.1,0.1l-0.1,0.1h-0.2l-0.1-0.1l-0.1-0.1v-0.1l0.2-0.2l0.3-0.1l0.1-0.1l0.1-0.1h0.1h0.2v-0.1h0.1V431
	l0.1-0.2h0.3l0.3-0.1v-0.1l0.2-0.1H386l-0.2,0.1h-0.2l-0.1-0.1h-0.2l-0.1-0.1v0.2l-0.1,0.2h-0.2l-0.1,0.1l-0.1-0.1h-0.2l-0.1-0.1
	h-0.2l-0.1,0.1l-0.1-0.1l0.3-0.1l0.3-0.2v-0.1h-0.1h-0.2v-0.1l0.1-0.2v-0.2h-0.1l-0.2,0.2l-0.1,0.2l-0.1-0.1l0.1-0.3l0.1-0.1H384
	l-0.1,0.2l-0.1-0.1v0.2v0.1l-0.1,0.1l-0.1-0.1h-0.1l-0.1,0.1h-0.1l-0.1-0.1H383v0.1l-0.1,0.1h-0.2l-0.1-0.1h-0.1h-0.3l-0.1-0.1
	L382,430l-0.2,0.1h-0.4l-0.1-0.2L381,430l-0.3-0.1l0.1-0.2v-0.1l-0.1,0.1l-0.2,0.2h-0.3l-0.2,0.2l-0.3,0.1l-0.3-0.1h-0.2l-0.1-0.1
	l0.1-0.2l-0.1-0.2l0.1-0.2h0.2l0.3-0.3l0.4-0.2l0.2-0.3l0.3-0.4l0.2-0.2h-0.3l-0.4,0.1l-0.2,0.1h-0.1l0.2-0.4l0.4-0.2l0.2-0.2
	l0.1-0.1l-0.1,0.1l-0.2,0.1v0.1l0.1,0.2l0.1-0.2v0.2h0.1l0.1-0.2l0.2-0.3l0.2-0.2V427l0.1-0.1l0.3,0.1l0.2-0.1v-0.2l0.1-0.1
	l-0.1-0.1h-0.2v-0.1l0.1-0.2l0.3-0.1h0.1l0.1,0.1h0.1V426l-0.1-0.1v-0.2l0.3-0.5V425l0.2-0.3h0.2l0.2-0.1l-0.1-0.1h-0.1v-0.1
	l0.1-0.2h0.2l0.1-0.1l-0.1-0.1v-0.2h0.1l0.1-0.1v-0.1l0.2-0.1l0.3-0.2l0.1-0.2V423l-0.1-0.1v-0.1h0.1h0.2v-0.2l0.3-0.2l0.2-0.2h0.3
	l0.2-0.1l0.1-0.1h0.2l0.2-0.2l0.1-0.1v0.1v0.2h0.1v-0.1l0.2-0.1h0.2v0.4l-0.1,0.2l-0.1,0.1l-0.2-0.1l-0.2-0.1h-0.2l-0.1,0.1l0.1,0.1
	v0.2l0.1-0.1h0.1l0.1,0.1l-0.1,0.2l-0.3,0.3l-0.2,0.3l-0.1-0.1v-0.1v-0.2l-0.1,0.2l-0.1,0.2v0.1v0.1l-0.2,0.1l-0.1,0.2l-0.2,0.1
	l-0.1,0.3l-0.1,0.1l-0.1,0.1v0.1l-0.2,0.2l-0.1,0.3v0.1l-0.1,0.2v0.2v0.2l0.2-0.2l0.2-0.1l0.1-0.2l0.2-0.1l0.2-0.2l0.1-0.2l0.2-0.1
	h0.2v0.1L385,425l-0.1,0.3l0.1-0.1h0.1l0.2,0.2l0.2,0.1l0.3-0.1h0.1v0.1l-0.1,0.2l-0.2,0.1l-0.1,0.1h-0.3l-0.2,0.2l-0.1,0.2l0.2-0.2
	h0.1h0.1l-0.1,0.2l-0.2,0.3l-0.3,0.2v0.1h0.1l0.2-0.2h0.1l0.1,0.2h0.1l0.3-0.2h0.2v0.1v0.2l-0.1,0.1l0.1,0.1l0.2-0.2l0.1-0.2
	l0.2-0.1h0.1l-0.2,0.3l-0.1,0.4l-0.2,0.2l0.2-0.1v-0.3l0.2-0.1l0.1,0.1l0.2-0.1l0.1-0.1l0.1,0.1l0.2-0.1l0.1-0.2l0.2-0.2h0.1
	l-0.1,0.2l-0.1,0.2l0.1,0.1v0.3l-0.1,0.1l0.2-0.1l0.1-0.2l0.1-0.2v-0.2h0.1l0.3-0.1h0.3l0.3,0.2l0.2,0.1v0.2l-0.1,0.1v0.2l-0.2,0.1
	h-0.1l-0.1,0.1l-0.2,0.1l-0.3,0.1l-0.1,0.1h-0.3h0.3l0.2-0.1h0.1v0.2l-0.1,0.2l0.1-0.1l0.1,0.1l-0.1,0.2l-0.1,0.1l0.1,0.1l-0.1,0.1
	l-0.2,0.2l-0.2,0.1h0.2l0.1-0.1v0.2l-0.1,0.1l0.1-0.1V429l0.1-0.1l0.2-0.1h0.1l0.1-0.1v-0.2v-0.1h0.2v0.1l0.2-0.1l0.2-0.2l0.1,0.2
	v0.2l-0.1,0.2l-0.3,0.2l-0.1-0.1H388l-0.1,0.3l-0.2,0.2l-0.1,0.1h-0.3l-0.1,0.1v0.2l0.1,0.1l0.2,0.1h-0.2h-0.2l0.2,0.1h0.1l-0.2,0.3
	h-0.1l-0.1-0.2v0.2l0.1,0.2v0.2l0.2,0.2l0.2-0.1v-0.1l0.3-0.2v-0.2l0.2-0.2h0.2l0.2-0.1h0.1l0.1-0.1l0.1,0.2l-0.1,0.1h-0.1l-0.2,0.2
	l-0.1,0.1l-0.3,0.2v0.2v0.2l0.1,0.2h0.1l0.2-0.2l0.2-0.1l0.1-0.2V430h0.1v0.2v0.5L388.8,430.9z M387.3,426.2l-0.1-0.3v-0.1h0.1
	l0.1,0.1l0.1-0.1l0.1,0.1v0.1l-0.2,0.1C387.5,426.2,387.3,426.2,387.3,426.2z M386.6,426.4l-0.1-0.1v-0.1l0.1-0.1l0.2,0.1h0.1
	l0.1-0.2v-0.1h0.1v0.2l-0.1,0.2L386.6,426.4z M386.8,421.2l-0.2,0.1l-0.1-0.1l0.1-0.3l0.2-0.2v0.2V421.2z M314.7,472.9v0.2l-0.1,0.3
	L314.7,472.9z M314.7,472.7v-0.2h0.1L314.7,472.7L314.7,472.7z M314.9,472.1l-0.1,0.2h-0.1v-0.2H314.9z M315.5,469.5v-0.7l0.3-0.7
	l-0.2,0.7L315.5,469.5l0.2,0.6L315.5,469.5z M315.8,467.9l0.2-0.6v0.2l-0.1,0.4H315.8z M316.3,467l-0.1,0.1l0.4-0.6l0.3-0.2
	l-0.2,0.3L316.3,467z M294.2,471.6l0.1-0.1l0.2,0.2v0.2l-0.2,0.1l-0.1-0.3V471.6z M294.6,473v-0.2h0.2v0.2H294.6z M286.2,422.5
	L286,422v-0.4l0.3-0.3l0.1,0.1l-0.2,0.1l-0.1,0.3L286.2,422.5L286.2,422.5z M282.2,410.9l0.2-0.3l0.4-0.1v0.2l-0.5,0.4h-0.2
	l-0.3,0.3h-0.2l0.4-0.5H282.2z M258,380.5l-0.4,0.3h-0.3l0.4-0.5h0.2L258,380.5z M243.6,383h-0.1l-0.1-0.1l0.3-0.1L243.6,383z
	 M243.4,382.5v0.2l-0.4,0.4l-0.2,0.1l-0.2-0.1v-0.3l0.4-0.2L243.4,382.5z M249.8,365.7l-0.1,0.2h-0.2l-0.4-0.4l0.1-0.1h0.4
	L249.8,365.7z M352,367.6l-0.2,0.1l-0.1-0.1l0.1-0.1h0.2l0.1,0.1l-0.1,0.2V367.6z M352.5,369.2L352.5,369.2l0.2,0.1v0.4l-0.1,0.1
	l-0.1-0.1v-0.1l-0.1-0.2L352.5,369.2z M352.8,369.6v-0.4l0.2-0.1l0.1,0.1v0.2H353L352.8,369.6z M349.2,416.7v-0.1h-0.3l-0.1-0.1
	l0.3-0.4h0.3v-0.2l0.2-0.1h0.3l0.1,0.1h0.3l0.4,0.3l0.1,0.3l0.1,0.1l-0.1,0.2l-0.7-0.1l-0.3-0.2h-0.3v0.2v0.1L349.2,416.7z
	 M358.5,394.2l-0.1,0.1v0.1l-0.1,0.1h-0.1l-0.1-0.2l-0.1-0.1l-0.1-0.2h-0.2l-0.1-0.1l0.1-0.2v-0.3l0.1-0.2l0.2-0.1l-0.1-0.2l0.1-0.3
	l0.2-0.2h0.1l0.3-0.3l0.1-0.2h0.1l0.2,0.2h0.1l0.2-0.1l0.1,0.1v0.2l0.1,0.2l-0.1,0.2l-0.1,0.2v0.2v0.1l-0.1,0.1H359l-0.2,0.3
	l-0.3,0.2l-0.1,0.1l0.1,0.1V394.2z M353.3,391.4l0.6-0.1l0.1-0.2V391l0.3-0.4l0.3-0.1l0.1-0.1l0.1,0.3l0.2,0.1l0.2-0.2l0.2-0.1
	l0.1,0.1l0.2-0.1h0.2l0.1,0.1h0.3l0.1,0.1l-0.2,0.3v0.2l-0.4,0.3h-0.3l-0.2,0.4l-0.3,0.2l-0.2,0.1l-0.4,0.4h-0.2v-0.2h-0.1h-0.2
	l-0.3,0.3l-0.1,0.1l-0.1-0.1v-0.3l0.1-0.2l-0.1-0.3l-0.1-0.1L353.3,391.4z M353.3,408.7l0.1-0.3h0.2l0.1-0.1h0.1l0.2-0.1l0.1-0.1
	l-0.2,0.4l-0.4,0.3L353.3,408.7L353.3,408.7z M355,407.7L355,407.7l0.1,0.1l-0.1,0.1V407.7z M355.5,408.6L355.5,408.6l0.1,0.3
	l-0.2,0.2h-0.1l0.2-0.3V408.6z M353.7,409.6h-0.1l-0.1-0.2l0.2-0.3v-0.2l0.3-0.3l0.2-0.4l0.2-0.1l0.1,0.1l-0.1,0.3l-0.2,0.2
	l-0.1,0.2l0.2-0.2l0.2-0.2l0.1-0.4l0.1-0.2l0.2,0.1v0.2h0.1l0.1,0.1l-0.1,0.3l-0.1,0.1l-0.4,0.4l-0.2,0.1l0.1-0.2l0.4-0.5v-0.2h-0.1
	l-0.1,0.2l-0.4,0.5l-0.2,0.3h-0.2l-0.2,0.1h-0.1l0.2-0.3l0.1-0.2h-0.2L353.7,409.6z M354.4,409.2l0.2-0.3l0.2-0.4l-0.4,0.4
	L354.4,409.2L354.4,409.2z M351.7,415.4L351.7,415.4l0.2-0.1v0.4l-0.1,0.1l-0.1-0.1V415.4z M352.1,418.5l0.1,0.2l-0.4,0.2l-0.2-0.1
	l0.1-0.2l0.2-0.1H352.1z M355.7,381.7l-0.2,0.5l-0.2,0.1V382l-0.1-0.2l0.1-0.2v-0.4l0.1-0.2h0.2l0.1,0.3l-0.1,0.1v0.2L355.7,381.7z
	 M356.5,381.2v-0.4l0.1-0.1l0.1,0.3l0.3,0.1l0.1,0.2l0.2,0.1v0.4l0.3,0.2h0.2v0.3l-0.3-0.1l-0.2,0.1v-0.2l-0.2-0.2l-0.3-0.2v-0.2
	l-0.1-0.3L356.5,381.2z M358.2,380.6L358.2,380.6h0.2l0.2,0.1v0.1h-0.2L358.2,380.6z M359.4,388.3l-0.1,0.1H359l-0.2,0.3l-0.2,0.1
	l-0.2,0.4l-0.1,0.1L358,389h-0.2l-0.2-0.2h-0.3l-0.1-0.2H357l-0.1-0.1h-0.2l-0.1,0.1l-0.2-0.1v-0.4l0.2-0.1l0.2-0.3l-0.1-0.2
	l-0.2-0.1h-0.4l-0.2-0.2l0.1-0.2l0.2-0.2v-0.2l-0.2-0.1l-0.2,0.1l-0.1,0.2l-0.1-0.1h-0.2l-0.1,0.2l-0.3,0.2v0.4l-0.1,0.4h-0.2
	l-0.2,0.1l-0.2,0.2l-0.1-0.1h-0.1l-0.2,0.2l-0.2,0.2l-0.1,0.3l-0.3,0.2h-0.2l-0.2,0.1l-0.1,0.1h-0.3l-0.2,0.1h-0.2l-0.1-0.1
	l-0.2,0.1l-0.1-0.1v-0.4l0.2-0.2l-0.1-0.2l0.2-0.3v-0.2l-0.2-0.1h-0.1l-0.1,0.1h-0.2l-0.2-0.1l-0.1-0.1l-0.1,0.1l0,0.2h-0.1
	l-0.1-0.3l0.2-0.5v-0.3l0.5-0.2h0.4l0.2-0.2V386l0.1-0.2v-0.4l0.1-0.3l0.4-0.3v-0.2l0.1-0.3l0.2-0.1l-0.1-0.2l0.3-0.5v-0.2l0.2-0.3
	v-0.2l0.3-0.4l0.2-0.6l0.3-0.3l0.6-0.2l0.1,0.1l-0.2,0.3v0.2l0.3-0.1l0.1,0.3l-0.1,0.2l0.1,0.2h-0.2h-0.2v0.2l0.1,0.3v0.4l0.1,0.1
	l0.2-0.1l0.1-0.3l0.3-0.3h0.1l0.1,0.2l0.2,0.2v0.2l-0.1,0.2l0.1,0.3l0.5,0.2h0.4l0.1,0.2l-0.1,0.4l0.1,0.2h0.2l0.1,0.4v0.1l0.4,0.2
	l0.4,0.5v0.2l0.2,0.2v0.2l-0.1,0.2v0.3l0.1,0.1v0.2l-0.2,0.2h-0.2l-0.3,0.2l0.2,0.2h0.5l0.2-0.2l0.1-0.1v0.2l0.3,0.1l0.1,0.1
	l0.1-0.1v-0.2l0.1-0.1l0.1,0.2l0.2,0.1L359.4,388.3l-0.3,0.1l0.1,0.2L359.4,388.3z M361.3,392.1L361.3,392.1h0.4c0,0-0.1,0.1,0,0.1
	h-0.3L361.3,392.1z M370.4,402.4L370.4,402.4L370.4,402.4L370.4,402.4z M370.5,402.5L370.5,402.5v-0.2V402.5z M370.7,402.3l0.1,0.3
	v0.3h-0.1v-0.1l-0.1-0.3L370.7,402.3z M386,418.5l-0.2,0.2l0.5,0.1l-0.1,0.3l-0.2,0.1l-0.1,0.3l-0.2,0.1l-0.4-0.2l0.2,0.2l0.4,0.2
	h0.3l0.2,0.2l-0.2,0.1h-0.3h-0.2l0.2,0.2l0.3-0.1l0.2,0.1l-0.2,0.3v0.3H386l-0.1,0.2l-0.4,0.3h-0.4l-0.3,0.3h-0.1l-0.2,0.2h-0.2
	l-0.1,0.2h-0.3l-0.2-0.2l-0.2,0.1h-0.2l-0.3,0l-0.3,0.2h-0.4l-0.1-0.2l-0.1,0.1v0.2l-0.3,0.1h-0.3l-0.1,0.1h0.1v0.2l-0.2,0.2h-0.2
	v0.3l-0.2,0.4h-0.2l-0.1,0.1l-0.3,0.1l-0.2,0.3H380l-0.2,0.1h-0.3l-0.1,0.2l-0.3,0.1l-0.2-0.1h-0.5l-0.1-0.1l-0.4,0.1h-0.2l-0.7,0.2
	l-0.3-0.1l0.1-0.2l-0.2-0.1l-0.3,0.1h-0.2l-0.5-0.2h-0.1h-0.4l-0.3-0.2h-0.2l-0.2,0.2h-0.5l-0.4-0.2l-0.2,0.2H373l-0.2-0.2l-0.4,0.2
	l-0.2-0.1H372l-0.5-0.2l-0.6,0.1l-0.4-0.1l-0.3-0.3l-0.2,0.1l-0.2,0.2l0.1,0.1l-0.1,0.1l-0.3,0.1l-0.6,0.5l-0.4,0.2v0.2l-0.1,0.2
	v0.4l-0.2,0.3h-0.5l-0.2,0.1H367l-0.2,0.4h-0.2l-0.1-0.1l-0.3,0.2l-0.1,0.3l-0.3,0.1l-0.3,0.2l-0.1,0.2l-0.2,0.1l-0.4,0.6l-0.6,0.3
	l-0.2,0.5l-0.4,0.2l-0.4,0.4l-0.3,0.1l-0.1,0.4l-0.2,0.3l-0.7,0.4v0.2l-0.8,0.4l-0.5,0.1h0.4l0.8-0.4l0.7-0.3l0.5-0.3l0.4-0.5
	l0.4-0.4l0.3-0.1l0.8-0.7l1.1-0.7l0.7-0.5l0.5-0.1l0.4-0.2l0.8-0.1l1-0.3h0.3l0.3-0.2h1.1l0.6,0.2l0.6,0.4v0.1l-0.5-0.1v0.1v0.1h0.2
	l0.3,0.1l0.1,0.2l-0.2,0.1l0.1,0.1l-0.2,0.5l-0.3,0.1l-0.3,0.3h-0.2l-0.4,0.3h-0.3l-0.3-0.2l-0.3-0.1l-0.2,0.1l-0.3,0.1l-0.3-0.1
	l-0.4,0.2l0.4-0.1h0.4l0.6,0.2l0.1,0.3l0.1,0.2l0.4-0.2l0.3-0.2h0.3l0.1,0.1h0.2l0.1,0.2l-0.3,0.2l-0.4,0.8h-0.2l-0.2,0.2h0.6v0.1
	l-0.2,0.3l0.2,0.2v0.3v0.4l0.1,0.1l0.2,0.4h0.3l0.1,0.1h0.5l-0.1,0.2l-0.4,0.1l0.4,0.3h0.5l0.3,0.1l0.1-0.1l0.4,0.2l0.1,0.2l0.5,0.1
	l0.1-0.1l0.5-0.3v0.3l-0.1,0.1l0.4,0.1l0.5,0.3v0.2l-0.2,0.1h-0.1l0.3,0.2h0.3l0.1,0.2l-0.2,0.1l-0.2-0.1h-0.3l-0.5,0.1l-0.7,0.4
	h-0.3l-0.5,0.1l-0.5,0.1l-0.5,0.3h-0.2v0.1h-0.4l-0.1-0.3h-0.1l-0.1,0.2h-0.2l-0.2,0.4l0.1,0.2l-0.5,0.4l-0.4,0.6l-0.3,0.1l-0.4,0.3
	h-0.2l-0.1,0.1v0.3L369,438l-0.2-0.1l-0.2,0.1l-0.2-0.2v-0.4l-0.2-0.1l-0.2,0.1v-0.3l-0.1-0.3v-0.4l0.2-0.5l0.4-0.3l0.1-0.2l0.6-0.3
	l0.7-0.2l0.5-0.4l0.5-0.1l0.2,0.1l0.1,0.3l0.2,0.1v-0.1v-0.2l0.3-0.1l0.4-0.1l0.4-0.2H372l-0.7-0.1l-0.2-0.1h-0.3l-0.2,0.3l-0.4-0.1
	l0.3-0.4l0.3-0.1l0.3-0.3v-0.2l-0.2,0.1v-0.2l-0.3,0.5l-0.3,0.1L370,434h-0.4l-0.1,0.2l-0.7,0.2l-0.1-0.1l0.1-0.2h-0.1l0.2-0.3
	l-0.3,0.3l-0.2,0.3l-0.4,0.1l-0.2-0.1l-0.2,0.2h-0.2l-0.1-0.2h-0.4l-0.5-0.1l0,0l0.6,0.3l-0.1,0.4l0.2,0.2l0.1-0.2l0.3,0.2l-0.2,0.3
	H367l-0.1-0.2l-0.4,0.2h-0.2l-0.3,0.2l0,0.3l-0.2-0.1l-0.3,0.4h-0.2l-0.1-0.4h-0.4l-0.3,0.3h-0.3l-0.1-0.2l0.1-0.3l-0.4,0.5
	l-0.3,0.5l-0.2,0.1l-0.1-0.1l-0.2,0.4h-0.2v-0.3l-0.2,0.3l-0.1,0.2l-0.2-0.1V437l-0.2,0.3H362l-0.2,0.4l-0.6,0.5l-0.2,0.6l-0.2,0.2
	l-0.1,0.2l-0.2,0.1v0.2h0.2v0.2l-0.6,0.5v0.1l0.4,0.2l0.2,0.5v0.3h0.5l0.1-0.4v-0.3h0.1l0.1,0.5l-0.2,0.3l-0.7,0.4l-0.2-0.1v-0.2
	l-0.1-0.3l-0.3,0.5l-0.3,0.3h-0.2v-0.2v-0.3l-0.3-0.3v0.4v0.4l0.1,0.1l-0.2,0.1h-0.6l-0.4,0.1l-0.3-0.1h-0.6l-0.1-0.1h-0.2l-0.5,0.4
	h-0.3l-0.5,0.3l-0.3,0.1l-0.3,0.2v0.2l-0.4,0.2l0.1,0.2l0.2,0.2v0.2l-0.2,0.2v0.1l-0.1,0.3v0.1l-0.1,0.2l-0.1,0.3h-0.1l-0.2,0.2
	L354,446l-0.2,0.1l-0.1,0.2h-0.1v0.2l-0.2,0.3v-0.1l-0.2,0.2l0.2-0.4l-0.1-0.1l-0.2,0.1l-0.4-0.4l-0.1-0.2l0.1-0.2l0.5-0.5l-0.3,0.2
	l-0.3,0.3l-0.1,0.3v0.3l0.1,0.2v0.4l0.2,0.2l0.2,0.5v0.4l-0.3,0.6l-0.4,0.2l-0.2,0.6l-0.2,0.3v0.2l-0.1,0.1v-0.1v-0.1l-0.3,0.6v0.1
	l-0.1,0.1v-0.3l0.1-0.3l0.2-0.3v-0.2l0.2-0.2l-0.1-0.1l0.3-0.1h-0.4l-0.1-0.2l0.1-0.1v-0.1h-0.1v-0.1l-0.1,0.1l-0.3-0.3v-0.3
	l0.2-0.3l0.1-0.4l-0.2-0.4l0.2-0.3l0.3-0.2l-0.1-0.1l0.1-0.3l-0.1-0.1v0.1l-0.1,0.3l-0.3,0.2l-0.2,0.1H351l0.1,0.2l-0.1,0.2v0.5
	l0.1,0.2v0.2v0.3v0.6H351l-0.4-0.4h-0.3l-0.2-0.3H350l-0.1-0.2l0.1-0.3l-0.2,0.3v0.3l0.2,0.1l0.2,0.3l0.4,0.1l0.4,0.4l0.2,0.1v0.3
	l-0.1,0.3h-0.2l-0.1-0.3l-0.1-0.1l0.1,0.4l0.3,0.2l0.1,0.2l-0.1,0.1v0.1l-0.3-0.1l0.4,0.3l-0.1,0.2l-0.2-0.1l-0.2-0.3h-0.4l-0.3-0.1
	l0.2,0.3l0.3,0.1h0.2l0.1,0.4l0.3,0.1l0.2-0.1l0.1,0.1l0.1,0.3l-0.1,0.3l-0.2-0.1v0.2l0.1,0.1l0.1,0.3l-0.1,0.2h-0.2l-0.1,0.1
	l-0.4,0.1l-0.2,0.1l-0.2-0.1l-0.2-0.3l-0.1,0.1v0.5l-0.1,0.2l0.3-0.1l0.6-0.1l0.1,0.1v0.5l0.2,0.1v-0.2l0.2-0.3h0.1l0.1,0.3
	l-0.1,0.3h-0.1l-0.3,0.3l-0.1,0.2l-0.1,0.1l-0.2-0.1h-0.2l-0.1-0.3v0.2l-0.2,0.1l-0.2-0.1h-0.2l0.2,0.2l0.4,0.1l0.1,0.2l-0.2,0.1
	l0.1,0.1l-0.4,0.2l-0.3-0.1l0.2,0.2h0.4l0.3-0.3l0.1,0.1h0.1l-0.3,0.3H350v-0.1h-0.2l-0.1,0.1h-0.4l-0.7,0.4l-0.8,0.6l-0.3,0.5h-0.1
	l-0.2-0.1l-0.5,0.1l-0.3,0.3l-0.6,0.8v0.2l-0.2,0.2h-0.2v0.2l-0.3,0.3l-0.2-0.1h-0.2l-0.1,0.1h-0.3l-0.2,0.2l-0.5,0.1l-0.1,0.2h-0.3
	l-0.1,0.2h-0.4l-0.1,0.1l0.1,0.1v0.3l-0.2,0.3h-0.1l-0.1,0.2l-0.3,0.1l-0.3,0.4l-0.2,0.5v0.5l-0.1,1v0.4l-0.1,0.7l0.2,0.4l0.1,0.7
	l0.1,0.3l0.2,0.8l0.2,0.3l0.1,0.3l-0.1,0.4v0.5l0.1,0.2l0.2,1l0.3,0.2l0.1,0.5l-0.2,0.2l0.1,0.1l-0.1,0.6l-0.1,0.1v0.3l-0.3,0.6
	l-0.1,0.4l-0.2,0.3v0.4l-0.3,0.1l-0.3,0.1l-0.3-0.1l-0.1-0.2l-0.3-0.1l0.2-0.1l-0.4-0.3v-0.3l-0.1-0.2H340l-0.1-0.1v-0.4v-0.3
	l-0.4-0.3v-0.2l0.1-0.1l0.1-0.3l0.2-0.2l-0.3,0.1l-0.1-0.1v0.1l-0.1,0.1l-0.1-0.3h-0.1l-0.1-0.2l-0.2-0.2V469l-0.1-0.2l0.4-0.5V468
	l-0.2-0.1l-0.1,0.1l0.1,0.1l-0.2,0.3l-0.1,0.1l-0.2-0.3V468l0.3-0.6l0.2-0.7v-0.4l-0.2-0.4h-0.2l-0.1-0.2v-0.1h-0.1l-0.2-0.2v-0.3
	h-0.1l-0.2-0.2l-0.2-0.5l-0.4-0.1l-0.2-0.1l-0.3,0.1l-0.2,0.2v0.1l-0.1,0.1l-0.1-0.1L336,465h-0.3l-0.5,0.1l-0.1-0.1v-0.1v0.1h0.1
	l-0.1-0.1l-0.2-0.2l-0.4-0.3h0.1l0.2,0.1l0.1-0.1l-0.3-0.2l-0.1-0.2h-0.1v0.1l0.2,0.2l-0.2-0.1l-0.2-0.2h-0.4l-0.4-0.1l0.1-0.1h0.4
	l0.2-0.1l-0.1-0.1h-0.3l-0.3,0.2l-0.1-0.1l-0.5,0.1l-0.2-0.1l-0.2,0.1H332l-0.2,0.1l-0.3-0.3v-0.2v-0.2h-0.2l-0.1,0.3l-0.1,0.2h-0.2
	l-0.2,0.1l-0.4-0.1l-0.9,0.2l-0.3,0.2l-0.5,0.2l-0.3,0.3v0.2l0.2-0.1l0.2-0.2h0.1l0.1,0.1l0.3,0.1l-0.1,0.1l-0.5,0.2v0.3l0.1,0.2
	l0.5,0.2l0.4,0.3v0.1l-0.2,0.1l-0.1,0.2v-0.3l-0.2-0.1h-0.2l-0.2-0.2l-0.2-0.1l-0.2-0.3H328l0.1,0.3v0.4l-0.2,0.1l-0.1-0.2l-0.3-0.2
	l-0.2,0.2l-0.2,0.2l-0.4-0.1l-0.2-0.1h-0.3l-0.2-0.1l0.1-0.2l0.2-0.2l-0.1-0.2h-0.3l-0.1-0.1V464l-0.1-0.1l-0.2,0.1l-0.2-0.1
	l0.1-0.2l-0.2-0.1l-0.3,0.1v0.2l0.1,0.2h-0.3l-0.9-0.1l-0.1-0.1l-0.7-0.2h-0.4l-0.5,0.1L321,464h-0.2l-0.3,0.4h-0.4l0.1-0.3
	l-0.1-0.2l0.2-0.2l-0.1-0.3v0.2l-0.3,0.3h-0.2l-0.2-0.2l0.2,0.5v0.3l0.1,0.3l-0.2,0.2h-0.2l-0.5,0.5l-0.7,0.3H318l-0.3,0.2h-0.2
	l0.3-0.2l-0.2-0.2l-0.1,0.1l-0.1-0.1l-0.3,0.2l0.2,0.2l-0.3,0.1l-0.2-0.1v0.4l-0.3,0.1l-0.2-0.1l-0.3,0.4l0.2,0.2l-0.3,0.2l-0.2,0.1
	l0.1,0.6l-0.2,0.3l-0.1,0.5l-0.2,0.4l0.1,0.2v0.7l0.1,0.2l-0.1,0.3l-0.2,0.5l-0.1,0.2l0.3-0.2l0.1-0.5l0.2-0.2v0.2v0.4l-0.1,0.1
	l-0.1,0.4l-0.2,0.3v0.3h-0.2l0.1-0.2v-0.3h-0.3v0.4l-0.2,0.2l0.2,0.2l-0.1,0.1l-0.1,0.4l-0.2,0.2v0.4l0.1,0.1l-0.1,0.2v0.2l-0.2,0.8
	l0.1,0.5l-0.1,0.7l-0.2,0.3l0.1,0.2l0.1,0.6v0.3l0.4,0.6v0.5l-0.1,0.1v-0.6l-0.4-0.5v0.3l0.2,0.2l0.2,0.6l0.1,0.2l-0.1,0.2l0.2,0.3
	l0.1,0.3l0.9,0.9l0.1,0.3l0.3,0.4v0.2l0.1,0.3l0.7,0.8l0.2,0.2h0.1h0.4l0.1,0.1l0.5,0.2l0.4,0.5l0.1,0.4l0.4-0.2l0.5-0.1l0.1,0.2
	h0.2l0.7-0.4l0.1-0.1h0.6h0.4l0.3-0.2h0.4l0.3,0.1l0.1-0.2l0.4,0.1l-0.3,0.2l-0.1,0.2l0.4,0.2l0.2,0.2l0.1-0.2h0.2l0.3-0.4v-0.5
	l0.1-0.3l-0.3,0.2l-0.1-0.1l0.7-0.4l0.2-0.1l0.3-0.4v-0.5l0.6-0.6v-0.1v-1l0.6-0.7H326v0.3l1-0.2h1.3l0.2-0.3h0.4l0.1,0.1l0.4-0.2
	v-0.2h0.6l0.7,0.2l0.2-0.1l-0.1-0.2h0.3l0.5,0.6v0.3l-0.2,0.4L331,480l-0.7,0.6l-0.1,0.2v0.4l-0.3,0.2l-0.1,0.1l0.2,0.2h0.3
	l-0.1,0.2l-0.4,0.4v0.1l0.1,0.1l0.2-0.2h0.1l-0.2,0.3l-0.2,1l-0.3,0.5l-0.1,0.1l-0.1-0.3l-0.4-0.2v-0.1l0.1-0.1v-0.3l-0.2,0.1
	l-0.3,0.4l-0.3,0.2l0,0l0.1,0.1l0.2-0.1h0.2v0.2v0.2v0.8l-0.2,0.3l-0.1,0.5l0.2,0.2v0.5l-0.2,0.4l-0.4,0.6l-0.2-0.1l-0.3,0.3
	l-0.1,0.3l0,0l0.1,0.2h0.2l0.2,0.2l0.1-0.2h0.3l0.1,0.1l0.2,0.2l0.4-0.2h0.9l0.7,0.1l0.5-0.1l0.3,0.1l0.2-0.1l0.2-0.1l-0.1-0.1
	l0.1-0.2l0.3,0.2l0.4,0.3h0.7l0.7,0.1l0.2,0.1l0.1-0.2l0.2,0.1l0.3-0.1h0.3l0.4,0.2l0.3,0.2h-0.1l-0.4-0.1l-0.2-0.1h-0.1v0.1
	l-0.2,0.1l-0.1,0.1h0.3h0.3l0.2,0.1h0.4h0.3l-0.1-0.3v-0.1l0.3,0.1l0.4,0.3l0.1,0.2l-0.1,0.1l-0.1,0.1l-0.1,0.2v0.4v0.3l-0.1,0.2
	v0.1l0.2,0.1v0.2l-0.1,0.2l-0.3,0.3l-0.1,0.4l-0.1-0.1h-0.1l-0.1,0.1v0.2h0.1l0.1,0.2l-0.1,0.2v0.7l-0.1,0.6l-0.1,0.2h-0.1v-0.3
	c0-0.1,0-0.2,0-0.2l0.1-0.1h-0.1l-0.2,0.5v0.2v0.2l-0.1,0.3l-0.1,0.2v0.2l0.2-0.1v-0.1l0.1-0.2v0.3l-0.1,0.2l-0.2,0.4l0.1,0.3
	l0.2,0.2v0.2l-0.1,0.1l0,0l-0.1,0.1h0.3v-0.1h0.1l0.1,0.3v0.3l0.2,0.3l0.3,0.3l0.1,0.3l0.2,0.2l0.2,0.1l0.2,0.2v0.1l0.1,0.2l0.2,0.2
	l0.2,0.1h0.1l0.1,0.1h-0.1l-0.1,0.1l0.1,0.1l0.3,0.1h0.2v-0.2l-0.2-0.1l0.1-0.1l0.4,0.2l0.5,0.4h0.5h0.3l0.3-0.3l1-0.5l0.5-0.1
	l0.4-0.3h0.2l0.2,0.1l0.1,0.1l0.2,0.1h0.7l0.4,0.1l0.7,0.4l0.3,0.3l0.1,0.2l0.2,0.1l0.1,0.1l-0.1,0.3l0.1,0.2l0.1,0.4l-0.2,0.4
	l-0.1,0.4l-0.2,0.2h-0.2l-0.2,0.5l-0.3-0.3l-0.4-0.5l-0.1-0.4l0.1-0.1l0.3-0.4h0.2l0.1-0.1l-0.1-0.2h-0.2l-0.2,0.2l-0.1,0.1
	l-0.2-0.1l-0.1-0.3l-0.3-0.4h-0.2l-0.3-0.3l-0.2-0.1h-0.4l-0.5,0.2v0.3l0.1,0.1v0.1l-0.4,0.4l-0.5,0.1l-0.3,0.1l-0.1,0.2l0.1,0.3
	l0.3,0.2l0.2,0.2v0.3l-0.2,0.1h-0.3l-0.2,0.2l-0.2,0.3l-0.4-0.1l-0.1-0.2l0.1-0.2l-0.1-0.3l0.1-0.2l-0.1-0.1h-0.2l-0.1,0.2l0.1,0.1
	l-0.1,0.2h-0.3l-0.2-0.1l-0.2-0.4l-0.1-0.4l-0.6-0.1l-0.2-0.1v-0.1l-0.1-0.1l-0.1,0.1l-0.3,0.1h-0.3h-0.2l0,0v0.2l-0.1,0.2h-0.2
	l-0.1-0.1H336l-0.1-0.1v-0.3l-0.3-0.3l-0.2-0.1l-0.1,0.1v0.1l0.3,0.1l0.1,0.2v0.3l-0.1,0.1l-0.2-0.2l-0.4-0.1l-0.1-0.2v-0.2l0.2-0.3
	L335,500l-0.3-0.4l-0.2-0.1l-0.3-0.2l-0.4-0.2l-0.1-0.3l-0.3-0.2v-0.3l-0.3-0.1l-0.3-0.2l-0.1,0.1l0.1,0.2l0.4,0.3l0.1,0.3l-0.2,0.3
	H333l-0.1-0.3l-0.2-0.2h-0.4l-0.4-0.4l-0.1-0.3l0.1-0.4l0.3-0.2l-0.1-0.3l-0.2-0.1l-0.1-0.1l0.1-0.1l0.1-0.4l0,0l-0.1-0.1h-0.2
	l-0.7-0.8l-0.4-0.5l-0.5-0.4v-0.2l-0.3-0.2l-0.6-0.7l0.1-0.1l0.3,0.1h0.1v-0.2l0,0l-0.1-0.2v-0.2l-0.1-0.1l-0.1,0.1h-0.1l-0.1-0.1
	l-0.2-0.1l-0.1,0.1l0.1,0.1l-0.2,0.3h-0.7l-0.2-0.1l-0.2-0.3h-0.3l-0.1,0.1l0.2,0.1l-0.1,0.1l-0.5-0.3l-0.5-0.2h-0.2l-0.4-0.1
	l-0.2-0.2H325h-0.1l-0.6-0.2h-0.4h-0.5l-0.8-0.3l-0.2-0.3h-0.2l-0.2-0.3l-0.3-0.3l-0.2-0.3l-0.4-0.3v-0.2l-0.3-0.1l-1.1-0.9
	l-0.1-0.2V488l-0.3-0.3l-0.3-0.2l-0.3-0.1l-0.1-0.1h-0.1v0.1l0.5,0.2l0.4,0.4v0.1l-0.2-0.2l-0.5-0.3l-0.3-0.1h-0.2l-0.1-0.1l0.1-0.1
	h0.2v-0.1H318l-0.2,0.1v-0.2l-0.1-0.1l-0.4,0.2v0.1h0.3h0.3v0.1h-0.2h-0.4l-0.3,0.1l-0.4,0.3h-0.3l-0.8,0.3h-0.3l-0.8-0.3l-0.4-0.2
	h-0.5l-0.6-0.2l-0.3-0.2h-0.1h-0.3l-0.4-0.2l-0.2-0.4l-0.1-0.1l-0.2,0.1l-0.4-0.2h-0.4l-0.2-0.3l-0.4-0.2l-0.8-0.1l-0.7-0.3
	l-0.5-0.5h-0.2l-0.8-0.7l-0.1-0.2h-0.2l-0.1,0.1h-0.2l-0.6-0.2h-0.2l-0.3-0.1h-0.1l-0.3-0.1l-0.2-0.3l-0.3-0.4l-0.4-0.4l-0.4-0.1
	v-0.1l0.1-0.2h-0.2l-0.3,0.1l-0.5-0.1l-0.1-0.2h-0.2l-0.1-0.1l-0.1-0.4l-0.3-0.4V481l-0.2-0.2l-0.2-0.6v-0.1l0.2-0.1h0.4l0.1-0.2
	l-0.2-0.2h-0.2v-0.2l0.4-0.3l0.2-0.3v-0.3l-0.3-0.9l-0.2-0.5l-0.1-0.2l0.1-0.3l-0.1-0.3l-0.6-0.7v-0.3l-0.5-0.5l-0.4-0.6l-0.5-0.6
	l-0.4-0.4l-0.1-0.1v-0.2l-0.5-0.2l-0.3-0.1v-0.1l0.2-0.1l0.1-0.3l-0.1-0.2l-0.1-0.3l-0.1-0.2h-0.2l-0.4-0.1l-0.6-0.5l-0.2-0.2h-0.3
	l-0.3-0.2v-0.3l0.2-0.4l0.3-0.3l0.2-0.1l0.2,0.2l0.1-0.1v-0.2l-0.1-0.1l-0.1,0.1l-0.2-0.1v-0.2l-0.3-0.3h-0.2l-0.3-0.1l-0.1-0.3
	l0.1-0.3l-0.2-0.1h-0.2l-0.5-0.5l-0.1-0.4l0.1-0.2v-0.4l-0.2-0.1l-0.2,0.1l-0.1-0.1h-0.2l-0.1-0.1l-0.2-0.2l-0.1-0.3l-0.2-0.4
	l-0.2-0.1l-0.1-0.1v-0.4l-0.1-0.2l-0.2-0.1L293,464l-0.1-0.2h-0.1l-0.1-0.2l0.1-0.1v-0.2l-0.4-0.5l-0.1-0.3l0.1-0.2v-0.4l-0.1-0.2
	l-0.1-0.5l-0.2-0.4v-0.3l0.2-0.2v-0.2l-0.3-0.2h-0.3l-0.1-0.2l-0.3-0.2l-0.1,0.1h-0.3l-0.2-0.2l-0.3-0.4l-0.4-0.2l-0.2-0.4l0.1,0.4
	l0.1,0.3l-0.1,0.5l-0.1,0.4l0.1,0.7v1.1l-0.1,0.3l0.2,0.2l0.2,0.5v0.3h0.2l0.1,0.2l0.4,0.3l0.1,0.4l-0.1,0.2l0.1,0.3l0.3,0.1
	l0.2,0.2v0.3l0.1,0.1h0.2l0.3,0.4v0.3v0.4l0.3,0.3h0.1l0.3,0.4l0.1,0.6h0.1l0.1,0.2l-0.1,0.2v0.2l0.3,0.4l0.1-0.1v-0.2v-0.1h0.1
	l0.1,0.2l0.2,0.3l0.1,0.6l-0.1,0.2v0.4l0.1,0.1v0.3l0.2,0.2v0.2l0.2,0.2v0.2l-0.1,0.2l0.2,0.3v0.3l-0.2,0.3v0.2l0.3,0.3l0.2,0.2v0.2
	l0.1-0.1v-0.2l0.1-0.1l0.1,0.1l0.2,0.2l0.1,0.2l0.2,0.1l0.1,0.3l0.1,0.1l0.1,0.3l0.2,0.1v0.4l-0.3,0.4l-0.5,0.2l-0.2-0.1l-0.1-0.3
	v-0.2l-0.2-0.1V474l-0.1-0.2h-0.3l-0.2-0.3l-0.1-0.2l-0.2-0.1l-0.7-0.7l-0.1-0.3l-0.3-0.1l-0.1-0.2h-0.1l-0.3-0.2v-0.2l0.3-0.4
	l0.1-0.5V470l-0.2-0.6l-0.2-0.2h-0.2l-0.2-0.1l-0.5-0.5l-0.1-0.5l0.1-0.3h-0.1l-0.3,0.3h-0.2l-0.2,0.1l-0.1-0.2v-0.1l-0.2-0.1h-0.2
	v-0.2l-0.4-0.2l-0.3-0.1L289,467v-0.3l-0.3-0.1l-0.3-0.4l0.1-0.1h0.4l0.2,0.1l0.4,0.1l0.2,0.1l0.1-0.2V466h-0.3v-0.1l0.2-0.2
	l0.2,0.1l0.1-0.2l-0.1-0.2v-0.2l0.2-0.2l-0.2-0.3l-0.1-0.1l-0.2-0.5L289,464l-0.1-0.2l-0.2-0.3l-0.4-0.4h-0.2l-0.3-0.3l-0.1-0.4
	v-0.5l-0.1-0.2l-0.2-0.2v-0.3l0.1-0.1v-0.3l-0.3-0.3l-0.1-0.2l0.1-0.1V460l-0.4-0.5l-0.1-0.3V459l0.1-0.1l-0.2-0.2l-0.2-0.3
	l-0.2-0.8v-0.4v-0.3l0.1-0.4l-0.1-0.5l-0.5-0.8l-0.4-0.4h-0.2h-0.2l-0.1-0.1v-0.3l-0.1-0.2l-0.4-0.1H284l-0.4-0.2v-0.3l-0.2-0.2H283
	h-0.2l-0.2-0.2l-0.3-0.1h-0.5l-0.2-0.1l-0.1-0.3h0.1l0.1-0.3l0.1-0.5l-0.1-0.3l-0.3-0.3v-0.1l0.1-0.1l-0.1-0.1l-0.2-0.3l-0.3-0.7
	l-0.1-0.5l-0.2-0.2v-0.2v-0.3l-0.1-0.3v-0.1h0.1l0.2-0.2V448l-0.2-0.2l-0.2-0.1l-0.1-0.3l-0.1-0.1v-0.2l0.1-0.3v-0.1l0.1-0.1v-0.2
	l0.1-0.2l0.1,0.1l0.1,0.3l0.3,0.1l-0.1-0.1l-0.1-0.2V446l-0.1-0.1v-0.2h0.1l0.1,0.1l0.3-0.1l0.3-0.1h-0.4l-0.1-0.1h-0.2v-0.1
	l-0.1,0.1l-0.2-0.1v0.4v0.3h-0.1h-0.1l-0.1-0.2l-0.4-0.3l-0.1-0.2l0.1-0.2v-0.3l-0.7-1l-0.1-0.2l0.1-0.2l0.1-0.2V443l-0.1-0.3v-0.1
	l0.2-0.3l0.1-0.4v-0.6l-0.2-0.6l-0.3-0.4v-0.4l0.2-0.4l0.5-0.3l0.2-0.4l-0.1-0.1v-0.2l0.2-0.2l0.2-0.3l0.1-0.6l-0.1-0.4v-0.2
	l0.1-0.2l-0.2-0.3v-0.4l0.2-0.6v-0.6l0.1-0.3l0.4-0.5l0.1-0.3l0.2-0.2l0.2-0.5l0.3-0.3l0.2-0.4l0.1-0.8l0.4-0.7l0.1-0.7l0.4-1
	l0.2-0.3l0.2-0.4v-0.2v-0.2l0.3-0.4v-0.2l0.1-0.1l0.2,0.1h0.5l0.2,0.2h0.2l0.3,0.2l0.1,0.4l-0.1-0.4l-0.2-0.2l-0.3-0.1l-0.3-0.2
	h-0.4l-0.4-0.1v-0.2l0.1-0.1h0.1l0.2-0.2v-0.3l0.1-0.2l-0.2-0.1l-0.1-0.1l0.1-0.2h0.2l0.1-0.2v-0.1l-0.2-0.1v-0.2l0.1-0.4l-0.1-0.4
	l0.2-0.8l-0.2-0.6v-0.3l0.2-0.6v-0.3h0.1l0.7,0.6l0.4,0.2h0.7l0.2,0.1l0.1,0.3l0.1-0.1h0.1l0.1,0.2l-0.1,0.2l-0.3,0.1l-0.3,0.3v0.2
	h0.2l0.1-0.2l0.3-0.3h0.2v0.2l-0.2,0.2l-0.2,0.4v0.4l-0.1,0.1v-0.2l-0.2,0.2l-0.1-0.1l-0.2,0.3l0.1,0.2l0.3,0.1l0.3-0.2l0.1-0.3
	l0.2-0.2V424l0.2-0.2l0.1-0.4l0.3-0.2l0.3-0.3l-0.1-0.2v-0.2l-0.1-0.1l0.2-0.2l0.1-0.1l-0.2-0.2v-0.3l0.3-0.2v-0.2l-0.3-0.2
	l-0.1-0.6l0,0H287l-0.1-0.5l0.3-0.6l0.1-0.4l-0.2,0.2l-0.4,0.1l-0.4,0.2L286,419v-0.3h0.2l0.1,0.3h0.1v-0.2l-0.1-0.3l-0.1-0.3H286
	l-0.2,0.1l-0.3-0.2l-0.2-0.4v-0.1l0.4-0.3l0.2-0.4l0.2-0.2l-0.1-0.1l-0.3,0.1h-0.3l-0.1-0.1l0.2-0.2l0.3-0.4v-0.4l0.1-0.2v-0.2
	l-0.2,0.1l-0.1,0.3v0.5l-0.3,0.5h-0.2l-0.2-0.1l-0.2-0.1v-0.2l0.1-0.1V416l-0.3,0.2l-0.1,0.2h-0.1l-0.1-0.2H284l-0.2,0.1l-0.2-0.1
	v-0.1l0.2-0.2h0.3l0.4-0.1l0.4-0.3l0.1-0.3v-0.3v0.3l-0.3,0.2l-0.2,0.3l-0.2,0.1L283,415l-0.1-0.2h-0.3v-0.1l0.2-0.1l-0.1-0.1
	l-0.4,0.1l-0.2-0.1h-0.2l-0.1,0.2l-0.4-0.2l-0.1-0.3l0.1-0.1l0.2,0.1l0.4,0.1l0.4-0.1V414h-0.2h-0.4l-0.1-0.1l0.1-0.1l0.3,0.1
	l0.3-0.1v-0.1H282l-0.2-0.1l-0.3,0.1h-0.2l-0.1-0.1l0.1-0.3l0.3-0.1l0.2,0.1h0.3l0.2-0.2H282l-0.2-0.1h-0.4v-0.1l0.4-0.1l0.2,0.1
	l0.2-0.1l-0.1-0.1v-0.2l0.2-0.2h0.4l0.3,0.1l0.1-0.1l-0.5-0.1l-0.1-0.2h-0.1l-0.2,0.2l-0.3,0.1l-0.2,0.1l-0.1-0.1v-0.2v-0.2l0.1-0.2
	l0.4-0.2l0.2-0.2l0.7-0.5l0.2-0.1l0.1,0.2v0.4l0.2,0.2l0.1-0.1l-0.1-0.4v-0.5l0.3-0.1h0.4l-0.3-0.1h-0.4l-0.2,0.1l-0.1-0.2l0.1-0.2
	l0.3-0.1l0.3-0.2l0.2-0.4l-0.1-0.2l-0.1,0.1l-0.1,0.3l-0.3,0.2h-0.3l-0.3,0.4l-0.4,0.3l-0.4,0.2l-0.2-0.3l0.1-0.1l0.2-0.1L282,410
	l-0.4,0.2l-0.2-0.1l0.1-0.1l0.4-0.3l0.3-0.1h0.3l0.1-0.1v-0.1l-0.2-0.1l0.1-0.1l0.1-0.1l-0.1-0.1l-0.2,0.1h-0.1l-0.1-0.2v-0.7
	L282,408v-0.2l0.1-0.2h0.4l0.3,0.1h0.4l0.3,0.2l-0.1-0.2l-0.2-0.1h-0.3l-0.2-0.2l-0.3-0.2v-0.1l0.2-0.3l0.2-0.1l0.1-0.3v-0.3h-0.1
	l-0.3,0.3l-0.3,0.2l-0.5,0.1l-0.2,0.2l-0.1,0.2h-0.2l-0.2-0.5l-0.1-0.5l0.1-0.8l0.1-0.5v-0.2h-0.3v-0.4l0.2-0.1l0.1,0.1l0.2,0.1
	l-0.1-0.3l0.3-0.2l0.2-0.4l0.2-0.1l0.3,0.1l0.2-0.1h-0.2v-0.1l0.4-0.5l0.2-0.3l0.4-0.2v-0.1H283l-0.1-0.2l-0.4,0.3l-0.1,0.3
	l-0.5,0.6h-0.1v-0.2l0.3-0.4l0.1-0.5l0.4-0.8l0.1-0.3h-0.1l0,0l-0.1,0.1l-0.4,0.7l-0.1,0.6l-0.3,0.5l-0.4,0.5l-0.3,0.1h-0.2v0.2
	l-0.2,0.1L280,403l0.1-0.4l0.2-0.1h0.2h0.2l0.3-0.2v-0.1h-0.3l-0.1,0.1h-0.2v-0.1l0.2-0.2h0.3h0.2l-0.1-0.1l-0.1-0.2l0.1-0.2
	l0.2-0.4l-0.1-0.2v-0.3l0.3-0.3v-0.1H281v-0.1l0.2-0.3h-0.4h-0.2l-0.1-0.1l-0.4,0.4l-0.2,0.1v0.1l-0.2,0.4l-0.3,0.3l-0.1-0.3v-0.3
	l0.4-0.3l0.5-0.5l0.2-0.4l0.2-0.1l0.3,0.1l0.3-0.2l-0.2-0.1h-0.3l-0.2-0.2l-0.3-0.5v-0.3l0.2-0.2h0.2l0.2-0.1h-0.2l-0.3-0.2
	l-0.1-0.3L280,397l-0.1-0.2l0.1-0.1h0.3v-0.1l-0.2-0.1h-0.2l-0.2-0.2l-0.1-0.3h-0.2h-0.2l-0.1-0.1l0.1-0.2h0.2l0.1-0.2l-0.1-0.1
	v-0.3l0.2-0.2l-0.1-0.2l0.1-0.1l0.1,0.2l0.2,0.2l0.1-0.1v-0.3l-0.2-0.3v-0.2h0.2l0.1-0.1l-0.2-0.2v-0.1l0.2-0.1l0.4-0.3v-0.1h-0.4
	l-0.3,0.1l-0.2-0.1l-0.2,0.1l-0.2-0.2v-0.3h-0.1v-0.4l-0.3-0.3l-0.1-0.3l-0.1-0.3V391l0.2-0.2l-0.1-0.2v-0.4l0.3-0.6l-0.1-0.4
	l0.1-0.5l0.2-0.4l-0.3,0.2l-0.2,0.4l-0.2-0.1l-0.1-0.4l-0.1-0.1v0.1l0.1,0.2l0.1,0.5v0.7l-0.2,0.7l-0.1,0.8l-0.1,0.2v0.4l-0.3,0.5
	l-0.2-0.1l-0.1-0.4l0.1-0.1v-0.2l-0.2,0.2v0.1l-0.3-0.1l-0.1-0.2l0.1-0.3L277,391v-0.2l0.2-0.2l0.1-0.2h-0.1l-0.3,0.3h-0.2l-0.1-0.2
	l0.1-0.3l-0.1-0.2l-0.1-0.2l-0.2,0.3l-0.1-0.2v-0.3H276v0.4l-0.1,0.1v0.2l0.2,0.1l0.1,0.2v0.2l-0.2,0.3l0.1,0.1l0.1-0.1h0.2l0.2,0.4
	l-0.1,0.2h-0.2l-0.1-0.1l-0.1,0.1l0.1,0.1l-0.2,0.1l-0.2-0.2l-0.2,0.1v-0.2l-0.2-0.1l-0.5-0.5l-0.1-0.3l0.1-0.3h-0.2l-0.2-0.2v-0.7
	l0.1-0.2l-0.2-0.2v-0.2l0.2-0.3l0.2-0.1l0.1-0.2v-0.4l0.2-0.5l-0.4,0.7l-0.1,0.3h-0.4l-0.1,0.1l-0.5-0.4V388h0.2l0.1-0.2l-0.2-0.1
	l-0.3,0.1l-0.2-0.2l-0.1-0.3l-0.2-0.4h0.1l0.3,0.2h0.2l0.1-0.3l0.1-0.5l0.3-0.2l0.1-0.2h-0.2l-0.4,0.3l-0.2,0.2l-0.1-0.2l-0.2,0.1
	l-0.6,0.1l-0.5-0.1l-0.2-0.2l-0.1-0.3l-0.5-0.1l-0.1-0.1l0.3-0.1l0.2-0.2v-0.2l-0.2-0.1l-0.1,0.1l-0.4,0.2h-0.3l-0.1-0.2l-0.2-0.1
	l-0.2-0.2h-0.2v-0.2l-0.2-0.1l-0.4,0.1h-0.4h-0.3l-0.2-0.1l-0.2,0.1l-0.7-0.1l-0.1-0.2l0.2-0.1l0.2,0.1l0.1-0.1l-0.3-0.3l0.4-0.4
	v-0.2l0.2-0.3h-0.4l-0.1,0.1l0.1,0.1l-0.2,0.3l-0.2-0.1v-0.2l-0.1-0.1v-0.2l0.2-0.1v-0.1l-0.1-0.2l-0.4,0.2l-0.3-0.1l-0.3-0.2
	l-0.3,0.1h0v-0.2l0.2-0.1l0.2-0.1l-0.1-0.2l-0.4-0.1v-0.2h0.3l0.1-0.1l-0.2-0.2l-0.3,0.1l-0.2-0.1V381l0.3-0.1h0.4l0.3,0.3V381
	l-0.2-0.2l-0.6-0.1l-0.1-0.2l0.2-0.2h0.2l0.3-0.3h0.3l0.1-0.1l-0.3-0.1l-0.4,0.1l-0.3,0.2h-0.1l-0.3,0.2l-0.2-0.2l-0.1,0.2l-0.4,0.3
	l-0.1-0.2l0.2-0.2l0.1-0.2h-0.1l-0.2,0.2l-0.2,0.6h-0.1l-0.1-0.5V380l0.6-0.4h-0.4l-0.2,0.1l-0.3-0.2l-0.5,0.2l0.1,0.4v0.1l-0.1-0.1
	l-0.2,0.1h-0.4v0.2l0.3,0.3l0.3-0.1v0.3l-0.1,0.2l-0.2-0.1h-0.3l-0.1,0.2h0.4l0.2,0.1h0.3v0.3l-0.1,0.2l-0.6,0.2l-0.1,0.3l0.2,0.1
	l-0.3,0.2h-0.4l-0.1,0.4l-0.2,0.2l-0.1-0.1h-0.3v-0.2l-0.1-0.2l-0.4,0.4V383l0.2-0.4v-0.2l-0.2,0.1l-0.2,0.5l-0.3,0.4l-0.2,0.1v-0.2
	l0.4-0.4h-0.2l-0.4,0.2l-0.1,0.6l-0.2,0.1l-0.1-0.2h-0.3L259,384h-0.4l-0.1-0.2l0.1-0.2v-0.2l-0.2,0.2v0.3l-0.3,0.2l-0.2,0.1
	l-0.1,0.2l-0.2,0.1v-0.3h-0.2l-0.1,0.4l-0.2-0.2l-0.1,0.2l-0.1,0.1l-0.4-0.5v-0.4l0.2-0.1l0.2,0.1v-0.3l0.2-0.1h0.2l0.3,0.1l0.1-0.3
	h0.2l0.5-0.4v0.2h-0.2l-0.3,0.2h-0.2l-0.2,0.2L257,383v-0.2l0.2-0.3l0.9-0.8l0.1-0.4l0.4-0.2l0.2-0.5l-0.1-0.2v-0.3l0.3-0.3h0.4
	l0.5-0.3h0.2l0.5-0.2l0.1,0.4l0.3,0.2h0.2l0.1-0.1h0.2l0.3,0.2l-0.1-0.4l-0.3-0.5l0.1-0.3l0.7-0.7h0.4l0.5-0.3l0.1-0.3l-0.2,0.2
	l-0.6,0.2l-0.3,0.1l-0.4,0.4l-0.1-0.1h-0.2l-0.2-0.1v-0.3l0.2-0.4l-0.5,0.7h-0.5l-0.6,0.6l-0.6,0.1l-0.7,0.5v0.2l-0.1,0.1h-0.3
	l-0.4,0.3l-0.7,0.4v0.2l-0.3,0.3h-0.4l-0.2-0.2h-0.4l-0.2,0.2v0.1l0.2-0.1h0.2l0.5,0.3l0.1,0.4l-0.1,0.4l-0.5,0.2l-0.3-0.1l-0.2,0.1
	l0.1,0.2l0.2,0.1l0.1,0.1l-0.3,0.4h-0.2l-0.1-0.2v-0.2l-0.4,0.2l-0.3-0.2l-0.4,0.3l-0.3-0.1l-0.2,0.1h0.1l-0.1,0.2h-0.2l-0.1,0.2
	l-0.4,0.2v0.3l-0.1,0.3h0.4l0.2,0.1l0.1,0.3h0.1l0.1,0.1v0.5l-0.4,0.4h-0.2l-0.3,0.3h-0.4l-0.3,0.3l-0.3-0.1l-0.2,0.1l0.2,0.1
	l0.1,0.2l-0.1,0.1l-0.1-0.1h-0.2l-0.3,0.2l-0.1,0.2l0.2-0.1h0.1l-0.1,0.4l-0.1,0.1l-0.1-0.1l-0.2,0.1h-0.1V387h-0.1l-0.1,0.3h-0.5
	L250,387l-0.1,0.1l-0.3,0.1v0.2l-0.1,0.1h-0.3l-0.1,0.2l-0.1-0.1l-0.1-0.2h-0.2l-0.1,0.1l-0.2,0.1l-0.1,0.2l-0.3,0.1l-0.3,0.3
	l-0.1-0.1h-0.1l-0.2,0.3l-0.3,0.1l-0.4,0.3h0.1h0.2h0.1v0.2l-0.3,0.4l-0.3,0.1l-0.1-0.2l-0.1,0.1l-0.2,0.3h-0.2l-0.1,0.2l-0.4,0.2
	l-0.2-0.1v0l-0.1-0.1l-0.1,0.1v0.3l-0.2,0.2l0.1,0.1l-0.1,0.2h-0.1l-0.1-0.3h-0.2l-0.2,0.1h-0.2l-0.1,0.1h0.1v0.2l-0.1,0.1h-0.6
	l-0.5,0.3l-0.4,0.1l0.1,0.1h0.5v0.1l-0.2,0.2l0.1,0.1l-0.2,0.3l-0.2,0.1V392l0.1-0.2l-0.1-0.1l-0.2,0.2l-0.2,0.4l-0.1-0.1h-0.1
	l-0.3,0.3h-0.3l-0.2-0.1l-0.2,0.1l-0.2-0.2v0.1v0.5l-0.4,0.5h-0.1v-0.1l0.2-0.3l0.2-0.3v-0.2l-0.2-0.1l-0.3,0.2l-0.3,0.4h-0.3
	l-0.2,0.2H239l-0.2,0.3h-0.1l0.1-0.2l-0.1-0.2h-0.2l-0.1,0.2l-0.1-0.1l-0.2,0.1l-0.1,0.2l-0.5,0.3l-0.1-0.1v-0.3l0.2-0.3h0.2
	l0.1-0.1l-0.3-0.2h-0.2l-0.3,0.3l-0.2,0.1v0.3l-0.2,0.4l-0.3,0.2h-0.3l-0.2,0.1l-0.1,0.2h-0.1v-0.2l-0.2,0.3h-0.3v-0.1l0.1-0.2
	l-0.1-0.2l-0.1,0.1l-0.3,0.5h-0.3v-0.1v-0.2l-0.1-0.1l-0.2,0.1v0.2l-0.1,0.2l-0.2,0.1l-0.1-0.2l0.1-0.3l0.1-0.2l0.3-0.1l0.3,0.1h0.1
	v-0.2l0.2-0.2l0.4-0.1h0.1l0.1-0.1l-0.1-0.1l0.4-0.4l0.4-0.2l0.4-0.2l0.2-0.3l0.3-0.1l0.5-0.1l0.3-0.1l0.2,0.1h0.3l0.2,0.1l-0.1,0.2
	v0.3l0.2,0.2l0.1-0.1v-0.2l0.1-0.1h0.2l0.2,0.3l0.1-0.1v-0.2l-0.1-0.2v-0.2l0.2-0.4l0.5-0.4l0.7-0.3l0.4-0.4h0.4l0.3-0.1v-0.2
	l0.3-0.1l0.4-0.2l0.5-0.2v0.3l0.2,0.1l0.1-0.1v-0.2l0.2-0.3l0.7-0.5l0.2-0.1l0.1,0.2h0.2l0.1-0.2l-0.1-0.2l0.4-0.2l0.2-0.3h0.2
	l0.1,0.2l0.2,0.1l0.1-0.2l-0.1-0.1l-0.1-0.2l0.2-0.3l0.4-0.5l0.1-0.4l0.3-0.4l0.2-0.1l0.5,0.1l-0.3-0.2L247,386v-0.3l0.3-0.5
	l0.4-0.3l0.9-0.5l0.2-0.2V384l0.3-0.4l0.2-0.1h-0.2l-0.6,0.3h-0.2L248,384l-0.6,0.1l-0.4,0.2l-0.2-0.1l-0.4-0.4v-0.2l0.4-0.5
	l0.4-0.2h-0.5l-0.3,0.2h-0.1l-0.3,0.3l-0.1,0.3l-0.3,0.5v0.3l-0.1,0.4h-0.2l-0.1-0.4l0.1-0.3l-0.1-0.5l-0.2-0.4l0.1-0.2L245,383
	l-0.1,0.2l-0.3,0.2l-0.2-0.1l0.1-0.2l-0.1-0.3l-0.2-0.1v-0.1l0.2-0.1l0.1-0.2l-0.5,0.2l-0.2,0.2h-0.2h-0.1l-0.6,0.4l-0.3,0.3
	l-0.2-0.2h-0.3l-0.2-0.2l0.1-0.1l0.2,0.1l0.3-0.2l0.2-0.1l0.2-0.1l-0.1-0.2v-0.1l-0.1-0.2l0.1-0.1h0.4l0.2-0.2l-0.1-0.2h-0.2
	l-0.3,0.1l-0.1-0.1v-0.3l-0.1-0.3l0.1-0.1l0.1,0.1l0.1-0.2l0.2-0.2l0.4-0.1l-0.1-0.3v-0.3v-0.2l0.1-0.3l-0.1-0.4v-0.3l0.3-0.2
	l0.3-0.5v-0.2l-0.3-0.2v-0.2l0.4-0.2l0.7-0.6h0.3l-0.3-0.1l-0.7,0.5l-0.5,0.3l-0.4,0.2v0.1l0.2,0.2v0.3l-0.4,0.6h-0.2l-0.2-0.1
	l-0.2,0.1l-0.5,0.2h-0.4l-1-0.5l0.1-0.2h0.3v-0.1l-0.3-0.2v-0.2l-0.1-0.2V377h-0.2l-0.1-0.3l0.1-0.4l0.2-0.2h-0.2l-0.2-0.2l0.1-0.2
	l0.3,0.1l0.2-0.2l0.1-0.3l0.3-0.1l0.2-0.2l0.2,0.2l0.4,0.1l0.2,0.3h0.3l0.1,0.2v0.2l0.1,0.1l0.4-0.1v-0.2l-0.3-0.3l0.2-0.2l0.1-0.3
	l0.5-0.5h0.2l0.3-0.3l-0.2,0.2h-0.6l-0.2,0.2l-0.1,0.6l-0.2,0.2h-0.3l-0.3-0.2h-0.3V375l-0.1-0.1h-0.2l-0.1,0.1h-0.2l-0.1-0.1
	l0.1-0.2l0.2-0.1l-0.1-0.4l-0.1-0.2l-0.2,0.2h-0.2l-0.1-0.3l0.1-0.3l0.1-0.3l-0.1-0.4l-0.3-0.4v-0.2l0.4-0.4l0.1-0.3h0.1l0.2,0.3
	h0.2l0.1-0.2l-0.3-0.4l0.1-0.1l0.3,0.1l0.3-0.1l0.1-0.1l0.1-0.5l0.7-0.6h0.2l0.2-0.1l0.2-0.4l0.5-0.4h0.1l0.3,0.3l0.1,0.3h0.2
	l0.1-0.2l-0.2-0.2l-0.1-0.2l0.2-0.1h0.5l0.4,0.4v0.2l0.2-0.2l0.2-0.5v-0.4l0.2-0.2h0.4l0.4-0.3h0.5l0.3,0.1h0.3l0.2-0.2l0.6-0.2
	l0.2-0.3l0.4-0.2l0.3-0.4h0.1l0.2,0.3l0.1,0.2l0.1-0.1l0.5,0.3h0.3l0.2-0.1l0.3-0.3l0.2-0.1h0.3l0.3-0.2l0.3-0.4l0.1-0.3v-0.2
	l-0.1-0.1l0.1-0.2l0.2-0.2l0.1-0.4l0.5-0.6V364l-0.2-0.2h-0.3v-0.1l0.4-0.3h0.2l0.1,0.1l0.5-0.1l0.3-0.5l-0.2-0.1v-0.1l0.4-0.2
	l0.1-0.2l-0.2,0.1h-0.4l-0.5,0.3l-0.2-0.1l-0.1-0.2h-0.1l-0.2,0.3h-0.5l-0.6,0.4l-0.5,0.1l-0.1,0.2l-0.4,0.3h-0.2v-0.3l0.3-0.4v-0.2
	l-0.3-0.1l-0.1,0.1v0.4l-0.1,0.2l-0.2-0.1l-0.1-0.4l-0.3-0.2l-0.7-0.1l-0.4-0.2l-0.4,0.1l-0.4,0.3H248l-0.3-0.4l-0.5-0.2l-0.5-0.6
	v-0.4l0.1-0.4l0.2-0.4l0.3-0.3v-0.2l-0.1-0.1l-0.1-0.6l0.2-0.3h0.2v0.1l-0.3,0.3l0.2,0.3h0.2l0.4-0.4h0.1l0.2,0.2l0.4,0.2l0.1,0.3
	h0.5l0.1-0.1l-0.4-0.2l-0.3-0.1l-0.1-0.4l-0.3-0.2l-0.3-0.5l-0.4-0.1l-0.4-0.6l-0.4-0.5v-0.1l0.2-0.4l0.3-0.1l-0.1,0.2l-0.1,0.1h0.2
	l0.3-0.2l0.5-0.2l0.2-0.1v-0.2l0.4-0.3h0.2l0.1,0.1h0.3v-0.2l0.2-0.2l0.6-0.1l0.6,0.1l0.3,0.1l0.1,0.2h0.3h0.3l0.1-0.1l-0.4-0.3
	l-0.1-0.2l0.1-0.2l0.9-0.4h0.3l0.3,0.2h0.3l0.5-0.3h0.3l0.2,0.1l0.4,0.4v0.2l-0.2,0.2h-0.2l-0.3,0.5l-0.3,0.1v0.2l0.1,0.2v0.3h0.1
	l0.2-0.1l0.2,0.1v0.2h0.3l0.2-0.1l0.2,0.1v0.3l0.2,0.1h0.4l0.1,0.1l0.1,0.3l0.3-0.1l0.3-0.1v-0.3l0.5-0.4l0.2-0.2l0.1,0.1l0.2,0.1
	v0.2l-0.4,0.5l0.5-0.2l0.3-0.4v-0.6l-0.2-0.4h-0.4l-0.1,0h-0.2l-0.2,0.3v-0.2l0.3-0.3l0.1-0.6v-0.9l0.3-0.3h0.1v0.3l-0.3,0.9v0.5
	l0.4,0.3h0.1l0.3,0.1l0.1,0.4l0.2,0.2h0.4l0.2-0.1l0.3,0.2v0.2l0.5-0.1l0.1-0.3l-0.1-0.4l0.4-0.2l-0.4-0.2l-0.5-0.1l-0.4,0.1
	l-0.1-0.2l-0.3-0.1l-0.4,0.1l-0.2,0.2l-0.2-0.1v-0.4v-0.8l0.1-0.2h0.3l0.2-0.1l-0.8-0.6v-0.2l0.2-0.2h-0.2l-0.2,0.2l-0.2-0.1v0.3
	l-0.3-0.1l-0.6-0.7v-0.2l0.3-0.4l0.4-0.7l0.1-0.9l-0.2-1l-0.4-1.1l-0.4-1.4l-0.3-0.7l0.2-0.1l0.2,0.1h0.2l0.2-0.4l0.3-0.3l0.1-0.4
	l0.6-0.6l0.4-0.4h0.2l0.5,0.2l0.3,0.2l0.4,0.3h0.5l0.2,0.2h0.5l0.5-0.3h0.4l0.4-0.3h0.3l0.5-0.2l0.8-0.7l0.7-0.6l0.6-0.5l0.9-0.4
	l0.8-0.7l0.6-0.3l0.5,0.1l0.5,0.1l0.2-0.1l-0.2-0.2l-0.5-0.2v-0.1h0.2l0.4,0.1l0.2,0.3l0.2,0.1h0.3l0.8-0.3h0.2v0.2l-0.5,0.7
	l-0.1,0.5l0.1,0.1h0.1l0.2-0.5l0.3-0.7l0.4-0.3h0.4l0.2-0.2l-0.4-0.1l-0.1-0.3l0.2-0.3l0.4-0.2l0.6-0.3l0.4-0.1l0.1,0.1l-0.3,0.1
	l-0.1,0.2l0.1,0.2h0.2l0.1-0.2l0.3-0.1l0.3,0.3h0.2v-0.2l0.2,0.1l0.4,0.3h0.7l0.4-0.1l0.7-0.5l0.3-0.2h0.4l0.1-0.1l0.6-0.3h0.2
	l-0.1,0.1l-0.2,0.1l-0.1,0.1l0.1,0.1l0.1,0.1v0.3h0.1l0.4,0.2l0.1,0.1l-0.1,0.1v0.1l-0.3,0.3l-0.3,0.1L276,341l-0.3-0.3l-0.3,0.1
	l-0.4,0.3l-0.1,0.2h0.3l0.2,0.3l-0.2,0.5l0.2-0.1l0.1-0.2l0.2-0.2h0.1l-0.2,0.3v0.3l0.1,0.3v-0.3l0.2-0.4l0.1,0.1h0.1l0.2-0.2
	l-0.1-0.3l0.1-0.2l0.3-0.1l0.2,0.2h0.1l0.1-0.3l0.4-0.4h0.1l0.1,0.2l-0.1,0.3v0.3l-0.2,0.1l-0.1,0.2v0.3l-0.1,0.1l-0.1,0.3l0.2,0.3
	v-0.1l0.2-0.3h0.4l0.2-0.1l0.2,0.1l0.4,0.2h0.3l0.2,0.1l0.1,0.2l0.2-0.1h0.1l0.2,0.3l0.2,0.2l-0.2,0.2l-0.4,0.2l-0.2,0.2l0.1,0.2
	l0.8,0.4v0.1h-0.2l-0.3,0.1v0.1l0.5,0.3v0.3l-0.1,0.4v0.4l-0.3,0.3l0.4-0.3l0.4-0.5l0.4-0.1l0.1-0.1h0.2l0.4-0.2h0.4l0.4,0.3
	l0.2,0.1l-0.1,0.4l-0.4,0.3l-0.4,0.5l-0.6,0.4l0.7-0.3l0.6-0.6l0.1-0.1l0.2,0.1l0.1,0.1v0.1l0.2,0.3l0.3,0.2v0.1l-0.1,0.1l0.2-0.1
	l0.2,0.1l0.1,0.1l-0.1,0.1v0.2l0.2,0.1l0.2-0.3l0.2,0.1v0.1v0.1l0.1-0.1h0.1l0.1,0.1h0.1l0.5,0.3l0.2,0.2v0.2h0.2h0.2l0.1,0.1
	l-0.1,0.1v0.1l0.2,0.1l0.2-0.1l0.3,0.2v0.1h-0.1v0.1h0.2l0.1-0.1l0.1,0.1h0.1l0.2,0.1l0.4-0.1l0.5,0.1l0.1-0.1h0.6l0.1,0.1l0.2,0.4
	l0.1,0.3l0.2,0.1l0.2,0.3l0.1,0.6l0.2,0.2h0.2l0.3,0.1l0.1,0.1l0.1,0.2h0.2l0.9,0.6h0.3l0.3,0.2l0.1,0.2h0.1l0.3,0.2v0.3l0.4,0.4
	l-0.1,0.2v0.1l-0.1,0.4l0.1,0.3l0.1,0.1l0.1-0.1l0.1,0.1v0.5l0.1,0.5l0.5,0.5l0.3,0.2l0.1-0.1l0.2,0.1v0.3l0.2,0.1h0.1l0.3,0.5v0.4
	l0.2,0.1l0.1,0.2h0.2l0.4,0.5v0.2l0.2,0.1l-0.1,0.2l-0.3,0.4l-0.2,0.3l0.7-0.6l0.2-0.1l0.1,0.1l0.1-0.4l-0.1-0.9v-0.5l0.2-0.3
	l0.5-0.2l0.4-0.2l0.2-0.2l0.3-0.1l0.1-0.2h0.2l0.2-0.1h0.4h0.1h0.3l0.1,0.1l0.4-0.4l0.1-0.3h0.2l0.3,0.1l0.2-0.1v-0.1h0.2l0.1,0.2
	l0.9-0.1l0.7-0.2l0.3-0.2h0.1l0.2,0.2l0.2-0.1l0.1-0.3l0.5-0.2h0.3l0.1,0.1h0.2l0.1,0.2l0.3-0.1v-0.2l0.1-0.2l0.2,0.1v0.3l0.2,0.1
	l-0.1,0.1h-0.1l-0.1,0.3l-0.7,0.2l-0.6,0.2l-0.2,0.3l-0.4,0.1H303l-0.2,0.2h-0.2l-0.1-0.2l-0.5,0.2h-0.5l-0.1,0.1h-0.6l-0.3,0.1
	l-0.2,0.4l-0.7,0.3v-0.1l-0.4,0.3l-0.1,0.2l-0.2,0.1l-0.2-0.2l-0.3,0.2l-0.2,0.3H298l-0.2,0.3l0.3,0.3l0.3,0.2l-0.3-0.4v-0.1
	l0.3,0.1l0.2-0.1l0.3,0.1l-0.1-0.3l0.4-0.4l0.5-0.1h0.3l0.8-0.5l0.1-0.2l0.2-0.1l0.2,0.2l0.2-0.2h0.2v0.1l0.5-0.3l0.1,0.2l-0.4,0.5
	v0.2l0.3-0.5l0.5-0.1l0.9-0.7h0.5l0.4-0.2h0.6l0.3-0.2h0.3l-0.1,0.3l-0.4,0.1v0.2l0.2,0.2l0.4-0.4l0.7-0.3h0.2v-0.2l0.3-0.2l0.2,0.1
	v-0.2l0.1-0.2l0.2,0.2l0.2,0.1l0.1-0.5l-0.1-0.3l0.2-0.2l-0.2-0.2l0.3-0.4l0.5-0.2v0.4l0.1,1.2l-0.2,0.3v1l-0.3,0.6v1.4l0.1,0.4
	l0.3,0.1l0.2,0.5l0.5-0.3l-0.2-0.2h-0.3l-0.1-0.2l0.3-0.2l0.3,0.1l0.1-0.3l-0.2-0.1l0.3-0.3h0.4v0.2l0.2-0.2l-0.3-0.6h0.3l0.6-0.4
	v-0.2l0.4-0.1l0.1,0.4v0.2l-0.3,0.3v0.2l-0.3,0.3v0.2l0.1,0.1l0.2-0.1l0.1,0.2l-0.1,0.1l-0.2,0.1l-0.3,0.3h-0.2l-0.1,0.2l-0.2,0.3
	l0.2,0.2l0.5,0.1l0.2,0.2h0.3l0.3-0.2l0.3-0.1l0.3-0.6l0.4-0.4l0.3-0.1l0.2,0.2h0.3l0.2,0.2h0.3l0.4,0.3h0.3v0.3l0.3,0.7v0.4
	l0.4,0.5l1.3,0.8l0.1,0.3l0.4,0.2l0.5,0.5h0.2l0.3,0.2l0.1,0.3l0.2,0.1l0.2-0.1l0.1,0.2l0.5,0.3h0.3v0.3l0.2,0.3l0.1-0.3l0.5-0.2
	l0.1-0.2l-0.3-0.2v-0.2l0.5,0.2l0.1,0.2h0.1l0.1-0.2h0.1l0.4,0.4l0.1,0.2l0.2,0.1l0.2,0.4l0.2,0.3v0.4l0.1,0.4l-0.1,0.3v0.3
	l-0.3,0.3l-0.7-0.2h-0.4v0.1l-0.1,0.1l-0.4-0.2h-0.3l0.1,0.2l-0.3,0.2v0.3h-0.3l-0.3,0.1l0.1,0.2l0.3,0.1l0.1,0.4l0.3,0.2l0.2-0.1
	l0.4,0.3v0.3h0.4l0.5,0.3h0.5l0.7,0.3h0.4V369h0.2l0.3,0.2v0.2l0.5-0.4l0.2,0.2h0.2l0.2-0.2h0.1v0.1l0.2,0.1l0.5-0.3l0.9-0.3
	l0.3-0.1v0.3l-0.1,0.2v0.1h0.1v0.3v0.2l0.1,0.2l0.1,0.1l0.2-0.2l0.2,0.2v0.3l-0.2,0.5l0.1,0.3l0.1,0.1l0.2-0.2v-0.4l0.1-0.2h0.1v0.4
	l-0.2,0.5l-0.2,0.3v0.6l0.2,0.3v0.5l-0.1,0.4l0.3,0.2v0.2l-0.1,0.3l0.1,0.2l0.2,0.5l0.1,1v-1l-0.2-0.8l0.1-0.7l0.4-0.7h0.2v0.3H328
	v0.2l0.1,0.1l0.2-0.1l0.1,0.1l0.1-0.1v-0.3l-0.2-0.3v-0.2l0.3-0.1l0.1-0.2l-0.3-0.2v-0.2l0.1-0.6l0.3-0.8l-0.1-0.3v-0.2l0.2-0.2h0.4
	v-0.1l0.1-0.2h0.2l0.1,0.2l0.2-0.1l0.2-0.3h0.1v0.2l0.2-0.1l0.3-0.1l0.2-0.3h0.2l0.1,0.2h0.1l0.1,0.4v-0.4l-0.1-0.3l0.2-0.5h0.2
	l0.1,0.1h0.3l0.2-0.1l0.2,0.1l0.4-0.4l-0.1-0.2l0.2-0.2h-0.3v-0.1h-0.2l-0.6,0.2h-0.2l-0.1,0.2h-0.3v0.2l-0.1,0.2l-0.3-0.3v-0.2
	l-0.2,0.1l-0.1,0.3l-0.2,0.1l-0.3-0.2h-0.2v-0.1l-0.2,0.1v0.2l0.2,0.2v0.2l-0.3,0.1l-0.1-0.1l-0.4-0.1l-0.1-0.2l0.2-0.2l0.1-0.3
	h-0.1l-0.2,0.1l-0.2-0.1l0.1-0.2l0.3-0.2l0.4-0.6h0.3l0.3,0.1h1.1l0.8-0.2h0.2l0.4-0.1l0.1,0.2l0.2,0.2h0.1l0.1,0.2l-0.1,0.6
	l-0.1,0.2l0.1,0.1v0.1l-0.2,0.2v0.1l0.1,0.1l0.1,0.6h0.2l0.2,0.1v0.2l-0.2,0.2v0.2L333,370h0.3l0.3,0.1l0.1,0.1h0.1l0.2,0.2h0.3
	l0.3-0.2l0.1,0.1v0.2l0.1,0.1l0.1-0.1l0.2,0.2L335,371v0.2l0.1,0.1l0.1,0.2l0.4,0.4v0.2l0.3-0.2l0.1,0.1v0.3h0.1l0.3,0.3l0.4-0.2
	h0.5l0.2-0.2l0.4-0.2h0.1l0.1,0.2h0.6l0.5,0.4l0.2,0.1l0.2,0.2l0.1-0.1l0.6-0.1l0.2,0.3l0.2-0.1v-0.3l-0.2-0.3l-0.1-0.4l0.1-0.1h0.2
	l0.2,0.5l0.1,0.4l0.4,0.5l0.2,0.2l0.1,0.4v-0.6l-0.2-0.2l-0.4-0.2l-0.1-0.5l-0.2-0.6l0.1-0.2h0.1v0.2l0.1,0.1l0.2-0.1v-0.2l-0.1-0.3
	l0.1-0.2l-0.1-0.2l0.1-0.2h0.2l0.2,0.2v0.2l0.1,0.1l0.1-0.1l0.3-0.2l0.1-0.3h0.3l0.1,0.3l-0.1,0.2v0.2l0.1-0.2h0.2l0.2,0.2v0.4
	l-0.1,0.2l0.2,0.2l0.2-0.1l0.2,0.1l-0.1,0.2l-0.4,0.1l-0.1,0.1l0.2,0.1l0.4-0.2l0.2-0.3l0.4-0.1h0.3v0.1l-0.2,0.1l-0.2,0.2v0.4
	l-0.5,0.3v0.2l-0.5,0.4v0.2L343,374l-0.1-0.3l-0.2,0.3l-0.1,0.5v0.2l0.2-0.1h0.2v0.3l-0.3,0.2v0.2l0.4-0.1l0.2-0.2h0.2l-0.2,0.3
	l-0.2,0.2l0.2,0.1l0.2-0.1l-0.1,0.4v0.2l-0.2,0.2l-0.3-0.1l-0.1-0.3l-0.4,0.2l-0.1-0.4h-0.1l-0.1,0.4l0.2,0.3l0.1,0.4l-0.1,0.7
	l0.3-0.6l-0.1-0.5l0.2-0.2l0.2,0.2h0.3l0.3,0.2l0.2-0.2V376l0.4-0.1l0.3-0.3h0.3l0.2-0.3l-0.3,0.2h-0.3l-0.1,0.2l-0.2,0.1h-0.1
	l0.1-0.4l0.2-0.2l-0.1-0.2v-0.2l0.2-0.5v-0.2l-0.2-0.2l0.1-0.1l0.3-0.4l0.1-0.4l0.3-0.3l0.1,0.1l-0.1,0.1l0.2-0.1l0.2-0.2l0.1,0.1
	h0.1l0.1,0.2l0.3-0.1l0.2-0.3l0.7-0.3l0.1-0.3v-0.2l0.2-0.1l0.3-0.3h0.4l0.2-0.2v-0.2l0.1-0.4l0.2-0.4l0.1-0.3l-0.1-0.1l-0.2,0.1
	h-0.2l0.1,0.1l-0.1,0.3l-0.3,0.1l-0.2-0.1h-0.2l-0.1-0.1l0.2-0.4h0.2l0.2-0.2l0.4-0.2v-0.2l-0.2-0.1l0.3-0.3l0.4-0.1l0.4,0.1
	l-0.3,0.2v0.3l0.1,0.1l0.3-0.2l0.3-0.6v-0.2l-0.3-0.1h-0.3l-0.2-0.1l-0.4-0.1l-0.2-0.4l0.1-0.4l-0.2,0.3h-0.2l-0.2-0.3l-0.3-0.2
	l-0.1-0.3l-0.1-0.1h-0.2l-0.1-0.2l-0.1-0.1l0.1-0.3v-0.2l-0.1-0.3v-0.8l0.2-0.3l0.5-0.5l0.3-0.1h0.3v-0.1l0.2-0.2v-0.2h-0.2
	l-0.2,0.2l-0.2-0.1v-0.2l-0.1-0.3v-0.3l0.4-0.4l0.2-0.6l0.2-0.1l0.2-0.4h0.2l0.2-0.4l0.4-0.2l0.2,0.2l-0.1,0.3l0.2,0.2l-0.1,0.2
	l0.3-0.2V361l0.4-0.5v-0.1h-0.2l-0.3-0.1l-0.2-0.3l0.3-0.2h0.4l0.1-0.2l0.4-0.3V359l0.2-0.1l0.4,0.1l0.5,0.1v0.3l-0.1,0.1l0.2,0.1
	l0.2,0.2l0.2,0.2l-0.1,0.3l-0.1,0.1l0.1,0.3v0.2l0.3,0.2l0.1,0.2l-0.1,0.5l0.2,0.1v0.1l-0.2,0.3v0.2l-0.2,0.4v0.4l-0.2,0.1l0.1,0.3
	L352,364l0.3,0.4v0.2l-0.1,0.1l0.1,0.3l-0.1,0.3v0.2l0.2,0.1l0.2,0.3v0.3l-0.2,0.2l-0.2-0.1l-0.3,0.1l-0.2-0.3l0.1-0.3l-0.4,0.2
	l-0.1,0.3l-0.3,0.1v0.1l0.4-0.1l0.2,0.2v0.2l-0.8,0.6h-0.2v0.2l-0.2,0.1l-0.1,0.3l0.2,0.2l0.3-0.1l0.2,0.1v0.3l0.3,0.3l0.4-0.1
	l0.1-0.2l0.2-0.1l0.1,0.1l-0.1,0.1v0.1l0.3,0.1l0.2,0.2l0.3-0.2l0.2,0.1l-0.2,0.2h-0.3l-0.3,0.4l-0.1,0.1l-0.1-0.4h-0.1l-0.1-0.1
	v0.2l0.2,0.3v0.2l0.3,0.5v0.4l0.1,0.1v0.3l-0.2,0.1v0.3v0.3l-0.3,0.4l0.1,0.2v0.3l-0.2,0.1v0.2h0.2l0.2-0.3l0.1-0.2l0.4-0.2l0.1-0.1
	l-0.1-0.1l0.2-0.2l0.2,0.1l0.1-0.1v-0.5l0.1-0.3l0.4-0.3l0.4-0.6l0.1-0.3h0.1l0.1,0.1l0.1,0.3l0.2,0.5l0.1,0.4l0.3,0.4v0.3l-0.1,0.3
	l0.1,0.6l-0.2,0.3l-0.2,0.1l-0.2-0.2l-0.5,0l-0.1,0.3l0.1,0.3l-0.2,0.3l-0.1,0.4l0.1,0.2v0.5l0.2,1.1l0.2,0.5l-0.1,0.3l0.2,0.2h0.2
	l-0.1-0.4l-0.1-0.1l0.2-0.2h0.2l0.2,0.4h0.2l0.1-0.4l0.2-0.2v-0.5l0.2-0.1l0.3-0.4h0.1l0.2-0.3l0.6-0.4l0.4-0.6l0.3-0.7l0.3-0.6
	l0.3-0.2l0.2,0.3l0.2-0.2l0.2,0.1h0.3v-0.2h-0.2l-0.3-0.3l0.1-0.2h0.3l0.2,0.1l0.1-0.1h0.2l0.1-0.1l-0.1-0.3h-0.1l-0.1-0.3H359v-0.5
	l0.2-0.2v-0.3h0.2l-0.2-0.2v-0.2l0.2-0.2l-0.1-0.1v-0.1h0.3l0.1-0.3l-0.2-0.1l-0.1-0.2h0.3l0.1,0.2h0.2l0.2-0.1h0.5l0.4,0.3v0.2
	l0.1,0.2l0.6,0.3l0.3-0.2l0.3,0.2l0.4,0.2v0.2l-0.2,0.1l0.2,0.2l-0.2,0.1l-0.2-0.2h-0.2v0.2l0.7,0.4v0.3l-0.3,0.1l0.2,0.1l0.3-0.1
	l0.5,0.1l0.1,0.2l0.2,0.1l0.1,0.1l-0.2,0.3l-0.5,0.4l-0.3,0.1l-0.2,0.1h0.4l0.2,0.1v0.2h0.1l0.1,0.1l-0.2,0.3l0.1,0.1l-0.4,0.2
	l-0.4,0.1h-0.2l-0.1,0.2l-0.2-0.1l-0.2-0.3h-0.3l-0.1-0.2h-0.2v0.2l-0.1,0.1l0.3,0.1l0.2,0.2l-0.1,0.2l-0.2,0.2h0.3l-0.2,0.3v0.2
	h0.1l0.2-0.2h0.1l-0.1,0.2l-0.4,0.2l-0.1,0.3l0.1,0.3l0.4,0.3l-0.1,0.2l0.3,0.7v0.4l-0.1,0.1v0.2l-0.4,0.4l0.1,0.3l-0.1,0.2
	l-0.3-0.1h-0.5l-0.2,0.1l-0.1,0.4l-0.3,0.2l-0.1,0.2h-0.2l-0.4,0.5l-0.2-0.1H359l-0.2,0.3l-0.8,0.2l-0.1-0.1l0.1-0.2l-0.1-0.4
	l-0.2-0.2v-0.2l0.2-0.1V379l0.2-0.4l-0.3,0.3h-0.1v-0.7l-0.1-0.1l-0.2-0.3l-0.3,0.2l-0.1-0.1h-0.3l-0.3,0.4h0.1l0.4-0.3l0.2,0.1v0.3
	l0.3,0.1l0.2,0.5l-0.1,0.5l0.1,0.1l0.1,0.4l-0.1,0.2l0.1,0.1v0.2h-0.2l-0.5-0.4v-0.3l-0.2-0.1l-0.1-0.2l-0.2,0.3l0.3,0.3l-0.1,0.3
	l-0.4-0.2l-0.2-0.1L356,380l-0.2,0.1v-0.2l0.1-0.5l0.1-0.1l-0.2-0.1v-0.1l-0.5,0.2h-0.4l-0.3-0.2h-0.3L354,379l-0.1,0.2l0.1,0.2
	l-0.1,0.1v0.3l0.1,0.2l0.4,0.1l0.2,0.3l-0.2,0.4l-0.2,0.1l-0.7,0.5l-0.3,0.4l-0.4,0.5l-0.2-0.1l-0.2,0.2l-0.1,0.4l-0.3,0.1l-1-0.2
	l-0.2-0.3l-0.1-0.3l-0.5-0.2v-0.1h0.2l0.1-0.1l-0.2-0.2l-0.3-0.1l-0.3-0.6l-0.4-0.3h-0.6l-0.5-0.3h-0.7l-0.3-0.1v0.2l0.2,0.2
	l0.1-0.1h0.2l0.7,0.2h0.6l0.2,0.1l-0.1,0.2H349l-0.1,0.1l0.1,0.1v0.5h0.1l0.3,0.7l0.2,0.5l0.6,0.2l0.6,0.1l1.1,0.3v0.3l-0.1,0.1
	l-0.4,0.3l-0.3,0.1l-0.5,0.6l-0.1-0.1l-0.1,0.1v0.2l-1,1l-0.4,0.2l-0.3,0.5l-0.3,0.1l-0.1-0.1h-0.2l-0.1,0.2l-0.4-0.5l-0.2-0.1
	l-0.2,0.2l-0.1-0.2l-0.1-0.1l0.2-0.3l-0.1-0.1l-0.1-0.2l-0.3,0.2l-0.2,0.6v-0.3l-0.2-0.5l-0.1,0.4l0.2,0.2v0.6l-0.4,0.5l-0.2-0.1
	l-0.1-0.2l-0.2-0.4l-0.1,0.3l0.2,0.2l-0.3,0.2v0.3l-0.1-0.1l-0.3-0.1v-0.2l-0.3-0.2l-0.3-0.4l-0.6-0.2l-0.6-0.3l-0.2-0.5l-0.2-0.1
	l-0.4-0.3l-0.1-0.2v0.5l-0.3-0.1l0.2,0.5l0.3,0.2l0.1-0.1l-0.1-0.2l0.1-0.1h0.1l0.6,0.7l0.6,0.4l0.1,0.1l-0.4,0.2l-0.4,0.1l-0.2-0.1
	l0.1,0.2v0.1l0.2-0.1h0.6l0.3-0.3h0.1l0.2,0.2l0.1,0.4l0.6,0.7L345,389l-0.4,0.4h-0.3l-0.2,0.1h-0.4l-0.3-0.2l-0.7-0.1l-0.4-0.5
	l-0.1-0.5L342,388l-0.1,0.1v0.2v0.3l0.3,0.3l0.2,0.6l0.3,0.5l-0.2,0.2l-0.2-0.1H342l-0.1-0.4l-0.1,0.2l-0.1,0.1l0.1,0.2l0.3,0.1
	l0.1,0.2l-0.6-0.1l-0.1-0.1v0.3l0.2,0.2v0.2l-0.2,0.3l-0.1-0.4h-0.2l0.1,0.1l-0.1,0.2l-0.1-0.1h-0.4l-0.1,0.2l-0.5,0.2l0.2,0.2
	l0.1,0.2l-0.1,0.1l-0.1-0.1l-0.4-0.3h-0.2v0.2l-0.2,0.1l0.4,0.3l-0.1,0.2v0.2h-0.3l-0.2,0.4l-0.4,0.2l0.2,0.2l-0.1,0.2h-0.2
	l-0.2,0.2l0.1,0.3l-0.3,0.1l-0.5,0.5l-0.3,0.1v0.3l-0.3,0.3l-0.3-0.2v0.2l0.2,0.4l-0.3,0.3l-0.1,0.6l-0.2,0.3l-0.1,0.4l-0.2,0.1
	l-0.2,0.6l0.1,0.1v0.5l-0.3,0.5l-0.1,0.3l-0.3,0.1l-0.1,0.1l0.3,0.1l0.1,0.2l-0.1,0.3l0.2,0.2v0.4l0.1,0.1l-0.3,0.7l-0.4,0.4
	l-0.8,0.2l-0.1,0.3l0.4-0.4l0.7-0.1l0.5-0.7l0.4-0.8h0.9l0.3,0.1v0.3l-0.5,0v0.4l0.2,0.4v0.6L337,403l0.2,0.3l0.1,0.6l-0.1,0.3
	l-1,0.9l-0.5,0.2l-0.3-0.1l0.4,0.1h0.5l1.1-0.4l1.1-0.4l0.6-0.1l0.7,0.5l0.5,0.4l0.7,0.2l0.2,0.2l0.3,0.1l0.5,0.5l0.2,0.1l0.2,0.5
	l0.3,0.2v0.3l0.2,0.2l0.2,0.5v0.1l0.2-0.1l0.1,0.2l0.6,0.4l0.2,0.1l0.5,0.3l0.2,0.1l0.5,0.5l0.1,0.2l0.4,0.4l-0.1,0.1l0.1,0.1h0.5
	l0.1,0.1l0.4-0.1h0.7l0.2,0.1h0.1l0.5,0.1l0.5,0.1l0.4-0.1h0.2v0.1l0.1-0.1h0.2l0.1,0.5l-0.4,0.8v0.3l-0.2,0.3l-0.2,0.4l0.1,0.3
	l0.1,0.1v0.7l-0.4,0.6v0.3l-0.1,0.4l-0.3,0.3l-0.2,0.6l0.1,0.3l0.3,0.2v0.4l0.2,0.1l0.2,0.3L349,418v0.1v0.2l0.3,0.1l0.4,0.2h0.1
	v0.2l0.2,0.3l0.1,0.5l0.1,0.2l-0.1,0.4l-0.6,0.5l0.5-0.2l0.4-0.3l0.4,0.1l0.3,0.3h0.3l0.1-0.3V420l0.5-0.7h0.1l-0.1,0.3v0.2h0.2
	l0.1,0.6l-0.1,0.4l0.4,0.3l0.5,0.1l-0.3-0.1l-0.3-0.3l-0.1-0.4l0.1-0.5l0.2-0.2l-0.2-0.2v-0.3l0.1,0.1l0.2-0.1l0.1-0.5l0.4-0.4
	l-0.1-0.1v-0.5l-0.2-0.1v-0.3l0.3-0.4l-0.1-0.2v-0.2l-0.2-0.1v-0.2l0.2-0.8l-0.1-0.3l0.1-0.5l0.2-0.2l-0.1-0.3l0.1-0.1l-0.1-0.3
	l0.2-0.1h-0.2l-0.1-0.2l0.2-0.1l-0.1-0.2v-0.3l-0.1-0.2v-0.3l-0.1-0.2l0.4-0.2l0.6-0.1l0.3-0.2h0.4l0.2-0.1l0.6-0.3l1-0.4v-0.1
	l0.2-0.2l0.7-0.3v-0.3l0.4-0.2l0.4-0.7h0.2l0.1,0.1h0.3l0.2-0.3l-0.3-0.4V408l-0.2,0.2l-0.1,0.3h-0.1l0.1-0.4l0.3-0.8l0.1-0.1v-0.5
	v-0.4l-0.2-0.5v-0.9l-0.1-0.8l-0.5-0.7l-0.3-0.2l-0.1-0.3l-0.3-0.1l-0.1-0.2l0.2-0.6l0.3-0.1l0.8-0.9h0.3l0.2-0.2v-0.2l-0.1-0.1
	v-0.1l0.3-0.4h0.2l0.2,0.4l0.2,0.1l-0.1-0.2v-0.4l0.3-0.1l0.3-0.6l-0.1-0.2H360v-0.1l0.3-0.4l-0.2-0.1l-0.1-0.2l0.2-0.2l0.3-0.1
	l-0.3-0.1v-0.2l0.1-0.4l0.2-0.1h-0.2h-0.5l-0.1-0.1v-0.2l0.7-0.5l0.4-0.6l0.1-0.4h0.2l0.1-0.2v-0.4l-0.2-0.1v-0.1h-0.2l-0.2-0.3
	v-0.6l0.2-0.5v-0.4l0.2-0.1l0.1,0.1h0.2v-0.2l0.2-0.2h0.2l0.2-0.1l0.2,0.1h0.5l0.5,0.3l0.7,0.4h0.4l-0.1,0.3l-0.4,0.2h0.5l0.4-0.3
	h0.3l0.2,0.2h0.2l0.2,0.3v-0.3l0.4,0.2l0.2-0.2h0.2l0.4-0.2l0.5,0.4v0.3l0.4,0.3h0.3v0.5l-0.2,0.2v0.2l0.2-0.1l0.3,0.3l0.2,0.3
	l-0.2,0.1l0.3,0.2l0.2-0.2l0.3,0.4v0.2l-0.3-0.2l-0.1,0.3h-0.3l0.4,0.4v0.3l0.3-0.2v0.2l0.2-0.2l0.5,0.4l0.2-0.1l0.1,0.2l0.3-0.2
	l0.4,0.1l-0.1,0.6l0.2,0.2l0.4-0.3l0.1-0.5h0.2v0.5l-0.1,0.5l-0.4,0.1l-0.3,0.5l0.1,0.8l-0.1,0.3l-0.1-0.4l-0.1,0.2l-0.1,0.5
	l-0.7-0.1L369,400l0.7,0.4l0.6,0.1l0.4,0.4v0.5l-0.3,0.4v0.2l-0.3,0.4h0.1l0.4,0.6l0.3,0.1l-0.2,0.1l-0.5-0.3l0.4,0.5l0.3,0.2h0.1
	l-0.1-0.3h0.3l0.3,0.3l0.2,0.3l-0.1,0.3v0.3l-0.3,0.5l-0.1,0.3l-0.2,0.3l0.3-0.2l0.4-0.8l0.4-0.4h0.1v0.3v0.6l-0.1,0.1v0.3l-0.1,0.3
	l0.4-0.4V405l0.3-0.3h0.3l0.3-0.2h0.2v0.1l0.1-0.2l0.3-0.1V404l0.2-0.3l0.4-0.3l0.2,0.2l0.1,0.5l-0.1,0.4l0.2-0.5v-0.5h0.1v-0.1
	l0.2-0.3h0.3l0.1-0.4l0.2-0.2l0.2-0.3l0.1-0.2h0.2l0.3,0.3v-0.2l-0.1-0.2h-0.3v-0.2l0.2-0.5l0.2-0.1l0.2,0.2V401l0.2-0.1v-0.2
	l0.3-0.4l0.1-0.3l-0.1-0.2l0.3-0.4l0.3-0.1l0.1,0.1l-0.2,0.2l0.3-0.1l0.1,0.1l-0.2,0.1v0.2l0.2,0.1l-0.2,0.2h-0.2v0.1h0.2h0.2
	l-0.1,0.3l-0.1,0.1h0.2v0.3l-0.2,0.1l0.1,0.3l0.3,0.3v0.4l-0.1,0.1l-0.2-0.1l-0.2,0.1l0.2,0.2l0.1,0.2h0.1l0.2-0.2v0.2l0.2,0.1
	l-0.2,0.4l-0.3,0.1l-0.3-0.1l-0.2,0.2l0.2,0.1l0.7-0.2l0.2,0.1l-0.1,0.3l-0.3,0.3l0.2,0.1l0.3-0.2v0.4l-0.3,0.4h-0.5l-0.2-0.2
	l-0.1,0.2l0.1,0.2l-0.1,0.2l0.4-0.2h0.5l0.3-0.1l0.1,0.1l-0.2,0.2v0.1l-0.3,0.2h-0.3l-0.5,0.6l0.5-0.2h0.3l0.2-0.1l0.3,0.1v0.3h-0.2
	l-0.3,0.2l-0.1,0.3l0.2-0.2l0.3,0.1l0.2-0.2l0.3,0.3l0.1,0.5l-0.3,0.3l-0.2-0.1l-0.2,0.1h-0.3l0.2,0.2h0.2l0.1,0.1h0.3l0.1,0.1
	l-0.1,0.2l-0.2,0.1l0.3,0.1h0.2l0.3,0.3l-0.1,0.3l-0.2,0.1l-0.4,0.3l-0.2-0.1l-0.1,0.1l0.3,0.1v0.2H379l-0.4-0.2h-0.4l0.4,0.2v0.3
	l0.3,0.3l0.1,0.2l-0.1,0.1h-0.3l-0.1,0.2h-0.4l0.6,0.2h0.2v-0.1l0.4-0.1h0.2v0.2l0.1,0.1l-0.1,0.1h0.2l0.1,0.1l-0.1,0.2l0.1,0.1
	l0.3-0.2l0.1,0.1l0.2,0.1v0.4l-0.1,0.2v0.1h0.1l0.3-0.4h0.1v0.3l0.2,0.2l-0.4,0.2l-0.5,0.6l-0.3,0.2l-0.3-0.1l0.3,0.2l0.3-0.1
	l0.6-0.6h0.2v0.2l-0.3,0.2l-0.1,0.3l0.2,0.1l0.3-0.4l0.3-0.3l0.3-0.1v0.1l-0.2,0.1l-0.1,0.1l0.1,0.1l0.4-0.2l0.1,0.1l-0.5,0.3
	l-0.2,0.2h0.1l0.2-0.2l0.6-0.5h0.1l-0.2,0.1v0.2l0.4-0.3v0.2v0.5l-0.2,0.1v0.2h0.3l0.4,0.2l0.2-0.3l0.4-0.1l0.2,0.1l-0.1,0.3h-0.2
	l-0.1,0.1l0.7,0.2l0.3,0.3l-0.5,0.1v0.1l-0.6,0.1l-0.1-0.1l-0.5,0.2l-0.3,0.3h-0.6l-0.8,0.1v0.2l0.6-0.1l0.6-0.2l0.2,0.1v0.1
	l-0.6,0.1l-0.6,0.1l-0.5,0.3l-0.2,0.2H380v0.3l-0.1,0.2l-0.6-0.4l-0.3-0.6v0.3l-0.1,0.2l0.2,0.1l0.1,0.1l0.6,0.5l-0.1,0.2l-0.2-0.1
	l-0.2,0.2l0.1,0.2h0.2l0.1-0.1h0.2l0.3-0.5h0.5l0.3-0.3h0.2l0.1-0.3l0.3-0.3h0.4l0.5-0.2h0.4h0.3l-0.1-0.1h-0.4l-0.1-0.1l0.2-0.1
	l0.7-0.1l0.5,0.1l0.2,0.5v0.3l-0.4,0.3h-0.2l-0.2,0.2h0.4l0.1,0.3l0.2-0.1l0.1-0.3l0.5-0.2h0.3l0.1,0.1H385v0.2h0.4l0.4,0.2l0.1,0.2
	l-0.3-0.1h-0.1l0.1,0.3l0.4,0.2l0.1,0.2l-0.2,0.2L386,418.5z M326.7,484.8L326.7,484.8H324H326.7z M363.9,371.2h-0.2l-0.1-0.1
	l0.1-0.1h0.2l0.2,0.1v0.2L363.9,371.2z M363.9,370.7h0.1v0.1L363.9,370.7z M363.4,370.6l0.2,0.1v0.1l-0.1,0.1L363.4,370.6z
	 M363,369.8h-0.2l-0.1-0.1l0.1-0.1h0.2v0.1l0.2,0.1v0.1H363V369.8z M362.5,369.5l0.1,0.2l-0.2-0.1L362.5,369.5z M361.8,369.5
	l-0.1-0.3l0.2,0.1h0.2l0.1,0.2l-0.1,0.1L361.8,369.5z M348.1,360.8l0.1-0.2l0.1-0.1v0.3l-0.1,0.1L348.1,360.8z M340.1,371.5v-0.2
	h0.3v0.3l-0.2,0.1L340.1,371.5z M327.7,370.6l-0.2,0.3h-0.1l-0.1-0.4l0.1-0.1l0.1,0.1l0.1-0.2h0.2l-0.1,0.2V370.6z M327.3,368
	l0.1-0.1h0.2l-0.2,0.1C327.5,368,327.3,368,327.3,368z M327,372l-0.1,0.2l-0.1,0.1l-0.1-0.5l0.1-0.2v-0.2l0.2-0.4l0.1,0.2l-0.1,0.2
	l0.1,0.1l-0.1,0.2l0.1,0.2L327,372z M326.7,369.4L326.7,369.4l0.1,0.2h-0.1V369.4z M326.6,369.6l-0.1-0.2l0.1-0.1l0.2,0.4
	L326.6,369.6z M326.3,368.3h0.2v0.1h-0.3L326.3,368.3z M312,356.4l-0.1,0.1l-0.2-0.2l0.1-0.2h0.3l-0.1,0.1L312,356.4z M308.7,353.3
	l0.1-0.2l0.3-0.2v0.3l-0.3,0.2L308.7,353.3z M298.7,355.7l-1.1,0.9h-0.3l-0.2,0.2h-0.3l-0.1-0.3l0.2-0.3v-0.5l0.2-0.2l0.1-0.3
	l0.1,0.1l0.2-0.2l0.2,0.2l-0.1,0.2l0.1,0.3l0.1-0.3l0.1-0.1h0.2l-0.1-0.2l0.3-0.1l0.2-0.4h0.2l0.1,0.5l0.2,0.1l0.2-0.1l-0.2,0.4
	L298.7,355.7z M297.7,354.7l-0.2,0.1l-0.1-0.2l0.2-0.1L297.7,354.7z M297.6,354.3l0.2-0.2h0.1l-0.2,0.2H297.6z M296.6,356.7l0.1,0.2
	l-0.4,0.2l-0.4-0.2l0.2-0.1l0.1-0.2l-0.1-0.3v-0.6l0.2-0.2l0.2,0.1v-0.2l0.2-0.1l0.1,0.3v0.8L296.6,356.7z M295.5,356.9h0.2l0.4,0.4
	h0.3v0.5l0.2,0.5l-0.2,0.3L296,358l-0.3-0.3v-0.2l0.4,0.1l-0.6-0.5V356.9z M295.8,356.7l-0.3-0.1l-0.1-0.1l0.1-0.1l0.1-0.3l0.3-0.3
	v0.6L295.8,356.7z M293.3,353.2l-0.2,0.1l-0.2-0.4l0.2-0.2l0.3,0.1l0.3,0.4l-0.1,0.1L293.3,353.2z M247.2,366.7v0.2l-0.3,0.2
	l-0.6,0.6l-0.2-0.1l0.2-0.2v-0.2l-0.2-0.2v-0.2l-0.3-0.3l0.2-0.1l0.6-0.1L247.2,366.7z M245.6,368l-0.1,0.7l-0.2-0.1v-0.2l-0.2-0.1
	l-0.4,0.1l-0.3-0.2V368l0.8-0.9l0.4-0.2l0.2,0.1v0.6L245.6,368z M244.7,358.7l0.2-0.1h0.2l-0.2,0.2L244.7,358.7z M239.9,364.8
	l-0.2,0.1l-0.1,0.2h-0.3l-0.4,0.4l-0.3-0.1l0.3-0.4l-0.1-0.4l-0.4-0.2l0.1-0.4l-0.1-0.5l-0.3-0.3h-0.5l-0.1,0.3h-0.3l-0.3-0.4v-0.4
	l0.7-0.7l0.3-0.6h0.2v0.6l-0.1,0.2l0.4,0.1v0.2h0.4l0.2-0.1l0.6,0.1l0.3,0.3v0.2l-0.2,0.2l0.2,0.4l0.3,0.2v0.3l0.6,0.6l0.1,0.3
	l-0.3,0.2L239.9,364.8z M238.9,376.4l-0.3,0.4l-0.1,0.4h-0.4l-0.3-0.1l-0.3,0.2l-0.3-0.2l-0.3-0.1l-0.3-0.6l-0.2-0.6h0.4l0.4,0.1
	h0.3l0.2,0.1l0.4-0.3l0.4-0.1v0.2l0.4,0.3L238.9,376.4z M233.9,394.8v0.2l-0.4-0.1l-0.2,0.2l-0.5,0.1l-0.3-0.1h-0.6l-0.3,0.4h-0.1
	l-0.2,0.1l-0.3-0.2l-0.1-0.3l0.1-0.3l0.1-0.2h0.1l0.3-0.2l0.1-0.1l0.3-0.5h0.1l0.3,0.2l0.1-0.1h0.3l0.2-0.1l0.1-0.1h0.4l0.2,0.3
	l-0.1,0.3L233.9,394.8z M230.2,396.3v-0.2h0.3l0.1,0.2H230.2L230.2,396.3z M229.4,373.6l-0.1-0.3l-0.1-0.2l0.2-0.1l0.2,0.1v0.3
	l0.4,0.4l0,0.2L229.4,373.6z M229.4,372.6l0.1-0.2l0.1,0.2l-0.2,0.1L229.4,372.6z M229,396.4l-0.3-0.2V396l0.3-0.1l0.1,0.2l0.2,0.1
	l-0.1,0.2H229z M228.4,396.3l0.2,0.1v0.2l-0.3-0.1L228.4,396.3z M228.1,397v0.1l-0.4,0.2l-0.2,0.3h-0.2l-0.1-0.2l-0.2-0.1l-0.1,0.2
	l-0.1,0.3l-0.2-0.1v-0.3l-0.3,0.4l-0.4,0.1h-0.5l-0.2-0.2h0.2h0.3l0.4-0.3h0.2l0.3-0.3h0.2v-0.2l0.3-0.2l0.3,0.2l0.1-0.1l-0.2-0.2
	v-0.2l0.3-0.3h0.3l0.1,0.2l0.3,0.1l0.1,0.3l-0.3,0.2L228.1,397z M224.9,398l-0.5,0.2l-0.5,0.6h-0.4l-0.3,0.4h-0.6l0.3-0.3h0.2
	l0.2-0.3l0.2-0.1v-0.2l0.4-0.3l0.3-0.1l0.1-0.3l-0.1-0.2h0.5c0,0,0.3-0.1,0.3-0.2l0.1,0.3l0.2,0.1l-0.3,0.1L224.9,398z M221.4,398.9
	l0.3-0.1l0.1,0.2l-0.2,0.1L221.4,398.9z M221.2,398.5l0.1,0.2H221L221.2,398.5z M221.2,399.2l-0.2,0.1l-0.2-0.1l0.2-0.1L221.2,399.2
	z M219.8,399.5v-0.3l0.3-0.2l0.3,0.3h-0.2L219.8,399.5z M219.1,399.3l0.1,0.4l-0.3-0.1L219.1,399.3z M216.7,400l0.1-0.3h0.4l0.3,0.2
	l-0.3,0.2h-0.5V400z M215,400.4l-0.3,0.1l-0.2-0.2l0.3-0.1l0.8,0.1l0.2-0.1l0.2,0.2l-0.4,0.1L215,400.4z M214.4,400.1L214,400
	l-0.4,0.1h-0.3l-0.2,0.1l-0.2-0.2l0.1-0.2l0.2,0.1h0.2l0.2-0.2l0.2,0.1l0.1-0.1v-0.2l0.3-0.2l0.2,0.1l0.1,0.3l-0.2,0.1L214.4,400.1z
	 M209.9,400.6l0.2-0.4l0.2-0.1l0.1-0.3l0.2,0.1l0.1,0.4l-0.4,0.3H209.9z M209.5,400.3l-0.4,0.2l-0.2-0.1l0.3-0.2l0.1-0.3l0.3-0.3
	l0.1,0.1l-0.2,0.3L209.5,400.3z M208.4,400.2l-0.2,0.1l-0.1-0.2l0.3-0.1l-0.3-0.1l-0.1-0.2l0.2-0.2h0.2l0.4,0.4l-0.2,0.1
	L208.4,400.2z M206.8,399.6l0.2-0.1v0.3L206.8,399.6z M206.2,400.5l0.2-0.1l0.3,0.1l-0.3,0.2L206.2,400.5z M206,401.3l0.2-0.3
	l0.1,0.2L206,401.3z M229.6,395.6h0.1l0.1,0.3l-0.3,0.1l0.1-0.2L229.6,395.6z M230,396.4h-0.3l0.2-0.1L230,396.4z M234.2,395.9
	L234,396l-0.3-0.2l0.2-0.2L234.2,395.9z M235.3,394.6l-0.2,0.2l-0.1-0.2l0.3-0.2V394.6z M236.4,394.3l-0.2,0.1l-0.1-0.3h0.2
	L236.4,394.3z M237.8,393.7l0.2,0.2l-0.1,0.3v0.2h-0.2l-0.1-0.2l0.1-0.3L237.8,393.7z M238.4,393.9l-0.2,0.2v-0.3L238.4,393.9z
	 M238.7,393.6l0.1,0.2l-0.2-0.1L238.7,393.6z M238.6,394.5v-0.1h0.4l-0.2,0.2l-0.1,0.2l-0.4,0.2l-0.2,0.2l0.2-0.4L238.6,394.5z
	 M239.5,394.8l-0.2,0.1l0.2-0.4V394.8z M239.6,395.2l-0.1,0.1v-0.2l0.2-0.2L239.6,395.2z M245.2,391.1l-0.2,0.1l-0.3-0.3h0.3
	L245.2,391.1z M246.1,393.4l-0.1,0.2l-0.2,0.1h-0.1v-0.2L246.1,393.4z M248.9,391.3l-0.6,0.6H248l0.2-0.4L248.9,391.3z M249,391.8
	l-0.1-0.2h0.2L249,391.8z M249.5,390.4l-0.1,0.2l-0.2,0.1l-0.2-0.1v-0.3l0.2-0.2l0.1-0.3v-0.4l-0.1-0.2l0.1-0.2l0.4-0.3l0.7-0.3
	l0.4-0.1l0.1,0.1v0.6l0.1,0.1l0.3-0.3l-0.1-0.3l0.1-0.1l0.2,0.1l0.1-0.2l-0.3-0.2l-0.1-0.1l0.3-0.3h0.2l0.2,0.2v0.3l-0.1,0.1v0.2
	l0.2-0.1l0.1-0.3l0.1-0.1l0.2,0.1l0.1-0.3l-0.1-0.2l0.2-0.1l0.3,0.2v0.2l-0.1,0.1v0.1l0.2,0.1l0.3-0.3l0.3-0.1l0.2,0.1l0.1,0.3
	l-0.3,0.1h-0.3v0.2l0.1,0.1l0.1,0.2l-0.2,0.3h-0.2L253,389l-0.2,0.1l-0.2-0.1h-0.2l-0.1,0.1l0.3,0.1l0.2,0.3l-0.2,0.3h-0.2l-0.2-0.3
	h-0.4l-0.2,0.1l0.3,0.1l0.1,0.2l-0.2,0.1l-0.3-0.1l-0.3,0.1h-0.1l-0.2,0.3h-0.1l-0.2,0.1l0.1,0.2l-0.3,0.2v0.2l-0.2,0.1l-0.1,0.2
	l-0.3-0.1v-0.1l0.6-0.4v-0.2l0.2-0.3h-0.1l-0.2,0.2l-0.1-0.1l0.1-0.2H250l-0.2,0.2h0.2L249.5,390.4z M254.4,385.6v0.2l-0.2,0.2
	l-0.2-0.1l0.1-0.3h0.1L254.4,385.6z M254.5,383l-0.2,0.1L254,383l0.2-0.1L254.5,383z M253.3,387.5h-0.2l-0.4-0.3l-0.1-0.1l0.1-0.1
	l0.2,0.1l0.1-0.1l0.2,0.1l0.2-0.3l-0.1-0.2l0.1-0.2l0.3-0.1l0.2,0.1l-0.1,0.3h0.1l0.1-0.1l0.2-0.1l0.1,0.2l-0.2,0.1L254,387l0.2,0.1
	l0.1,0.2l-0.2,0.1l-0.2-0.1l-0.2,0.2h-0.2l-0.1-0.2L253.3,387.5z M262.8,383.2l-0.3,0.2c0,0-0.1-0.1-0.2-0.1l0.4-0.3L262.8,383.2z
	 M264.1,381.8l-0.2,0.2l-0.1,0.2l-0.3,0.3l-0.1,0.2h-0.2l-0.1-0.1l0.4-0.4V382l0.2-0.2h0.2H264.1z M263.9,380.9l-0.3-0.4l0.2-0.2
	l0.2,0.1l-0.1,0.2L263.9,380.9L263.9,380.9z M264.6,381.2h0.2v0.2h-0.3L264.6,381.2z M262.7,383.8l0.1-0.1v-0.2l0.6-0.5l0.3-0.1
	l0.3-0.4h0.1l0.3-0.4l0.1,0.2l-0.1,0.2l0.1,0.1l-0.2,0.2L264,383l-0.5,0.5l-0.3,0.1l0.1,0.2l-0.1,0.2l-0.4-0.1l-0.2,0.1h-0.3v-0.1
	L262.7,383.8z M264.1,385.4h-0.5l0.3-0.2L264.1,385.4z M265.1,380.7l0.2-0.1l0.2,0.1l-0.2,0.1L265.1,380.7z M265.3,382.1v0.3h0.2
	l0.1,0.2l-0.3,0.1l-0.4-0.1v-0.5l0.2-0.1L265.3,382.1z M267.4,384.4h0.2l-0.3,0.3l-0.3,0.1v-0.3L267.4,384.4z M275.7,395.5v-0.2
	l0.2-0.2l0.1,0.2l-0.1,0.2v0.3l-0.3,0.1l-0.1-0.2L275.7,395.5L275.7,395.5z M275.8,405.2l0.5-0.8l0.5,0.1l-0.1,0.4l0.2-0.1l0.2-0.2
	l0.2,0.1v0.2v0.4l-0.3,0.3l-0.6,0.2l0.2,0.1v0.2l0.4-0.1l0.2-0.5l0.4-0.5l0.5-0.2h0.1l-0.6,0.6l-0.1,0.5l-0.3,0.3v0.5l-0.4,0.3h-0.3
	l-0.2,0.3h0.3l0.2-0.1h0.4v0.4h-0.4l-0.2,0.4l0.1,0.3l-0.1,0.4l0.2,0.5l0.1,0.4h0.2l0.1,0.2l-0.2,0.3l-0.4-0.1l-0.5-1v-0.4l0.1-0.2
	l-0.4-0.1l-0.1-0.3l0.1-0.2h0.4l-0.3-0.3l-0.2-0.1l0.2-0.3l-0.2-0.3v-0.2h0.3l0.1,0.1v-0.3l-0.2-0.2l-0.3-0.1v-0.3l0.2-0.3
	L275.8,405.2z M277.6,402.3l-0.1-0.1l0.1-0.2l0.1,0.2L277.6,402.3z M278.7,398.6l0.3-0.3h0.5v0.2l-0.3,0.4l-0.3-0.1L278.7,398.6z
	 M279.2,399.7l0.2-0.5h0.2v0.3l-0.2,0.1L279.2,399.7z M279.4,396.8v0.4l-0.2,0.4h-0.1v-0.4l-0.2,0.1v0.3l-0.1,0.1l0.2,0.3l-0.2,0.1
	l-0.1-0.1l-0.2,0.2h-0.2v-0.4l0.2-0.7l0.1-0.2l-0.3-0.1l0.1-0.3l-0.1-0.2v-0.2h0.4l0.3,0.4h0.3L279.4,396.8z M278.2,392.7l0.2-0.4
	l0.1,0.2v0.3l0.4,0.3l0.2,0.2l0.1,1.1l-0.2,0.5l-0.1-0.1l0.1-0.7l-0.1-0.6l-0.1,0.3v1.1l-0.1,0.2v0.3l-0.2,0.1l-0.2-0.1l-0.1,0.5
	l-0.4,0.3l-0.3,0.2l-0.2-0.2l0.2-0.3v-0.3l0.2-0.2h0.4l-0.1-0.2l0.1-0.2l-0.3-0.1l0.1-0.5l0.3-0.4V392.7z M276.3,399.3l0.2,0.1
	l-0.2,0.1V399.3z M276.5,401l0.2,0.1l-0.3,0.3L276.5,401z M277,401.2v0.4l-0.2-0.1L277,401.2z M277.1,403.2l-0.1-0.1v-0.3l-0.2-0.4
	l0.1-0.2h0.1l0.2,0.1v0.2l0.2,0.4L277.1,403.2z M276.9,401.8l0.1-0.1h0.1l0.1,0.2L277,402L276.9,401.8z M277.2,399.9l0.2-0.1
	l0.1,0.2l-0.2,0.1L277.2,399.9z M277.8,399.3h-0.2l-0.2,0.1l-0.2-0.1l0.2-0.4l0.3-0.1l0.2,0.2L277.8,399.3z M277.3,395.1l-0.1,0.2
	l-0.1-0.2H277.3z M278,397.1l0.1,0.2l-0.2,0.6l-0.5,0.5v0.3l-0.2,0.2L277,399l0.1-0.3l-0.1-0.2l-0.2,0.6l-0.1-0.1v-0.2l0.1-0.2v-0.2
	l0.1-0.2l0.2,0.1l0.2-0.2v-0.2l-0.2-0.2l0.2-0.3l-0.2-0.1V397l0.1-0.2l0.3,0.1v-0.3h0.1l0.3,0.4l-0.1,0.2v0.2L278,397.1z M276,396.3
	h0.3l0.2-0.2v-0.3l0.2-0.2l-0.2-0.2v-0.2l0.3-0.1l0.1-0.2l0.2,0.1l0.1,0.4v0.5l-0.1,0.5l-0.1,0.1l-0.1,0.6l-0.2,0.2l-0.1,0.4v0.4
	l-0.1,0.2l-0.1,0.1v-0.2l0.1-0.2l-0.1-0.1l-0.1-0.4l0.1-0.2h0.2l0.2-0.1v-0.1l-0.2,0.1h-0.1V397l0.1-0.1l0.1-0.1l-0.3-0.1L276,396.3
	z M276.6,392.1l0.3-0.2l0.1,0.2l-0.2,0.2L276.6,392.1z M277.3,392.9l0.2-0.1l0.3,0.3v0.2l-0.3,0.1l0.1,0.2l-0.2,0.2l-0.2-0.1
	l-0.2-0.3l-0.4-0.3v0.1l0.4,0.6v0.2h0.3l0.2,0.2l-0.2,0.2v0.4h-0.2l-0.3-0.3v-0.3l-0.4-0.7l-0.1,0.3l0.2,0.4v0.3l-0.2,0.2H276
	l-0.3-0.3l0.2-0.2l-0.2-0.1l0.1-0.3l-0.2-0.4l0.2-0.3l0.2,0.2l0.1-0.2L276,393v-0.4l0.1-0.3l0.1,0.3l0.2-0.1l0.1-0.2l0.4-0.1
	l0.3,0.2v0.2l-0.1,0.2l0.1,0.2L277.3,392.9z M280,398.8v0.3l-0.2,0.2l-0.2-0.2l0.1-0.2l0.1-0.3L280,398.8z M279.2,398.2l-0.1-0.1
	v-0.2l0.3-0.4l0.2-0.1l0.2,0.5l-0.2,0.3L279.2,398.2z M279.1,399.1l0.5-0.3v0.2l-0.2,0.2l-0.2,0.3H279L279.1,399.1z M279,406.5
	l0.1-0.2l0.6,0.8l0.2,0.5l-0.1,0.3l-0.2-0.1v-0.3l-0.5-0.5L279,406.5z M280.8,412.6v-0.3l0.2-0.2l0.1,0.3l-0.1,0.4L280.8,412.6z
	 M281.5,411.4l-0.2,0.4h-0.2H281l0.1-0.3l0.4-0.2L281.5,411.4z M281.3,410.9l-0.1,0.2h-0.1v-0.3l0.1-0.1L281.3,410.9z M280.6,409.6
	l0.4-0.2l0.1,0.2l-0.1,0.2L280.6,409.6z M280.6,407.6l0.1,0.2l-0.1,0.2l-0.2-0.2L280.6,407.6z M280.5,409.4l-0.2,0.3v-0.2l-0.2-0.1
	v-0.6l0.2,0.3L280.5,409.4z M280.2,408.3v-0.4l0.2,0.3L280.2,408.3z M280.4,407v0.5l-0.3-0.3v-0.4l-0.2-0.4V406l0.1-0.1h0.1l0.1,0.4
	L280.4,407z M279.9,405.8h-0.2v-0.2h-0.5l0.2-0.2l0.4-0.2l0.3,0.2L279.9,405.8z M279.8,402.2l-0.3,0.3l-0.2-0.2l0.2-0.2l-0.1-0.2
	l0.3-0.1L279.8,402.2z M279.3,401.3l0.2,0.3l-0.3,0.2v-0.3l-0.1-0.2H279.3z M279.8,404l-0.2,0.2l-0.1-0.3l0.2-0.1L279.8,404z
	 M279.3,402.8l0.3-0.2l0.2,0.1l-0.2,0.2L279.3,402.8z M280.4,401.6l-0.5,0.4l-0.1-0.2l0.2-0.3l0.3-0.2v-0.1l-0.6,0.3l-0.1-0.2
	l0.3-0.3v-0.1l0.2-0.4l0.3-0.1v-0.2h0.4l0.1,0.3l-0.1,0.4l0.1,0.3L280.4,401.6z M281.2,406.9l0.3-0.2h0.2l-0.1,0.3l-0.3,0.1
	l-0.2,0.2L281.2,406.9z M281,409l0.2-0.4l-0.3,0.3h-0.2v-0.2l0.1-0.2h-0.2l0.3-0.3l0.3-0.1l0.4,0.2l-0.1,0.7l-0.3,0.3L281,409z
	 M281.3,409.7v-0.4l0.2-0.3l0.1,0.3l-0.2,0.1v0.1L281.3,409.7z M282.6,415.7l-0.4-0.2h0.4V415.7z M282.2,414.6l0.1,0.3H282
	L282.2,414.6z M282.6,414.9l0.2,0.1l-0.2,0.2h-0.3V415h0.2L282.6,414.9z M283.8,416.6l0.2-0.1l-0.2,0.5V416.6z M284.5,418.1
	l-0.1-0.4l0.3,0.3l0.3,0.4l-0.1,0.2L284.5,418.1z M279.8,414.8h-0.1l-0.1-0.4h0.5l0.1-0.1l0.3,0.1l0.2,0.3h0.4l0.1,0.3l0.2,0.3
	l0.5,0.3l0.1,0.3l0.4,0.1h0.3l0.6,0.3h0.3l0.2,0.2v0.5l0.4,0.6l0.1,0.9l0.7,0.5l0.3,0.4l-0.1,0.6l0.1,0.2l-0.1,0.4l0.2,0.8h-0.3
	l-0.2,0.1l-1-0.6l-0.1-0.2l-0.2-0.1L283,420l0.4-0.5H283l-0.1-0.2l-0.2,0.2l-0.4-0.3l0.1-0.3l-0.1-0.3h-0.2v-0.3l-0.5,0.1l-0.1-0.4
	l-0.2,0.1v-0.3l0.3-0.2l0.1-0.4l-0.4,0.1v0.3l-0.2,0.1l-0.2-0.4l0.4-0.5L281,417l-0.3-0.2v-0.3h-0.3v-0.3l-0.4,0.1l-0.1-0.1l0.2-0.4
	l-0.2-0.1l0.2-0.3h0.4l0.3-0.2l-0.8-0.1L279.8,414.8z M278.4,403.2h-0.3l-0.1-0.1l0.1-0.3l-0.3-0.2v-0.2l0.2-0.2l-0.2-0.2l0.1-0.2
	l0.2-0.1l-0.1-0.1h-0.2l-0.1,0.2l-0.1-0.1h-0.2l-0.1-0.2l0.1-0.2h0.2l0.1-0.2V401l0.3-0.2v-0.1h-0.2l-0.2,0.1l-0.1-0.1l0.1-0.1
	l0.3-0.1l0.1-0.3V400l0.1-0.4l-0.1-0.3l-0.2-0.3l0.2-0.2l0.3,0.1l0.2,0.3l-0.2,0.3l-0.1,0.2l0.2,0.2h0.1l0.4,0.2v0.5h-0.2l0.3,0.3
	v0.2h-0.2l-0.1-0.1l-0.1,0.3l0.4,0.2l0.2,0.3l-0.3,0.2v0.1h0.2l0.1,0.1v0.2l-0.3,0.2h-0.2l-0.1,0.2h0.1l0.1,0.2l-0.1,0.1l0.1,0.2
	L278.4,403.2z M355.8,443l0.4-0.2l0.3,0.1l0.4-0.1h0.5l0.4-0.2v0.1l-0.1,0.1l-0.1,0.2l0.3-0.1l0.2,0.1l0.3-0.1l-0.2,0.2l-0.4,0.1
	h-0.1l-0.1,0.1h-0.4l-0.2,0.1h-0.5l-0.3,0.1h-0.3l-0.1,0.1l-0.2,0.1l0.1-0.1h-0.2v-0.1l0.2-0.2L355.8,443z M360.5,441.9h0.3l0.1,0.2
	h-0.2l-0.1,0.1h-0.2l-0.1-0.1L360.5,441.9L360.5,441.9z M375.5,430.7L375.5,430.7h-0.2l-0.1-0.2l0.2-0.3l0.3-0.2h0.1v0.1l0,0
	l-0.2,0.2l-0.1,0.2l-0.1,0.1L375.5,430.7L375.5,430.7z M373.2,424.9l0.7,0.2h0.4l0.4,0.1l0.3,0.3h0.1l0.4,0.3l0.2,0.3l0.2,0.1
	l0.2,0.1l0.1,0.1l0.2,0.2v0.2L376,427l-0.3-0.1h-0.2l-0.2-0.2l-0.3-0.1h-0.4l-0.6-0.4h-0.2l-0.1-0.1l-0.1-0.3l-0.5-0.4l-0.3-0.1
	l-0.1-0.3l0.3-0.2L373.2,424.9z M372.2,431.9l0.2,0.1v-0.2h0.2l0.4,0.3h0.2l0.1,0.1h0.5l0.1-0.1l0.3,0.1h0.5l-0.1,0.1l-0.3,0.1
	l-0.1,0.3v0.2l-0.1,0.3l-0.2,0.1l-0.4-0.2l-0.1-0.3l-0.7-0.1l-0.2-0.1v-0.2l-0.1-0.2h-0.1L372.2,431.9l-0.2,0v-0.2l-0.1-0.1h-0.2
	l-0.1-0.1l0.1-0.2l0.6-0.4l0.1,0.3l-0.2,0.2v0.1l0.1,0.2L372.2,431.9z M375.5,433.9v-0.4l-0.1-0.2l0.1-0.2l0.4-0.2l0.3-0.5l0.1-0.2
	l0.2-0.3l0.4-0.3l0.1-0.2h0.2v0.1l-0.1,0.2h0.3v0.2l-0.3,0.6l-0.2,0.2l0.3,0.1l0.1,0.2l-0.1,0.2l0.1,0.1l0.2-0.1V433l0.2-0.1
	l0.3,0.1l0.1,0.4l0.1,0.1l-0.3,0.1l-0.2,0.1l-0.4,0.1l-0.5,0.4h-0.3l-0.1-0.2l-0.1,0.1l-0.1,0.3l-0.1,0.1l-0.1-0.2L375.5,433.9z
	 M383.1,431.3l0.1-0.1l0.1-0.1v0.1l0.1,0.1v0.2l-0.1,0.1v0.1l0.1,0.1l0.1,0.1l-0.1,0.2h-0.1l-0.1-0.2l0.1-0.2l-0.1-0.2L383.1,431.3z
	 M383.7,432.1v0.1l-0.1,0.1l-0.1-0.1V432L383.7,432.1z"/>
</svg>
