<?xml version="1.0" encoding="utf-8"?>
<!-- Generator: Adobe Illustrator 19.0.1, SVG Export Plug-In . SVG Version: 6.00 Build 0)  -->
<svg version="1.1" id="Layer_1" xmlns="http://www.w3.org/2000/svg" xmlns:xlink="http://www.w3.org/1999/xlink" x="0px" y="0px"
	 viewBox="-157 331.2 280.2 179.7" style="enable-background:new -157 331.2 280.2 179.7;" xml:space="preserve">
<style type="text/css">
	.st0{fill:#FFFFFF;}
</style>
<path class="st0" d="M101.4,413.6h-0.2l0.2-0.4l0.2-0.1l0.5-0.6l0.2-0.1l0.1-0.2l0.2-0.2l0.2,0.1l0.5,0.6l0.2,0.5l0.1,0.5l-0.2,0.1
	l-0.5,0.4l-0.3,0.4l-0.2,0.5v0.3l-0.1,0.2l0.2,0.4l0.1,0.5l-0.1-0.1l-0.4-0.4l-0.1-0.2l0.2-0.3V415l-0.2-0.3l-0.1-0.7l0.1-0.4
	l-0.1-0.1L101.4,413.6z M94.2,401.8l0.1,0.1v0.2l-0.2,0.2l-0.1-0.4l0.1-0.1L94.2,401.8z M93.7,400.9H94l0.3,0.4v0.2l-0.2,0.1
	l-0.4-0.4L93.7,400.9z M58.2,440.6l-0.2-0.3V440l0.4-0.2l0.2-0.3h0.1l0.1,0.3l-0.2,0.2l0.1,0.3l-0.1,0.1l-0.2-0.2l-0.1,0.1v0.1
	L58.2,440.6z M61.4,441.6l-0.1,0.3l-0.2,0.2L61,442l0.2-0.3v-0.2l0.1-0.1L61.4,441.6z M60.6,441.5l0.1-0.1l0.1,0.1v0.3l-0.1,0.2
	l-0.2-0.3L60.6,441.5z M61.2,442.9L61,443l-0.2,0.4l-0.3-0.2v-0.3l0.3-0.5l0.6-0.2l-0.1,0.3l0.1,0.1L61.2,442.9z M60.8,439.8
	l0.1-0.2h0.3l-0.1,0.2l-0.2,0.2v0.3l0.1,0.2l-0.1,0.2l-0.2,0.2l-0.3-0.1l-0.3-0.3l-0.2-0.1l-0.1,0.1l-0.1,0.2l-0.1,0.1l-0.3-0.6
	v-0.3l0.3-0.2l0.1-0.4l0.2-0.2l0.3,0.2l0.4-0.1l0.1,0.1v0.2l-0.2,0.3l0.1,0.1L60.8,439.8z M-148.2,443.8l-0.1,0.2l-0.4-0.2
	c0,0,0.1-0.4,0.2-0.4L-148.2,443.8z M-138.3,426.8h-0.2l-0.1-0.2l-0.3-0.3V426l0.3-0.3l0.3,0.1v0.2l-0.1,0.2l0.2,0.4L-138.3,426.8z
	 M-127.3,419.4v0.2h-0.2l-0.3-0.3v-0.2h0.2L-127.3,419.4z M-110,411.3l0.1-0.3l0.2-0.1l0.1,0.2l-0.2,0.2L-110,411.3z M-89.4,404
	l0.2,0.2v0.3l-0.2,0.3l-0.3-0.1l-0.1-0.2l0.1-0.2v-0.2L-89.4,404z M-81.5,415v-0.3l-0.3-0.1v-0.2h0.3l0.3,0.1l0.3-0.1l0.3,0.1
	l0.2,0.4l-0.2,0.2l-0.4,0.1L-81.5,415z M-64,395.9l-0.2-0.3v-0.5h0.2l0.1,0.3L-64,395.9z M-65,393.9h0.1l0.3,0.5l0.1,1.1l-0.2,0.4
	l-0.1-0.2l0.1-0.7l-0.2-0.5L-65,393.9z M-65.1,393.6l-0.2-0.1l-0.2-0.4l0.2-0.1l0.3,0.3L-65.1,393.6z M-67.4,377.7l-0.2,0.2
	l-0.2-0.1l-0.2-0.5l0.3,0.1L-67.4,377.7z M-69.7,374.8l-0.1-0.2v-0.3h0.4l0.2,0.2v0.3l-0.4,0.3l-0.2,0.1l-0.1-0.1L-69.7,374.8z
	 M-69.4,376.5l0.4,0.1l-0.2,0.3h-0.5l0.1-0.2v-0.2L-69.4,376.5z M78.3,358l-0.3,0.2l-0.2-0.2l0.1-0.2l0.4-0.1V358z M122.2,367.5
	l-0.3,0.4l0.5,0.3l0.3-0.1l0.3,0.6v0.3l-0.6,0.3l-0.5-0.7l-0.1-0.1l0.2,0.8l-0.3,0.3h-0.2l-0.1-0.2h-0.3l-0.3-0.2l-1-0.1l-0.4,0.2
	H119l0.1-0.3l-0.2-0.3l-0.3-0.1l0.1,0.5h-0.3l-0.1,0.1l0.2,0.3l-0.3,0.4h-0.1v-0.2l-0.2-0.1l-0.9,0.2l-0.2-0.1v-0.2l-0.2-0.5
	l-0.1-0.1l-1-0.7l-0.1-0.2l0.1-0.1l-0.7-0.2l-0.1,0.4l-0.7,0.2l-0.4,0.4h-0.2v-0.5l-0.2-0.4l0.1,0.4l-0.1,0.8l0.2,0.5l-0.2,0.5
	l-0.8,1.1H112v-0.7l-0.4-0.2l-0.4,0.2l-1-0.8l0.1-0.3l-0.2-1l-0.4-0.1l-0.1-0.3l-0.2-0.3l-0.2,0.2l0.1,0.3v0.3l0.3,0.3l-0.1,0.3
	l-0.7-0.4l-0.5-0.6h-0.1l0.2,0.5l-0.3,0.2l0.2,0.2h0.5l0.3,0.3l-0.2,0.4h-0.6l-0.1,0.3l0.3,0.1l1.2,1.4l0.8,0.2l0.5-0.2l0.5,0.3
	l0.1,0.6h-0.1l-0.4-0.5h-0.2l0.3,0.6l0.6,0.5l0.2,0.5l0.4,0.5v0.9l-0.3,1.4l0.2,0.8v0.6l0.1,0.3l-0.5,0.8v0.5l-0.4,0.3l0.1-0.4
	l-0.1-0.2l-1,0.7l-0.2-0.3l-0.4,0.3l-0.3-0.1l-0.2-0.4H109l-0.6-0.6l-0.5-0.3l-0.5-0.1l-0.3-0.2l-0.4,0.1l-0.4,0.5h-0.5l0.5,0.2h0.6
	l0.3-0.4l1.1,0.5l0.2,0.4l-0.6,0.4l-0.4-0.2H107v0.4l-0.4-0.5h-0.4h0.2l0.2,0.6l0.6,0.3l-0.2,0.6l0.3,0.7l0.4,0.2l-0.2-0.1v-0.9
	l0.3-0.2l0.4,0.1v-0.2l0.6-0.6l0.3-0.1l0.3,0.2v0.3l0.5,0.8l0.5,0.1l0.5,0.5l0.6-0.1l0.2-0.3l-0.1-0.3h0.2l1.1,0.9l0.2,0.3l-0.4-0.1
	v0.4l0.8,0.7h0.3v-0.2v-0.6l0.6,0.5l0.8,1.3l-0.3-0.3h-0.3l-0.1,0.1l0.3,0.4l-0.4,0.3v0.5l0.2,0.3l0.4-0.1l0.1-0.5l0.2-0.1l0.3,0.1
	l0.1-0.4l0.3,0.6l0.9,0.6l1,0.2l0.6,0.5l-0.3,0.3l0.5,0.8l0.5,0.1l0.6,0.9v1.3l-0.3,0.1v0.2l0.4,0.3l0.2,0.5l-0.2,0.1l-0.3-0.2h-1.5
	l-0.5-0.3l-0.3,0.2l-0.4-0.1l-0.1-0.4l-0.2-0.1l-0.1,0.2l0.2,0.3l-0.7,0.4h-0.5l-0.2,0.2l0.3,0.2l-0.7,0.6h-0.4v0.4l0.3,0.1
	l-0.6,0.8l-0.2,0.2l-0.1-0.1h-0.3v0.6l0.3,0.6l-0.4,0.4l-0.2-0.3l-0.1,0.4l0.2,0.3l-0.5,0.5l-0.3,0.1l0.2,0.2l-0.1,0.2l-0.2,0.4
	l-0.3-0.1l-0.3,0.2l0.3,0.3v0.3l-0.4,0.3l0.2,0.3l-0.1,0.3l-0.3,0.1l-0.2-0.2l-0.3,0.1l0.2,0.3l0.6,0.3l-0.2,0.5h-0.6v0.2l0.3,0.2
	l0.3,0.7l-0.3,0.2l0.2,0.3l-0.4,0.6l0.1,0.3l-0.3,0.7l-0.2,1l-0.2,0.4v0.4l0.3,0.1l0.1,0.3l-0.2,0.3l0.6,0.8v0.3l-0.3-0.1l-0.5,0.1
	l-0.4-0.4L110,406l-0.6-0.7l0.2-0.1l-0.2-0.1l-0.4,0.1h-0.3l-0.1-0.4l-1.1-0.6l-0.6-0.1l-0.7,0.4l-0.2-0.2l-0.4,0.1l-0.4,0.6h-0.4
	l-0.2,0.8l-0.3,0.3l-0.4-0.2l0.3,0.6l-0.2,0.3l0.1,0.5l-0.1,0.4l-0.1,1.1l-0.2,0.2l-0.3-0.3l-0.5-1.3v-0.5l-0.4-0.2l-0.3-0.4v0.5
	l-0.5,0.9l-0.3,0.2l-0.1,0.4l0.5,0.2l-0.4,0.9l-0.3-0.5h-0.2l-0.2-0.3h-0.3l-0.2,0.6l-0.2,0.1l-0.4-0.2h-0.3l-0.1,0.3l0.3,0.4
	l-0.2,0.2l-0.1,0.4l-0.1,0.4l0.4,0.4l0.1,0.5l-0.2,0.1l0.1,0.3l0.4,0.1l0.3,0.3l0.1,0.3h-0.2l-0.1,0.3l0.3,0.3l0.3,0.3v0.2l-0.4-0.3
	l-0.3,0.1l-0.1,0.2l0.4,0.4l0.2-0.1v0.4l-0.1,0.5v0.4l-0.3,0.3l0.2,0.6l-0.2,0.3l0.2,0.4v0.2v0.4l0.3,0.7l-0.2,0.2l0.3,0.2l0.4,0.4
	l0.6,0.7l0.5,0.2l0.2-0.1l0.1-0.4l-0.5-0.6v-0.3l0.3-0.2h0.4l0.7,0.5l0.3-0.1l0.3,0.1v0.4l-0.1,0.2l0.3,0.3l-0.3,0.4l0.1,0.3
	l-0.2,0.1l-0.3,0.4l0.4,0.8l0.3,0.5v0.7l0.4,0.3l0.2-0.2V423l0.3-0.3l0.1-0.2l0.1,0.1l0.4,0.2v1l0.9,0.8l0.3,0.7l-0.2,0.3v0.6
	l-0.3,0.1l-0.5-0.4l-0.6-0.2v-0.6l0.2-0.4v-0.5l-0.1-0.4l-0.3,0.3l0.1,0.2v0.3l-0.4,0.1l-0.4,0.6l0.1,0.3l0.5-0.1v0.4l-0.3,0.5
	l0.2,0.7l-0.1,0.2v1.5l0.3,0.3v0.3l1.1,1.6h0.3l0.7,1l0.5,0.3l-0.3,0.3v0.5l-1.2,0.5l-0.1-0.2l-0.7,0.4l-0.3-0.1l0.2,0.2l-0.4,0.8
	l-0.1,0.6l-0.3,0.3l0.3,0.4l-0.3,1.1l0.4,1.2l0.6,0.3v0.5l0.6,0.3l0.3,0.4h-0.5l-0.1-0.1l-0.4,0.3l-0.3,0.3l-0.3-0.1l-0.6,0.6
	l-0.4-0.3l-0.2,0.4l0.3,0.2h0.4l-0.1,0.5l-0.1,0.3l0.4,0.4l-0.2,0.2l-0.2-0.1l0.3,0.6l-0.1,0.3l0.3,0.1l0.2-0.1l0.4,0.4l-0.3,0.3
	v0.6l0.2,0.4l-0.1,0.9l-0.2,0.3l0.1,0.2l-0.1,0.4l-0.5,0.4v0.4l-0.1,0.1l-0.2,0.9l-0.4,1l0.1-0.4l-0.1-0.3v-0.4l-0.1-0.3l-0.8-0.1
	l-0.4-0.6l-0.1-0.7l-0.8-1.8l-0.5-0.9h0.3l0.3-0.2l0.2-0.3l-0.3,0.2h-0.6l-0.7-0.4l-1.6-2.9l-1.5-1.7v-0.6l-0.5-0.6l-1.2-1.8
	l-1.1-2.2l-0.9-2.1v-0.7l-0.6-0.9l-0.2-1.5l-0.3-0.7l0.1-0.9l0.5-0.6l0.1-0.7l0.3-0.1l-0.2-0.3l0.2-0.3v-1l-0.8-1.1h-0.5v-0.3
	l0.4-0.4l0.8,0.4l0.5-0.5l-0.1-0.3v-0.8l0.7-0.1l0.4,0.1l-0.3-0.5l0.6-1.3l-0.3-0.8v-0.8l-0.3-0.4l0.3-0.4v-0.5l-0.1-0.2l0.1-0.7
	h0.3l-0.4-0.4l-0.1-0.3l0.1-0.2l0.1-0.8l-0.2-0.2l0.1-0.4l0.5-0.2l0.2-0.3l-0.1-0.7l0.1-0.9l-0.2-0.1l-0.1-0.3l0.4-0.7v-0.6
	l-0.3,0.1l-0.2-0.5l0.2-0.3V408l0.3-0.1l0.1-0.2l0.5-0.3V407l0.5-0.5h0.1l0.4-0.3H97l0.1-0.3l-0.1-0.2l-0.4-0.1l-0.3,0.2l-0.3-0.2
	v-0.8l0.2-0.6l-0.2-0.3l-0.2-0.4h-0.1l-0.1,0.3l-0.2-0.1l-0.1-1l0.2-0.2v-0.2l-0.1-0.5l-0.4-0.2l0.1-0.2H95v-0.2l-0.5-0.5l-0.1-0.3
	l-0.3-0.2v-0.4l-0.2-0.5V399l0.6-0.6l0.5,0.1l0.4-0.2l-0.3-0.2l0.5-0.3l-0.3,0.1h-0.4l-0.2-0.1h-0.6l-0.6-0.5l-0.2,0.2h-0.5
	l-0.4,0.4H92l-0.6,0.5l0.2,0.2l-0.1,0.3l0.5,0.4l0.1,0.4l-0.2,0.2l0.1,0.6l0.4,0.3v0.2l0.3,0.2l0.2,0.9l0.6,0.3l-0.1,0.4l0.3,0.3
	l-0.2-0.5l-0.3-0.3L93,402l-0.6,0.1l-0.3,0.2l-0.2,0.6l0.3,0.3l-0.1,0.6l-0.1,0.1v0.1l0.1,0.1v0.3l-0.3,0.3l0.3,0.3l-0.3,0.3v1.1
	l-0.2,0.3v0.3l-0.3,0.2l-0.3,0.6l-0.1-0.5l-0.4-0.3l0.3-0.6l-0.2-0.2h-0.3l-0.4,0.3v0.3l-0.2,0.2l-0.1-0.7l-0.4-0.1l-0.1-0.3
	l-0.4,0.3l-0.1-0.2l0.1-0.2l0.2-0.3l-0.1-0.2V405h0.1l-0.1-0.4l-0.2-0.1l0.3-0.3l-0.1-0.4l-0.2-0.2l0.1-0.2v-0.5l-0.4-0.3l-0.1-0.3
	H88l-0.1,0.5l-0.3,0.1v0.5l-0.3,0.4h-0.2l-0.2-0.5h-0.2l-0.2,0.1l-0.1-0.4h-0.5l-0.1,0.1h-0.2l-0.1,0.5l-0.3,0.1l-0.1,0.2h-0.8
	l-0.2,0.3l-0.3-0.1l-0.2,0.2l-0.5-0.1l-0.5,0.7l-0.3,0.2l0.1,0.6L82,406v0.2l0.3,0.2l0.1,0.5l0.4,0.6l-0.3,0.3l-0.2,1.5l0.5,0.6
	l-0.4,0.2l0.1,0.1v0.5l-0.4,0.4v0.6l-0.3,0.4v0.5l-0.2,0.7l0.4,0.5l-0.3,0.3l0.6,0.8l-0.2,0.1l-0.1,0.4l0.3,0.2l0.2-0.1h0.4v-0.2
	l0.1-0.1l0.4,0.2h0.2v-0.2v-0.1l0.2,0.2l0.4,0.2v0.2l-0.1,0.2l0.4,0.4l-0.1,0.2h-0.3l-0.3,0.2l-0.3-0.1l-0.3,0.2v0.1l0.3,0.2
	l-0.6,0.5l-0.3-0.1l-0.1-0.3l-0.2-0.2l-0.3,0.2l-0.2-0.2l-0.3,0.1l0.1,0.3v0.4h-0.1l-0.2,0.3l-0.3,0.2l0.2,0.2l-0.2,0.3h-0.3
	l-0.5-0.5h-0.3l0.3,0.4l-0.4,0.2l0.1,0.2l-0.3,0.3l-0.6,0.2l-0.2,0.2l-0.6-0.8h-0.3l-0.2-0.1l0.1-0.2h0.3v-0.4l0.2-0.2h0.6l0.7-0.5
	l-0.1-0.3l-0.3-0.1l-0.4,0.3l-0.5-0.1v-0.2l-0.4-0.3h-0.4l-0.6-0.1h-0.6l0.2,0.3l-0.3,0.1l-0.3-0.2v-0.2h-0.6l-0.7-0.2l-0.3,0.2
	l-0.3-0.2h-0.6l-0.6,0.7h-0.3v0.3l0.6,0.3l-0.6,0.2l-0.1-0.3l-0.3,0.5l0.5,0.3l0.2-0.1l0.3,0.1v0.3l-0.8,0.3l-0.3-0.3h-0.7l-0.3,0.2
	l0.1,0.3h-0.3l-0.2,0.3h-0.2l-0.1-0.3h-0.9l-0.3,0.2l-0.8-0.1l-0.5,0.3v0.2l0.6,0.5l-0.3,0.3l-0.2,0.4l-0.4-0.4l-0.3-0.1l0.2-0.5
	L67,420l-0.2,0.3h-0.4H66l-0.4,0.3h-0.4l-0.6,0.4H64l-0.7,0.6l-0.4,0.1l-0.3-0.3h-0.3l-0.1,0.4l-0.8,0.6l-0.1,0.4l-0.4,0.4l-0.1,0.5
	l0.5,0.8l-0.1,0.8l-0.6,0.7l-0.3,0.7l0.1,0.5v0.8l0.2,0.3v0.5h-0.2l-0.3,0.2v0.5l-0.2,0.2l0.2,0.7l-0.4,0.3l-0.1,0.5l-0.6,0.7
	l0.1,0.5l-0.3,0.2l-0.1,0.8h-0.2l-0.2,1v0.8l-0.1,0.3l0.2,0.5l-0.3,0.5L58,437l-0.4,0.6v0.2l-0.2,0.1v0.5l-0.6,0.5v0.7l-0.6,0.5v0.3
	l-0.4,0.6l-0.1,0.4l-0.2,0.4l0.2,0.4l0.4,0.3l0.4-0.1l0.3,0.3h0.4l0.5-0.4l0.3-0.1l0.3-0.2h0.2l0.5-0.1v1.1l0.5,0.6l0.2,0.6
	l-0.1,0.5l0.5,0.5l0.3-0.3h0.1l0.3-0.2l0.2-0.4l0.3-0.1l0.2,0.2l0.2-0.2h0.5l-0.2,0.2l-0.2,0.3v0.6h-0.2l-0.3,0.3l0.1,0.2l0.9-0.1
	l0.5-0.3l0.2-0.6l-0.1-0.4l0.2-0.3l0.3,0.6l-0.1,0.5v0.5l0.3-0.2l0.2-0.6l-0.2-0.7l0.2-0.4l-0.4-0.4l-0.2-0.7h0.4l0.4,0.2v0.2
	l0.2,0.2h0.2l0.2-0.3H65l0.5-0.4L66,443h0.5l0.3,0.3l0.2,0.5l0.3,0.2l0.6,0.1l0.2,0.3l0.9,0.3l0.1,0.3l0.3,0.1l0.3,0.3h0.2l0.3,0.7
	l-0.2,0.3v0.3l-0.3,0.2l0.4,0.5h0.3l0.6,0.7v0.4l-0.2,0.3v0.5l0.4,0.4l0.3,0.1l0.3-0.2l0.1,0.4l-0.2,0.2l0.1,0.5l0.3,0.3l-0.3,0.2
	v0.3l0.2,0.4l-0.2,0.4l0.2,0.1v0.3l-0.1,0.2l0.2,0.1l-0.3,0.3l0.3,1l-0.1,0.3l0.1,0.8l0.1,0.3v0.3l0.4,1.4l0.3,0.1l0.4-0.3v0.2
	l-0.3,0.5l-0.2,0.2l0.2,0.4h0.2l0.6,0.6v0.8l0.1,0.3v0.3l0.1,1h0.3v0.5l-0.1,0.2v0.6l0.2,0.4v0.6l-0.6,0.6v0.6l-0.3,0.7l0.1,0.7
	l0.1,0.1v0.6l-0.4,0.4v0.5l-0.3,0.7h0.2v0.3l-0.4,0.4l0.2,0.9l-0.4,0.4l0.1,0.6l0.2,0.1v0.4l-0.5,0.6l-0.1,0.5l-0.4,0.4v0.4
	l-0.4,0.6l-0.4,1.8l-0.2,0.1l-0.1,0.5l0.2,0.2l-0.1,0.2l-0.6,0.4v0.4l-0.4,0.2v0.6l-0.2,0.1l0.2,0.4l-0.5,0.7v-0.1l-0.3-0.1l0.2,0.4
	v0.5l-0.5,0.2l0.1,0.2l-0.7,0.9l-0.3,0.5h-0.3l-0.1,0.3l-0.6,0.1l-0.5,0.5l-0.3-0.3l-0.2,0.2l-0.6-0.4l-0.6-0.2v-0.7l-0.2-0.2
	l-0.5,0.2l-0.4-0.3l-0.1,0.2v0.4l-0.4,0.3v0.8l-0.3,0.2l-0.2,0.7l-0.2-0.2l-0.5,0.1l-0.1,0.6h-0.1v-0.1l-0.4-0.3l0,0l0.1-0.2v-0.2
	l-0.2-0.1l-0.1-0.4v-0.2l0.2-0.1l0.5,0.1h0.1v-0.4l-0.1-0.2v-0.3l0.1-0.2v-0.4v-0.4l-0.2-0.2v-0.7v-0.3v-0.5v-0.4l-0.3-0.4l-0.1-0.3
	l-0.1-0.3l-0.5-0.8l-0.2-0.3l0.1-0.2l0.3-0.2h0.2l0.2-0.3l0.1-0.3l0.4-0.6H62l0.3,0.1l0.3,0.1l1.3,0.2l0.2,0.1h0.2l0.2-0.2l-0.1-0.3
	l-0.1-0.2v-0.2l0.1-0.2l-0.1-0.2l-0.1-0.2l0.2-0.4l0.1-0.2l-0.1-0.3l-0.1-0.2l0.1-0.1l0.3-0.1l-0.1-0.2v-0.2l-0.1-0.2l0.1-0.3
	l0.2-0.2v-0.2l-0.1-0.2l-0.2-0.4v-0.5l0.1-0.1l0.1-0.1v-0.2l-0.1-0.1v-0.2l-0.2-0.1l-0.1-0.2l0.1-0.3v-0.3l-0.1-0.1l-0.2-0.3v-1.2
	l0.3-0.3l0.3-0.1l0.1-0.2v-0.4l0.1-0.4l-0.3-0.2l-0.2-0.2v-0.3l-0.3-0.4l-0.1-0.2l0.2-0.2l-0.2-0.4l-0.1-0.2h-0.3l-0.2-0.2l-0.4-0.1
	l-0.2,0.2h-0.3l-0.2,0.2l-0.1,0.3l-0.2,0.1h-0.2l-0.1,0.4h-0.4H61l-0.1,0.3v0.3l-0.3,0.1l-0.1,0.4v0.2l-0.2,0.1l-0.3,0.2l-0.6,0.1
	l-0.2,0.1l-0.3-0.1l-0.2,0.2l-0.3,0.1l-0.1-0.3l-0.2-0.3h-0.3l-0.3,0.2l-0.3,0.1l-0.1-0.2l-0.3-0.4l-0.2-0.1l-0.4-0.5v-0.3l0.1-0.1
	l0.1-0.4l-0.1-0.3l-0.1-0.4h-0.3v-0.2v-0.3l0.2-0.3v-0.3l-0.2-0.1h-0.2l-0.2,0.2h-0.2l-0.2,0.1l-0.3-0.1l-0.2-0.2h-0.2l-0.1-0.1
	l-0.5-0.2l-0.1-0.2l-0.2-0.2h-0.1l-0.2-0.2l-0.1-0.2h-0.2l-0.2-0.2l-0.1-0.2l-0.2-0.2h-0.2l-0.1,0.2l-0.2-0.1l-0.2,0.1l-0.1,0.2
	l-0.3-0.2l-0.1-0.2L51,461h-0.5l-0.1-0.1l0.2-0.2v-0.1h-0.3l-0.2,0.2l-0.4-0.1l-0.2,0.1l-0.2-0.1l-0.2,0.1h-0.3l-0.2-0.3l-0.3-0.1
	l-0.5-0.5l-0.2-0.4v-0.3l-0.1-0.4h-0.2l-0.2-0.1v-0.4l-0.2-0.1l-0.1-0.4l-0.1-0.4l-0.8-0.5l-0.4-0.5l-0.1-0.3l-0.2-0.3l-0.2,0.1
	l-0.1-0.1l0.1-0.2v-0.2l-0.3-0.2l-0.1-0.3l-0.2-0.1l-0.1-0.3l-0.3-0.3l-0.2-0.3l-0.5-0.3v-0.2l0.1-0.3l-0.1-0.2h-0.5l-0.1-0.1v-0.2
	l-0.1-0.2v-0.3l-0.1-0.2l-0.2-0.1v-0.2l-0.1-0.1H42l-0.3-0.1l-0.1-0.2l0.1-0.2l-0.1-0.2l-0.3-0.1l-0.2,0.2l-0.1-0.2h-0.2l-0.1-0.2
	l0.1-0.2l-0.1-0.2l-0.3-0.1h-0.2l-0.2-0.2l-0.2,0.1h-0.3l-0.2-0.1l-0.2,0.1v0.3l-0.2,0.1l-0.4-0.2l-0.1-0.1l-0.3,0.1h-0.5l-0.1-0.2
	l-0.3-0.2l-0.7-0.1l-0.3-0.2h-0.3l-0.2-0.1l-0.1,0.1l-0.6,0.1l-0.1,0.3h-0.2l-0.2,0.2h-0.4h-0.3l-0.5-0.1l-0.2,0.3h-0.4l-0.2,0.3
	l-0.3,0.1h-0.3h-0.4h-0.3l-0.3,0.1l-0.5,0.1l-0.2,0.2v0.3l-0.3,0.4l-0.1,0.4l-0.2,0.2v0.2l-0.1,0.2v0.5l0.1,0.2h0.2l0.5-0.3l0.3-0.1
	l0.3,0.1l0.3,0.5l0.2,0.4l0.3,0.2v0.3l0.1,0.3v0.5l-0.3,0.2l-0.3,0.4l-0.1,0.5l-0.3,0.2l-0.2,0.4v0.3l0.2,0.3l-0.1,0.2l0.1,0.5
	l0.2,0.3v0.4l-0.2,0.1l-0.1,0.2l0.2,0.4v0.6l-0.1,0.2v0.6H31l0.2,0.1l0.2-0.1l0.2,0.1l0.1,0.4l-0.1,0.4l-0.3,0.3l-0.7,0.1l-0.5,0.3
	l-1,0.9h-0.2l-0.3-0.3l-0.6-0.1l-0.4,0.1l-0.1-0.1h-0.3l-0.2,0.1l-0.2-0.2l-0.8-0.2l-0.7,0.1v0.2l-0.5,0.3h-0.4l-0.2-0.2l-0.4,0.2
	l-0.3-0.1l-0.2-0.4l-0.5-0.3h-0.4l-0.6,0.2l-0.1-0.1h-0.4l-0.3,0.3l-0.2,0.4l-0.3,0.3l-0.4,0.2l-0.3,0.4v0.2l-0.1,0.4l-0.4,0.4h-1
	H18l-0.3,0.4h-0.5l-0.8,0.5l-0.3,0.5h-0.2l-0.4-0.2H15l-0.2,0.2l-0.5,0.1H13l-0.8-0.2l-1,0.1h-0.3l-0.4-0.4l-0.3-0.1l-0.3-0.2
	l-0.4-0.3l-0.2-0.7l-0.2-0.2L8.7,465H8.1l-0.7-0.3L7,464.1H6.2L5.6,464l-0.5-0.3l-0.5,0.2H4.1l-0.4,0.3l-0.8,0.1l-0.6,0.2l-0.4,0.4
	L1.6,465l-0.3-0.1H1l-0.3,0.2H0.1l-0.2,0.1h-0.3l-0.6-0.3l-0.6-0.2l-0.1-0.2l-0.4-0.4h-0.3l-0.3-0.2v-0.4l-0.2-0.5l-0.2-0.2v-0.3
	l-0.2-0.3v-0.3l-0.2-0.3l-0.3-0.1h-0.9l-0.4-0.1l-0.3-0.1l-0.5-0.1l-0.2-0.2l-0.3-0.2h-0.8h-0.5l-0.5-0.2l-0.1-0.1l-0.6-0.3
	l-0.6-0.1l-0.3-0.2h-0.4l-0.3,0.2l-0.1,0.3l0.1,0.4l-0.2,0.3l-0.2-0.1l-0.3,0.1l-0.2,0.3v0.3l-0.4,0.5v1l0.2,0.5l0.6,0.2l0.2,0.3
	l0.4,0.1l0.1,0.3l-0.1,0.7v0.6l0.4,0.3l0.2,0.3l-0.4,0.6l-0.7,0.1l-0.4-0.1l-0.1,0.1h-0.4l-0.3-0.2H-13l-0.3,0.1l-0.3-0.2l-0.4-0.1
	h-0.4l-0.5,0.3l-0.4,0.2l-0.3,0.2l-0.8-0.3l-0.4-0.3l-1-0.6l-0.1-0.3l-0.1-0.3l-0.1-0.3h-0.7l-0.3,0.2h-0.4l-0.2,0.1h-0.4l-0.2-0.3
	v-0.2l-0.3-0.3h-0.1l-0.3,0.2h-0.5h-0.3l-0.4,0.1l-0.7,0.1l-0.3,0.1l-0.2,0.5l-0.3,0.2l-0.7-0.2l-0.1,0.2v0.3l0.2,0.2l-0.2,0.2
	l-0.3,0.4l-0.3,0.1l-0.3,0.3v0.3l-0.5,0.3l-0.2,0.4v0.4l-0.7,0.2l-0.4,0.4l-0.1,0.2h-1l-0.4,0.2l-0.3,0.8v0.1h-0.2l-0.4-0.2h-0.3
	l0.1,0.1l-0.4,0.4l-0.3,0.2l-0.6,0.6v0.3l0.1,0.2l-0.3,0.5l-0.6,0.2l-0.4,0.3l-0.1,0.5v0.9l0.4,0.8l0.4,0.5l-0.1,0.3l-0.5,0.6
	l-0.5,0.2l-0.4,0.4l-0.3,0.1l-0.2-0.1l-0.1-0.2h-0.4l-0.8,0.2h-0.6l-0.8-0.3l-0.5-0.1H-37l-0.2,0.9l-0.2,0.6v0.5l-0.2,1.2v0.9
	l-0.1,0.3l0.2,0.2l0.5,0.2l-0.2,0.4v0.3h-0.3l-0.2,0.2H-38l-0.2-0.2l-0.3,0.1L-39,483l-0.9,0.2l-0.6,0.2h-0.3l-0.3-0.1l-0.3,0.1
	l-0.4,0.4v0.3l0.4,0.3h0.6l0.5,0.1v0.2l-0.3,0.3l0.2,0.6v0.3l0.2,0.3l0.1,0.4l0.4,0.6l0.1,0.3l0.5,0.3l0.2,0.9l-0.3,0.2l-0.1,0.4
	l0.4,0.4l-0.2,0.1l-0.1,0.2l-0.4,0.3v0.5L-40,491l-0.9-0.2l0,0c0,0.1,0,0.3-0.1,0.4c-0.1,0.5,0.1,1-0.4,1.3c-0.4,0.2-0.8-0.2-1.2,0
	c-0.6,0.2-0.5,1-1.1,1.3c-0.2,0.1-0.3,0-0.5,0.1c-0.8,0.2-1,0.8-1.8,0.8c-0.4,0-0.6-0.2-1-0.3c-0.4,0-0.6,0-1,0.1
	c-0.5,0.2-0.6,0.5-1,0.8c-0.5,0.4-0.8,0.6-1.4,1c-0.2,0.2-0.3,0.3-0.5,0.4c-0.4,0.3-0.6,0.5-0.8,0.9c-0.1,0.2,0,0.4-0.2,0.5
	l-0.1,0.1l0,0h0.1c0.1,0.5,0.2,0.8,0.4,1.3l2.2,2c0.3-0.2,0.6-0.4,1-0.2c0.5,0.2,0.5,0.7,0.7,1.2c0.2,0.4,0.5,0.6,0.4,1
	c-0.1,0.5-0.5,0.6-1,0.7c-0.4,0.1-0.6-0.2-1-0.3c-0.4,0-0.7,0.3-1.1,0.1c-0.2-0.1-0.2-0.3-0.2-0.4h-1.1l0,0
	c-0.4,0.2-0.5,0.4-0.7,0.7c-0.3,0.3-0.3,0.6-0.6,0.8c-0.6,0.4-1.3,0.6-1.8,0.2c-0.3-0.2-0.3-0.5-0.5-0.8c-0.1-0.3,0-0.5,0.1-0.8
	h-4.2c0.3-0.2,0.4-0.5,0.5-0.8c-0.1,0.4-0.3,0.6-0.6,0.8l0,0c0,0-0.1,0-0.1,0.1h-0.1c-0.1,0.1-0.2,0.1-0.4,0.1c-0.3,0.1-0.4,0-0.7,0
	c-0.4,0-0.6,0.1-0.9,0.3c-0.1,0-0.2,0.1-0.2,0.1c-0.1,0.1-0.2,0.1-0.3,0.1l0,0l-0.1,1.2l-0.2-0.2h-0.4l-0.3,0.3h-0.3l-0.3-0.4
	l-0.5-0.2l-0.6,0.2h-0.1l-0.2-0.2l-0.5,0.1l-0.4-0.3l-0.5,0.1l-0.6,0.5h-0.2l-0.5,0.1l-0.2,0.2l-0.2,0.1v0.3l0.2,0.2v0.4l-0.5,0.5
	v0.5l-0.1,0.6l-0.3,0.1l-0.3,0.3l-0.1,0.2l-0.8,0.2l-0.6,0.3l0.1,0.3l-0.3,0.2l-0.1,0.3l-0.3,0.3l-0.6,0.1l-0.2,0.2l-0.2-0.2
	l-0.1-0.3l-0.5-0.3h-0.4l-0.3,0.3h-0.3l-0.3-0.3l-0.5-0.1l-0.2,0.1l-0.2-0.3v-0.3l-0.2-0.5l0.2-0.3l-0.3-0.6l-0.5-0.2l-0.9-0.1
	l-0.8-1.2l-0.8-0.2l-1.1,0.2l-0.2-0.2l-0.1-0.6l-0.4-0.1l-0.8-0.3l-0.3,0.2h-0.3l-1.2-0.8l-0.6-0.2l-0.8-0.6h-0.5l-0.4-0.2l-0.4,0.1
	l-0.2,0.5l-0.8-0.2l-1,0.4l-0.9,0.7h-0.3l-0.3,0.3l-0.2,0.6l-1,0.1l-0.4,0.2l-0.4-1l-0.2-0.7v-1.1l-0.1-0.3v-0.6l-0.1-0.4l-0.6-0.3
	l-0.2-0.4h-0.3l-0.2-0.1l-0.2,0.1v0.5l-0.2-0.3v-0.4l0.4-0.3l0.2,0.2l0.2-0.1l0.3,0.1l0.1-0.2l-0.3-0.4l-0.3,0.1l-0.1-0.4l0.1-0.4
	l-0.2-0.2l-0.3,0.2l-0.6-0.1l-0.1,0.1l0.2,0.3v0.3l-0.7-0.7l-0.1-0.3l-0.2-0.3l-0.1-1.1l0.3-0.4l0.1-0.6l-0.5-0.7l-0.1-0.4l-0.3-0.3
	l-0.1-0.3l-0.3-0.3v-0.2v-0.5l-0.1-0.5l0.2-0.6l0.1-0.6v-0.2l0.1-0.1l-0.2-0.1h-0.5l-0.3-0.1l-0.4-0.1l-0.3,0.1l-0.2-0.1l-0.2-0.4
	l-0.2-0.2l-0.2-0.3l-0.2-0.1l-0.1,0.1l-0.4,0.1h-0.2V491v-0.4l-0.6-0.7l-0.1-0.3l-0.2-0.1l-0.2-0.4l-0.2-0.1l-0.2-0.3l-0.4-0.1h-0.3
	l-0.3-0.3v-0.2l0.2-0.2l0.2,0.1h0.6l0.2,0.1h0.2l0.2,0.1l0.2-0.2l0.2-0.1l0.4,0.1l0.1-0.1l-0.1-0.2h-0.4l-0.1-0.1v-0.3l-0.4-0.5
	v-0.2l0.2-0.1v-0.3l-0.1-0.2l0.2-0.3l0.5-0.1l0.4-0.1l0.3,0.2l0.4-0.1l0.3-0.1l0.2,0.2l0.2-0.1h0.3l0.3,0.4h0.3l0.4-0.2l0.1-0.2
	l-0.3-0.1l-0.4-0.1l-0.3-0.6l0.1-0.5l0.3-0.1l0.2-0.2l-0.1-0.1l-0.1-0.2l-0.1-0.2l0.2-0.4v-0.3l-0.3-0.3l-0.1-0.2l0.2-0.3v-0.1
	l-0.3-0.1l-0.2-0.3l-0.1-0.2h-0.7l-0.3-0.1l-0.3,0.1v0.1l-0.2,0.1v0.2l-0.2,0.1l-0.3-0.1v-0.2h-0.2l-0.1,0.1l-0.2-0.2v-0.3l-0.1-0.1
	l-0.2,0.1h-0.3l-0.2-0.1h-0.5l-0.3,0.3l-0.1,0.3l-0.1,0.1l-0.1-0.1h-0.2l-0.2,0.3h-0.2l-0.2,0.3l-0.4,0.3h-0.2l-0.1,0.2l-0.2,0.2
	l-0.1-0.2h-0.2l-0.1,0.2h-0.3l-0.1-0.2h-0.1l-0.5-0.3l0.5,0.3l0,0l0,0v0.2v0.2l-0.3,0.1l0.2,0.2v0.2h-0.2l0.2,0.1v0.2l-0.3-0.1
	l-0.2,0.1l-0.4-0.1l-0.3,0.1l0.6,0.3l0.1,0.2l-0.2,0.1l-0.2-0.2l-0.3,0.1c-0.1,0-0.2-0.1-0.2-0.1h-0.2l0.3,0.1l0.1,0.2l-0.3,0.2
	h-0.3l-0.2,0.2l-0.2-0.2l-0.1,0.2l-0.2,0.1l-0.2-0.2l-0.2-0.1v0.3l-0.2,0.3l-0.1,0.5l-0.2,0.2l-0.1,0.4l-0.2,0.3v0.8l-0.2,0.2
	l-0.1,0.4l0.2,0.7h0.3l0.3-0.1l0.3,0.3l0.4,0.1v0.7l0.5,0.3l0.2-0.2h0.2l-0.2,0.3l-0.1,0.4l-0.2-0.1v0.4h0.3l0.1,0.2l0.1,0.3v0.6
	l0.3,0.4l0.1,0.6l0.8,1l1.1,0.9l0.2,0.1l0,0l0,0l0.4,0.3l0.6,0.8v0.4l0.3,0.6l0.7,0.5l0.1,0.3l0.5,0.3h0.6l0.5,0.2l0.3,0.4h-0.3
	l-0.3,0.2h-0.6l-0.6,0.5v0.5l0.1,0.4l-0.2,0.3v0.4l0.1,0.2v0.3l-0.2,0.2v0.7l-0.1,0.3l-0.1-0.2l0.1-0.5l-0.3-0.3l-0.2,0.2l-0.1,0.3
	l0.2,0.5v0.3l0.1,0.2v0.8l-0.2,0.1l-0.3-0.1l-0.1-0.2l-0.3-0.2l-0.7-0.8l0.7-0.5l-0.5-0.3l-0.1-0.2l0.3-0.2l-0.3-0.3l-0.2-0.3h-0.2
	v-0.1h-0.2l-0.4,0.3l-0.3,0.1l-0.3,0.4l-0.2,0.1l-0.4,0.5h-0.2l-0.1,0.2l-0.1,0.2l-0.4,0.2l-0.3-0.1l0,0l-0.5,0.1l-0.9-1.4l0.9,1.4
	l-0.1,0.3l-0.6-0.3h-0.5l-0.5-0.3l-0.1-0.4l-0.9-0.5v-0.3l-0.1-0.4h-0.3l-0.3-0.3h-0.1l-0.1-0.1l-0.2-0.3l-0.4-0.4h-0.4h-0.6
	l-0.6-0.4v-0.8l0.1-0.6l-0.2-0.4l-0.4-0.1v-0.3l-0.3-0.4l0,0l-0.4-0.1l-0.9-0.7l-0.3-0.1l-0.3,0.3h-0.3l-0.5-0.2l-0.2,0.3l-0.2-0.1
	l-0.1-0.4h-0.3l0,0l0.1-0.1l-0.1-0.4l0.1-0.2l-0.4-0.7l-0.1-0.9l-0.3-0.3l-0.4-0.7l-0.5-0.1v-0.3l-0.5-0.5l-0.2,0.1l-0.2-0.1
	l-0.4-0.1l-0.3-0.5h-0.2l-0.4-0.2l-0.1-0.3h-0.3l-0.3-0.3l-0.1-0.3l-0.4-0.1l-0.3-0.5l-1.3-1l-0.6-0.1l-0.8-0.5l-0.8,0.1l-0.5-0.5
	v-0.3l-0.6-0.5h-0.2l-0.5-0.1l0.3-0.2l0.3-0.1l-0.2-0.3v-0.2l0.5,0.1l0.3,0.3l0.1-0.1l0.4,0.1l0.1-0.6l-0.2-0.1v-0.4l0.4-0.4v-0.2
	l0.2-0.2h0.3l0.2-0.3l0.3-0.1v-0.2l-0.4-0.1l-0.1-0.2l-0.2,0.2l-0.3-0.3l-0.3-0.6l0.7-0.1l0.5,0.1l0.3-0.3h-0.3l-0.2-0.2l0.5-0.3
	l1.1-0.6l0.1-0.3l-0.1-0.2l-0.6,0.1l-0.5,0.3l-0.4-0.1h-0.1l0,0l0.1-0.9l-0.1,1l-0.7,0.3v-0.2h-0.2l-0.5,0.2h-0.5l-0.3,0.2l-0.2,0.4
	h-0.5l-0.2,0.3l-0.4,0.5h-0.2h-0.4l-0.3,0.3l-0.6-0.1l-0.4,0.3h-0.3l-0.3-0.5h-0.2l0.1,0.3l0.2,0.3l-0.1,0.3l-0.4,0.6l-0.3,0.1
	l-0.1-0.2l0.2-0.1l0.4-0.5l-0.1-0.2l-0.2-0.1l-0.1,0.2l-0.6,0.7l-0.4,0.1l-0.1,0.1h-0.4l-0.3-0.2l-0.3,0.2l-0.5-0.1l-0.1,0.2
	l0.3,0.2h0.7l0.3,0.3l0.3,0.2l0.2-0.1l0.1,0.2l-0.2,0.3v0.2l0.2-0.1h0.2l-0.1,0.3l0.3-0.2l0.2,0.1l0.1,0.5l0.2,0.3l0.5,0.1l0.2-0.1
	l-0.7-0.7l-0.7-0.9l-0.2-0.5l0.2-0.1l0.3,0.4l0.2,0.6l1,1.1l0.2,0.1l0.3-0.4h0.2l0.4,0.3l0.2-0.4l0.7-0.1h0.6l-0.2,0.3l-0.2,0.2
	l0.2,0.4l-0.3,0.3l-0.7,0.1l-0.8-0.1l-0.5,0.3l-0.4,0.5h-0.7l-1,0.7l-0.7,0.3h-0.8l-0.4-0.3l0.1-0.2l0.3-0.8v-0.3l-0.7-0.5h-0.2
	l-0.5-0.2l-0.3,0.2l-0.4-0.2l0.4-0.6l0.7-0.4l0.6-0.1l0.2-0.1l-0.2-0.3l-0.1-0.5v-0.4l-0.2,0.3l-0.3-0.2l-0.5-0.2l-0.5,0.1l-0.4,0.2
	l-0.4-0.2h-0.3l-0.3-0.3l0.2-0.1l0.1-0.2l-0.6-0.2h-0.8l-0.2-0.3h0.5l0.7-0.1l0.4,0.1l0.3-0.1l0.4-0.3l-0.6,0.2l-0.3-0.1l-0.3-0.2
	l-0.1-0.2l-0.2,0.3l-0.2,0.2h-0.4v-0.1l-0.2-0.2l-0.4,0.5h-0.5l-0.3,0.2v0.5l-0.4,0.6h-0.2l0.1,0.3l-0.8,0.9h-0.3l-0.2-0.3v0.3v0.3
	l0.2,0.3l-0.1,0.4l0,0l-0.4-0.3l-0.6,0.1l-0.3,0.2h-0.8l-0.6-0.1l-0.3-0.6l0,0l-0.3-0.6l0.1-2l-0.4-0.6l-0.2-0.6l-1.1-0.9l-0.1-0.4
	l-0.8-0.8l-0.2-0.9l-0.8,0.1l-0.5,0.1l-0.5,0.3l-1.4,0.2l-0.3,0.4h-0.4l-0.7,0.2l-0.4-0.2l-0.2-0.3l-0.6-0.3h-0.6l-0.8-0.4h-0.4
	l-0.3,0.3h-0.4l-0.1-0.4l-0.5-0.3l-0.5-0.5l0.1-0.1l0.1-0.7l0.4-0.9h0.4v-0.6l-0.1-0.6l1.3-1.4l0.2-0.6l0.3-0.3h0.3l0.1-0.6
	l-0.2-0.3l-0.1-0.3l0.2-0.2l-0.5-0.3l-0.2-0.6l-0.3-0.3v-1v-0.4v-0.2l-0.4-0.7l-0.2-0.6l0.3-0.5l0.4-0.2V466l-0.2-0.2l-0.1-0.5
	l-0.3-0.4l-0.3-1l-0.1-0.2l0.5-0.3l0.8-0.2l0.5,0.3l0.5-0.3h0.4l-0.2-0.6h0.6l0.2-0.5l0.4-0.1l0.2,0.2h0.5v-0.6l-0.5-0.3l0.1-0.6
	l0.3-0.1l0.4-0.7l0.7-0.3v-0.4l-0.3-0.2l0.5-0.6l0.7-0.3l0.9-0.1l0.1-0.5l0.4-0.2l0.2-0.4l0.5-0.1h-0.2l-0.1-0.6l-0.3-0.4l-0.2-0.6
	l-0.1-0.2l-0.3-0.5l0.1-0.3l-0.1-0.3l-0.2-0.2l0.1-0.2l-0.1-0.4l-0.4-0.1l0.3-0.5l-0.1-0.4l0.3-0.3v-0.4l-1-1.7l0.2-1.6l0.2-0.2
	l0.1-0.6l0.3-0.4l0.1-0.1v-0.1l-0.2-0.3l0,0l0.1-0.5l-0.2-0.3v-0.2l0.2-0.1l0.2,0.3l0.4-0.1v-0.4l0.2-0.2l0.4,0.3l0.5-0.4l0.1-0.4
	l0.3-0.1l0.6,0.2l0.3-0.3l-0.4-0.5h-0.3l-0.2,0.1h-0.6l-0.3-0.4h-0.5l-0.5-0.5l0.1-0.3l0.5,0.4v-0.4l-0.1-0.3l0.3-0.3l-0.5,0.1
	c0,0-0.5,0.3-0.6,0.3l-0.1,0.1l0,0l-0.1-0.6l1-0.9l0.5-0.2l0.6-1l0.6-0.9l0.4-1l0.8-1.4l0.6-1.5l-0.1-0.6l-0.9-1l-0.5-0.2l-1-1.4
	l0.2-0.6l0.4-0.5v-0.6l-0.6-0.4l-0.2-0.5v-0.8l0.2-0.2l-0.2-0.4l-0.5-0.1l-0.3-0.3v-0.7l0.3-0.4l-0.4-0.1v-0.4l0.1-1.4l0.4-0.1
	l-0.9-2.2l-0.9-1.6l-0.2-0.6l-0.5-0.5l0.3-1l0.4-0.7l0.2-0.6l-0.3-0.2l-1-0.6l-0.2-0.4l-0.3-0.5l-0.6-0.3h-0.3l-0.4-0.9l-0.3-0.3
	l0.2-0.7l0.1-0.6l-0.3-0.1l0.3-0.2l0.6-0.2l0,0h0.3v-0.7l0.6-0.5l0.5-0.1l0.3-0.4v-0.6h0.3l0.4,0.2l0.3-0.3v-0.4l0,0l0.5,0.1
	l0.2,0.2v0.4l0.2,0.3l0.1-0.5l0.2-0.3h0.3l0.2-0.1l-0.4-0.2V409h0.2l0.3-0.1v-0.2h-0.1l-0.1-0.2l0.1-0.1h0.4l0.4,0.2l0.2,0.3
	l0.2,0.2l0.2-0.2l0.3,0.1l0.1,0.1l0.3,0.2v0.2l-0.4,0.3l-0.3-0.1l-0.5,0.1l-0.3-0.3v-0.3l-0.2,0.3v0.5l0.1,0.4l0.3-0.3l0.2,0.1
	l0.1,0.4l0.3-0.3l0.3,0.1v0.3h0.1l0.2-0.3l0.1,0.1v0.2v0.3l0.3-0.4l0.2-0.2l0.2,0.1l-0.1,0.2l-0.1,0.2h0.3l0.1,0.2l-0.3,0.2
	l-0.3,0.4h0.4l0.3-0.5l-0.1-0.3l0.2-0.2h0.4l0.3,0.2l0.1-0.2l-0.2-0.3v-0.1l0.4,0.2l0.3,0.4h0.6l0.4,0.2l0.3-0.2v-0.2l0.5,0.1
	l0.4,0.3l0.1-0.2l0.5,0.2l2.1,1.1l1.4,0.9l0.3,0.3l0.4,0.1l0.5,0.7l0.3,0.1l-0.1-0.2v-0.2h0.2l0.6,0.6h0.3l0.5,0.5l0.3-0.1l-0.3-0.5
	l-0.1-0.2h0.2l0.4,0.4v0.4l0.8,0.6v0.3l0.5,0.2l0.1-0.2l0.4,0.1l0.4,0.5l0.1,0.5l0.3,0.2l0.3,0.5h0.2l0.2,0.2v0.5v0.5l-0.1,0.6
	l-0.1,0.3v0.3l-0.5,0.6l-0.1,0.3l-0.8,1.1l-0.6,0.3l-0.7,0.1l-0.3,0.2h-0.6l-0.1,0.2l-1,0.1l-1.2-0.1l-0.7-0.2l-0.5-0.4l-0.3,0.2
	l-0.3-0.1h-0.6l-0.1-0.2l-0.3-0.1l-0.3,0.2l-0.5-0.5v-0.3l-0.4,0.1h-0.4l0.2-0.1h-0.7l-0.2,0.2h-0.4v-0.2l-0.2-0.1l0.3-0.2l-0.3-0.3
	l-0.1,0.2h-0.7l-0.4-0.3l-0.1,0.1h-0.3l-0.9-0.7l-0.1-0.4h-0.5l-0.1-0.1h-0.4l-0.1,0.1l0.4,0.3l0.1,0.6l0.5,0.3l0.1,0.3l0.6,0.1
	l0.1,0.1l-0.4,0.2l-0.2,0.3l0.1,0.1l0.7-0.2l0.3-0.2l0.3,0.2l-0.3,0.1v0.1h0.5l-0.1,0.3l-0.4,0.1l-0.2,0.2l0.5,0.1l0.2-0.1h0.3
	l0.2,0.2l0.3-0.2l1,0.4l0.5,0.6h0.2l-0.3-0.1v0.3h0.1v0.4l-0.1,0.7l-0.3,0.1l-0.1,0.4l0.3,0.1v0.5l0.6,0.6v0.3l0.4,0.3v0.4l0.1,0.5
	l-0.2,0.3l0.2,0.2l0.2,0.3l0.8,0.3l0.4-0.3h0.2l0.3,0.4l0.4,0.2v0.5l0.2,0.2h0.7l0.3,0.2h0.6l0.4,0.3h0.2l0.4-0.5h0.3l0.3-0.1v-0.7
	l-0.3-0.3l0.1-0.2v-0.2l-0.5-0.2v-0.3l-0.3,0.2h-0.2l-0.4,0.2l-0.5-0.3l-0.4-0.5l-0.6-0.3l-0.1-0.5l-0.3-0.6h0.4l0.3-0.3l-0.1-0.2
	l0.1-0.2l-0.1-0.3l0.1-0.3h0.5l0.5,0.3l0.6,0.1l0.3,0.4l0.4,0.3h0.7l0.1,0.3h0.5l1.3,0.6l0.6,0.5l0.2-0.3l0.4-0.3v-0.4h0.3l0.3-0.4
	l-0.6-0.8l-0.9-0.9l-0.2-0.6v-0.4l0.6-0.5l0.5-0.6l0.1-0.5l0.3-0.3l0.5-0.1l0.7-0.6l0.5-1l0.3-0.2l0.5,0.1l0.4,0.3l0.6-0.1l0.6,0.1
	l0.2,0.3l-0.1,0.4l0.5-0.5l0.5,0.4l0.2,0.5l0.3,0.2l-0.1-0.8l-0.3-0.6l0.2-0.2v-1l0.1-0.3l-0.2-0.1v-0.2l0.1-0.2l-0.1-0.3l0.1-0.2
	l-0.3-0.3l-0.5-0.3h-0.6l-0.2-0.5l0.2-0.5v-0.4l0.2-0.1l-0.1-0.3v-0.4l0.2-0.1l-0.2-0.3v-0.5l-0.3-0.9l-0.6-0.4l-1-0.8v-0.2h0.5
	l0.9,0.6h0.5l0.3-0.2l0.8-0.1l1.1,0.1l0.5,0.3v0.4l0.4,0.5l0.5,0.1l0.1,0.3l0.6,0.7l-0.1,0.3h-0.7l-0.2,0.3h-0.6l-0.2,0.2l0.1,0.2
	l-0.2,0.3l-0.2-0.1l-0.1,0.2v0.6l0.3,0.2l0.9,0.7l0.8,1.1h0.4l0.6-0.4l0.3,0.5l0.2-0.3h0.4l0.1-0.2l0.7-0.3l0.1-0.4l-0.2-0.6
	l0.3-0.5v-0.4l-0.3-0.4l0.2-0.2l1.1-0.1l0.2-0.2l0.7,0.3l-0.1-0.3l-0.6-0.4l-0.2-0.4h0.2l0.3,0.3l0.3-0.2l0.8-0.9l0.2-0.1l0.9-1
	v-0.5l0.3-0.1l0.5,0.1l0.6-0.3l0.1-0.3l0.8-0.3v0.3h0.1l0.1,0.3l-0.1,0.2l0.2,0.2l0.5-0.5v-0.3l-0.2-0.1l-0.3-0.3v-0.2l0.8-0.8h0.1
	l0.1,0.3l-0.1,0.1l-0.1,0.2l0.4,0.4l0.3-0.1l0.2-0.3l-0.2-0.3l-0.1-0.4l-0.2-0.2l0.3-0.3l1.1-0.5l0.8-0.1l0.1,0.2l-0.4,0.2h-0.3
	l-0.8,0.4l0.1,0.2l0.3,0.1l0.2-0.1l0.5,0.5l-0.3,0.1l-0.1,0.2l0.3,0.4l-0.2,0.3h-0.4l-0.4,0.4l0.1,0.3l0.3,0.1l0.3-0.1h0.3l0.3-0.2
	l0.4,0.2v0.5l0.2-0.5l0.4-0.5h0.2l0.2,0.3l0.3,0.3l0.1-0.2l-0.1-0.2l0.1-0.3l-0.3-0.2v-0.2l0.4-0.4l0.4-0.1l0.1-0.2l0.6-0.3l0.2,0.2
	h0.3l0.2-0.1l0.3,0.1h0.9l0.3-0.2v-0.3l0.2-0.2h0.5v-0.2l0.4-0.3l0.3-0.1l0.6-0.5h0.2l0.3-0.2l0.1,0.1l-0.3,0.4l0.3,0.1l0.4,0.4v0.2
	l-0.3,0.3l0.2,0.4l-0.1,0.3l0.2,0.3h1.1l0.2-0.2v-0.3l-0.2-0.2l-0.4-0.5v-0.2l0.3-0.2l0.6,0.3l0.4-0.3l0.2-0.7h0.3l0.2,0.2l0.6,0.1
	l-0.6-0.6l-0.5-0.1v-0.4l-0.3-0.7h-0.3l-0.1,0.4l-0.2-0.3l-0.2-0.8l-0.3-0.2l-0.3-0.5v-0.2l0.4-0.2v-0.3l-0.2-0.4l0.3-0.2l0.3,0.1
	l0.2-0.1l0.3,0.2l0.4-0.1l0.4,0.1l1.6-0.2l2,0.1l0.6,0.4l1.3,0.5l0.1,0.3l-0.1,0.2l0.2,0.5l0.4-0.3l0.6-0.2l0.3,0.3h0.3l0.1,0.4
	l0.7,0.1l1.2,0.7l1.1,0.1l0.4,0.4l0.3,0.6l0.6,0.1l0.6,0.4l0.5,0.9l0.4,0.1V409l-0.1-0.6h0.3l0.1-0.2l-0.3-0.4l0.1-0.3v-1.1l0.4-0.3
	h-0.4l-0.1-0.2h-0.4l-0.3,0.2l-0.4-0.1l-0.9-1h-0.2l-0.3-0.4v-0.7l-0.2-0.2l-0.4,0.6l-0.4-0.3h-0.5l-0.4-0.3l-0.2,0.3l-0.1-0.7
	l-0.3-0.3l-0.3-0.9v-0.3l0.3,0.2l0.3-0.3v-0.5l-0.6-0.5v-0.5l0.3-0.4l0.3,0.1l-0.4-0.3h-0.5l-0.3-0.8l-0.3-0.3l-0.3,0.2l-0.5-0.5
	l0.1-0.7l0.2-0.4l-0.5-0.5l-0.1-0.3l0.3-0.2l0.7-1.1l0.5-0.3l0.1-0.3l-0.2-0.5v-0.4l0.3-0.5l-0.3-0.5v-0.6l0.2-0.3l-0.1-0.3v-0.5
	l-0.3-0.3l0.2-0.8l0.1-0.2l-0.4-0.5l0.1-0.7l-0.1-0.9l0.3-0.1l0.3,0.2l-0.1,0.2l0.1,0.2l0.5-0.2h0.6l0.5-0.3h0.4l0.4,0.2l0.2-0.2
	h0.5l1.3,0.5h0.6l0.4,0.1l0.2,0.4l-0.3,0.1l0.3,0.5v0.5l0.2,0.2v0.7l0.3,0.6l-0.2,1.1l0.2,0.3l-0.1,0.3l0.2,0.3l-0.1,0.4l-0.3,0.1
	l0.2,0.5l0.4,0.4l0.3,0.5l0.5,0.1v0.1l0.3-0.1l0.2,0.2l0.2,0.8l0.5,0.3l0.3,0.4l0.2,1.3l0.3,0.4v0.3l-0.1,0.3l0.4,0.5v0.6l0.6,0.9
	l-0.2,0.6l0.3,0.5l0.4,0.3l-0.2,0.4l0.2,0.2l0.2,0.9l0.8,1.1l0.7,0.2l0.3,0.3l0.3,0.1l0.6,0.6v0.3l-0.2-0.1v0.5l-0.1,0.6l0.3,0.8
	l0.5,0.5l0.1,0.6l-0.4,0.3v0.2l-0.3,0.7l0.2,0.2v0.9l-0.5,0.2l0.1,0.2l0.3-0.1l0.1,0.2l-0.5,0.3v0.9l-0.2,0.3l-0.5-0.3v0.3l0.4,0.5
	v0.3l-0.4,0.2l-0.3,0.4h-0.8l-0.4-0.3l0.6-0.3v-0.3h-0.4l-0.1,0.3h-0.3l-1-0.5l-0.2,0.3l-1.2,0.2h-0.6l-0.3,0.6h0.3l0.1,0.2l0.2-0.4
	l0.6-0.1l0.2,0.4l0.6,0.5l1.6,0.3l0.7,0.2l0.8-0.1h0.7l0.1,0.2l0.8,0.2l0.6-0.4v-0.4l-0.3-0.3v-0.5l0.3-0.4l0.4-0.2V414l0.6-0.6V413
	l0.4-1l-0.4-0.6l0.1-0.7l0.6-1.1l0.1-0.4l-0.6-1.5l-0.9-0.5l-0.3-0.4l-0.1-1.2l0.6-0.5l0.3-0.5l0.6-0.1l0.9-0.8h0.6l0.7,0.6v0.6
	l0.7,0.3l0.2,0.3h0.2l0.5,0.6l-0.1,0.5l0.4,0.2l0.1,0.5l0.4,0.5l0.1,0.5l-0.2,0.2l0.3,0.5h0.5l0.6,0.4l0.6-0.1l0.3-0.1l0.6-0.1
	l0.1-0.2l0.2-0.1l-0.3-0.1l-0.4,0.1l-0.1-0.3l-0.3,0.5h-0.6l-0.3-0.4h-0.5l-0.3-0.4l0.1-0.3l-0.3-0.2l-0.3-0.6v-0.7l0.4-0.1l0.3-0.3
	l-0.3-0.2l-0.1-0.3l-0.1-0.1l-0.1-0.3l-0.6-0.4v-0.3l-0.5-0.6h-0.7l-1-0.4l-0.3-0.5l-0.4,0.2l-0.8-0.4l-0.4,0.1l-0.5-0.2l-0.5,0.5
	l-0.1,0.6l-0.3,0.2l-0.7-0.2l-0.6,0.4l-0.6-0.2l-0.2-0.3l0.1-0.5l-0.1-0.4l-0.8-0.8l-0.3-0.5l0.1-0.9l-0.5-0.7l0.1-0.5l0.1-1.4
	l-0.4-0.9l-0.5-0.5h-0.5l-0.2-0.6l-1-0.8l-0.8-0.4v-0.5l0.3-0.8l-0.1-0.6l-0.3-0.3v-0.2l0.4-0.4l0.7-0.8l0.2-0.9l-0.3-1.1l-0.9-1.7
	l0.3-0.2l0.6,0.4l0.1,0.6l0.3,0.1l0.2,0.2v0.7l0.5,0.4v0.9l0.3,0.6l-0.2,0.5l0.3,0.5l0.6,0.6v0.3l0.4,0.3v0.3l-0.4,0.3l0.2,0.3
	l0.5-0.1l0.6,0.4h0.7l0.4-0.2l0.4,0.3l0.1,0.3l0.4-0.5h0.5l0.4-0.2l0.4,0.1l0.6,0.6h0.4l0.6,0.3l0.9-0.1l0.3-0.4l-0.4,0.3l-0.9-0.1
	l-0.1-0.4l-0.3-0.1l-0.2-0.6h-0.7l-0.1-0.3h-0.2l-0.3,0.3l-1-0.1l-0.4-0.3h-0.7l-0.7-0.6l-0.2-0.5h-0.3l-0.2-1.7l0.3-0.1l0.2-0.2
	l0.6-0.4h0.3l0.6,0.7l1,0.4l0.6-0.1l0.5-0.8l-0.4-0.8l-0.8-0.2l-0.7,0.4l-0.3-0.3l0.1-0.3l0.2,0.1l0.2-0.2v-0.5l0.5-0.8l0.5-0.3
	l0.4,0.2h1.5l0.5,0.5l0.5,0.3l1.2,0.1l0.1,0.4l0.5,0.3l0.9,0.9h0.6l1.1-0.2l0.9-0.5l0.3,0.3h0.2h0.5l-0.1,0.7l0.1,0.4v0.3l-0.6,0.4
	v0.6l0.3,0.5v0.7l0.7,0.5v0.5l-0.3,0.4l0.2,1.3h0.3l0.1-0.4l-0.1-0.3l0.3-0.3l-0.1-0.5l0.3-0.1l0.2-0.7l0.3,0.2l0.3,0.7l0.1,1
	l0.1,0.3l-0.3,0.2v0.5l-0.2,0.2l0.8,0.5h0.7l0.6,0.2l0.4,0.5v0.4l0.5,0.3h0.9l0.8,0.9l-0.1-0.3v-0.6l0.6-0.7h0.5l0.9,0.7h0.6
	l0.3,0.4l0.2,0.8l-0.1-0.8l-0.3-0.5h-0.4l-0.6-0.2l-0.8-0.5l-0.7,0.1l-0.7,0.5l-0.3-0.1l-0.1,0.1l-0.7-0.3l-0.8-0.8l-0.4-0.3
	l-0.7-0.1l-0.4-0.6l0.3,0.1h0.3l0.5-0.9l-0.2-0.4l-0.6-0.5l-0.2-0.9l-0.7-1l-0.4-0.3l-0.5-0.6l0.1-0.5l-0.1-0.4l-0.1-1.1l-0.4-0.5
	h-0.3l-0.7-0.5h-1.1l-0.3-0.6l-0.6-0.3v-0.5l-0.2-0.3v-0.4l-0.5,0.3l-1.4-0.1h-0.5l-0.6-0.4l-0.1-0.6h-0.2l-0.2-0.3v-0.7l-0.5-0.9
	l-0.7-0.4l0.2-0.3l-0.1-0.3h-0.3l-0.3-0.3l0.1-0.4v-0.5l-0.5-0.4l0.3-0.3h0.6l0.5-0.5h0.5l1.1-0.3l1.6-0.6l0.6-0.5l0.5-0.1l0.4,0.2
	l0.5-0.2l0.2-0.5l0.8-0.3l1.5-0.6l0.1,0.2l-0.2,0.4v0.3l-0.3,0.2l-0.4,0.9v0.5l0.9,0.7h0.8l-0.5-0.2l-0.7-0.7v-0.3l0.3-0.5l0.8-0.5
	l0.3-0.8l-0.3-0.6H-66l-0.6-0.4l0.1-0.4h-0.6l-0.2,0.3l-0.3-0.2l-0.2-0.6h-0.7l-0.3,0.1l-0.5-0.6l0.2-0.1l0.1-0.3l0.2-0.1l0.4,0.4
	h0.5l0.4-0.2l-0.2-0.3l-0.2,0.1l-0.4,0.1l-0.4-0.3l-0.1-0.4l-0.5-0.1L-70,374l-0.4,0.2l-0.3-0.4l0.2-0.3v-0.4l-0.3-0.3l0.1-0.2
	l0.3,0.1l0.4,0.6l0.4-0.1l0.5,0.6l0.1-0.4l-0.1-0.3l0.4-0.3l0.1-0.8l-0.3-0.3l0.1-0.2l0.4,0.1l0.2-0.3l-1-0.2l-0.2,0.3h-0.3V371
	l0.4-0.3h0.7l0.5-0.2l-0.1-0.4l0.4-0.5v-0.4l0.1-0.2l-0.1-0.2l0.4-0.6h0.2l0.2,0.3l0.2-0.1l0.1-0.4h0.2l-0.3-0.4l0.2-0.2l0.5-0.2
	l0.2-0.1l0.1-0.4h0.2l0.4,0.2l0.7-0.2l-0.2-0.3l0.1-0.3l0.9-0.1l0.5-0.3l0.2-0.4l1.2-0.5l0.1-0.4l-0.3-0.1l-0.7,0.4l0.2-0.1
	l-0.5,0.5l-0.3-0.3v-0.9l0.2-0.2l0.2-0.4l0.2,0.1l0.1,0.2l0.1,0.1l0.3-0.3l-0.5-0.4l0.5-0.1l0.4,0.2l0.4,0.1l0.6-0.4l0.4,0.1
	l1.1-0.4l0.5,0.1l0.2,0.3l-0.4,1v0.3l0.4,0.3l0.2-0.6l0.4-0.6l-0.1-0.4l0.1-0.2l0.3,0.4l0.1,0.6h0.3l0.2-0.5l-0.2-0.4l0.3-0.2h0.2
	l0.1,0.4l0.6-0.5l0.1-0.3l-0.3-0.3h0.5l0.2-0.3l-0.4-0.2l0.5-0.5h0.5l0.4-0.2l0.2,0.1v0.3l0.2,0.1h0.6v0.6l0.2,0.3l-0.3,1l0.6-0.3
	l0.4-0.9l-0.5-0.9l-0.5-0.3l-0.4-0.6l-0.4,0.3l-0.3-0.2l-0.5,0.1l-0.1-0.3l-0.4-0.1l-0.1-0.2l0.3-0.3h0.9l0.3-0.3h0.4l0.4,0.1
	l0.4-0.2l0.3,0.2l1-0.4l0.5,0.3h0.3l0.4,0.1l0.3-0.3l-0.2-0.3h-0.7l-0.6-0.3l-0.6,0.3l-0.8-0.1v-0.3l-0.2-0.5l0.6-0.4l-0.6-0.1
	l-0.5-0.6h-0.4l-0.4-0.5l-0.1-0.5h0.4v-0.5l-0.5-0.5l0.1-1.9l0.4-0.5l-0.2-0.5l0.1-0.7l0.4-0.4l-0.3-0.4l0.4-0.1l0.1-0.3l0.6-0.5
	h0.3l0.5,0.6l0.4-0.4h0.4l0.2,0.6l0.6,0.1l0.6-0.5l0.2,0.1v0.6l0.2,0.2l0.6,0.2v0.2l-0.4,0.3v0.2l-0.2,0.4l0.1,0.4l-0.4,0.7
	l-0.5,0.1l-0.3,0.6l0.3,0.1l1-0.4l0.7-1l0.3,0.1v0.3l-0.3,0.4v0.3h0.4l0.4-0.6l0.4-0.2l0.2,0.2h0.5l0.1-0.5h0.2l0.3,0.2l0.3-0.2
	l0.6,0.6v0.4l0.3,0.6l-0.2,0.3v0.4l-0.3,0.6l0.5,0.8v0.5l-0.3,0.1L-46,357l0.3,0.1l0.8-0.2l0.5-0.5h0.6l0.3-0.6l-0.1-0.7l-0.2-0.6
	H-44l-0.3-0.1V354l0.2-0.1h0.3l0.2,0.1l0.3-0.1l0.7-0.2l0.5-0.6l0.3,0.1h0.6l0.2-0.4l0.4-0.3l0.2,0.1l0.3-0.3l0.4-0.1l0.2,0.2
	l0.4-0.1l0.1,0.3l-0.1,0.2l0.1,0.3l0.9-0.1l0.1,0.1l0.4,0.1l1.6,0.9l0.4,0.1l0.2,0.4v0.3l0.7,0.8l0.2-0.1v-0.3l0.2-0.2l0.1-0.2
	l-0.3-0.2h-0.4v-0.4l0.3-0.2h0.3l0.2,0.3l0.3,0.3v0.4l0.6,0.6l0.1,0.5l0.3,0.1l0.2-0.1h0.2l0.3,0.2l0.3,0.4v0.4l0.3,0.4v0.3h-0.2
	l-0.1-0.2l-0.2-0.2h-0.2l-0.2,0.2l-0.3-0.3l-0.7-0.3H-34l-0.1,0.1l0.3,0.4l0.5,0.1l0.2,0.1l-0.1,0.1l0.3,0.5l0.2,0.2l0.2-0.2
	l0.2-0.5h0.1l0.2,0.3l0.3,0.2l0.2-0.1l0.2,0.1l0.1,0.3l-0.1,0.2l0.4,0.7l0.1,0.7v0.8l-0.3,0.7l-0.2,0.1l-0.2,0.3l0.1,0.4l-0.3,0.5
	v0.2l0.3,0.3v0.3l-0.5,0.3l-0.2,0.4l0.1,0.2l-0.3,0.7l-0.2,0.3l0.1,0.2l-0.2,0.4l-0.4,0.2l-0.5,0.4h-0.4l0.5,0.1h0.3l0.3-0.3h0.1
	l0.2,0.6l-0.3,0.7l-0.3,0.4l-0.2,1l0.2,0.4l0.1,0.3l-0.4,0.9l-0.6,0.2l-0.2-0.1h-0.3l-0.2,0.3l0.1,0.2l0.2,0.8l-0.2,0.4l-0.4,0.3
	l-0.2,0.6l0.2,0.6v0.5l-0.2,0.2v0.3l0.3,0.2l-0.3,1.1l-0.3,0.3l-0.1,0.4l0.1-0.3h0.4l0.4-0.4l0.2-0.4l-0.1-0.2l0.1-0.3h0.6l0.3-0.1
	l-0.3-0.1l-0.7-0.7l-0.2-0.6l0.2-0.5l0.7-0.1l0.7-0.1l0.6-0.5h0.3l0.2-0.2l-0.2-0.3l0.6-0.5l0.3-0.5l-0.2-0.4V371l0.4,0.3l0.5-0.2
	l0.3-0.5l-0.2-0.3l0.8-0.6v-0.5l-0.2-0.3l-0.8,0.4l-0.1,0.3l-0.6,0.5l-0.5-0.2l-0.3-0.5l0.3-0.5l-0.1-0.7l0.4-0.3h0.6l0.7,0.5
	l0.3-0.3v-0.5l0.6-0.2l0.1,0.3l-0.2,0.3v0.4l1.1,0.9h0.6l0.3-0.2l0.8-0.1l0.3-0.4l-0.1-0.4l-0.6-0.7v-0.3h0.2l0.8,0.8h0.3l0.4,0.4
	l-0.1,0.3l0.1,0.3l0.6,0.4l0.1,0.8l0.2,0.1v-0.2l0.4-0.4h0.2l0.2-0.3l-0.2-0.1l-0.3,0.2l-0.3-0.1l0.1-0.8l0.5-0.5l0.4-0.3l0.2-0.3
	h0.3l0.2-0.3l0.9-0.2l1.4-0.4l1.7-0.1l1.3-0.6h0.6l0.6,0.2v0.3l-0.2,0.1l-0.3,0.5l0.2,0.8l0.6,0.4l1.9,0.1l0.4,0.1l0.1-0.1h0.7
	l0.5,0.2l1.3-0.2l0.9-0.5l0.3,0.1h0.4l0.2-0.4l-0.2-0.3l0.4-0.1l0.4,0.1l0.6-0.2l0.1,0.3l0.2,0.1l0.3-0.4l-0.1-0.3l-0.3-0.3V366
	l-0.2-0.3l-0.5-0.1l-0.1-0.5L-9,365l-0.1-0.4l-0.3-0.3l-0.1-0.5l0.2-0.4l0.1,0.2l0.2,0.1l0.5-0.4l-0.1-0.2l-0.1-0.4h0.3l0.5,0.4
	l0.3-0.2l0.1-0.3l0.2,0.2h0.5l0.3-0.1l0.1-0.3l0.4,0.4l0.4,0.1l0.3,0.3L-5,363v-0.4l0.4,0.1l0.2,0.4l-0.3,0.2l-0.2,0.4l0.1,0.1
	l0.5-0.1l0.1,0.1v-0.3l0.2-0.1l0.3,0.1l-0.1-0.4l-0.2-0.2l0.1-0.2h0.4l0.6-0.2l0.2,0.2l0.2-0.1h0.6v0.3l0.1,0.6l0.1-0.3h0.2l0.4-0.3
	l0.2,0.6h0.2l0.4-0.3l0.4,0.3l0.1,0.8l0.3-0.5l0.3-0.2l0.2,0.2l-0.2,0.5l0.3,0.3l0.1,0.2h0.4l0.1,0.4l0.2-0.2h0.2l0.1,0.5l-0.3,0.3
	v0.5l0.6-0.6h0.3l0.1,0.3l-0.8,0.7l0.1,0.6l0.7,0.1l0.2-0.2l0.3-0.2l0.2,0.1l0.1,0.4l0.3-0.2l0.5,0.5l-0.1,0.6l0.4-0.1l0.1,0.3
	l0.3-0.1v0.3l-0.4,0.6l-0.5,0.2l-0.4-0.3l-0.8-0.2H2.2l0.4,0.2l0.2,0.4l0.8,0.1l0.2,0.3l0.8,0.6l0.8,0.2l0.5-0.3v-0.4l-0.4-0.4
	l-0.1-0.3h0.1L6,370l0.5,0.2l0.3,0.2H6.4l-0.8,0.8l0.2,0.3h0.4l0.3-0.2h0.3l1.4,1.3l0.3,0.1l0.4,0.6l1,0.1l0.6,0.7l0.6,0.1l0.1-0.3
	l-0.2-0.3l0.2-0.2l0.4,0.4l0.1,0.3l0.3,0.4h0.3l0.1-0.5l-0.4-2.2l-0.4-1l-0.6-1.3l-0.1-1.1l-0.3-0.7v-0.3l0.4,0.2l0.3,0.5l0.5,0.5
	l0.5,0.1l0.4,0.5l0.8,0.1l1.6-0.2l0.4,0.1l0.3-0.2l0.4,0.3l0.1-0.1l-0.3-0.5l0.1-0.3l-0.3-0.3l0.2-0.2l0.1-0.4l1.4-0.6l0.2,0.1
	l0.3-0.1l0.4,0.3H19l0.5,0.5l0.5,0.1l0.3,0.4H21l0.2,0.4h0.9l-0.6-0.3v-0.2l0.6,0.2l0.4-0.3l-0.5-0.2l0.3-0.3l-0.4-0.4l-0.5,0.3
	l-0.5-0.1l-0.1-0.7l-0.2-0.5l0.3-0.2l0.3,0.2l0.4-0.2l-0.2-0.3l0.3-0.1l0.6,0.5l0.2,0.5l0.3-0.1l0.2,0.2l0.3-0.1l-0.1-0.5l0.4-0.2
	l0.3,0.2l0.1-0.4l-0.6-0.8h-0.5l-0.5-0.5l0.1-0.5l-0.2-0.3l-0.4,0.2l-0.4-0.1l0.5-0.3l-0.2-0.4l0.1-0.1l-0.3-0.5h0.7l0.1-0.8
	l-0.8,0.2l-1.1,0.9l-0.1,0.5l-0.7-0.2l-0.4-0.8l0.2-0.4l0.1-0.6l0.7-0.3l0.4,0.1l0.7-0.7v-0.3l-0.4-0.5l-0.4,0.1l-0.4-0.2h-0.7
	l-0.5-0.6l0.6-0.2l0.8-0.1l0.9,0.4l0.9-0.2h1.4l2.4-0.2l0.4-0.2h1.8l0.8,0.1l0.6-0.1h1l-0.5,0.2l-1.4,0.6l-0.5-0.2l-0.2,0.1
	l-0.4-0.2l-0.3,0.9l0.4,0.5l-0.3,0.1l-0.1,0.3l0.4,0.3l0.6-0.4V360l1.1-0.7l1.4-0.6l0.2,0.8l0.1,1.1l-0.1,0.2l-0.3-0.7l-0.4-0.4
	v-0.4l-0.4,0.4l-0.3-0.1l0.3,0.7l0.4,0.2l0.2,0.8l-0.3,0.7l-0.3-0.1l-0.3,0.3l0.5,0.3v0.3l0.2,0.2h0.3l0.5-0.4V362l0.4-0.6l-0.2-0.4
	v-0.6l-0.2-2.1l0.7-0.6l1.1-0.2l1.2-0.3l1.1,0.1l1.4,0.5l0.7,0.9l-0.1,0.5l-0.3,0.3l-0.4-0.9l-0.1,0.1l0.1,0.4v0.4l0.1,0.4l-0.4,0.3
	l0.3,0.1L37,360h0.7l0.4-0.4l0.2,0.6l0.2,0.4l0.1,0.5l0.3,0.3l0.3-0.5l-0.1-0.3l0.5-0.5l0.5,0.3l0.2,0.5l-0.2,0.3l-0.2,0.6L40,362
	l0.3-0.2l0.2-0.5l0.2-0.1l0.2,0.3V361l0.4-0.8l0.2-0.2l0.3,0.2l1,0.7l1.1,0.3l0.6,0.7l-0.1,0.4l-0.7,0.4l-0.5,0.5l0.6-0.3l0.9-0.2
	l0.6,0.2l0.7-0.2l0.5-0.5L47,362l0.8-0.7l0.4-0.2l0.7-0.7l0.6-0.1l1.6-0.8l0.8-0.3l0.5,0.1v-0.2l0.9-0.6l0.5-0.1h1.1l2,0.7l0.9,0.9
	l0.9,0.5l0.7,0.9l0.4,0.7v0.4l0.2,0.2v0.6l0.4,0.8v0.4l-0.3,0.4l0.5-0.1l0.5-0.6h0.6l0.3,0.3v-0.3l0.6-0.1l0.5,0.3l0.2,0.5l0.1-0.4
	l-0.2-0.6h0.4l0.3,0.6l0.7,0.7l0.1,0.8h0.4l0.6,0.8v-0.2l-0.2-0.7l-0.4-0.2l-0.1-0.4l0.4,0.3h0.3l0.4,0.4l0.6,0.8l-0.1-0.6l-0.8-1.1
	v-1v-0.8l0.5-0.6l0.8-0.1l0.4-0.3l0.7-0.3v-0.3l0.1-0.2h0.3l0.4,0.4l0.4,0.1l0.6-0.1l0.6-0.4l0.3,0.1l0.8-0.3l0.9,0.1l0.4-0.3h0.2
	l0.1,0.3l0.3,0.3l0.2-0.4l0.5-0.7l-0.1-0.3v-0.7v-0.5l0.2-0.2l0.7,0.2l0.2,0.5l0.1,0.3l0.5,0.1l0.4,0.3v0.5l0.6,0.7l0.3,0.2l0.6-0.1
	l1,0.2l0.1-0.1h0.3l0.7,0.9v0.5l0.3,0.3l0.7,0.1l0.3-0.2l0.5-0.1l-0.1-0.3l0.5-0.3l0.3,0.1l0.2-0.2l-0.3-0.4l0.2-0.2l-0.1-0.3v-0.3
	l-0.4-0.5l-0.6-0.2l-0.1-0.7l-0.8-0.7l-0.3-0.1l-0.2-0.3l-0.7-0.3l-0.4,0.3h-0.2v-0.5l0.2-0.3l-0.3-0.6l-0.1-0.4l-0.3-0.2l-0.3-0.7
	l-0.6-0.4l0.1-0.1l0.9-0.1l0.3,0.2l1.1-0.1h1v-0.3l0.5-0.2l0.6,0.4l0.3-0.2h0.3v-0.4l0.6-0.1l0.2,0.3h0.2l0.2-0.5l0.4,0.1v-0.4
	l1.7-0.4l0.2,0.4L86,354l0.3-0.3l0.2,0.1l0.6-0.1h0.3l0.4,0.3h0.8l0.4-0.2l0.2,0.3l0.3,0.1l0.2-0.3l0.7-0.1l1.3,0.4l0.5,0.2l0.3-0.1
	l-0.1-0.1l0.4-0.1l0.3,0.2l-0.2,0.2l0.2,0.1l0.6-0.2l1.4,0.2l1.2,0.8l-0.1,0.2l-0.4-0.2l-0.7-0.3v0.2l1.3,0.4H97l0.1-0.3h0.5h0.6
	l-0.1-0.3l0.3-0.1l0.4,0.3l0.4,0.1l0.2,0.1v-0.2l0.1-0.1l0.6,0.2v0.3l0.7,0.2l0.5-0.2l1.8,0.3l-0.2-0.3h0.6l0.2,0.4l0.3,0.1
	l-0.1-0.4l0.2-0.1l0.7,0.1l-0.1,0.2l0.3,0.4l0.6-0.2V356l-0.2-0.1h0.7l0.2,0.1l-0.1,0.3l0.4,0.4l0.7,0.3l0.6-0.2l-0.8-0.3l-0.4-0.2
	l-0.1-0.3l0.4-0.1l0.5,0.1l0.8,0.5l0.2,0.5l0.2,0.1l0.1-0.3l-0.1-0.2l0.3,0.1l0.3,0.2l-0.1,0.2l0.4,0.5l0.7,1.2l0.7,0.2l0.1,0.5
	l0.4,0.3l0.3,0.4l-0.2,0.2l0.1,0.5l0.3,0.1l0.4-0.4l0.5,0.1l0.3,0.6l0.4,0.1l0.1-0.1l-0.2-0.1l-0.1-0.4l0.2-0.4l0.3,0.1l0.2,0.5
	l0.4,0.4v-0.2l-0.3-0.7v-0.4l-0.3-0.4l-0.5,0.3l-0.6,0.1l-0.1-0.3l0.3-0.3l-0.1-0.5l-0.8-0.5l-0.4-0.4l-0.2-0.4h-0.3l-0.5,0.4
	l-0.1-0.2l0.4-0.4l0.3-0.6l0.5-0.8l0.3-0.1l-0.1,0.2l0.3,0.8l0.4,0.1l0.1-0.2l-0.4-0.3l-0.1-0.4h0.2l0.5-0.3l0.2-0.3h-0.5l0.2-0.2
	l0.2-0.1l0.4-0.1l0.4-0.6h0.4l0.2,0.2l0.2-0.1l0.4,0.1l0.1,0.2l0.4,0.3l0.6,0.1l0.3-0.2l1.3,0.2l-0.1,0.4l0.1,0.2l0.3-0.1v-0.3h0.4
	v0.5l0.3-0.3l0.4-0.5l0.4,0.1v0.3l-0.2,0.3l-0.1,0.3l0.4,1.1l-0.2,0.5v0.2l0.4-0.1l0.3,0.4l0.5,0.2l0.2,0.4l-0.2,0.3H120l-0.7,0.1
	l0.9,0.2l0.3,0.4l-0.1,0.4l-0.5,0.1l-0.4,0.7l-0.1-0.2l-0.5,0.4h-0.6l-0.4,0.4l0.6-0.1l0.3,0.1l0.2,0.3l0.3-0.3h0.2v0.4l0.4,0.5
	l-0.3,0.2l-0.1,0.7l0.5-0.5l0.5-0.1l0.6,0.5l-0.1,0.3l0.3,0.5l-0.5,0.3l0.3,0.1l0.1,0.6l-0.5,0.2v0.3l0.2,0.3v-0.3l0.4-0.1l0.3,0.3
	l-0.1,0.5l0.5-0.1l0.2,0.3v-0.3l0.3-0.2l0.3,0.2l0.4,0.1v0.5l-0.3,0.1L122.2,367.5z M-110.4,496.9l-0.1-0.1L-110.4,496.9
	L-110.4,496.9z M-87.8,495.9h-0.3l1.3-0.1L-87.8,495.9z M-63.8,500.7c0.1,0.1,0.1,0.1,0.2,0.2l0,0
	C-63.7,500.8-63.8,500.7-63.8,500.7z M-63.6,500.9L-63.6,500.9l0.1,0.1C-63.6,501-63.6,500.9-63.6,500.9z M-57.6,493.7
	c0-0.1,0-0.2,0-0.2C-57.6,493.6-57.6,493.6-57.6,493.7z M-57.5,493.9C-57.5,493.9-57.4,493.9-57.5,493.9
	C-57.4,493.9-57.4,493.9-57.5,493.9C-57.4,493.9-57.5,493.9-57.5,493.9z M-57.3,494L-57.3,494C-57.3,494-57.2,494-57.3,494
	C-57.2,494-57.2,494-57.3,494c0.1,0,0.2,0,0.2,0C-57.2,494-57.2,494-57.3,494z M-44.2,489.5L-44.2,489.5L-44.2,489.5z M75.9,359.5
	l-0.4-0.2l-0.5-0.4l-0.5-0.1l-0.4,0.1l-0.2-0.1v-0.7l0.1-0.4h0.3l-0.1-0.2h0.3l0.1-0.2H75l0.4,0.2h0.3l0.1-0.2l0.4,0.3l0.2,0.4
	l-0.1,0.1l0.3,0.4l0.1,0.5l-0.2,0.4L75.9,359.5z M65.5,363.8l-0.2-0.5l0.1-0.2h0.2l0.1,0.3l-0.1,0.3L65.5,363.8z M65.4,364.4
	l0.2,0.5l-0.1,0.2l-0.2-0.4l-0.3-0.5V364h0.2L65.4,364.4z M65.4,364.2l-0.2-0.1l-0.3-0.4v-0.2h0.3l0.2,0.3V364.2z M64.3,364.7
	l-0.3-0.2l-0.2-0.4l0.3-0.1l0.1-0.1l0.2,0.1l0.1,0.4l-0.1,0.1L64.3,364.7z M61,357.3l-0.1-0.3l0.2-0.2l0.2,0.2l-0.1,0.2L61,357.3z
	 M59.4,356.9l-0.2-0.2l0.1-0.2l0.5,0.1l-0.2,0.2L59.4,356.9z M57.8,357.5l-0.3-0.3l0.2-0.3L58,357l0.1,0.4l-0.2,0.1L57.8,357.5z
	 M24.3,342.2l-0.8,0.5l-0.4,0.2l-0.6-0.3l-0.5,0.2h-0.7l-0.7-0.3l-1.1-0.1l-1.4-0.5l-0.2-0.4l-0.7-0.9l-0.2-0.8l0.3,0.1v0.3l0.3,0.3
	l0.8,0.2l0.3-0.3v-0.3l0.3,0.1h0.7l0.5-0.1h0.3l0.1,0.3l0.2,0.2l0.4-0.1l0.6-0.5l1-0.2l0.6,0.2l0.3-0.2l0.2,0.2v0.2l0.1,0.3h0.3
	l0.4,0.2l0.2,0.6l-0.3,0.5L24.3,342.2z M19.6,367.1l0.1-0.3l0.2-0.1l0.2,0.5l0.2,0.3l-0.1,0.2l-0.6,0.2v0.2l-0.3-0.1l-0.4-0.5h0.5
	L19.6,367.1z M17.7,352.1h0.4l0.4,0.4l0.6,0.2h0.6l0.8,0.7L21,354l0.2,0.4l0.4,0.3l-0.4,0.3l-0.4-0.1l-0.7,0.1l-0.4,0.3h-1l-0.6,0.1
	h-0.8l-0.6-0.1l-0.6,0.4l-0.3,0.5l-0.3,0.2h-0.3V356l0.4-0.4l0.3-1v-0.9l-0.1-0.5l0.5-0.7l0.3-0.5h0.3l0.6,0.2L17.7,352.1z
	 M14.7,344.1l-0.4,0.3l-0.1,0.3l-0.4-0.3h-0.2l-0.5,0.3h-0.4l-0.9-0.5l-0.5-0.5l-0.9-0.8l-0.1-0.6l0.1-0.4v-0.4l0.1-0.2l-0.2-0.4
	l-0.2-0.1l-0.1-0.4l-0.3-0.1l-0.3-0.4l-0.3-0.4h0.6h0.7l0.4,0.1l1,0.5h0.5l0.4-0.1l1,0.1l1.1,0.3v0.2l-0.5,0.1L14,341v0.4l0.4,0.5
	l0.5,0.1v0.5l0.1,0.3l-0.2,0.4L14.7,344.1z M12.8,332.4l-0.5,0.2l0.2-0.8l0.6-0.6l0.1,0.1v0.4l0.1,0.2l-0.3,0.2L12.8,332.4z
	 M12.6,351l0.4-0.4l0.5-0.1l0.3,0.1l0.2,0.5l0.6,0.6l0.1,0.4l-0.2,0.3l-0.2,0.4l0.1,0.2l-0.2,0.2l-0.4-0.2l-0.4-0.5l-0.3-0.1
	l-0.2-0.3l0.1-0.2l-0.3-0.5L12.6,351z M5.8,354.1l0.5,0.5h0.5l0.4,0.2l0.6,0.6v0.3H7.5l-0.4-0.4H6.6L6.2,355H5.8l-0.2-0.3l-0.2-0.4
	l0.1-0.1L5.8,354.1z M9.5,342.7l0.2,0.7l0.3,0.2l0.6,0.6l0.1,0.2h0.5l0.2,0.3l0.7,0.2l0.6,0.4l0.6-0.3h0.5l0.2,0.2l-0.3,0.4
	l-0.6,0.3v0.4l-0.3,0.2l-0.3-0.2l-0.4-0.1l0.2-0.3l-0.2-0.1l-0.4,0.3l-0.5,0.1l-0.7,0.7l-0.4,0.8l-0.4,0.6H9.4v-0.2l-0.2-0.3
	l-0.4-0.1l-0.2-0.3l-0.2-0.2l-0.1,0.2v0.3l0.2,0.2h0.3v0.3l0.2,0.5v0.4l-0.2,0.4l-0.4,0.1L8,349.3H7.5l-0.6,0.2H6.3l-0.4-0.4
	l-0.1-0.4l-0.4-0.3L5,348.1l-0.6,0.1l-0.7-0.3l-1.3-0.8l-0.2-0.4l0.1-0.2h0.3l0.1,0.1l0.3-0.2l-0.2-0.2H2.5l-0.2,0.1l-0.2-0.2
	l0.1-0.2L2,345.7l-0.5-0.2l-0.2-0.2V345l-0.2-0.4l-0.3-0.1l-0.1-0.4H1l0.2-0.2l-0.3-0.2H0.6L0.1,343v-0.3l0.5-0.4l0.2-0.5v-0.6
	l0.1-0.1v-0.6l0.3-0.3l0.5-0.2l0.2,0.4l0.2,0.2l0.6,0.1l0.4,0.4l0.4,0.1l0.1,0.3v0.4L4,342l0.2,0.1l0.2-0.1l0.4-0.1l0.3,0.2l0.2,0.6
	l0.5,0.5l0.5-0.1l0.2-0.2l-0.1-0.3l-0.7-0.7l-0.1-0.6l-0.2-0.4l-0.1-0.5l0.2-0.3h0.3l0.1,0.1h0.5L6.2,340l-0.3-0.1l-0.6-0.6l0.1-0.1
	l0.4,0.2h0.5l0.4,0.3l0.5,0.1H8l0.3,0.2l0.2,0.1v0.3l-0.1,0.1l-0.2,0.2l0.2,0.3l-0.2,0.1v0.2l0.4,0.2l0.1,0.4l0.3,0.4L9.5,342.7z
	 M0.7,347.4l-0.2,0.2l-0.4-0.2l-0.3-0.9l-0.6-0.9l-0.6-0.6l-0.4-0.6l-0.1-0.3l0.2,0.1l0.4,0.3L-1,345l0.7,0.1l0.4,0.3l0.1,0.5l0.4,1
	L0.7,347.4z M-8.7,362.6l-0.2-0.2h-0.2l-0.1-0.4l0.1-0.1l0.6-0.3v0.3l-0.1,0.5L-8.7,362.6z M-13.2,368.2l-0.2,0.1h-0.5V368l-0.3-0.2
	v-0.2l0.2-0.2h0.3l0.4,0.3l0.3,0.3v0.2L-13.2,368.2z M-27.5,365.9l-0.3,0.2L-28,366l-0.5-0.1l-1-0.2h-0.6l-0.2-0.2l0.1-0.1h0.4
	l0.2-0.2l-0.1-0.3l-0.3-0.2l-0.1-0.4l0.1-0.2h0.4l0.7-0.5l0.8-0.2l0.3,0.1v0.3l0.2,0.4l0.3,0.3v0.7l0.2,0.2v0.3l-0.2,0.2
	L-27.5,365.9z M-47.4,351.1v-0.2l0.1-0.2l-0.4-0.5v-0.3l0.2-0.1l0.4,0.1l0.3,0.6l-0.1,0.4L-47.4,351.1z M-50.5,345.9l-0.2,0.3
	l-0.6,0.1h-0.6v-0.2l0.2-0.3l0.5,0.1l0.2-0.4h0.4l0.1-0.1l0.3,0.1l0.2,0.5l-0.2,0.4L-50.5,345.9z M-52.3,345.3l0.2,0.1v0.2l-0.3,0.3
	l-0.2,0.1l-0.2-0.2l0.1-0.3l0.2-0.1v-0.2l0.3-0.4h0.3l0.1,0.2l-0.2,0.1L-52.3,345.3z M-60.6,359.7l-0.1-0.1l-0.3,0.2l-0.2,0.1
	l-0.1-0.2l0.3-0.3l0.1-0.3l0.2-0.2h0.2v0.5l0.2,0.1v0.3l-0.2,0.2L-60.6,359.7z M-59.6,358.1l-0.1-0.1l0.1-0.2l0.3-0.1l0.3,0.1
	l-0.2,0.3L-59.6,358.1z M-58.5,358.7l-0.1,0.2l-0.2,0.1H-59l-0.1-0.4l-0.2-0.2v-0.2h0.2l0.2,0.3L-58.5,358.7z M-58.2,361.9l-0.2,0.3
	l-0.3,0.1l-0.4-0.1l-0.3,0.1h-0.4l-0.2-0.2l-0.3,0.1l-0.1-0.2l0.2-0.3h0.3l0.2-0.1l0.2-0.2h0.2l0.1,0.2l0.2,0.1l0.2-0.1l-0.1-0.2
	l0.2-0.2h0.3l0.1,0.4l-0.1,0.2h0.1v0.1L-58.2,361.9L-58.2,361.9z M-55.5,346.1l-0.1,0.3l-0.7,0.5l-0.5,0.2l-0.2,0.3l-0.2,0.4h-0.3
	l-0.2-0.2l-0.3,0.1l-0.9,0.6l-0.1,0.3l0.1,0.3l-0.3,0.2l-0.5,0.6l-0.3,0.6c0,0-0.6,0.2-0.5,0.2l-0.3-0.2v-0.4l-0.4-0.3l-0.2-0.6
	l-0.3-0.6l0.2-0.2l-0.1-0.4l-0.2-0.2v-0.5l-0.2-0.5l-0.4-0.7l0.2-0.7l0.4-0.1l0.3-0.2h-0.4l-0.3-0.3l-0.5-1.1l0.1-0.3l-0.2-0.2
	l-0.3-0.1l-0.2-0.2v-0.5l0.1-0.1l-0.1-0.3l-0.1-0.3h0.2l0.3,0.2l0.2,0.3h0.3l0.2-0.2l-0.3-0.4l-0.4-0.3l-0.1-0.4l0.2-0.3h0.3
	l0.5,0.3l0.4,0.1l0.4,0.2l0.1,1.4l0.2,0.3h0.2v-0.4l0.3-0.2v-0.3l-0.3-0.4v-0.2l0.2,0.2l0.4,0.5h0.2l0.1-0.4h0.3l0.3,0.4l0.1,0.3
	l0.3,0.1l0.1-0.2l0.2,0.1l0.5,0.5l0.5,0.2l0.3,0.2l0.2-0.1h0.4l0.7,0.4v0.4l0.2,0.5l0.5,0.6l0.1,0.5L-55.5,346.1L-55.5,346.1z
	 M-62.4,359.4l0.3,0.2v0.2l-0.4,0.2h-0.4l-0.1-0.2l0.5-0.2L-62.4,359.4z M-62.6,356.5l0.4-0.3l0.1-0.2l0.2-0.1l0.1,0.1v0.5l-0.2,0.2
	v0.4l-0.4,0.4l-0.4,0.3l0.1-0.2v-0.2h-0.2l-0.3,0.3l-0.4,0.1h-0.2l0.2-0.5l0.4-0.6L-62.6,356.5z M-68.9,372.8l-0.2,0.1l-0.3-0.2
	h-0.4l-0.2-0.2l-0.2-0.4l0.1-0.1l0.3,0.2h0.1v-0.3l0.2-0.1l0.5,0.1l0.3,0.3v0.2l-0.3,0.1l0.2,0.2L-68.9,372.8z M-71.8,375.3l0.5-0.4
	h0.2v0.2l-0.3,0.2l-0.1,0.1l0.1,0.1l-0.1,0.1L-71.8,375.3L-71.8,375.3z M-71.6,378.2l-0.2-0.1l0.5-0.2l0.4,0.2l-0.2,0.1H-71.6z
	 M-71.3,373.7l-0.5-0.2v-0.1l0.3-0.1l0.3-0.1l0.3,0.1l0.1,0.2l-0.3,0.4L-71.3,373.7z M-70.1,374.6l0.1,0.3v0.1l-0.2,0.1h-0.3
	l-0.1-0.4l0.1-0.2L-70.1,374.6z M-70.7,354.4l0.3,0.1v0.3h-0.2l-0.3-0.3L-70.7,354.4z M-72.9,378l-0.4-0.1l-0.2-0.3l0.3-0.1l0.2-0.1
	l0.4,0.1l-0.1,0.3L-72.9,378z M-72.8,357.5h0.3l0.3,0.3v0.6l-0.1,0.3l-0.4,0.2h-0.2l-0.1-0.2v-0.4v-0.4L-72.8,357.5z M-73.9,377.6
	l0.2,0.2l-0.3,0.5l-0.3-0.1l-0.2-0.3l0.3-0.2L-73.9,377.6z M-64.7,345.3l-0.6,0.2l-0.5,0.5l-0.4,0.3h-0.4L-67,346l-0.3-0.2h-0.4
	l-0.3-0.1l-0.4,0.1l-1-0.1l-0.5-0.3l-0.3-0.2l-0.6,0.2l-0.5,0.3l-0.4-0.1l-0.5-0.3l-0.5-0.1l-0.3-0.3l-0.3-0.8l-0.2-0.5h-0.3
	l-0.4,0.2l-0.4-0.3l-0.3-0.2l-0.1,0.2l0.1,0.3l-0.2,0.1l-0.2-0.2l-0.4-0.3l0.1-0.2l0.5-0.3l0.1-0.3l-0.2-0.6l0.1-0.4l0.5-0.4
	l-0.2-0.3h-0.3l-0.4-0.2v-0.3l0.2-0.6l0.4-0.3l0.6-0.1v-0.3l0.2-0.3l0.5-0.2l0.7-0.5l0.2-0.5l0.2-0.1l0.8,0.1l0.6,0.4l0.7,0.9
	l0.2,0.4l-0.2,0.7l0.2,0.2l-0.1,0.4l-0.2,0.3l0.1,0.3l0.2-0.2l0.3-0.6l0.1-0.5v-0.4l0.2-0.3v-0.3l-0.5-0.6l-0.1-0.3l0.1-0.3l0.7-0.1
	l0.8,0.1l1.3,1.1h0.2l0.2,0.2v0.5l0.3,0.2l0.1,0.6v0.6l0.6,0.6l0.5,0.6v0.2h-0.4l-0.3-0.2h-0.2l0.1,0.5l0.5,0.3l0.6,0.1l0.5,0.5
	l0.3,0.1l0.5,0.6v0.3L-64.7,345.3z M-79.8,376.5l-0.3-0.2l-0.1-0.3l-0.2-0.1l0.1-0.2l0.4-0.1l0.3,0.1v0.3l0.1,0.3L-79.8,376.5z
	 M-79.5,368.8l-0.5-0.2l-0.1-0.3l0.2-0.2l0.2,0.1l0.1,0.2l0.5,0.1l-0.2,0.2L-79.5,368.8z M-79.4,341.8l-0.2-0.3l-0.5-0.1l-0.2-0.3
	l0.1-0.1h0.5l0.4-0.3h0.3l0.4,0.2l0.4-0.2l0.6-0.1l0.7,0.1l0.9,0.5l0.1,0.3l-0.2,0.6l-0.2,0.6l-0.3,0.2l-0.5,0.4l-0.4,0.3h-0.4
	l-0.4-0.2v-0.2h0.5l0.6-0.2l0.2-0.1l-0.3-0.1h-0.8l-0.5-0.2l-0.3-0.4L-79.4,341.8z M-78.8,368.2l0.2-0.5l0.3-0.1l0.3,0.2l0.6,0.1
	l-0.1,0.2l-0.4,0.2h-0.3l-0.5,0.1C-78.7,368.3-78.9,368.2-78.8,368.2z M-78.4,370.3h0.2l0.3-0.2l0.1,0.3v0.3l0.3,0.3v0.2l-0.3,0.2
	l0.1,0.5v0.4l-0.2-0.2v-0.4l-0.2-0.1l-0.2,0.2l-0.3-0.1v-0.8l0.2,0.2l0.2,0.1l0.1-0.3l-0.3-0.3L-78.4,370.3z M-76.8,385.4l-0.5-0.1
	l-0.1-0.3l0.3-0.5l0.1-0.7l0.4-0.5l0.2,0.5l0.5,0.4l0.1,0.6l0.3,0.6v0.3l-0.3,0.1l-0.3-0.2h-0.4L-76.8,385.4z M-77.3,387.8l-0.3,0.5
	l-0.3,0.1l-0.4,0.4h-0.2l-0.2-0.3l0.1-0.4l0.2-0.2l0.3-0.4v-0.4l0.3-0.3l0.6-0.2l0.4,0.1l0.2,0.1v0.3l-0.4,0.5L-77.3,387.8z
	 M-74.1,337.7l-0.8,0.6l-0.5,0.5v0.4l-0.3,0.4l-0.7,0.4l-0.5,0.1l-0.5-0.1l-0.5-0.3l-0.3-0.1l-0.2,0.2h-0.3l-0.6-0.4l-0.1-0.4
	l-0.2-0.1l-0.5,0.2l-0.2,0.4l-0.2,0.1l-0.1-0.3l0.1-0.4l0.2-0.4l0.1-1.1l-0.1-0.4l-0.4-0.2l-0.3-0.4l-0.1-1.7l0.1-0.4l0.4-0.5
	l0.4-0.6l0.4-0.5v-0.6l-0.1-0.3l0.1-0.3l0.1-0.2h0.3l0.7,0.3l0.6,0.5l0.8,1l0.5,0.4l0.8,0.2h1l0.2,0.1v0.3l-0.2,0.4v0.5l0.4,0.7
	l0.6,0.6l0.7,0.4v0.4l-0.2,0.4L-74.1,337.7z M-80.9,384.5l-0.3,0.1l-0.5-0.1l-0.4-0.4l0.2-0.1l0.4,0.2l0.6,0.1V384.5z M-83.1,382.9
	l0.1,0.2l-0.4,0.3l-0.2-0.1l-0.4,0.4v-0.3l0.2-0.5l0.6-0.4h0.3l0.1,0.1l-0.2,0.1L-83.1,382.9z M-83.3,386.7h-0.3l-0.2-0.3h-0.3
	l-0.2-0.3l0.1-0.7l0.3-0.2l0.4,0.1l0.1,0.3l-0.2,0.2v0.3l0.2,0.2L-83.3,386.7z M-84.3,334l-0.4,0.3l-0.5,0.1l-0.4-0.1l-0.2-0.2
	l0.4-0.4l0.2-0.4l0.6-0.1l0.5,0.1l-0.2,0.3L-84.3,334z M-89.2,386.1l-0.4,0.3l-0.2,0.3l-0.3,0.1l-0.2-0.1l-0.2,0.1l-0.2-0.4h-0.2
	v0.2l0.1,0.2H-91l-0.4-0.3l0.1-0.6l-0.1-0.4l-0.3-0.4v-0.3l0.4-0.4h0.3l0.4-0.4l0.3-0.1l0.2,0.1l0.4,0.5l0.1,0.3l0.6,0.3l0.2,0.4
	l-0.1,0.2L-89.2,386.1z M-96.9,350.1h-0.2l-0.3-0.3l-0.4-0.1l-0.1-0.1l0.1-0.2l0.3-0.1l0.2,0.2l0.3,0.1l0.5-0.1l0.2,0.1l-0.1,0.2
	L-96.9,350.1z M-97.8,341h-0.8l-0.3-0.1l-0.2-0.2v-0.3l0.5-0.4h0.7l0.6,0.2l0.2,0.4l-0.2,0.3L-97.8,341z M-104.6,409.1l-0.2,0.2
	l-0.2-0.1l0.2-0.3l0.6-0.3l0.4,0.1l-0.2,0.2L-104.6,409.1z M-101.7,407.4l-0.1-0.3l0.3-0.1C-101.4,407.1-101.7,407.4-101.7,407.4z
	 M-102.1,406.3l0.1,0.5l-0.7-0.5l-0.4-0.4l0.1-0.2l0.3,0.3L-102.1,406.3z M-103.5,405.6l-0.2,0.1v-0.5l0.2,0.1V405.6z M-104.1,403.5
	l-0.7-0.8l-0.2-0.3h0.2l0.3,0.3l0.2-0.1l0.1-0.2l-0.3-0.1l-0.2-0.3l0.3-0.2v-0.2l0.2-0.2h0.3l0.5,0.4l0.1,0.3l0.4,0.2l0.5,0.5h0.4
	l0.5,0.5l0.8,0.5l0.1,0.7l-0.2,0.4l-0.4-0.1l-0.2,0.3l-0.5-0.1l-0.2-0.2l0.1-0.2l-0.1-0.5l-0.1-0.2h-0.4l-0.3-0.1v0.5h-0.2l-0.3-0.4
	L-104.1,403.5z M-99.7,370.9v0.3l-0.3,0.1h-0.2l-0.3,0.2l-0.6,0.7l-0.4,0.3l-0.7,0.2l-0.6,0.5h-0.2l-0.7,0.5l-0.8,1l-0.8,0.6h-0.3
	l-0.2,0.8l-0.3,0.6l-0.6,0.4l-0.1,0.5l-0.2,0.2l-0.2,0.5l-0.6,0.8l-0.3,0.2l-0.2-0.4l-0.2,0.4l0.2,0.3l0.3,0.2l-0.1,0.3l-0.5,0.3
	l-0.1,0.2l0.1,0.2v0.4l-0.3,0.3l-0.2-0.1h-0.3v0.2l0.3,0.2l-0.2,0.2l-0.5-0.2l-0.4-0.3l-0.3,0.1v0.5h0.3l0.1,0.1l-0.2,0.5l-0.3,0.1
	l-0.3-0.3h-0.3l0.4,0.5l0.3,0.4v0.4l-0.2,0.4v0.3l0.2,0.2v0.3l-0.1,0.2l-0.4-0.1l-0.4-0.2l-0.1-0.3l-0.3-0.3l-0.1,0.2l0.4,0.6
	l0.4,0.6l0.2,0.6l-0.2,0.3l-0.2-0.1v-0.3l-0.2-0.3l-0.3,0.1l-0.3-0.1l-0.2,0.1l0.2,0.2h0.3l0.4,0.1l0.2,0.5l0.3,0.3l-0.1,0.4
	l-0.3,0.5v0.5l-0.2,0.5l-0.3,0.1l-0.1,0.2h-0.6l-0.3-0.2l-0.2-0.4l-0.2-0.1v0.3l0.2,0.2l-0.3,0.2l-0.5-0.1l-0.2-0.2l-0.5-0.4
	l-0.5,0.2l-0.6,0.3h-0.6v-0.2l0.1-0.2l-0.1-0.3l0.1-0.4l0.2-0.3l0.6-0.3l0.1-0.2h0.2l0.3,0.2h0.2v-0.2l-0.2-0.2h-0.4l-0.4,0.2
	l-0.5,0.4l-0.3,0.2l-0.1,0.2l-0.2,0.1l-0.4-0.2l-0.5-0.5v-0.1l0.3-0.1l0.1-0.2l-0.1-0.2l0.1-0.3l0.2-0.3h0.2l0.2-0.1l0.1-0.2
	l-0.2-0.2v-0.2l0.2-0.2l0.1-0.3l0.2-0.2h0.4l0.3,0.2h0.4l0.4,0.2l0.3,0.3v-0.3v-0.1l-0.3-0.1l-0.6-0.4l-0.5-0.1l-0.1-0.1v-0.2
	l0.4-0.1l0.3-0.1v-0.1h-0.4l-0.4,0.1l-0.2-0.1v-0.2l0.2-0.2h0.5l0.5-0.2l0.1-0.2l-0.1-0.1l-0.3,0.1l-0.3-0.1l-0.3-0.2l-0.1-0.4
	l0.2-0.3l0.2,0.1l0.2-0.2h0.5l0.3-0.1l0.1-0.3h-0.1l-0.3,0.2h-0.4l-0.2-0.1h-0.2l-0.2,0.2l-0.3-0.1l-0.1-0.2l0.2-0.4v-0.3l-0.1-0.1
	l-0.3,0.1l-0.4-0.3l-0.1-0.5l0.1-0.5l0.2-0.1l0.1,0.3l0.2,0.3l0.3,0.2l0.4-0.3l0.2-0.4v-0.3l0.1-0.3l0.4-0.2l0.5,0.1l0.3,0.1
	l0.3-0.2v-0.3l0.1-0.2l-0.1-0.2l-0.3,0.1h-0.2l-0.1-0.3l0.1-0.5l0.2-0.2h0.6l0.3-0.3h-0.2l-0.1-0.1l0.1-0.6l0.2-0.2l0.4-0.1l0.1-0.2
	l0.3-0.2h0.5l0.2-0.3l0.2-0.2l-0.3-0.1v-0.3l0.3-0.2l0.3-0.5h0.3v0.3l-0.2,0.2v0.2l0.2,0.1l0.3-0.4l0.2-0.1V374l-0.2-0.2l-0.2-0.5
	l0.1-0.2l0.3-0.1l0.2-0.2l0.8-0.2l0.6-0.1l0.2,0.3l0.1,0.4l0.1-0.1l-0.1-0.5l0.1-0.3h0.2l0.1,0.3l0.2,0.1l0.3-0.2l0.3-0.5l0.3-0.2
	h0.3l0.2,0.1l0.3-0.2l0.7-0.5l0.2-0.3l0.2-0.1v-0.3l0.2-0.2h0.4V370l-0.2-0.4v-0.2l0.3-0.3v-0.3l0.2-0.3l0.3-0.1l0.2-0.2l0.1-0.4
	l0.5-0.3l0.3-0.1l0.3,0.2l0.3,0.1l0.1-0.2l0.5-0.3l0.2,0.2v0.3l0.2,0.3l0.4,0.1l0.2,0.2l0.4,0.1l0.1,0.2l-0.2,0.5v0.5h0.3l0.1,0.1
	v0.6l0.1,0.3l-0.2,0.4L-99.7,370.9z M-113.4,375.4l-0.1,0.2h-0.2l-0.2-0.3l0.2-0.3l0.3-0.1l0.5-0.3h0.1l-0.1,0.3L-113.4,375.4z
	 M-118.3,343.9l-0.1,0.3l0.1,0.4l-0.1,0.5l-0.3,0.5l-0.3-0.2v-0.3l-0.3-0.3h-0.4l-0.3-0.3v-0.3l0.2-0.3l-0.2-0.6l-0.1-0.5l0.1-0.6
	l0.4-0.2l0.4-0.5v-0.3l0.1-0.3h0.3l0.3,0.2l0.4,0.1l0.2,0.4v0.7l0.1,0.2l0.4,0.2l0.5,0.5h0.3v0.2l-0.7,0.4L-118.3,343.9z
	 M-106.5,408.8l-0.1,0.2h-0.3l-0.2-0.2l0.2-0.1L-106.5,408.8z M-107.6,408.7l0.2,0.4l-0.4-0.1l-0.2-0.2l-0.3-0.1l0.3-0.2
	L-107.6,408.7z M-109,408.7l0.3-0.2l0.2,0.1l-0.2,0.2h-0.2L-109,408.7z M-109.2,411.3v-0.2l0.2-0.3l0.3-0.1v0.3l-0.3,0.4
	L-109.2,411.3z M-116.3,398.7l-0.2,0.1l-0.4-0.2l-0.6-0.4v-0.3l-0.6-0.5l-0.1-0.4l0.1-0.5l-0.1-0.5v-0.4l0.4-0.5h0.3l0.3,0.2
	l0.4-0.1l0.2,0.1l0.2-0.2l-0.2-0.4v-0.3l0.3-0.3h0.3l0.2-0.1h-0.4l-0.3-0.3l0.1-0.3l0.3-0.3l-0.1-0.2l-0.3,0.1l-0.3,0.3h-0.2
	l0.1-0.3l0.4-0.3l-0.1-0.2l-0.5,0.3l-0.3,0.1l-0.2-0.2v-0.5l0.3-0.6l0.4-0.1h0.4l0.1-0.2l-0.2-0.2h-0.4l-0.1-0.4l0.1-0.3v-0.5
	l0.5-0.4l0.3-0.2h0.7l0.7-0.5h0.3l0.4,0.3l1,0.2h0.8l0.2,0.2l-0.1,0.2l-0.6,0.2l-0.2,0.2l0.4-0.1l0.4-0.1l0.1,0.4l-0.1,0.8l-0.5,0.3
	h-0.6l-0.1,0.1l0.3,0.2l0.3-0.2l0.4,0.1v0.3l-0.2,0.3l0.1,0.3l0.2,1.1l0.3,0.6v1l0.4,0.7l0.3,0.9l0.7,0.9l0.5,0.9h0.5l0.2,0.4
	l0.7,0.5h0.4l0.3,0.5l0.3,0.1l0.2-0.1l0.5,0.3v0.2l-0.1,0.3l-0.3,0.3h-0.2l-0.2-0.1l-0.1,0.1l0.2,0.2h0.3l0.2,0.3l-0.1,0.3l-0.2,0.1
	l-0.2-0.2l-0.1-0.4h-0.1l-0.2-0.2l-0.4-0.2l-0.2,0.1v0.2l0.3,0.3v0.2h-0.3l-0.5-0.2l-0.2-0.3l-0.2,0.1l-0.1,0.4h-0.2l-0.2-0.4
	l-0.2-0.3l-0.4-0.2l-0.3-0.1l-0.2,0.1l0.2,0.1l0.5,0.2l0.1,0.4l-0.3,0.3h-0.3l-0.3-0.3l-0.2-0.6l-0.1-0.3l-0.2-0.1v0.4l-0.5-0.2
	l-0.4,0.1l-0.4-0.2l-0.6-0.1l-0.2-0.2v-0.3l0.2,0.1h0.2v-0.3l-0.4-0.3l0.1-0.2l0.3-0.2l0.1-0.3h0.2l0.1-0.2l-0.2-0.1l-0.3,0.2h-0.3
	l-0.5-0.3l-0.4-0.6v-0.4l0.1-0.2l-0.1-0.2l-0.2,0.4v0.3l-0.3,0.2l-0.3-0.1l-0.2-0.5l-0.2-0.3v-0.3l0.2-0.5l-0.3,0.4l-0.1,0.4
	l0.1,0.6l-0.3,0.5L-116.3,398.7z M-114.3,411l-0.2,0.2l-0.5,0.1l-0.1,0.1h-0.1v-0.2l0.4-0.2H-114.3z M-115.5,399.5l-0.3-0.2
	l-0.1-0.2l0.3-0.3h0.5l0.3,0.2l0.1,0.3l0.5,0.2l0.1,0.3l-0.2,0.3l0.2,0.3v0.2l-0.2-0.1l-0.3-0.4l-0.3-0.1v-0.4l-0.3-0.1H-115.5z
	 M-120,410.5l-0.1-0.5l-0.3-0.5v-1l0.3-0.9l0.4-0.3l0.7,0.1l1.5,0.6l0.4,0.5v0.5l-0.3,0.5l0.1-0.6l-0.2-0.4l-0.3,0.3v0.7l-0.4,0.5
	l-0.6,0.5h-0.4l-0.3,0.3h-0.3l0.1-0.3l-0.3-0.2L-120,410.5z M-119.7,345.8v0.3l-0.4,0.2h-0.5l-0.3,0.2v0.3l0.3,0.5l0.5,0.2l0.3,0.4
	l0.3,0.3v0.3l-0.6,0.1l-0.4,0.3h-0.5l-0.7,0.3h-0.4l-0.5-0.7l-0.3-0.6v-1.2l-0.2-0.5v-0.4l0.3-0.1l0.3,0.2h0.4l0.6-0.5h0.3l0.1,0.1
	l0.4-0.3v-0.5l0.1-0.3l0.2,0.5l0.4,0.2L-119.7,345.8z M-121.5,339.8l-0.3-0.2h-0.6l-0.1-0.2l0.2-0.1h0.3l0.3-0.3h0.3l0.1,0.2h0.3
	v0.3l-0.4,0.3L-121.5,339.8z M-121.7,343.9l0.2,0.3l0.3,0.2v0.2l-0.2,0.2l-0.2,0.5l-0.5,0.2l-0.4-0.1l-0.7-0.5l-0.1-0.2l0.1-0.3
	l0.5-0.3l0.6-0.2L-121.7,343.9z M-122.4,352l0.6-0.4l0.5-0.1l0.4,0.2l0.2,0.6l-0.3,0.6h-0.5l-0.3-0.4l-0.5-0.3L-122.4,352z
	 M-122.2,353.3l-0.4-0.1v-0.3h0.4l0.4,0.4l-0.2,0.1L-122.2,353.3z M-122.9,349.8l0.3,0.1l-0.1,0.2h-0.3l-0.5,0.3l-0.1,0.3l-0.2,0.4
	l-0.3,0.2v0.2l0.3,0.3v0.2h-0.3l-0.5-0.3l-0.3-0.7v-0.6l-0.5-0.9v-0.4h0.1l0.4-0.1l0.3-0.2l0.5,0.4l0.8,0.5L-122.9,349.8z
	 M-125.2,348.7l-0.3-0.1l-0.3-0.3h0.3l0.2-0.3l0.2-0.1l0.2,0.2l-0.1,0.3L-125.2,348.7z M-125,346.7l-0.2,0.2h-0.4l-0.2-0.1v-0.3
	l0.2-0.2l0.1-0.5l0.2-0.2h0.2l0.2,0.4v0.3l-0.2,0.1L-125,346.7z M-125.7,345.3l-0.6-0.4l-0.2-0.4l0.2-0.3h0.2l0.2,0.3h0.5l0.3,0.3
	v0.4L-125.7,345.3z M-126.2,342.4l-0.3-0.1l-0.1-0.5l0.2-0.3h0.2l0.2,0.2l0.1,0.3l-0.1,0.3L-126.2,342.4z M-127,344.5h-0.4l-0.2,0.2
	l-0.3-0.2l0.2-0.4l0.4-0.3l0.1-0.3l0.3,0.4l-0.1,0.2V344.5z M-127.2,339.8h-0.4l-0.4,0.3l-0.2-0.3l-0.1-0.3l-0.2-0.2v-0.2l0.4-0.2
	l0.5-0.1l0.3-0.2l0.3,0.2l0.1,0.5l0.1,0.2l-0.2,0.1L-127.2,339.8z M-127.4,340.4l0.1,0.3l-0.2,0.2v-0.3L-127.4,340.4z M-127.9,341.2
	l0.3,0.2h0.4l0.2-0.1l0.2,0.1l-0.1,0.2l-0.2,0.1l-0.2,0.3l-0.2,0.2h-0.2l-0.2-0.2l-0.4,0.2l-0.4-0.2l-0.1-0.2v-0.2l0.4-0.3l0.4-0.2
	L-127.9,341.2z M-128.7,343.4h-0.3l-0.1-0.1l0.2-0.3l0.1-0.3h0.5l0.4,0.2l0.5-0.3l0.3,0.2v0.2l-0.4,0.3l-0.3,0.5l-0.4,0.6l-0.6,0.1
	l-0.4,0.4l-0.5-0.1l-0.2-0.2l0.1-0.2l0.7-0.3l0.5-0.1l-0.1-0.2V343.4z M-128.9,345.8h0.5l0.3,0.2h0.2l0.6,0.5l0.6,0.2h0.4l0.3,0.4
	l-0.1,0.6l-0.2,0.1l-0.4-0.1l-0.5-0.2l-0.5,0.1l-0.5-0.1l-0.2-0.5l-0.2,0.1h-0.2l-0.2-0.4l-0.3-0.3h-0.2l-0.2,0.3l-0.6-0.2l-0.3-0.2
	v-0.2l-0.1-0.4l0.5-0.1h1L-128.9,345.8z M-130.5,349.6l0.2,0.1v0.6l0.2,0.4l-0.2,0.1l-0.4-0.2l-0.2-0.3l0.1-0.1L-130.5,349.6z
	 M-130,352.9l-0.6-0.2l-0.2-0.2l0.4-0.3v-0.3l-0.2-0.3l0.3-0.2h0.2l0.3,0.4h0.3l0.1,0.4l-0.2,0.5L-130,352.9z M-129.6,350.5
	l-0.4-0.6v-0.4h0.2l0.3,0.4l0.2,0.4l-0.1,0.2H-129.6z M-127.7,351.7l-0.4-0.1l-0.1-0.3l0.3-0.1l0.2-0.3l0.2-0.1l0.2,0.2l0.1,0.3
	l-0.1,0.2L-127.7,351.7z M-127.4,350.4v-0.2l0.2-0.1l0.1-0.2h0.3l0.1,0.2l-0.1,0.2l-0.3,0.1H-127.4z M-127.7,350.3l-0.2,0.2
	l-0.2,0.1l0.1-0.4l0.2-0.1L-127.7,350.3z M-128.1,348.2l0.3-0.4l0.5-0.1l0.3,0.1l0.2,0.2l0.4,0.1v0.3l-0.2,0.2h-0.5l-0.3-0.1
	l-0.2,0.3h-0.3l-0.2-0.2V348.2z M-126,346.4l-0.3,0.2l-0.3-0.4l-0.8-0.6l-0.7-0.3h-0.4l-0.2-0.2l0.1-0.2l0.4-0.1h0.6l0.7,0.3
	l0.6,0.6h0.2l0.3-0.2l0.1,0.1l-0.1,0.3L-126,346.4z M-124.8,352.1v0.3h-0.5l-0.6,0.2l-0.3-0.1l-0.3-0.3l-0.1-0.7l-0.3-0.5l0.1-0.3
	l0.5-0.3l0.5-0.1l0.2-0.2l0.3,0.2l0.3,0.5l-0.1,0.3l0.1,0.5L-124.8,352.1z M-129.6,348.1h-0.4l-0.3-0.3v-0.2l0.2-0.1l0.4-0.1
	l0.5,0.1l0.2-0.1l0.2,0.4h0.3l0.1-0.1l0.2,0.1l0.1,0.2l-0.1,0.2l-0.9,0.4l-0.2-0.1L-129.6,348.1z M-128.7,350l-0.3-0.4l0.1-0.1
	l0.3,0.1l0.3,0.3v0.2C-128.4,350.2-128.8,350-128.7,350z M-128.7,351.9v0.4l-0.3-0.1l-0.1-0.4v-0.3l0.2,0.1L-128.7,351.9z
	 M-129,350.5v-0.2l0.1-0.2l0.3,0.1v0.2l-0.1,0.4l-0.2,0.1l-0.3-0.2L-129,350.5z M-132.7,354.7l-0.3,0.2c0,0-0.3,0-0.4,0l-0.1-0.3
	l-0.4-0.3l0.2-0.1h0.5l0.1-0.3v-0.7l0.1-0.2l0.5,0.7v0.4l0.5,0.1l0.1,0.3l-0.2,0.2H-132.7z M-134.2,352.6l0.5,0.2v0.4l-0.2,0.3
	l-0.1,0.4l-0.6-0.3l-0.1-0.4l0.1-0.2l0.1-0.5L-134.2,352.6z M-133.6,350l-0.4,0.4l-0.3,0.1l-0.2-0.1l-0.1-0.2h-0.2l-0.2,0.2v0.4
	l0.1,0.1h0.2l0.1,0.3l0.1,0.1v0.2l-0.2,0.1l-0.6,0.1h-0.3l-0.4,0.2l0.1,0.2l0.3,0.3l0.1,0.6l-0.1,0.6l-0.3,0.2l-0.2-0.1l-0.1,0.2
	v0.3l-0.2,0.3l-0.2,0.2h-0.2v-0.8l-0.3-0.4h-0.2v0.4l-0.2,0.3h-0.3l-0.3,0.1l-0.1-0.2l0.1-0.2l-0.2-0.3l-0.2-1l0.4-0.3h0.5l0.3-0.1
	l-0.2-0.2l-0.3-0.1l-0.1-0.5l-0.3-0.2l-0.3,0.3l-0.3-0.1v-0.3l0.1-0.2v-0.3l0.2-0.2l0.2,0.2l0.4,0.2l0.3-0.1l0.4,0.2l0.3-0.2
	l0.3-0.4l0.3-0.1l0.2-0.3l-0.1-0.5l0.3-0.3l0.3-0.1v-0.3l-0.2-0.1l-0.3,0.1l-0.1-0.1v-0.4l0.3-0.1l0.2-0.5l0.1-0.2l0.1,0.2l-0.1,0.4
	v0.2l0.1-0.1l0.2-0.6l0.5-0.5l0.1,0.2l-0.1,0.5l-0.2,0.5l-0.3,0.3l-0.1,0.4v0.2l0.2-0.1l0.3-0.4l0.5-0.2h0.2l0.1,0.4l0.4,0.3v0.2
	l0.2,0.4v0.2L-133.6,350z M-135.7,346.4c0,0-0.2-0.1-0.1-0.1l0.1-0.5l0.3-0.3h0.2v0.4l0.2,0.2l-0.1,0.3H-135.7z M-137.1,350.2
	l-0.5,0.1l-0.5-0.2l-0.2-0.4l-0.3-0.1l-0.2,0.2l-0.6,0.1l-0.3,0.4l-0.4,0.4l0.2,0.4l0.2,0.1l0.2,0.3l0.1,0.6l0.3,0.5l-0.1,0.3
	l-0.3-0.2l-0.2-0.6l-0.3-0.3l-0.2,0.2v0.2l-0.2,0.3l-0.2-0.1l-0.2-0.3l-0.4-0.3l-0.5,0.3l-0.3-0.2v-1.1l0.5-0.5l0.5-0.1l0.3-0.6
	l0.8-0.7h0.6l0.9,0.2l1.1,0.6l0.5,0.1l0.3,0.3l-0.2,0.1L-137.1,350.2z M76.7,418.9v-0.3l0.2-0.3l0.3-0.1v0.3l-0.3,0.4H76.7z
	 M74.1,451.5l-0.3-0.1l-1-1l0.2-0.1v-0.2l-0.5-0.2l-0.3-0.7l-0.3-1l-0.1-0.7l-0.2-0.2v-0.9l-0.4-0.7l-0.4-0.5l-0.1-0.5l-0.4-0.4
	l0.2-0.6l0.3-0.3l0.3,0.3l0.3,0.1l0.3-0.2l-0.1-0.4h-0.3l-0.1-0.3l0.3-0.1l0.2-0.2l-0.1-0.3h-0.2l-0.2,0.2l0.1-0.5l-0.2-0.3
	l-0.7-0.4l-0.5-0.6h0.3l0.3,0.2l0.2-0.1v-0.3l-0.2-0.2l0.2-0.2l0.2,0.2l0.3,0.6l0.6,0.2l0.2,0.3v0.7l0.3,0.5l0.8,0.7l0.1,0.4h0.2
	l0.5,0.5l0.5,0.7l0.2,0.5l-0.4-0.6l-0.4-0.4h-0.2v0.2l0.2,0.2v0.3l0.4,0.5l0.4,0.2l0.1,0.5l0.1,0.7l0.1,0.6l-0.1-0.1l-0.1,0.3
	l0.1,0.5l0.2,0.3l0.2,0.6l0.4,0.5l0.4,0.2l0.1,0.3l-0.1,0.3l0.1,0.2h0.3v-0.2l0.3,0.1l0.2,0.4v0.4l0.3,0.2l0.4,0.7l0.7,1l0.1,0.5
	l0.6,1l0.6,0.7l0.1,0.4l0.3,0.2l0.2,0.5l0.4,0.7l0.2,0.2v0.3l0.4,0.5l0.3,0.6l0.6,0.4l0.4,0.5l0.2,0.5l-0.2-0.1l-0.4-0.6l-0.4-0.2
	l-0.4-0.2l-0.3-0.6h-0.5l-0.5-0.1l-0.5,0.1l-0.2-0.1h-0.2v0.2L79,459l-0.2,0.3l0.3,0.5v0.4l-0.1,0.7l0.3,0.4l0.1,0.8v0.7l0.2,0.5
	l0.3,0.5l0.2,0.7l0.3,0.4l0.3,0.1l0.5,0.5l0.3,0.5l0.1,0.6l0.6,0.4h0.3l0.3-0.2l0.2,0.3l0.1,0.6l0.4,0.3v0.5v0.4l0.1,0.2v0.3
	l-0.2-0.3l-0.1-0.4l-0.4-0.5v-0.3l0.1-0.2l-0.1-0.2h-0.2l-0.1,0.2l-0.8,0.1l-0.2-0.2v-0.3l-0.2-0.1l-0.4,0.3l-0.1,0.7l0.1,0.5
	l0.2,0.4l-0.1,0.5l0.1,0.5l-0.5-0.3l-0.3-0.6l-0.4-0.3l-0.2-0.5l0.1-0.9l0.1-0.7l-0.1-0.3l-0.6-0.7l-0.1-0.4l-0.3-0.6l-0.1-0.7
	l0.1-0.9l-0.3-0.6v-0.4l-0.8-1l-0.4-0.4l-0.1-0.6l0.1-0.3l-0.3-0.8l-0.1-0.7l0.1-0.4l-0.2-0.3l-0.1-0.8l-0.2-0.6l-0.1-0.5l-0.5-0.7
	v-0.3l0.1-0.1l-0.4-0.4l-0.3-0.2v-0.4l-0.3-0.6v-0.5l-0.1-0.7L74.1,451.5z M90,475.2l0.1-0.4l0.1-0.5l0.1-0.2l0.2,0.2l0.2,0.1
	l0.3-0.1h0.1l-0.1,0.5l-0.5,0.5l-0.2,0.1l-0.2,1c0,0,0,0.5,0,0.6l-0.4-0.4l-0.1-0.3l0.2-0.4L90,475.2z M92.1,473.2l-0.2-0.2v-0.2
	l0.3-0.2l0.1-0.4V472h0.2l0.2-0.4l0.2-0.3l-0.1-0.2l0.1-0.4H93l0.1,0.3l0.2,0.1l0.3-0.2h0.3l0.1-0.3l0.4-0.5l0.3-0.1l0.1,0.4v0.4
	l-0.3,0.2H94l-0.4,0.5l-0.3,0.6l-0.3,0.3l-0.2-0.1l-0.2,0.2v0.2l-0.2,0.2l0.1,0.5l-0.3,0.3l-0.1,0.4l-0.2,0.1l-0.1-0.5l0.1-0.3
	L92.1,473.2z M92.6,475.9l-0.1,0.3l-0.4,0.2l-0.2-0.1l0.3-0.4H92.6z M96.3,468.6l0.1-0.2l0.2-0.2l0.1-0.4l0.2-0.2l0.2-0.4l0.4-0.1
	l0.2-0.1l-0.4,0.6l-0.1,0.5v0.4l-0.3,0.2l-0.3,0.5l-0.4,0.4l-0.2-0.1l0.1-0.6L96.3,468.6z M99.5,463.9h0.1l-0.1,0.7l-0.2,0.2
	l-0.1-0.1l0.2-0.5L99.5,463.9z M100.1,463l-0.1,0.2l-0.2-0.1v-0.2l0.1-0.1L100.1,463z M100.4,461.7l-0.1,0.3l-0.1-0.3l0.1-0.2
	L100.4,461.7z M100.3,462.6l-0.1-0.3h0.2L100.3,462.6z M100.2,460.3l0.1-0.1l0.2,0.1l-0.2,0.1L100.2,460.3z M100.6,456.7l0.2,0.1
	l0.1,0.1l-0.1,0.1l-0.2-0.1V456.7z M101.2,457.1l0.1,0.2v0.4l-0.2,0.2l-0.2,0.1l0.1-0.5L101.2,457.1z M101.1,456l0.1-0.1l0.3,0.1
	l0.1,0.3l-0.2,0.1l-0.2-0.2L101.1,456z M101.3,454.6v0.4l0.2,0.4c0,0-0.2,0.2-0.2,0.3l-0.3-0.3l0.1-0.4v-0.4H101.3z M100.5,449.8
	v-0.3l0.2-0.2l0.4,0.3l-0.1,0.3h-0.4L100.5,449.8z M101.2,452.8l-0.1-0.1l0.2-0.1v-0.3l-0.3-0.4v-0.1h0.3l0.2-0.4l0.4-0.1l0.1-0.4
	l-0.1-0.7l0.1-0.3l0.7,0.6l0.1,0.4l-0.2,0.2l-0.1,0.3v0.4l-0.2,0.4l-0.3,0.2l-0.1,0.3v0.5h-0.2l-0.1-0.2L101.2,452.8z M102.5,449.7
	v-0.3l0.3-0.2l0.2,0.3l0.1,0.4l-0.2,0.2h-0.2L102.5,449.7z M113.6,427.8l0.3-0.1h0.4l-0.2,0.2v0.2l0.4,0.6h0.4l0.2,0.4l0.6,0.4
	l0.4,0.2l0.2,0.5l-0.1,0.2l-0.5-0.1l-0.4-0.4l-0.2,0.1h-0.2l-0.3-0.4l-0.3-0.1l-0.4-0.5v-0.2l-0.2-0.2h-0.3l-0.3-0.2v-0.2l0.3-0.4
	H113.6z M118.1,429.5l0.3,0.3h0.4l0.3,0.2l0.6,0.3l0.2,0.2l-0.6,0.1l-0.2-0.2l-0.6-0.2l-0.5-0.4h-0.4l-0.2-0.3l0.2-0.1L118.1,429.5z
	"/>
</svg>
