<?xml version="1.0" encoding="utf-8"?>
<!-- Generator: Adobe Illustrator 19.0.1, SVG Export Plug-In . SVG Version: 6.00 Build 0)  -->
<svg version="1.1" id="Layer_1" xmlns="http://www.w3.org/2000/svg" xmlns:xlink="http://www.w3.org/1999/xlink" x="0px" y="0px"
	 viewBox="-211 359 171.1 123.9" style="enable-background:new -211 359 171.1 123.9;" xml:space="preserve">
<style type="text/css">
	#Countries{fill:#FFFFFF;}
</style>
<g id="Countries">
	<g>
		<path d="M-208.7,411.4h0.1H-208.7z"/>
		<polygon points="-208.5,409.9 -208.5,409.9 -208.5,409.9 -208.7,409.9 		"/>
		<polygon points="-97.3,441.1 -97.7,441.2 -97.5,441.1 		"/>
		<polygon points="-208.7,411.6 -208.7,411.4 -208.7,411.5 		"/>
		<polygon points="-94.3,441.3 -94.6,441.3 -94.4,441.3 		"/>
		<path d="M-169.4,415.6l1.2-1.6L-169.4,415.6z"/>
		<polygon points="-117,445.6 -116.9,445.2 -116.8,445.1 -116.8,444.9 -117.2,445.1 -117.2,445.5 -117.3,445.7 -117.1,446.1
			-117.2,446.3 -117.1,446.6 -116.9,446.1 -116.9,445.8 		"/>
		<polygon points="-116.9,444.7 -116.6,444.5 -116.6,444 -116.8,443.9 -116.6,443.5 -116.6,443.2 -116.7,443.1 -116.6,442.8
			-116.6,442.7 -116.9,443 -116.9,443.5 -117,443.7 -116.9,443.9 -117.1,444.6 		"/>
		<path d="M-117.4,447.4v0.3c0,0,0,0.2,0,0.3h0.3l0.2-0.4l-0.1-0.4L-117.4,447.4z"/>
		<polygon points="-118,446.2 -117.6,446.3 -117.7,446.1 		"/>
		<polygon points="-116.6,450.1 -116.5,449.9 -116.8,450 		"/>
		<polygon points="-115.7,452 -115.7,452.2 -115.4,452.3 -115.3,452.2 -115.5,451.9 		"/>
		<path d="M-114.7,453.2l-0.2-0.2l-0.2,0.2v0.3c0,0,0.1,0.1,0.2,0.1l0.1,0.3l0.2-0.2l-0.1-0.3V453.2z"/>
		<polygon points="-115,452.7 -115.2,452.9 -115.1,453 -114.9,452.7 		"/>
		<polygon points="-115.2,451.5 -115.3,451.4 -115.4,451.6 -115.3,451.9 -115.2,451.7 		"/>
		<path d="M-116.1,451.2l0.1,0.2l0.3,0.2l-0.1-0.4L-116.1,451.2z"/>
		<polygon points="-63.2,407.4 -63.3,407.5 -63.2,407.6 -63.1,407.4 		"/>
		<polygon points="-63.4,406.7 -63.4,406.7 -63.6,406.9 -63.5,407.2 -63.4,407.4 -63.3,407.4 -63.2,407.1 -63.4,406.8 		"/>
		<polygon points="-62.5,415.2 -62.7,415.2 -62.7,415.3 -62.8,415.3 -63.1,415.4 -63.2,415.7 -63.1,415.7 -62.8,415.7 -62.7,415.8
			-62.6,415.8 -62.6,415.6 -62.3,415.4 -62.2,415.1 -62.4,415.1 		"/>
		<polygon points="-63.4,416.5 -63.4,416.7 -63.2,416.9 -63.1,416.8 -63.1,416.6 -63.3,416.4 		"/>
		<polygon points="-65.5,406.5 -65.4,406.8 -65.2,406.9 -65.1,406.7 -65.2,406.5 -65.3,406.4 -65.4,406.2 -65.5,406.3 		"/>
		<polygon points="-64.9,406 -64.8,405.9 -65,405.9 		"/>
		<polygon points="-65.2,406.2 -65,406.1 -65.2,406.1 		"/>
		<polygon points="-62.9,406.8 -63,406.8 -63.1,406.9 -63.1,407 -62.9,407 		"/>
		<polygon points="-64.7,405.7 -64.8,405.7 -64.8,405.8 		"/>
		<polygon points="-64.6,405.6 -64.5,405.6 -64.7,405.5 -64.8,405.5 -64.8,405.5 		"/>
		<polygon points="-64.6,418.8 -64.6,419 -64.9,419.2 -64.8,419.6 -64.6,419.5 -64.6,419.3 -64.2,419 -64.2,418.7 -64.1,418.6
			-64.2,418.2 -64.4,418.6 -64.6,418.7 		"/>
		<polygon points="-53.2,394.9 -53.1,394.8 -52.9,394.7 -52.8,394.3 -52.9,394.2 -53.1,394.1 -53.1,393.9 -53.1,393.6 -53.2,393.7
			-53.4,394.3 -53.3,394.5 -53.1,394.4 -53.1,394.4 -53.2,394.6 		"/>
		<polygon points="-54.6,384.6 -54.4,384.5 -54.4,384.3 -54.3,384 -54.5,384 -54.7,384.3 -54.7,384.5 		"/>
		<polygon points="-64,405.4 -63.9,405.6 -63.8,406 -63.9,406.1 -63.9,405.9 -64.1,405.7 -64.1,405.9 -64,406.2 -63.8,406.3
			-63.8,406.5 -63.9,406.7 -63.8,406.6 -63.7,406.4 -63.4,406.3 -63.3,406.4 -63.4,406.5 -63.3,406.6 -63,406.5 -63.1,406.2
			-63.2,406 -63.5,406.1 -63.5,406 -63.4,405.9 -63.5,405.6 -63.3,405.5 -63.1,405.6 -62.8,406 -62.8,406.4 -62.6,406.5
			-62.6,407.1 -62.9,407.6 -63.1,407.6 -63.1,407.8 -62.8,408.2 -62.7,408.7 -62.5,409 -62.5,409.3 -62.6,409.5 -62.4,409.7
			-62.1,409.7 -61.9,409.8 -61.8,409.7 -61.8,409.5 -62.1,409.2 -62.1,408.6 -61.9,408.5 -61.8,408.6 -61.9,408.8 -61.9,408.9
			-61.6,409.2 -61.5,409.6 -61.6,409.8 -61.6,410 -61.3,409.9 -61,409.4 -61.3,409.2 -61.3,409 -61.1,408.9 -60.9,409 -60.8,409.1
			-60.7,408.8 -60.7,408.3 -60.8,408 -60.8,407.1 -60.8,406.7 -60.6,406.4 -60.3,406.1 -60.4,405.8 -60.5,405.8 -60.6,405.5
			-60.7,405.5 -60.7,405.3 -61.2,405.3 -61.3,405.2 -61,405 -60.9,404.8 -61,404.4 -61.2,404.3 -61.5,404.3 -61.5,404.4
			-61.7,404.6 -61.9,404.5 -62.2,404.2 -62.2,403.9 -61.7,403.7 -61.3,403.6 -60.8,403.8 -60.6,403.9 -60.5,403.8 -60.5,403.5
			-60.5,403.2 -60.6,403 -60.5,402.8 -60.3,402.8 -60.1,403 -59.9,403 -59.7,402.9 -59.2,402.8 -58.7,402.6 -58.3,402.6
			-58.2,402.7 -58,402.6 -58,402.5 -57.7,402.3 -57.6,402.1 -57.3,401.8 -56.9,401.7 -56.4,401.8 -56.2,401.7 -56,401.8 -56,402.1
			-56.3,402.4 -56.3,402.7 -56.2,402.8 -56.2,403.1 -56.1,403.4 -56.2,403.5 -56.1,403.8 -55.8,403.9 -55.3,404.3 -55,404.4
			-54.9,404.3 -54.6,403.9 -54.5,403.6 -54.4,403.4 -54.3,403.3 -54.4,403.1 -54.2,402.7 -53.9,402.7 -53.6,402.7 -53.6,402.5
			-53.6,402.4 -53.7,402.1 -54.3,401.8 -54.3,401.7 -54.2,401.2 -54,401.1 -53.9,401 -54,401.2 -53.9,401.5 -53.8,401.6
			-53.7,401.5 -53.6,401.4 -53.4,401.5 -53.3,401.6 -53.1,401.5 -53,401.6 -53,401.7 -53.3,401.8 -53.4,401.8 -53.3,401.9
			-53,401.8 -52.6,401.6 -51.8,401.7 -51.4,401.6 -51.5,401.5 -51.6,401.2 -51.5,400.9 -51.2,400.7 -50.9,400.7 -50.9,401.1
			-51,401.3 -50.9,401.6 -50.6,401.6 -50.4,401.2 -50.6,400.7 -50.5,400.3 -50.1,400 -49.9,400 -49.8,399.9 -50,399.7 -49.9,399.3
			-49.7,399.2 -49.4,399.3 -49.3,399.4 -49.5,399.7 -49.5,400.1 -49.5,401 -49.3,401 -49.1,400.9 -49,400.6 -48.7,400.6
			-48.4,400.3 -48.3,399.9 -48.4,399.6 -48,399.3 -48.1,399.1 -48.2,398.9 -48.6,398.4 -48.7,398.1 -48.8,397.3 -48.7,396.4
			-48.7,395.8 -49,394.7 -49.4,394.2 -49.4,393.8 -49.3,393.3 -48.8,393.1 -48.6,393.1 -48.4,393.3 -48.4,393.2 -48.4,392.8
			-48.5,392.6 -48.6,392.4 -48.7,392.1 -48.7,392 -48.7,391.7 -48.5,391.5 -48.5,391.4 -48.5,391.2 -48.6,391.1 -48.6,390.7
			-48.6,390.5 -48.7,390.3 -48.8,389.6 -49.1,389.1 -49.2,389.1 -49.4,389.1 -49.4,388.4 -49.7,388.1 -50.4,387.4 -50.5,387.1
			-50.7,386.6 -50.7,386.1 -50.7,386 -50.8,386.1 -51,386.1 -51.1,386 -51.3,385.9 -51.5,385.9 -51.5,386 -51.6,386.3 -51.6,386.6
			-51.5,386.7 -51.3,386.7 -51,386.4 -50.8,386.7 -50.9,387 -51.1,387.1 -51.3,387 -51.4,387 -51.3,387.4 -51.5,387.5 -51.7,387.4
			-51.7,387.2 -51.8,386.8 -51.9,386.7 -52.1,386.7 -52.2,386.6 -52.3,386.9 -52.2,387.4 -52.2,387.7 -52.4,387.7 -52.5,388
			-52.5,388.2 -52.1,388.6 -52,388.8 -52.2,389.3 -52.4,389.4 -52.6,389.3 -52.7,389.5 -52.4,389.8 -52.2,389.7 -52,389.5
			-51.7,390.2 -51.6,391 -51.6,391.4 -51.6,392.1 -51.9,393.2 -51.8,393.6 -51.9,394.1 -52.3,394.3 -52.5,394.8 -52.5,395.3
			-52.6,395.6 -52.7,395.9 -53.1,396.3 -53.8,396.7 -54.1,396.8 -54.3,397.1 -54.6,396.9 -55,396.5 -55,396.3 -54.8,396.2
			-54.7,395.9 -54.7,395.7 -54.5,395.5 -54.5,395.4 -54.9,395.5 -55.2,395.8 -55.5,395.9 -55.5,396.2 -55.3,396.6 -55.3,397.3
			-55.3,397.7 -55.7,398.1 -55.7,398.3 -55.8,398.4 -55.9,399 -55.7,399.1 -55.7,399.4 -55.8,399.4 -55.8,399.5 -55.8,399.7
			-56,399.7 -55.9,399.9 -56.1,400 -56.3,399.9 -56.5,400 -56.6,400 -56.7,399.6 -56.8,399.6 -57,399.7 -57.2,399.8 -57.3,399.7
			-58,399.9 -58.3,400.1 -58.7,400.2 -59.1,400.2 -59.5,400.3 -59.6,400.2 -59.9,400.3 -60.5,400.7 -60.6,401.1 -60.8,401.2
			-60.9,401.4 -61.3,401.9 -61.6,402 -61.8,402.3 -61.9,402.5 -62.1,402.8 -62.5,402.9 -62.7,403.1 -62.6,403.6 -62.4,403.7
			-62.4,403.8 -62.5,404 -62.7,404 -63.1,404.3 -63.1,404.5 -63.3,404.6 -63.6,404.9 -63.8,405.2 -64,405.2 -64.3,405.3
			-64.2,405.3 		"/>
		<polygon points="-59.9,399 -59.8,398.9 -59.8,398.7 -60,398.7 -60.1,398.9 -60,399 		"/>
		<polygon points="-57.9,404.3 -57.4,404.6 -57.3,404.8 -57.1,404.8 -57,404.2 -56.6,403.9 -56.6,403.7 -56.7,403.6 -56.8,403.3
			-57.1,403.1 -57.3,403.1 -57.6,402.9 -58,402.9 -58.4,403.2 -58.4,403.4 -58.5,403.6 -58.8,403.7 -59,403.9 -59.2,403.8
			-59.4,403.4 -59.5,403.4 -59.9,403.9 -59.9,404.2 -60.2,404.4 -60.3,404.7 -59.8,404.8 -59.7,405.1 -59.8,405.2 -59.8,405.3
			-59.6,405.7 -59.2,405.8 -59.2,406 -59.1,406 -59,405.9 -58.8,406 -58.7,405.9 -58.7,405.7 -59,405.4 -58.8,405.1 -58.7,404.7
			-58.3,404.5 -58.2,404.3 		"/>
		<polygon points="-60.2,399.1 -60.3,399 -60.3,399.2 -60.3,399.2 		"/>
		<polygon points="-56.6,402.2 -56.7,402.2 -56.8,402.4 -56.8,402.6 -56.7,402.9 -56.5,402.9 -56.5,402.7 -56.5,402.6 -56.5,402.4
					"/>
		<polygon points="-61.3,411.6 -61.2,411.5 -61.3,411.3 -61.5,411 -61.7,411.1 -61.7,411.3 -61.6,411.6 		"/>
		<polygon points="-57.4,402.5 -57.6,402.4 -57.8,402.6 -57.6,402.7 -57.4,402.6 		"/>
		<polygon points="-60.9,410.6 -60.9,410.4 -61.1,410.2 -61.1,410.4 -61,410.9 -60.9,410.8 		"/>
		<polygon points="-70,423.8 -69.9,423.7 -70,423.5 -70.1,423.5 -70.2,423.8 		"/>
		<polygon points="-54,384 -53.9,384.2 -53.8,384.2 -53.5,384.4 -53.3,384.6 -53.1,385.1 -53,385.7 -53.1,385.8 -52.9,386
			-52.7,386.2 -52.3,385.8 -52.2,385.5 -52.2,385.3 -52.1,385.2 -51.6,385.2 -51.4,385.4 -51.4,385.1 -51.1,384.8 -51.2,384.6
			-51.6,384.6 -51.9,384.6 -52.3,384.1 -52.7,384.2 -53,384 -53.1,383.8 -53.1,383.5 -52.9,383.3 -52.7,383.3 -52.3,383.5
			-52.1,383.6 -51.8,383.1 -51.4,382.8 -51.1,382.9 -51,383 -50.7,383 -50.5,383 -50.2,383.3 -49.8,383.7 -49.3,383.9 -48.8,384
			-48.7,384.3 -48.4,384.4 -48.4,384.1 -48.3,383.9 -48.4,383.5 -48.4,383 -48.2,382.4 -47.8,381.8 -47.5,381.7 -47.2,381.8
			-46.8,381.8 -46.9,381.6 -46.6,381.5 -46.5,381.5 -46.3,381.5 -46.2,381.4 -46.1,381.1 -45.9,381 -45.7,380.9 -45.7,380.6
			-45.5,380.5 -45.4,380.2 -45.6,380.3 -45.8,380.5 -46,380.7 -46.2,380.7 -46.2,380.6 -46.2,380.3 -46.5,380 -46.8,379.8
			-46.9,379.6 -46.9,379.2 -46.8,378.7 -46.8,378.5 -46.9,378.3 -46.9,378.4 -47,378.7 -47.3,379 -47.8,379.4 -48.2,379.4
			-48.3,379.4 -48.5,379.4 -48.8,379.1 -49.2,379.1 -49.7,378.8 -49.9,378.5 -50.2,378.5 -50.4,378.2 -50.8,378 -51.5,377.3
			-51.7,376.8 -52.1,376.8 -52.6,376.3 -52.7,376.1 -53.1,376.1 -53.1,376.2 -53.2,376.4 -53.4,376.4 -53.4,376.5 -53.3,376.7
			-53.2,377.1 -52.7,377.9 -52.5,378.3 -52.5,378.9 -52.6,379.1 -52.4,379.6 -52.3,379.9 -52.3,380 -52.5,380 -52.7,380.3
			-52.6,380.6 -52.4,380.9 -52.4,381 -52.2,381.1 -52.1,381.3 -52.2,381.4 -52.2,381.7 -52.4,381.8 -53,381.7 -53.4,381.5
			-53.7,381.5 -53.8,381.7 -53.7,381.9 -53.6,381.9 -53.3,382.1 -53.2,382.2 -53.3,382.4 -53.5,382.7 -53.7,382.8 -53.7,382.9
			-53.9,383 -54,383.3 -53.9,383.6 		"/>
		<polygon points="-67.8,422.5 -68.2,422.4 -68.2,422.7 -68.1,422.8 -67.9,422.8 		"/>
		<polygon points="-69.6,423.6 -69.4,423.7 -69.3,423.4 -69.5,423.2 -69.7,423.4 		"/>
		<polygon points="-69.9,403.4 -69.8,403.4 -69.8,403.1 -69.9,402.9 -70,403.1 -70.1,403.1 -70.1,403.2 -70,403.4 		"/>
		<polygon points="-66.4,402.3 -66.3,402.1 -66.3,401.9 -66.4,401.8 -66.7,402 -66.6,402.1 -66.6,402.4 		"/>
		<polygon points="-68.7,405.5 -68.5,405.1 -68.6,404.9 -68.9,404.8 -69.5,405 -69.7,405.3 -69.6,405.5 -69.3,405.6 		"/>
		<polygon points="-65.1,403.2 -65,402.9 -65,402.6 -65.1,402.5 -65.2,402.6 -65.3,402.8 -65.3,403.1 -65.2,403.3 		"/>
		<polygon points="-67.6,402.2 -67.8,402.3 -67.7,402.4 -67.5,402.4 		"/>
		<polygon points="-65.4,403.6 -65.4,403.8 -65.3,403.8 -65.1,403.7 -65,403.5 -65.3,403.4 		"/>
		<polygon points="-80.7,425.3 -80.6,425.4 -80.3,425.4 -80.2,425.3 -80.4,425.1 		"/>
		<polygon points="-89.8,429.8 -90.1,429.7 -90.5,429.8 -90.4,429.9 -90.1,429.9 -89.8,430 		"/>
		<path d="M-89.5,432.7l0.1-0.2l0.2-0.4l-0.1-0.4l-0.3-0.2l-0.3-0.1l-0.2,0.2l-0.2-0.1l-0.3,0.1h-0.2l-0.2,0.1h-0.4l-0.3,0.2H-92
			l-0.1,0.3l-0.5,0.3l-0.4,0.4l0.1,0.2v0.6l0.2,0.3v0.2l0.3,0.2h0.3l0.2,0.2h0.2l0.3,0.2l0.2-0.1l0.1-0.3h0.2l0.3,0.1l0.2-0.2v-0.2
			l0.3-0.1l0.2-0.2l-0.1-0.3l0.2-0.5L-89.5,432.7z"/>
		<polygon points="-77.1,421.5 -77.1,421.3 -77.2,421.1 -77.3,421.2 -77.2,421.5 		"/>
		<polygon points="-75.4,423.2 -75.7,423.8 -75.9,424.5 -76,424.5 -75.9,424.7 -75.9,425.3 -75.8,425.9 -75.7,426 -75.6,426.2
			-75.7,426.2 -75.7,426.4 -75.5,426.7 -75.4,426.7 -75.3,426.9 -74.9,427.1 -74.7,427.4 -74.7,427.8 -74.7,428 -74.4,428
			-74.2,428 -74.3,427.7 -74.2,427.4 -74.4,426.9 -74.1,426.5 -73.7,425.9 -73.7,425.6 -73.6,425.4 -73.7,425.4 -73.6,424.8
			-73.6,424.4 -73.7,423.9 -73.5,423.6 -73.4,422.8 -73.3,422.4 -73.2,422.3 -73.3,422.1 -73.5,421.9 -73.6,421.9 -73.8,421.5
			-74.2,421.4 -74.4,421.5 -74.3,421.7 -74.6,421.8 -74.9,422.2 -75.3,422.7 -75.2,422.9 -75.2,423.1 		"/>
		<polygon points="-76.2,409.1 -76.6,409.1 -76.6,409.2 -76.4,409.4 -76.1,409.4 -75.8,409.5 -75.8,409.2 -76.1,409.2 		"/>
		<polygon points="-74.3,412.4 -74.6,412.2 -74.7,412.2 -74.9,412.2 -74.8,412.4 -74.5,412.5 -74.3,412.6 		"/>
		<path d="M-71.9,433.1l-0.2,0.2l0.2,0.1l0.1-0.2C-71.8,433.2-72,433.1-71.9,433.1z"/>
		<polygon points="-72.9,433.5 -72.7,433.4 -73.1,433.4 		"/>
		<polygon points="-71.1,439.8 -71.5,440 -71.3,440.4 -71.4,440.5 -71.3,440.7 -71.1,440.5 -71.1,440.1 -70.9,439.9 		"/>
		<polygon points="-72.7,432.6 -72.6,432.3 -72.9,432.5 		"/>
		<polygon points="-73.4,433 -73.1,432.9 -73.3,432.7 		"/>
		<polygon points="-77.6,450.8 -77.4,450.6 -77.1,450.5 -76.8,449.9 -76.4,449.8 -76.1,449.6 -76.1,449.5 -75.9,449.2 -75.9,448.7
			-75.7,448.5 -75.2,448.5 -75.1,448.2 -74.9,447.9 -74.7,447.9 -74.5,447.6 -74.7,447.2 -74.9,447 -74.9,446.7 -74.9,446.2
			-75.1,446.3 -75.1,446.7 -75.1,447.2 -75.3,447.1 -75.1,447.4 -75.1,447.6 -75.4,447.9 -75.6,447.9 -75.9,448.2 -75.9,448.4
			-76.2,448.6 -76.5,449.3 -77,449.7 -77.2,449.8 -77.5,450.2 -77.7,450.2 -78.1,450.8 -78.2,451 -78.2,451.1 -77.9,450.9 		"/>
		<polygon points="-78.3,451.4 -78.1,451.4 -78.1,451.3 		"/>
		<polygon points="-72.4,434.4 -72.6,434.3 -72.9,434 -73.5,433.9 -73.9,434 -74,434.4 -74.3,435 -74.2,435.4 -74.2,436
			-74.4,436.8 -74.5,437.2 -74.3,437.7 -74.3,437.9 -74.5,438 -74.8,438 -75,437.7 -75,438.1 -74.9,438.4 -74.8,438.5 -74.7,438.6
			-74.8,438.8 -74.7,439.2 -74.5,439.7 -74.5,440.2 -74.3,440.3 -74.2,440.2 -74.1,440.3 -74.1,440.6 -73.8,441 -73.6,441
			-73.4,440.8 -73.6,440.6 -73.5,440.4 -73.2,440.4 -72.9,440.6 -73.3,441.1 -73.4,441.3 -73.4,441.5 -73.4,441.8 -73.2,442.2
			-73.1,441.9 -73,441.8 -72.8,442.1 -73,442.3 -72.7,442.3 -72.5,442.1 -72.2,442.5 -71.9,442.3 -71.9,442.1 -71.8,441.9
			-71.4,441.8 -70.8,442.1 -70.7,442.3 -70.3,442.6 -70,443.1 -69.9,443.1 -70,442.5 -70.3,442 -70.3,441.8 -70.1,441.8 -69.9,442
			-69.7,442.1 -69.5,442.5 -69.1,442.7 -68.9,442.9 -68.9,443.3 -68.7,443.4 -68.3,443.8 -68.1,443.7 -68.1,443.6 -67.8,443.6
			-67.9,443.8 -68.1,443.9 -67.8,444.3 -67.6,444.4 -67.5,443.9 -67.5,443.7 -67.4,443.6 -67.5,443.4 -67.7,443.4 -68,443.3
			-68.3,443.3 -68.3,443.1 -68.5,442.5 -68.5,442.3 -68.4,442.2 -68.2,442.3 -68,442.2 -68.1,442.1 -68.4,441.9 -68.8,441.9
			-68.9,441.6 -69.1,441.7 -69,442 -69.3,442.1 -69.4,442 -69.4,441.7 -69.6,441.3 -70,441 -70.3,441 -70.7,441.3 -70.8,441.6
			-71.1,441.7 -71.4,441.5 -71.6,441.2 -71.8,441 -71.8,440.7 -71.7,440.5 -71.9,440.3 -72,439.9 -72.2,439.8 -72.2,439.4
			-72,439.1 -72,438.8 -71.9,438.5 -71.4,438 -71.2,437.9 -71.3,438.2 -71.3,438.3 -71.1,437.9 -71.2,437.5 -71,437.1 -70.8,436.3
			-71,436.1 -71.1,435.7 -71.3,435.7 -71.5,435.2 -71.5,434.6 -71.3,434.4 -71.3,434.1 -71.5,433.9 -71.6,433.9 -71.6,434.1
			-71.9,434.3 -72.3,434.3 		"/>
		<polygon points="-78.3,451.9 -78.3,451.8 -78.4,451.7 -78.7,451.8 -78.7,452 -78.5,452.3 -78.3,452.3 		"/>
		<polygon points="-77.9,451.3 -78,451.4 -77.9,451.5 		"/>
		<polygon points="-73.9,447.8 -73.9,447.6 -74.1,447.5 -74.2,447.4 -74.2,447.5 -74.3,447.6 -74.4,447.8 -74.2,447.8 		"/>
		<polygon points="-67.7,448.8 -67.5,449 -67.6,449.2 -67.2,449.1 -66.7,448.9 -66.6,448.7 -66.6,448.4 -66.8,448.2 -67,448.2
			-67.5,448.5 		"/>
		<polygon points="-69,445 -68.9,445.2 -68.7,444.8 -68.4,444.8 -68.1,445.2 -67.7,445.4 -67.5,445.3 -67.5,445.2 -67.7,444.9
			-68.1,444.6 -68.3,444.6 -68.6,444.3 -68.7,444.3 -68.7,444.2 -68.9,444.1 -68.9,444.5 -68.8,444.7 -69,444.9 		"/>
		<polygon points="-69.8,444.5 -69.8,444.4 -70,444.3 -70.1,444.4 -70.1,444.6 		"/>
		<polygon points="-71.2,442.4 -71.4,442.6 -71.3,442.8 -71,443.1 -70.9,442.9 -70.8,442.7 -70.9,442.5 		"/>
		<polygon points="-65.6,448.5 -65.4,448.8 -65.4,448.6 -65.5,448.3 		"/>
		<polygon points="-70.7,444 -70.8,444.3 -71,444.6 -70.9,445 -70.7,444.9 -70.5,444.5 -70.7,444.3 -70.6,443.9 		"/>
		<polygon points="-66,447.3 -66,446.8 -66.2,446.4 -66.2,446.3 -66.6,446.4 -66.8,446.2 -67.1,446.2 -66.9,446.5 -66.9,446.9
			-66.7,447.1 -66.6,446.9 -66.4,447.1 -66.4,447.5 -66.3,447.8 -66.2,448.2 -66,448.4 -65.9,448 -65.8,448.2 -65.5,448.1
			-65.5,447.9 -65.7,447.4 		"/>
		<polygon points="-68.1,444.5 -67.9,444.5 -68.2,444.2 -68.4,444.1 -68.3,444.2 		"/>
		<polygon points="-66.5,449.7 -66.4,449.9 -66.2,450 -66.1,449.8 -66.4,449.5 		"/>
		<polygon points="-64.4,449.1 -64.3,449.3 -64.2,449.1 -64.4,449 		"/>
		<polygon points="-67.7,442.5 -67.3,442.4 -67.1,442.1 -67.3,441.8 -67.5,441.5 -67.7,441.7 -67.6,442 -67.7,442.3 -67.8,442.3
			"/>
		<polygon points="-67.1,444.2 -67.2,444.1 -67.2,444.4 -67,444.8 -66.6,445.2 -66.2,445.6 -66.1,445.7 -66.1,445.8 -66.2,446
			-66.3,446.1 -66.1,446 -66.1,446.1 -66,446.2 -65.7,446.4 -65.6,446.6 -65.2,446.6 -65.1,446.7 -65,446.6 -64.8,446.7 -65,446.5
			-65.1,446.2 -65.2,446 -65.2,445.6 -65.3,445 -65.2,444.8 -65.4,444.7 -65.6,444.4 -65.8,444.1 -66,444.1 -66.1,444.1
			-66.2,444.1 -66.4,444.1 -66.5,444.2 -66.8,444.2 		"/>
		<polygon points="-63.9,448.8 -64,448.5 -64.1,448.3 -64.2,448.6 -64.3,448.7 -64.1,448.9 		"/>
		<polygon points="-64.9,448.9 -65,448.9 -65.2,448.9 -65.2,449.2 -65.1,449.8 -65.1,450.1 -65.3,449.8 -65.5,449.8 -65.5,450.2
			-65.5,450.4 -65.7,450.2 -66.1,450.1 -66.2,450.7 -66.1,450.8 -66.1,451.1 -66.3,451.1 -66.5,450.8 -66.8,450.9 -67,451.5
			-67.3,451.7 -67.6,451.7 -67.9,452 -67.6,451.5 -67.6,451 -68,450.6 -68.3,450.7 -68.5,450.9 -68.8,451.1 -69,451.4 -68.8,451.6
			-69.3,451.7 -69.6,451.6 -69.8,451.9 -70.1,451.9 -70.4,452.3 -70.3,452.5 -70.4,453 -70.6,453.4 -70.3,453.7 -70.1,453.5
			-69.9,452.9 -69.7,452.7 -69.5,452.3 -69.4,452.3 -69.2,452.5 -69.2,452.8 -69.1,452.9 -69,452.8 -68.8,452.9 -68.8,452.6
			-68.7,452.5 -68.5,452.6 -68.6,452.8 -68.5,452.7 -68.2,452.9 -68.1,452.9 -68.2,452.7 -68.1,452.6 -68.2,452.4 -68.1,452.3
			-67.9,452.3 -67.6,452.5 -67.4,452.6 -67.1,452.8 -67,453.1 -66.8,453.4 -67,453.3 -67.2,453.3 -67.2,453.5 -67.3,453.7
			-67.1,453.8 -67.1,454.1 -67.2,454.3 -67,454.6 -66.9,454.8 -66.6,455.2 -66.3,455.2 -66,455.4 -65.7,455.6 -65.4,455.4
			-65.4,455.2 -65.2,455.1 -65.1,455.3 -65.2,455.4 -65.1,455.7 -65,455.9 -64.8,455.7 -64.4,455.1 -64.4,454.8 -64.5,454.6
			-64.7,454.2 -64.9,454 -64.9,453.7 -64.5,453.1 -64.3,453 -64.1,453.3 -64,453.6 -63.8,453.8 -63.8,454.1 -63.7,454.6
			-63.6,454.8 -63.6,454.6 -63.6,454.2 -63.7,453.8 -63.6,453.6 -63.4,453.5 -63.3,453.8 -63.3,453.6 -63.2,453.6 -63,453.1
			-63.1,452.6 -63.3,452.3 -63.5,452.1 -63.5,451.7 -63.5,451.4 -63.6,451.6 -63.6,451.2 -63.6,451 -63.7,451 -63.9,450.8
			-63.9,450.6 -63.6,450.6 -63.6,450.2 -63.9,449.9 -63.9,449.6 -64.1,449.8 -64.4,449.5 -64.8,449.2 		"/>
		<polygon points="-74.3,445.8 -74.2,445.6 -74.1,445.6 -74.2,445.3 -74.5,445.2 -74.6,445.4 -74.5,445.8 		"/>
		<polygon points="-70.7,447.7 -70.6,447.6 -70.5,447.5 -70.1,447.3 -69.9,447.3 -69.9,447.2 -69.7,447.2 -69.6,447 -69.2,446.7
			-69,446.3 -68.9,446.2 -68.8,445.9 -69,445.7 -69.2,445.8 -69.4,446.1 -69.5,445.8 -69.8,445.7 -70.1,445.8 -70.3,445.7
			-70.2,445.6 -70.4,445.5 -70.7,445.2 -71.1,445.3 -71.1,445.5 -70.8,445.6 -70.6,445.7 -70.7,446 -70.7,446.3 -70.7,446.8
			-70.8,447.2 		"/>
		<polygon points="-70.5,454.6 -70.4,454.6 -70,454.3 -69.9,454.2 -70.1,454.1 -70.3,454 -70.5,454.1 -70.7,454.1 -70.7,454.3 		"/>
		<polygon points="-71.2,441.4 -71,441.6 -71,441.3 -71.2,441.2 		"/>
		<polygon points="-64.8,447.4 -64.7,447.5 -64.7,447.3 -64.8,447.2 		"/>
		<polygon points="-64.8,446.9 -64.7,447 -64.6,447 -64.6,446.9 		"/>
		<polygon points="-73.8,442.3 -74.1,442 -74.3,442 -74.3,442.2 -73.9,442.3 		"/>
		<polygon points="-74.6,444.7 -74.5,444.9 -74.3,445.1 -74,445.1 -73.8,445.2 -73.7,445 -73.7,444.9 -74,444.8 -74.2,444.6
			-74.5,444.6 		"/>
		<polygon points="-72.1,444.8 -71.9,444.6 -71.9,444.4 -71.7,444.2 -71.7,444 -71.9,443.7 -71.8,443.5 -71.8,443.2 -72.1,443.1
			-72.7,442.5 -73.1,442.6 -73.5,442.5 -73.7,442.6 -73.7,442.8 -73.5,442.8 -73.4,443.2 -73.2,443.2 -73,443.5 -73,444
			-72.7,444.1 -72.7,444.4 -72.4,444.8 		"/>
		<polygon points="-64.8,447.7 -65,447.8 -65,448.1 -64.9,448.5 -64.9,448.7 -64.8,448.8 -64.7,448.8 -64.6,448.5 -64.8,448.2
			-64.9,447.9 -64.7,447.9 		"/>
		<polygon points="-69.3,443.2 -69.4,443.2 -69.4,443.4 -69,443.8 -69,443.7 -69,443.5 		"/>
		<polygon points="-68.3,449.9 -68.1,450 -67.9,449.9 -67.8,449.8 -67.9,449.7 -68.2,449.7 		"/>
		<polygon points="-67.2,445.9 -66.9,446.1 -66.7,446.1 -66.6,445.8 -67,445.8 		"/>
		<polygon points="-67.5,447.6 -67.6,447.3 -67.5,447.1 -67.5,446.5 -67.6,446.6 -67.7,447.1 -68,447.6 -68.1,448 -68.2,448.4
			-68.5,448.7 -68.5,449.1 -68.4,449.3 -68.2,449 -68,448.4 -67.6,447.9 		"/>
		<polygon points="-69.6,447.6 -69.6,447.4 -69.7,447.3 -69.9,447.4 -70,447.7 -69.8,447.9 		"/>
		<polygon points="-68.3,447.4 -68.3,447.1 -68.5,446.9 -68.7,447 -68.9,446.9 -69.1,447.1 -69.1,447.4 -69.3,447.7 -69.2,448.1
			-69.4,448.4 -69.9,448.6 -70,448.8 -70,449.2 -69.7,449.3 -69.4,449.5 -69.1,449.5 -69.1,449.9 -68.8,450 -68.5,449.8
			-68.5,449.6 -68.7,449.2 -68.8,448.6 -68.6,447.7 		"/>
		<polygon points="-67,447.5 -67,447.2 -67.1,447.4 		"/>
		<polygon points="-59.9,478.5 -59.7,478.6 -59.5,478.6 -59.6,478.5 		"/>
		<polygon points="-59.8,470.9 -60,470.9 -59.9,471.1 -59.8,471 		"/>
		<polygon points="-58.1,478.1 -58.1,477.8 -58.3,477.7 -58.5,477.8 -58.5,477.9 -58.3,478.1 		"/>
		<polygon points="-58.1,478.4 -58,478.2 -58.3,478.4 		"/>
		<polygon points="-58.6,475.9 -58.7,476 -58.5,476 		"/>
		<polygon points="-60.2,476.7 -60.2,476.8 -60,476.8 -59.9,476.7 -60.1,476.6 		"/>
		<polygon points="-61.5,478.3 -61.4,478.5 -61.1,478.6 -60.7,478.5 -60.7,478.3 -61,478.4 		"/>
		<polygon points="-60.7,471 -61.1,471.1 -60.9,471.3 -60.6,471.2 -60.6,471.3 -60.4,471 -60.6,470.9 		"/>
		<polygon points="-60.1,471 -60.3,471 -60.2,471.1 -60.1,471.1 		"/>
		<polygon points="-57.9,475.4 -57.6,475.3 -57.8,475.2 		"/>
		<path d="M-56.4,477.3l-0.2,0.1L-56.4,477.3C-56.5,477.4-56.4,477.2-56.4,477.3z"/>
		<polygon points="-53.5,474.3 -53.5,474.6 -53.4,474.7 -53.4,474.4 -53.6,474 		"/>
		<polygon points="-53.2,474.6 -53.3,474.7 -53.1,474.7 -52.9,474 -52.8,473.7 -53.1,473.9 		"/>
		<polygon points="-75,479.3 -74.8,479.5 -74.7,479.1 -74.6,479 -74.9,478.9 		"/>
		<polygon points="-56.3,471.1 -56.5,470.5 -57.3,470.1 -57.9,469.9 -58.2,469.7 -58.6,469.7 -58.8,469.9 -59.2,469.9 -59.4,469.8
			-59.9,469.8 -60.5,469.8 -60.6,470 -60.7,470.2 -60.9,470.2 -61,470.5 -61,470.7 -60.8,470.7 -60.5,470.3 -60.3,470.5
			-60.1,470.7 -59.8,470.7 -59.5,470.4 -59.3,470.4 -59.2,470.7 -58.5,470.8 -58.4,470.6 -58,470.6 -57.4,471 -57.1,471
			-56.8,471.4 -56.5,471.4 		"/>
		<polygon points="-54.8,476.5 -54.5,476.3 -54.6,476.3 		"/>
		<polygon points="-56.4,478.4 -56.5,478.5 -56.3,478.5 -56.1,478.3 -56,478.2 -56.2,478.2 		"/>
		<polygon points="-61.2,470.4 -61.2,470.2 -61.4,470.3 		"/>
		<polygon points="-55.1,476.6 -54.7,476.8 -54.8,476.6 		"/>
		<polygon points="-55.2,476.7 -55.3,476.7 -55.5,476.8 -55.5,476.9 -55.9,477.3 -55.9,477.5 -55.9,477.6 -56,477.7 -56.1,477.9
			-55.8,478.1 -55.6,478.1 -55.3,477.6 -55.1,477.2 -55.2,477 -55.1,476.9 		"/>
		<polygon points="-62.3,477.3 -62.3,477.5 -62,477.2 -62.2,477.2 		"/>
		<polygon points="-64.9,459.1 -64.9,459.5 -64.6,459.8 -64.5,459.6 -64.6,459.3 -64.9,458.9 		"/>
		<path d="M-69.3,478.9l0.2-0.1l0.1-0.3v-0.3l-0.3-0.1l-0.3,0.2l0.1,0.1l-0.2,0.3l-0.3,0.1l-0.2,0.2h-0.4l-0.2-0.2h-0.5l-0.3,0.1
			l-0.4-0.3l-0.4-0.1l-0.2,0.1l-0.4-0.2l-0.8,0.2l-0.5,0.3l-0.1,0.3l0.1,0.3l0.3,0.1h0.2l0.2,0.1h0.2h0.2l0.2,0.2l0.3-0.1l0.2,0.1
			h0.2l0.1-0.1l0.3-0.1l0.5,0.1l0.4-0.2h0.5l0.2,0.1l0.1-0.1h0.3L-69.3,478.9z"/>
		<polygon points="-69.3,479.3 -69.1,479.1 -68.8,479 -69.1,479.1 		"/>
		<polygon points="-69,482.4 -69,482.4 -69.5,482.7 -69.7,482.9 -69.5,483 -68.8,482.7 -68.7,482.4 -68.7,482.2 		"/>
		<polygon points="-71.1,482.2 -71.2,482.3 -71.4,482.5 -71.1,482.6 -70.9,482.4 -70.9,482.3 		"/>
		<polygon points="-61.1,470 -60.9,470 -60.9,469.8 -61.1,469.9 		"/>
		<polygon points="-77.1,459.1 -77.4,459.2 -77.1,459.2 		"/>
		<polygon points="-77.4,459.7 -77.2,459.8 -77.2,459.5 -77.4,459.4 		"/>
		<path d="M-75.7,479.4h0.4v-0.3l-0.1,0.1l-0.1-0.3v-0.2l-0.3-0.1v0.2l-0.2,0.1v-0.3l-0.3-0.2l-0.3,0.1l-0.3-0.2l-0.3-0.1l-0.4,0.2
			v0.2l0.6,0.2l0.2,0.2l-0.4,0.1l-0.2,0.1l-0.4-0.2l-0.1-0.3h-0.2l-0.3,0.1l-0.3-0.1l-0.5,0.2l-0.2,0.2v0.2l0.1,0.1l-0.1,0.1
			l0.1,0.2l0.3,0.1l0.4-0.1l0.2,0.1l0.3-0.1l0.1-0.2l0.3,0.1l0.3-0.1l0.3,0.1l0.3-0.3l0.1,0.2h0.3l0.4,0.1L-75.7,479.4z"/>
		<polygon points="-72.9,481.2 -73.2,480.8 -73.5,480.8 -73.6,480.5 -74,480.3 -74.2,480.5 -74.5,480.5 -74.9,480.2 -75.6,480.5
			-75.6,480.7 -75.4,481 -75,481.1 -74.6,481 -74.4,481.3 -74.1,481.4 -73.8,481.7 -73.5,481.9 -73,481.8 -72.6,481.6 -72.7,481.4
					"/>
		<polygon points="-61.7,478.6 -61.7,478.4 -61.9,478.5 		"/>
		<polygon points="-74.5,479.5 -74.3,479.4 -74.3,479.2 -74.4,479.2 		"/>
		<path d="M-62.8,458.9h0.1l-0.1-0.3H-63L-62.8,458.9z"/>
		<polygon points="-62.6,478.4 -62.4,478.5 -62.2,478.4 -62.4,478.3 		"/>
		<polygon points="-61.1,468 -60.9,468 -60.7,468 -60.6,467.8 -61,467.4 -61.4,467.4 -61.8,467.7 -61.6,467.9 -61.4,468 		"/>
		<polygon points="-68.9,478.7 -68.7,478.8 -68.6,478.7 -68.7,478.5 		"/>
		<polygon points="-62.1,466.1 -62,465.9 -62,465.7 -62.2,465.7 -62.3,466 		"/>
		<polygon points="-62.5,458.1 -62.6,457.8 -62.8,457.7 -63,457.8 -62.8,458.2 -62.8,458.5 -62.7,458.4 		"/>
		<polygon points="-68.9,482 -68.8,482 -68.7,481.7 -68.8,481.7 		"/>
		<polygon points="-56.2,477.2 -56.1,477.2 -56,477.1 -56.4,477.1 		"/>
		<polygon points="-50.2,466.7 -50,466.8 -49.8,466.8 -50,466.6 		"/>
		<polygon points="-56.1,466.3 -56.3,466.4 -56.2,466.5 		"/>
		<polygon points="-55.8,465.6 -55.6,465.7 -55.3,465.6 -55.4,465.4 -55.8,465.2 -56.3,465.2 -56.5,465.4 -56.8,465.4 -56.9,465.4
			-56.8,465.5 -57,465.6 -56.6,465.7 -56.3,465.8 -56,465.7 -56.1,465.6 -56.3,465.5 -56.3,465.4 -56.2,465.4 		"/>
		<polygon points="-77.3,458.5 -77.2,458.5 -77.2,458.4 		"/>
		<polygon points="-55.9,466.7 -56.1,466.6 -56.4,466.8 -56.4,467.2 -56.1,467.3 -56,467.2 		"/>
		<polygon points="-56.9,466.5 -56.7,466.6 -56.3,466.6 -56.6,466.5 		"/>
		<polygon points="-61.5,465.9 -61.7,465.9 -61.8,466 -61.8,466.2 -61.7,466.4 -61.4,466.4 -61.2,466.6 -61.1,466.5 -61.2,466.3
			-61.4,466.2 -61.4,466 		"/>
		<polygon points="-50.8,474 -51,474.2 -51.1,474.2 -50.9,474.3 -50.9,474.4 -50.8,474.4 -51,474.5 -50.9,474.7 -50.8,474.7
			-50.6,474.6 -50.4,474.6 -50.4,474.4 -50.4,474.2 -50.5,474.1 -50.7,474 		"/>
		<polygon points="-59.6,463.5 -59.4,462.9 -59.4,462.7 -59.6,462.5 -60.1,462.7 -60.6,462.9 -60.6,463.1 -60.5,463.1 -60.6,463.3
			-60.9,463.4 -61,463.7 -61.1,463.7 -61.3,463.4 -61.1,463.2 -60.8,463.2 -60.7,462.8 -60.7,462.3 -61,462.2 -61,462 -60.8,461.8
			-60.7,461.5 -60.9,461.6 -61.4,462 -61.5,462.5 -61.4,462.9 -61.6,463 -61.7,463.4 -61.6,463.6 -61.4,464 -61.5,464.2
			-61.6,464.5 -61.3,464.7 -61.3,464.9 -61.3,465.1 -61.4,465.4 -61.2,465.8 -60.9,466 -60.6,466.5 -60.3,466.6 -60.3,466.8
			-60.2,466.7 -60.1,466.6 -60.2,466.5 -60.6,466.1 -60.7,465.7 -61,465.1 -61,464.6 -60.8,464.5 -60.4,464.6 -60,464.6
			-59.8,464.8 -59.5,464.8 -59.6,464.6 -59.7,464.4 -60.1,464.1 -60.3,464.1 -60.4,463.9 -60.2,463.6 		"/>
		<polygon points="-58.7,465.2 -58.3,465.5 -58.3,465.3 -58.9,465 		"/>
		<polygon points="-49.5,467.7 -49.3,467.6 -49.7,467.6 		"/>
		<polygon points="-50.4,474.7 -50.5,474.7 -50.8,474.8 -51,475 -50.9,475.1 -50.6,475.2 -50.5,475.3 -50.3,475.1 -50.3,475
			-50.4,474.9 -50.3,474.8 		"/>
		<polygon points="-90.7,468.1 -90.6,468 -90.7,467.9 -90.9,467.9 -90.9,468 		"/>
		<path d="M-48.5,468l0.7,0.1l0.7-0.1l0.2-0.1l-0.5-0.1l-0.3,0.1l-0.5-0.1L-48.5,468l-0.6-0.2l0.1,0.1L-48.5,468z"/>
		<polygon points="-40.4,475.3 -40.2,469.4 -40.2,469.4 -40.5,469.4 -40.7,469.4 -40.7,469.2 -40.7,469.1 -40.9,468.9 -41.2,468.9
			-41.6,468.8 -41.8,468.8 -42,468.8 -42.9,468.4 -43.3,468.3 -43.6,468.3 -43.9,468 -44.5,467.9 -45,467.7 -45.2,467.4
			-45.6,467.4 -46.4,467.9 -46.4,468 -46.3,468.3 -46.3,468.5 -46.8,468.6 -47.1,468.7 -47.3,468.7 -47.4,468.6 -47.5,468.8
			-47.6,469.1 -47.9,469.3 -48.2,469.3 -48.4,469.6 -48.4,470 -48.5,470.1 -48.7,470.2 -48.8,470.5 -49.1,470.6 -49.4,470.6
			-49.5,470.4 -49.9,470.2 -50,469.9 -50.1,469.9 -50.2,469.6 -50.2,469.3 -50.4,469.2 -50.5,469.4 -50.5,469.8 -50.6,469.8
			-50.8,469.5 -51,469.2 -51,468.5 -51.1,468 -51,467.7 -50.8,467.5 -50.9,467.2 -51.1,466.9 -51.1,466.6 -51,466.4 -51.2,466.3
			-51.7,466.2 -52.2,466.2 -52.7,465.9 -53.5,465.6 -54,465.7 -54.1,465.8 -54.5,466.1 -54.8,466.2 -55,466.4 -55.4,466.4
			-55.6,466.6 -55.5,466.8 -55.6,467 -55.9,467.3 -56,467.5 -55.6,467.5 -55.4,467.4 -55.3,467.3 -55.1,467.4 -54.7,467.7
			-54.5,468 -54.6,468.1 -54.5,468.4 -54.2,468.7 -53.9,468.8 -53.6,468.7 -53.4,468.8 -53.2,468.7 -53,468.8 -52.5,468.7
			-52.4,468.7 -52.2,468.7 -52.3,468.5 -51.5,468.6 -51.4,468.8 -51.5,469.2 -51.6,469.1 -51.8,469.3 -51.9,469.6 -52.1,469.3
			-52.6,469.1 -52.8,469.2 -52.9,469.6 -53.3,469.8 -53.5,469.6 -53.8,469.6 -53.9,469.5 -54.3,469.5 -54.5,469.7 -54.4,469.9
			-54,470 -53.7,470.1 -53.6,470.5 -53.5,470.6 -53.3,470.5 -53.2,470.7 -53.3,471 -53.4,471 -53.4,471.2 -53.2,471.7 -52.9,471.8
			-52.6,471.8 -52.3,471.4 -52.3,471.1 -52.1,470.7 -51.9,470.6 -51.9,470.4 -51.8,470 -51.6,469.7 -51.6,470.1 -51.8,470.4
			-51.7,470.7 -51.6,471.1 -51.4,471.3 -51.3,471.1 -51.2,471.1 -51.1,471.2 -51,471.5 -50.9,471.3 -50.8,471.3 -50.7,471.5
			-50.5,471.5 -50.2,471.4 -50,471.5 -49.9,471.6 -50.1,471.5 -50.3,471.6 -50.3,471.8 -50,471.9 -49.9,472 -49.9,472.1
			-49.5,472.3 -49,472.3 -48.1,472.6 -47.1,472.9 -46.9,472.9 -46.4,473 -46.3,473.3 -45.9,473.5 -45.6,473.5 -45.4,473.3
			-45.7,473.6 -45.5,473.7 -45.4,473.7 -45.3,473.8 -44.9,473.7 -45.1,473.9 -45,474 -45.1,474.2 -44.9,474.3 -44.6,474.3
			-44.9,474.5 -44.9,474.6 -44.6,475 -44.6,475.3 -44.5,475.5 -44.3,475.7 -43.9,476 -43.7,476.2 -44,476.2 -44.1,476.2
			-44.2,476.4 -43.9,476.6 -43.7,476.7 -43.3,476.6 -43.1,476.7 -43.3,476.7 -43.6,476.9 -43.7,476.8 -43.9,476.9 -43.7,477.1
			-43.5,477.2 -43.6,477.6 -43.7,477.7 -43.7,477.8 -43.8,478.1 -43.9,478.2 -43.7,478.4 -43.3,478.2 -43.2,478.3 -43,478.3
			-42.7,478.2 -42.3,478.2 -42.1,478.1 -42,477.8 -42,478.1 -42.1,478.3 -42.1,478.6 -41.9,478.7 -41.6,479 -41.6,479.1
			-41.5,479.3 -41.1,479.8 -40.7,479.9 -40.6,479.9 -40.5,476.1 -40.5,476 -40.5,475.7 		"/>
		<polygon points="-48.2,466.9 -48.1,466.9 -48,467 -47.6,466.9 -47.7,466.8 -48,466.6 -48.2,466.3 -48.4,466.1 -48.7,466.1
			-49.1,466.1 -49.1,466.2 -48.8,466.4 -48.8,466.3 -48.6,466.3 -48.4,466.6 -48.4,466.8 		"/>
		<path d="M-44,478.1l0.1-0.2v-0.2l0.1-0.1l0.1-0.3l0.1-0.1l-0.2-0.2l-0.1-0.1h-0.6l-0.3,0.2l-0.2,0.4l-0.2,0.3l-0.6,0.6h0.5h0.2
			l0.4,0.1l0.3-0.1l0.2-0.3L-44,478.1z"/>
		<path d="M-50.7,475.4C-50.7,475.4-50.7,475.5-50.7,475.4l-0.1,0.2l0.1,0.1h0.2l-0.1-0.2L-50.7,475.4z"/>
		<polygon points="-50.4,474.1 -50.5,473.9 -50.6,473.9 -50.5,474.1 		"/>
		<polygon points="-50.4,476 -50.3,476 -50.3,476 -50.3,475.8 		"/>
		<polygon points="-51.2,474.3 -51.2,474.5 -51.1,474.4 -51.1,474.3 		"/>
		<polygon points="-67.7,467.9 -67.7,467.7 -67.9,467.8 		"/>
		<polygon points="-68.3,468.1 -68,468.2 -68.1,468 		"/>
		<path d="M-68.5,468.4l0.1-0.2l-0.2,0.1L-68.5,468.4z"/>
		<polygon points="-68.2,467.6 -68.1,467.7 -67.8,467.6 -67.7,467.4 -68,467.2 -68.1,467.4 -68.3,467.5 -68.2,467.3 -68.3,467.2
			-68.7,467.1 -69,467.3 -69,467.6 -68.8,467.8 -68.6,467.6 -68.3,467.8 		"/>
		<polygon points="-72.5,476.7 -72.8,476.6 -72.9,476.7 -72.7,476.8 		"/>
		<path d="M-70.8,473.4v0.2l-0.1,0.1l0.1,0.3l0.1,0.1l0.2-0.2l-0.1-0.3L-70.8,473.4C-70.6,473.3-70.7,473.4-70.8,473.4z"/>
		<polygon points="-72.6,475 -72.9,474.5 -72.9,474.7 -73,474.9 -73.1,475.1 -72.9,475.3 -72.9,475.6 -72.7,475.2 		"/>
		<path d="M-70.4,465.7l-0.3,0.1l0.2,0.1L-70.4,465.7z"/>
		<polygon points="-70.9,465.9 -70.8,466 -70.6,466 -70.8,465.9 		"/>
		<polygon points="-68.1,479.1 -67.9,479 -67.6,478.7 -67.7,478.6 -68,478.7 -68.2,478.7 -68.3,478.7 -68.2,478.9 -68.6,479.1
			-68.4,479.2 		"/>
		<polygon points="-57.4,468.4 -57,468.3 -57.1,468.2 -57.1,468 -57.3,467.9 -57.8,468 -58.1,468.2 -57.9,468.3 		"/>
		<polygon points="-50.9,475.5 -51.2,475.3 -51.3,475.2 -51.3,475.3 -51.3,475.6 -51.2,475.8 -51.1,475.9 -51.2,475.8 -51.3,475.8
			-51.3,476.1 -51.2,476.3 -51,476.2 -50.8,476 -50.7,475.8 -50.8,475.7 		"/>
		<polygon points="-51.3,475 -51.1,475.3 -50.9,475.4 -50.8,475.3 -51,475.1 -51.1,474.9 -51.3,474.9 		"/>
		<polygon points="-59.9,461.8 -59.7,461.6 -59.8,461.4 -60,461.2 -60.2,461.4 -60.4,461.5 -60.3,462 -60.2,461.8 		"/>
		<polygon points="-69,474.1 -68.8,473.8 -68.6,473.8 -68.5,473.7 -68.6,473.5 -68.8,473.5 -68.9,473.2 -68.8,473.1 -68.6,473
			-68.5,472.8 -68.5,472.9 -68.5,472.8 -68.6,472.6 -68.6,472.4 -68.8,472.3 -68.9,472.5 -68.9,473 -69.1,473.4 -69.3,473.9
			-69.4,474.1 -69.2,474.2 		"/>
		<polygon points="-67.4,478.9 -67.6,479 -67.4,479 -67.2,479.2 -67,478.8 -67,478.7 -67.2,478.8 		"/>
		<path d="M-70.1,473.7l0.1,0.1h0.3v-0.1h0.1v-0.3l0.2-0.2V473l-0.1-0.3l-0.3,0.1L-70,473l0.1,0.2l-0.3,0.3
			C-70.1,473.6-70.1,473.7-70.1,473.7z"/>
		<polygon points="-66.2,464.2 -66.1,463.9 -65.9,463.9 -65.7,463.7 -65.5,463.6 -65.4,463.3 -65.2,463.1 -65.1,462.9 -65.2,462.8
			-65.3,462.6 -65.7,462.5 -66,462.6 -66.1,462.9 -66.3,463.1 -66.3,463.2 -66.7,463.5 -66.9,463.5 -67.1,463.8 -67.4,463.8
			-68.2,463.7 -68.8,463.6 -68.9,463.8 -69.1,463.8 -69.4,463.6 -69.6,463.5 -69.9,463.6 -70.2,463.5 -70.6,463.4 -70.8,463.6
			-71.1,463.4 -71.4,463.1 -71.8,463 -72.1,463 -72.1,463.4 -72.3,463.5 -72.5,463.8 -72.7,464 -73.1,463.9 -73.5,464 -73.6,464.1
			-73.6,464.3 -74,464.6 -74,465.1 -73.9,465.3 -73.9,465.9 -74,466 -73.8,466.4 -73.8,466.7 -73.9,466.6 -74,466.3 -74.2,466.4
			-74.4,466.6 -74.7,466.8 -74.7,467.1 -74.7,467.4 -74.8,467.7 -74.7,468.3 -74.8,468.5 -74.8,468.7 -75,468.8 -75,469.2
			-75.4,469.5 -75.5,469.9 -75.4,470 -75.6,470.2 -75.4,470.7 -75.2,471 -75.1,470.9 -74.9,470.9 -74.7,470.8 -74.5,470.9
			-74.4,471.3 -74.2,472 -74.3,472.2 -74.4,472.6 -74.6,472.9 -74.6,473.6 -74.6,474.1 -74.4,474.1 -74.2,474.3 -73.9,474.3
			-73.7,474.1 -73.4,474.2 -73.2,474.1 -73,474.3 -72.9,474 -73,473.7 -73.2,473.5 -73.2,473.1 -73.1,472.9 -73,472.3 -73,471.8
			-73.2,471.7 -72.9,471.3 -72.8,470.8 -72.9,470.4 -73.1,470.2 -73.1,470 -72.7,469.8 -72.6,469.6 -72.3,469.5 -71.9,469.7
			-72,469.8 -71.8,470.1 -71.8,470.4 -72.1,470.7 -72.1,471 -72,471.3 -71.8,471.3 -71.6,471.5 -71.2,471.8 -71.2,472 -71.3,472
			-71.4,472.6 -71.2,472.9 -71,473 -70.8,472.9 -70.5,473.1 -70.2,473 -70.3,472.9 -70.4,472.7 -70.1,472.5 -69.8,472.4
			-69.4,472.2 -69,472.2 -68.8,472 -68.7,472.1 -68.5,472.1 -68.3,471.9 -68.4,471.7 -68.8,471.7 -68.9,471.8 -69,471.7
			-69.3,471.7 -69.3,471.5 -69.5,471.5 -69.5,471.3 -69.6,471.3 -69.8,471.4 -69.8,471.2 -70,471.1 -70.1,471 -69.9,470.8
			-69.9,470.6 -69.8,470.7 -69.9,470.5 -69.7,470.5 -69.6,470.3 -69.8,470.1 -70,470.1 -69.9,469.9 -70,469.8 -70.2,469.6
			-70.4,469.6 -70.5,469.3 -70.9,468.8 -71.2,468.6 -71.3,468.3 -71.3,468.2 -71.2,468.2 -71.1,468.4 -70.8,468.4 -70.6,468.2
			-70.5,468 -69.9,467.8 -69.4,467.4 -69.2,467.1 -68.9,466.9 -68.9,466.7 -68.6,466.6 -68.3,466.8 -68.1,466.8 -67.8,466.4
			-67.8,466.2 -68.1,466 -68.8,466.1 -69.1,466.3 -69.6,466.3 -69.8,466.4 -70.1,466.7 -70.4,466.7 -70.6,466.7 -70.9,466.5
			-71.2,466.4 -71.5,466.8 -71.7,467.4 -72,467.5 -72.4,467.5 -72.4,467.3 -72.8,466.9 -73.2,466.5 -73.5,466 -73.4,465.4
			-73.2,464.8 -72.9,464.5 -72.5,464.4 -72.1,464.6 -71.6,464.6 -71,464.3 -70.6,464.3 -70.5,464.5 -70.2,464.5 -70,464.4
			-69.3,464.5 -69,464.5 -68.9,464.4 -68.5,464.4 -68.3,464.5 -68.2,464.7 -67.9,464.8 -66.7,464.5 		"/>
		<polygon points="-66.7,478.9 -66.4,478.9 -65.9,478.8 -65.7,478.6 -65.9,478.4 -66.3,478.5 -66.4,478.4 -66.8,478.6 -66.6,478.6
			-66.7,478.8 		"/>
		<polygon points="-44.1,478.2 -44.2,478.3 -44.4,478.6 -44.2,478.6 -43.9,478.7 -43.9,478.6 -44,478.3 		"/>
		<polygon points="-108.8,462.8 -109,462.7 -109.1,462.9 -109.4,462.9 -109.1,463.3 -109,463.6 -108.8,463.7 -108.5,464.2
			-108.3,464.2 -108.3,463.7 -108.2,463.5 -108.5,463.2 		"/>
		<polygon points="-62,466.4 -62.1,466.3 -62.2,466.5 -61.9,466.6 		"/>
		<polygon points="-109.2,461.6 -109.5,461.7 -109.1,461.8 		"/>
		<polygon points="-111.6,460.3 -111.7,460.5 -111.8,460.7 -111.5,460.8 -111.1,460.8 -111.4,460.5 		"/>
		<polygon points="-101.4,462.7 -101.5,462.7 -101.2,463.3 -101,463.4 -100.8,463.1 -101,462.9 		"/>
		<polygon points="-102.4,461.9 -102.6,462 -102.5,462.4 -102.2,462.4 -101.9,462.1 -102.2,461.7 		"/>
		<polygon points="-64.9,478.6 -65,478.4 -65.1,478.6 -65.1,478.6 		"/>
		<polygon points="-62.6,471.4 -62.3,471.1 -62,471.1 -62,470.8 -62.3,470.5 -62.3,470.4 -62.7,470.2 -63.3,470.1 -63.6,470.4
			-63.9,470.2 -64.1,470.4 -64.2,470.8 -63.9,471.1 -63.5,471.2 -63.3,471.4 -63,471.3 		"/>
		<polygon points="-64.9,468.3 -64.6,468.4 -63.9,468.2 -63.5,468.1 -63.8,468.1 -64.4,468 -64.6,468.1 -64.9,468 -65,468.1
			-64.9,468.2 		"/>
		<polygon points="-65.4,468.2 -65.1,468.2 -65.1,468 -65.3,467.9 -65.5,468.1 -65.7,467.9 -66,467.9 -66.2,467.9 -66.4,467.9
			-66.6,468.1 -66.6,468.3 -66.5,468.4 -66.2,468.5 -65.9,468.3 -65.6,468.3 		"/>
		<polygon points="-76.9,458.4 -76.9,458.3 -77.2,458.2 -77.2,458.3 -77.2,458.4 		"/>
		<polygon points="-64.2,477.8 -63.7,477.9 -63.5,478.1 -63.4,477.9 -63.2,477.7 -63,477.6 -63,477.5 -63.3,477.3 -63.5,477.5
			-64.1,477.6 -64.2,477.4 -64.5,477.6 -64.6,477.9 -64.5,478 		"/>
		<polygon points="-64.3,468.5 -64.2,468.8 -64.1,469.2 -64,469.2 -63.9,469.1 -64.2,468.7 -64.2,468.5 		"/>
		<polygon points="-98.3,463.6 -98.2,463.3 -98.2,463 -98.7,463.5 		"/>
		<polygon points="-93.9,470 -94,469.9 -94.1,470.2 		"/>
		<polygon points="-94.8,469.3 -95.1,468.9 -95.2,468.2 -95.3,468.1 -95.4,467.8 -95.6,467.7 -95.8,467.7 -95.8,468 -95.7,468.2
			-96,468.1 -96.2,467.9 -96.3,467.9 -96.3,468.2 -96.6,468.4 -96.4,468.6 -95.8,468.7 -95.6,468.8 -95.6,469.2 -95.5,469.3
			-95.4,469.7 -95,469.9 -94.7,469.9 -94.6,470.2 -94.5,470.3 -94.3,470.1 -94.4,469.8 -94.2,469.4 		"/>
		<polygon points="-95.5,460.1 -95.8,460 -96,460 -96,460.3 -95.8,460.4 		"/>
		<polygon points="-92.6,470.5 -92.4,470.1 -92.2,470.3 -92,470.4 -91.9,470.1 -91.6,470 -91.8,469.7 -92.3,469.4 -92.8,469.3
			-93,469.3 -92.9,469.6 -92.9,469.8 -93.2,469.8 -93.3,470 -93.1,470 -93.1,469.9 -92.9,469.8 -92.9,470.2 		"/>
		<polygon points="-94.9,459.9 -95,459.7 -95.1,459.9 		"/>
		<polygon points="-92,457.9 -92.3,458.1 -92.4,458.3 -92.1,458.6 -91.9,458.6 -92,458.9 -91.8,458.9 -91.6,458.4 		"/>
		<polygon points="-74.6,457.2 -74.5,457.5 -74.5,457.2 -74.6,457 		"/>
		<polygon points="-96.9,465.9 -96.8,465.8 -97.3,465.4 -97.5,465.3 -97.7,465.6 -97.5,465.8 -97.3,465.7 		"/>
		<polygon points="-95.1,459.3 -95,459.6 -94.9,459.4 		"/>
		<polygon points="-97.4,466.3 -97.5,466 -97.8,466 -97.9,466.2 -97.7,466.4 		"/>
		<polygon points="-95,460.5 -94.9,460.4 -95,460.2 		"/>
		<polygon points="-97.5,463 -97.7,463.2 -97.9,463.2 -98,463.5 -97.7,463.6 -97.6,464 -97.4,463.9 -97.3,463.4 -97.5,463.2
			-97.3,463 		"/>
		<polygon points="-100.3,463.9 -99.9,464.1 -99.8,464 -99.9,463.6 -100.3,463.3 -100.7,463.2 -100.9,463.6 -100.8,463.9 		"/>
		<polygon points="-89.6,466.7 -89.8,466.5 -90.2,466.5 -90.2,466.6 -90,466.9 -89.9,466.8 -89.5,466.9 -89.5,466.7 		"/>
		<polygon points="-96.6,475.7 -96.7,475.7 -96.7,475.9 -96.6,475.9 		"/>
		<polygon points="-81,479.3 -80.9,479.4 -80.7,479.3 -80.9,479.2 		"/>
		<polygon points="-84.6,476.9 -84.4,476.8 -83.8,476.8 -83.5,476.7 -83.2,476.7 -83.1,476.5 -83.2,476.4 -83.6,476.5 -83.9,476.4
			-84.7,476.4 -84.9,476.3 -85.1,476.6 -84.8,476.9 		"/>
		<polygon points="-89.8,467.5 -89.6,467.5 -89.3,467.1 -89.5,467 -89.9,467 -89.9,467.2 -89.9,467.4 		"/>
		<polygon points="-82.9,478.8 -82.7,478.6 -82.6,477.9 -82.8,477.7 -83,477.7 -83.1,477.6 -83.4,477.6 -83.6,477.7 -83.8,477.7
			-84.1,477.6 -84.4,477.7 -84.8,477.6 -85,477.3 -85,477.1 -85.3,476.7 -85.3,476.3 -85.7,476.3 -85.9,476.4 -86.2,476.1
			-86.4,476.1 -86.8,475.8 -87,475.7 -87.3,475.8 -87.5,475.8 -87.9,475.4 -88.2,475.4 -88.3,476 -88.5,476.2 -89.2,476.4
			-90,476.2 -91,476.2 -91.5,476 -91.6,475.9 -91.6,475.6 -91.8,475.2 -92.5,475.2 -93,475 -93.3,474.8 -93.8,474.8 -93.9,474.9
			-94.1,475 -94.3,474.8 -94.8,474.8 -95.2,474.8 -95.3,474.6 -95.6,475 -95.6,475.3 -95.8,475.6 -96.1,475.7 -96.1,476
			-96.4,476.1 -96.5,476 -96.6,476 -96.6,476.2 -96.4,476.3 -95.7,476.3 -95.4,476.1 -95.3,476.4 -95.1,476.6 -94.9,476.4
			-94.6,476.5 -94.8,476.6 -95,477 -94.9,477.1 -94.4,477.2 -94.1,477.3 -93.8,477.1 -93.6,477.3 -93.1,477.3 -92.6,477.7
			-91.9,477.9 -91.6,477.5 -91.4,477.5 -91.2,477.8 -90.9,477.8 -90.7,477.6 -90.5,477.6 -90.1,477.8 -89.6,477.8 -88.8,478.3
			-88,478.6 -87.7,478.4 -87.1,478.5 -86.7,478.8 -86.4,478.5 -85.9,478.5 -85.5,478.8 -85.1,478.8 -84.6,478.5 -84.4,478.5
			-84.1,478.8 -83.8,478.9 -83.4,479.3 -83,479.2 -82.8,479.5 -82.6,479.4 -82.7,478.9 		"/>
		<polygon points="-89.9,466 -90,465.9 -90.4,465.8 -90.4,465.8 -90.4,466 -90.1,466.1 		"/>
		<polygon points="-81.4,478.2 -81.8,478.3 -82.1,478.2 -82.5,478.3 -82.5,478.6 -82.4,478.8 -81.9,478.9 -81.5,479.2 -81.5,479.4
			-81.3,479.2 -81.1,479 -81,478.9 -80.7,478.9 -80.6,478.7 -80.9,478.3 		"/>
		<polygon points="-79.3,470.8 -79.4,470.7 -79.4,470.9 -79.4,471.3 -79.3,471.2 		"/>
		<polygon points="-79.5,471.3 -79.5,470.8 -79.6,470.6 -79.7,470.7 -79.9,471.2 -79.9,471.6 -79.8,471.8 -79.6,471.6 		"/>
		<polygon points="-79.1,468.8 -79.3,468.8 -79.4,468.8 -79.2,468.6 -79.1,468.4 -79.2,468.3 -79.6,468.3 -79.5,468.1 -79.5,468
			-79.3,468 -79,467.9 -79,467.6 -78.7,467.3 -78.7,467 -78.8,466.8 -78.6,466.9 -78.5,467.2 -78.2,466.9 -78,466.6 -78.2,466.2
			-77.8,465.9 -77.6,465.3 -77.5,465.1 -77.5,464.5 -77.3,464.3 -77.3,464.1 -77,463.8 -76.8,464 -76.7,463.8 -76.8,463.4
			-76.3,463.9 -76,463.9 -75.7,463.8 -75.5,463.8 -75.3,463.8 -75.3,463.5 -75.5,463.4 -75.6,463.2 -75.9,462.9 -76.1,462.9
			-76.8,462.3 -77,462.2 -77.1,461.9 -77.2,461.8 -77.1,461.6 -76.7,461.5 -76.6,461.2 -76.8,461 -77.3,460.5 -77.4,460.1
			-77.7,459.9 -77.6,459.7 -77.4,459.6 -77.5,459.5 -77.6,459.4 -77.9,459.1 -77.7,459 -77.4,459.1 -77,459 -77.3,458.6
			-77.6,458.5 -77.5,458.3 -77.6,458.2 -77.4,458.1 -77.4,458.1 -77.4,457.9 -77,458.2 -76.7,458.2 -76.4,458.1 -76,458 -76,457.8
			-76.4,457.5 -76.4,457.1 -76.2,456.9 -75.6,457 -75.1,456.8 -74.7,456.6 -74.8,456.3 -75.1,456.3 -75.4,456.3 -75.7,456
			-76,456.1 -76.3,455.7 -76.6,455.7 -76.8,455.9 -77,455.8 -76.6,455.5 -76.8,455.3 -76.9,455.3 -77.1,455.6 -77.3,455.5
			-77.4,455.4 -77.4,454.9 -77.1,454.8 -77.1,454.6 -77.5,454.4 -77.6,454.5 -77.9,454.2 -77.9,453.8 -78.3,453.6 -78.4,453.7
			-78.3,453.9 -78.7,454.3 -78.8,454.2 -78.7,454 -78.7,453.7 -78.9,453.7 -79.2,454.4 -79.4,454.5 -79.7,455.2 -79.8,455.6
			-80.3,456.2 -80.6,456.2 -81.1,456.4 -81.2,456.6 -81,456.6 -81.2,456.7 -81,456.8 -80.7,456.7 -80.8,456.9 -81,457.1
			-81.1,457.1 -81.2,457.2 -81.3,457.3 -81.4,457.3 -81.4,457.2 -81.4,457.1 -81.4,456.8 -81.7,456.9 -82.1,457.2 -82.6,457.3
			-82.7,457.4 -82.9,457.7 -82.9,458.1 -83.3,458.4 -83.5,458.7 -83.9,459.2 -84,459.4 -84.4,459.9 -84.8,460.3 -86.1,460.6
			-86.2,460.6 -86.2,461.1 -86,461.2 -86.2,461.1 -86.4,461.3 -86.8,461.3 -87,461.5 -87.1,461.8 -87.1,462.3 -87.3,462.7
			-87.3,462.8 -88,462.7 -88.6,462.5 -89.1,462.5 -89.2,462.2 -89.5,461.9 -89.6,462 -89.9,462.1 -90,462.3 -90.4,462.8
			-90.6,463.2 -90.7,463.4 -90.6,463.6 -90.6,463.8 -90.8,464 -90.8,464.6 -90.3,465.1 -90.2,465.4 -90.4,465.3 -90.5,465.4
			-90.3,465.7 -89.9,465.8 -89.7,465.8 -89.2,465.7 -88.8,465.5 -88.5,465.5 -88.8,465.5 -89.2,465.8 -89.8,465.9 -90,466.2
			-90.3,466.2 -90.3,466.3 -89.9,466.4 -89.5,466.6 -89.1,467.1 -88.9,467.4 -88.9,467.6 -89.1,467.9 -89.3,468.2 -89.2,468.3
			-88.9,468.5 -88.8,469.2 -88.8,469.6 -88.6,470 -88.5,470 -88.2,469.8 -88.1,470 -87.8,470.1 -87.6,470.1 -87.2,470.1
			-86.9,469.9 -86.7,470 -86.5,469.9 -86.4,469.6 -86.4,469.4 -86.3,469.7 -86.4,469.9 -86.2,470.3 -86.2,470.8 -86.2,471.1
			-86,471.1 -85.6,470.6 -85.4,470.6 -85.3,470.7 -85,470.7 -85,470.6 -84.6,470.5 -84.4,470.2 -84.2,470.2 -83.9,470.4
			-83.7,470.3 -83.6,470.4 -83.6,470.7 -83.4,470.8 -83.1,470.9 -83.3,470.7 -83.1,470.5 -83,470.7 -82.8,470.8 -82.6,470.7
			-82.4,470.9 -82.3,470.8 -82.2,471 -82.1,471.2 -82.1,471.4 -82,471.9 -81.7,471.8 -81.1,471.5 -80.6,471.4 -80.1,471.1
			-79.8,470.5 -79.8,470.3 -79.7,469.9 -79.6,470 -79.5,470 -79.2,469.5 -79.3,469.4 -79.5,469.3 -79.4,469.1 -79.4,469.2
			-79.1,469.3 -79.1,469 		"/>
		<polygon points="-80.2,477 -80.2,476.9 -80.2,476.9 -80.5,476.9 -80.4,477 		"/>
		<polygon points="-81,476.4 -80.8,476.4 -80.7,476.4 -80.8,476.4 -81,476.3 -81.3,476.2 -81.4,476.3 -81.4,476.4 -81.2,476.6 		"/>
		<polygon points="-80,478.8 -80.1,479.2 -80.3,479.2 -80.5,479.3 -80.4,479.5 -79.9,479.6 -79.6,479.5 -79.3,479.6 -79.4,479.3
			-79.2,479.1 -79.2,478.7 -79.7,478.6 		"/>
		<polygon points="-104.1,470 -104.4,469.8 -104.7,470 -104.1,470.6 -104.1,470.3 		"/>
		<polygon points="-107.2,466 -107.4,465.9 -107.6,466.2 -107.4,466.4 -107.2,466.2 		"/>
		<polygon points="-104.9,469.5 -104.9,469.8 -104.6,469.6 		"/>
		<polygon points="-101.4,473.6 -101.5,473.7 -101.1,474 -101.2,473.8 		"/>
		<polygon points="-72.6,454.6 -72.5,454.5 -72.6,454.3 -72.8,454.6 		"/>
		<polygon points="-105.6,468.6 -105.5,468.9 -105.1,469 -105.5,468.5 		"/>
		<polygon points="-96.4,474 -96.1,474.4 -95.9,474.5 -95.7,474.3 -95.7,473.6 -95.6,472.7 -95.7,472.1 -95.5,471.5 -95.6,471.3
			-95.6,470.8 -95.3,470.7 -95.2,470.4 -95.2,470.1 -95.5,470 -95.8,469.8 -95.9,469.4 -96.1,469.3 -96.2,469.1 -96.5,469
			-96.9,469 -97.2,469 -97.3,468.5 -97.5,468.2 -97.7,468.3 -97.6,468 -97.7,467.7 -97.7,466.9 -98.1,467.1 -98.3,466.9
			-98.9,466.9 -99.4,466.5 -99.4,466.3 -99.1,466.1 -98.7,465.9 -99,465.8 -99.3,465.8 -99.5,465.8 -99.8,465.9 -99.6,465.7
			-99.2,465.4 -98.7,465.3 -98.8,465 -99.3,464.5 -99.6,464.4 -100,464.7 -100.3,464.9 -100.7,464.9 -100.5,464.9 -100.3,464.7
			-100.2,464.7 -100,464.5 -100.1,464.3 -100.4,464.1 -101,464.1 -101.4,463.8 -101.4,463.6 -101.4,463.2 -102.1,462.5
			-102.3,462.5 -102.5,462.5 -102.8,462.3 -102.8,461.8 -103.3,461.3 -103.9,461 -104.2,461 -104.3,461.1 -104.5,461 -104.6,460.6
			-104.8,460.8 -105,460.6 -105,460.1 -105.3,459.7 -105.6,459.7 -105.7,459.4 -106.6,458.8 -106.9,458.8 -107.3,458.4
			-107.7,458.3 -107.8,458.1 -107.9,457.6 -108.2,457.4 -108.4,457 -108.5,457 -108.7,456.6 -109.1,456.5 -109.4,456.5
			-109.6,456.5 -109.8,456.4 -110.2,456.4 -110.7,456.5 -110.9,456.4 -111.6,455.9 -112.3,455.8 -112.5,455.9 -112.6,456.1
			-112.5,456.5 -112.1,457.4 -111.8,457.5 -111.2,458.3 -111,458.3 -110.5,458.8 -110.3,458.9 -110.1,458.8 -109.6,459.2
			-109,460.1 -108.5,460.6 -108.3,460.6 -108.3,461 -108.2,461.2 -108.1,461.6 -107.9,461.7 -107.6,461.7 -107.2,462.3
			-106.9,462.4 -106.8,462.4 -106.7,462.5 -106.8,462.8 -106.6,463 -106.5,463.4 -106.5,463.5 -106.2,464.3 -106,464.8
			-105.6,464.9 -105.2,465.2 -105.2,465.5 -104.8,466.1 -104.4,466.4 -104.3,467.2 -103.8,468.3 -103.8,468.7 -103.6,469.1
			-103.1,469.5 -102.5,470.3 -102.3,470.6 -101.9,470.7 -101.7,470.9 -101.4,471.2 -101.3,471.6 -101,471.8 -100.6,472.3
			-99.9,472.7 -99.7,473.1 -99.2,473.2 -98.3,474 -98.2,474.3 -98,474.4 -97.8,474.8 -97.7,474.6 -97.7,474.3 -97.8,474.2
			-97.8,474 -97.5,474.1 -96.9,474.6 -96.8,474.5 -96.8,474.1 -96.6,473.9 		"/>
		<polygon points="-106.7,465.1 -106.7,464.9 -107,464.8 -107.2,465 -106.8,465 		"/>
		<polygon points="-71.9,455.4 -71.8,455.3 -71.6,455.4 -71.4,455.3 -71.4,455.1 -71.8,455.1 -72.2,455.1 -72.3,455.3 -72.2,455.4
					"/>
		<polygon points="-73.6,456.7 -73.2,456.4 -73.3,456.2 -73.5,456.2 -74,456.7 -73.9,456.8 		"/>
		<polygon points="-106.9,466.8 -107.2,467 -107.2,467.3 -106.9,467.4 -106.4,468 -106.1,468.1 -106.1,467.6 -106.5,466.9 		"/>
		<polygon points="-63.2,479.1 -63.6,479.1 -64,479.2 -64.3,479.2 -64.7,479.2 -65.4,479.2 -65.9,479.6 -66.2,479.8 -66.4,479.9
			-66.6,480 -66.8,480 -67.3,480.1 -67.5,480.3 -67.6,480.4 -67.9,480.6 -68,480.9 -68.3,481.4 -68.4,481.5 -68.2,481.6
			-68.2,481.8 -68.3,481.8 -68.5,481.7 -68.6,482 -68.4,482.1 -67.9,482.1 -67.4,481.8 -67.2,481.7 -66.9,481.7 -66.6,481.5
			-66.4,481.2 -65.8,480.8 -65.7,480.6 -65.5,480.5 -65.5,480.5 -65.2,480.2 -64.9,480.2 -64.6,480.2 -64,480.1 -63.6,479.8
			-63.1,479.7 -63,479.5 -62.8,479.4 -62.5,479.2 -62.5,479.1 -62.6,479 		"/>
		<polygon points="-78.6,453.2 -78.4,453.1 -78.4,453 -78.8,453.2 		"/>
		<polygon points="-77.9,453.3 -77.9,453 -78,453 -78.3,453.3 -78.2,453.4 		"/>
		<polygon points="-104.9,455.9 -104.9,456.2 -104.7,456.4 -104.6,456.3 -104.6,456.1 -104.8,455.9 		"/>
		<polygon points="-87,461.4 -86.7,461.2 -86.8,461.1 		"/>
		<polygon points="-86.5,461.2 -86.7,461 -86.7,461.1 -86.7,461.2 		"/>
		<polygon points="-86.2,461 -86.3,460.7 -86.5,460.7 -86.6,460.7 -86.6,460.7 -86.6,460.9 -86.4,461.1 		"/>
		<polygon points="-86.7,460.7 -86.7,460.7 -86.8,460.9 -86.8,461 -86.7,461 		"/>
		<polygon points="-99,448.7 -98.8,448.6 -98.8,448.1 -98.9,448.1 -99,447.8 -99.2,448 -99.1,448.2 -99.1,448.4 		"/>
		<polygon points="-102.1,445.3 -101.9,445.4 -101.7,445.4 -102.2,445 		"/>
		<polygon points="-105.8,454.1 -105.6,454.3 -105.5,454.3 -105.6,454.1 -105.7,454 		"/>
		<polygon points="-105.2,449.7 -105.1,449.4 -105.2,449.2 -105.4,449.3 -105.4,449.5 		"/>
		<polygon points="-106.7,452.9 -106.6,452.7 -106.7,452.5 -106.8,452.5 		"/>
		<polygon points="-105.5,449 -105.3,449 -105.2,448.9 		"/>
		<path d="M-107.7,452.1v-0.4h-0.2l-0.1,0.2l0.1,0.1v0.3L-107.7,452.1z"/>
		<path d="M-112.4,438.1h0.2l0.3-0.2l-0.2-0.1v-0.1l-0.1-0.2h0.1l0.2,0.2h0.3l0.4-0.3l-0.1-0.2l0.1-0.2v-0.3l-0.2-0.1v-0.2l0.1-0.1
			l-0.2-0.2l0.3,0.2v0.2h0.2l0.1,0.2l0.3,0.6l0.1,0.2l0.1,0.4h0.3l0.2-0.1l0.1-0.2v0.2l-0.1,0.1l0.2,0.4v0.2h-0.1l0.1,0.3l0.2,0.1
			l0.1,1.2h0.1v0.5l0.4,0.2l-0.1,0.1v0.3l0.2,0.3v0.7l0.1,0.3v0.3l0.1-0.1l0.1-0.5l0.2,0.4l0.1,0.3l0.2,0.2l0.1,1l0.2,0.1l0.1,0.3
			l-0.1,0.2v0.4l0.2,0.2l0.2,0.3l-0.2,0.2l0.1,0.4l-0.1,0.2h-0.1l-0.1,0.4l0.1,0.1v0.3l-0.2,0.3l-0.1,0.1h-0.1v0.2l0.1,0.2v0.5
			l0.2,0.5v-0.5l0.1-0.3v0.1l-0.1,0.5h0.2l-0.2,0.3l0.1,0.1l-0.2,0.3h0.2l-0.1,0.2h-0.2v0.6l-0.2,0.1v0.5l-0.1,0.1l0.1,0.5l0.1,0.2
			h0.2v-0.3l0.3-0.1v0.2l0.2,0.1v0.2h0.3l0.2,0.6h0.2l0.4,0.5v0.2h0.3l0.1,0.3h0.2v0.2l-0.1,0.2v0.1l0.7,0.5l0.1,0.2l0.3,0.5
			l0.2,1.3l0.2,0.4l0.2,0.4l-0.1,0.5l-0.1,0.1v0.3l0.2,0.2l-0.1,0.1l0.2,0.3l0.4,0.2l0.3,0.4l0.3,0.2l0.2,0.3l-0.2,0.2v0.2l0.2,0.2
			l0.6,0.2l0.5,0.4v0.3l0.4,0.4h0.2l0.2-0.1l0.2,0.1l0.2,0.3l0.5,0.2l0.5,0.1l0.2,0.2l0.3,0.1l0.1-0.1l0.1,0.2l0.3-0.2v-0.1h-0.1
			h0.1v-0.2l-0.1-0.1l0.2,0.1v0.2l0.1,0.1h0.2v-0.4l-0.3-0.7h-0.1v-0.1l-0.1-0.1l-0.1-0.1l-0.1-0.5v-0.1l-0.1-0.1H-99l-0.4-0.3
			l-0.2-0.4v-0.8l-0.1-0.2v-0.3l0.1-0.1v-0.8l0.1-0.2l-0.2-0.6l-0.3-0.5l-1.1-1.2l-0.2-0.4h-0.1l-0.1,0.2h-0.2l0,0v-0.2l-0.3-0.2
			l-0.2-0.2l-0.2-0.5l-0.3-0.1h-0.3l-0.1,0.1l-0.2-0.1l-0.4-0.4l-0.2-0.2v-0.3l-0.1-0.1l-0.1,0.2l-0.5-0.2v-0.2l0.2-0.2l0.1,0.1
			l0.1-0.1l0.1-0.1l-0.1-0.6l-0.1-0.1v-0.3l-0.2-0.3l-0.1-0.2v0.1v0.2h-0.2l-0.2-0.3l-0.2-0.1v-0.3l-0.1-0.2v-0.3l-0.1-0.1h-0.2
			l-0.1-0.1l-0.2,0.2v0.1h-0.2l-0.3,0.2l0.2-0.3l-0.3-0.4V449l-0.1-0.3v-0.1l0.1-0.2v-0.1h-0.2l0.1-0.3v-0.3l0.4-0.5l0.1-1.2
			l0.2-0.3v-0.3l0.2-0.3v-0.4l-0.1-0.1l0.1-0.2v-0.3l0.2-0.3v-0.3l-0.3-0.1l0.1-0.2v-0.1h0.1h0.2l0.1-0.1l0.1,0.1h0.2l0.2-0.1
			l0.1,0.1h0.1h0.1l0.3,0.1l0.1,0.2l-0.1,0.1v0.4l0.1,0.2l-0.1,0.1l-0.1,0.2h0.2l0.2,0.1l0.3-0.1l0.3,0.1l0.1,0.1v-0.1v-0.1l0.2-0.1
			l0.2,0.1l0.4,0.4l0.2,0.1v0.1h0.1l0.3,0.3v0.1h0.1v-0.2h0.1l0,0l0.2,0.2v0.3l0.2,0.2v0.3l0.2,0.3h0.1l0.1,0.2v0.2l0.1,0.2v0.2h0.2
			h0.2V447l0.2-0.2l0.1-0.1v0.2l0.1,0.2v0.2l-0.2,0.2l0.1,0.1v0.1h0.2l0.3-0.2v-0.1l0.2,0.1l0.3,0.1l0.1-0.1l0.3,0.2l0.1,0.1v0.3
			v0.1l0.3,0.1l0.1-0.1l0.1,0.1l0.2-0.1h0.3l0.2-0.1l-0.1,0.2l-0.4,0.3L-98,449v0.5l-0.1,0.2h0.1l0,0v0.5l0.2,0.1l0.2-0.1l-0.2,0.2
			l-0.3,0.1l-0.2,0.1l0.4,0.1l0.7-0.3v-0.1h0.1l0.2-0.2v-0.3l0.1-0.2h0.2l0.1-0.1l0.3-0.3h0.2l0.1-0.1l0.1-0.1l-0.1-0.1v-0.1
			l-0.1-0.2h0.2l0.1,0.2h0.1l0.1-0.2v-0.2l-0.3-0.3l0.3,0.3l0.2-0.1l-0.1-0.2l0.1-0.1l-0.4-0.2h0.3l0.1-0.1v-0.1l-0.2-0.1l0.3,0.1
			v-0.1l0.1-0.2v0.2v0.2l0.1,0.1l0.3-0.1l0.2,0.1h0.4l0.7-0.4l0.2-0.2h0.3v-0.3l0.3-0.2l0.2-0.1l0.4-0.4l0.2-0.1v-0.4l0.2-0.1
			l0.2-0.2l-0.1-0.1l0.1-0.3l-0.2-0.3l0.2-0.2v-0.2l0.2-0.1v-0.1l-0.1-0.2v-0.2l0.1-0.1l0.1,0.1v0.1h0.1v-0.2l-0.2-0.4l-0.1-0.2
			l-0.1-0.1v-0.1l-0.1-0.4l0.1-0.1l-0.1-0.3l0.1-0.2v-0.3l-0.1-0.1l-0.1-0.5l-0.1-0.1l-0.1-0.6l-0.3-0.3l0.1-0.1l-0.1-0.1v-0.2
			l-0.4-0.4v-0.2h-0.1v-0.2l-0.2-0.4l-0.7-0.5l-0.2-0.3l-0.8-0.6l-0.8-0.5v-0.1l-0.3-0.2l-0.6-0.5l-0.1-0.2l-0.1-0.4l0.1-0.1v-0.2
			l-0.2-0.4h-0.2l-0.4-0.4l-0.5-0.3l-0.3-0.1l0.3-0.1v-0.2l-0.3-0.3l0.2-0.3l0.2-0.5l-0.1-0.2h-0.1v-0.3l0.1-0.1l0.1-0.3l0.1-0.1
			V431l0.1,0.1h0.2l0.2-0.4h0.1l0.1-0.1l-0.1-0.2v-0.1v-0.2v-0.2l-0.1-0.1l0.1-0.2v-0.2h0.1l0.1,0.1h0.1l0.1-0.1l0.2-0.1l0.1,0.1
			l0.1-0.1l0.2-0.1l-0.1-0.2l0.1-0.1l0.3-0.1h0.3l0.3-0.2h0.1l0.2-0.1l0.1-0.2l-0.1-0.1l0,0l0,0l0,0l0,0h0.1l0.1-0.1l0.2,0.1
			l0.3-0.1v-0.2l0.1-0.3l0.2,0.3l0.3,0.3l0.2-0.1l0.4,0.3l0.2-0.1h0.2l0.2-0.3l0.2,0.2l0.2-0.1l0.2,0.1v0.1h-0.2l-0.1,0.3l-0.2,0.3
			v0.2l0.4,0.5l0.2,0.1v0.1v0.3l0.1-0.1l0.1-0.2l0.3,0.1v0.1h0.2l0.3-0.3l-0.1-0.1h-0.1v-0.1l-0.2-0.3H-91l-0.1-0.3l0.1-0.1l0.2-0.2
			l0.1-0.2v-0.2h0.1l0.1-0.1v0.1l0.1,0.1h0.1h-0.1v0.1h0.1l-0.1,0.1h0.1l0.2-0.2h0.3l0.1-0.2l0.3,0.1l0.3-0.1l0.3-0.2l-0.1-0.2h0.3
			l0.3-0.1l0.3,0.1l0.2-0.1l0.3-0.2l0.3-0.3l0.2-0.3v-0.1l0.1,0.1l0.1,0.1l0.1-0.1l0.1-0.2l0.2-0.1l-0.1-0.4l-0.1-0.3v-0.2l-0.1-0.2
			l0.2,0.1l0.4,0.2v0.2l0.3,0.3l0.2-0.1l-0.2,0.2l-0.2,0.1v0.1l0.6-0.3v-0.3l0.3-0.1l0.1-0.1l0.2,0.1l0.2-0.1v-0.2l0.2-0.1l0.1-0.2
			l0.1,0.2l0.2,0.3l0.2-0.1v-0.3h0.2v0.1h0.3v-0.2h0.4l0.2-0.2l0.1-0.1v0.2l0.1-0.1h0.2l0.3-0.1l-0.1-0.2l0.1-0.2l0.1-0.3l-0.1-0.3
			h0.2l0.1-0.2l0.4-0.1v0.1h0.3l0.1-0.4h0.2v-0.2h0.1v0.1l0.1-0.1l0.2-0.3l0.2,0.2v-0.3h0.2l0.1-0.2l-0.3-0.1l-0.2,0.1l-0.4-0.3h0.5
			l0.2-0.3l0.1,0.1l0.2-0.2l0.4,0.3l0.1-0.3l-0.3-0.1l-0.1-0.2v-0.2l0.3,0.2l0.2-0.2v-0.1h0.7v-0.3l-0.2-0.1l0.2-0.1l0.1,0.2h0.2
			l0.1,0.2v-0.3l-0.3-0.2v-0.2h0.2l0.1-0.2l0.2,0.2v0.2h0.2l0.2,0.3v-0.4l-0.1-0.2h-0.2l-0.1-0.2l0.2-0.1v-0.2l-0.3-0.1l0.4-0.3
			l-0.2-0.2h-0.2l-0.1,0.1l0.1-0.2l0.3-0.2l0.5-0.2l-0.2-0.2l-0.2,0.2l-0.4-0.3h0.3l-0.2-0.3H-78l0.2-0.1l-0.1-0.2h0.2l0.1-0.3h0.1
			h0.2v0.3h0.2l0.4-0.4v-0.2h0.4l-0.2-0.3h-0.2l0.1-0.3l0.2,0.2l0.3-0.1v-0.3l0.1-0.1l-0.1-0.2v-0.2l0.2-0.1l-0.1-0.2v-0.2l-0.3-0.2
			l0.4,0.1l0.2-0.1l0.2-0.6h0.3l0.1,0.3l0.1,0.1l0.1-0.3l0.2-0.1l-0.2-0.3h-0.3l-0.1-0.1l0.1-0.1h0.2l0.2-0.2l-0.1-0.2l-0.2-0.1
			l0.2-0.2h0.1v-0.1l-0.2-0.2h-0.5V413l0.3-0.3l0.3,0.1l0.1-0.1v-0.2l0.2,0.1v0.1l0.2-0.2l-0.1-0.2v-0.5l-0.2-0.1l-0.2,0.2l0.1,0.1
			v0.1l-0.3-0.1l-0.4,0.3h-0.2V412l0.4-0.1l0.7-0.7v-0.1h-0.3l-0.1-0.2l-0.1,0.1l-0.5-0.7l-0.4-0.1l-0.5,0.4l-0.2-0.1L-77,410
			l-0.3,0.1l-0.3,0.3l-0.1,0.3v-0.4l0.4-0.3h0.2l0.2-0.2l0.4,0.2l0.3-0.1v-0.3l0.2-0.1h0.2l0.4-0.4h0.4v-0.2l-0.4-0.6l-0.8-0.5
			l-0.5-0.3l-0.6-0.6h-0.3l-0.5,0.4l-0.2-0.1l-0.4-0.4v-0.2l-0.2-0.1l-0.4,0.1h-0.4l-0.3,0.1l-0.4,0.5l0.4-0.7l0.3-0.1l0.2,0.1h0.2
			l0.1-0.1l0.2,0.1l0.4-0.2l0.2,0.5l0.2,0.2h0.3l0.2-0.3l0.5,0.1l0.3,0.2h0.2l0.3,0.3l0.5-0.3l0.6,0.2l0.2-0.1l-0.2-0.5l-0.2-0.1
			l-0.9,1.5v-0.1l-0.2-0.1h-0.3l-0.3-0.1l-0.4-0.6v-0.5l-0.6-0.4v-0.5l-0.3-0.1l0.2-0.4h-0.1l-0.5-1l-0.9-0.4l-0.2,0.1v-0.2
			l-0.8-0.4h-0.1v-0.8l0.1-0.5l-0.1-0.4l0.1-0.5l0.1,0.1l0.2-0.1l0.3-0.5l0.2,0.1l0.3-0.3l-0.3-0.2l-0.1-0.2l0.2-0.3h0.5v-0.3
			l0.4-0.1v-0.2l-0.4-0.2h0.4l0.3,0.2l0.1-0.2h0.3l0.3-0.2h0.2l0.3-0.4l0.1,0.2l0.1-0.2v0.2l0.4,0.3l0.4-0.3v-0.1h-0.2v-0.3l0.2-0.1
			h0.2l-0.3-0.4v-0.2l0.3-0.1l-0.2-0.1l-0.4,0.1h-0.4v-0.1h-0.3l-0.1,0.1h-1l-0.2-0.2l-0.2-0.1l-0.2-0.3l-0.2-0.1l-0.1-0.1l-0.7,0.3
			h-0.4l0.1,0.1v0.3l-0.2,0.2l-0.4,0.2h0.1l0.1,0.2l-0.4,0.2l-0.1,0.1l-0.3-0.1l-0.3,0.2h-0.4l-0.4-0.8V397l-0.1-0.3h-0.4l-0.2,0.1
			v-0.2h-0.2l-0.1,0.2l-0.1-0.2v0.1l-0.2-0.4l-0.1-0.2l-0.5-0.4l-0.3-0.2v-0.3l-0.2-0.4l0.1-0.1v-0.2v-0.2V394l0.2-0.1v-0.2l0.6,0.2
			h0.5h0.4l0.2-0.3l-0.1-0.2h0.2l-0.1-0.4l-0.1,0l0.1-0.2l0.2-0.8l0.6-0.3h0.3l0.2-0.4h0.2v-0.6l0.3-0.4l0.1-0.4l0.1-0.1l0.2-0.3
			h0.4l0.1,0.1h0.3l0.1-0.3l0.5,0.6l0.7,0.4v0.3l-0.2,0.1l-0.1,0.2l-0.3,0.4v0.4h-0.3v0.1l-0.1,0.4l0.3,0.3v0.2l-0.1,0.1v0.2
			l0.1,0.2l0.3-0.1l0.4-0.3l-0.1,0.3l-0.3,0.2v0.2h0.2v0.2l-0.1,0.1h-0.4l-0.2,0.2h-0.3l-0.1,0.2l0.2,0.2v0.3h0.2l0.2-0.2h0.2
			l0.3-0.4l0.4-0.2v-0.1l-0.1-0.3l0.4-0.3l0.7-0.5h0.2l0.1-0.3h0.4l0.4-0.3l0.2,0.1l0.2-0.1h0.3l0.5-0.5l0.1,0.3l0,0v0.1h0.1
			l0.1,0.6l0.2-0.2v-0.2l0.3,0.2l0.1,0.2l0.5-0.1l0.2-0.2h0.2l-0.1,0.3l-0.2,0.1l0.2,0.3l-0.4,0.6v0.7l0.1,0.1h0.6l0.3-0.2l-0.3,0.3
			h-0.4l-0.2,0.4v0.7l-0.1,0.3h0.1l0.3-0.2l0.3,0.1l-0.3,0.5l0.1,0.2l0.3-0.3l0.2,0.1l0.3-0.4l-0.1-0.2l0.2-0.1l0.3,0.4l0,0l0.3-0.2
			h0.5l-0.2,0.1l0.6,0.5l0.4,0.6h0.2l-0.1,0.2l0.2,0.3l0.1,0.3l-0.5-0.2l-0.1-0.2l-0.1,0.3l-0.2-0.1l-0.3,0.5l0.7,0.3l0.2-0.1
			l0.2,0.3v0.7l0.2,0.1l0.1-0.1l0.3,0.5l-0.5,0.3v0.2l0.2,0.2v0.3l-0.2,0.1v0.3l0.2,0.3h-0.2l0.4,0.7h0.2l0.1,0.4l0.1,0.1v0.3
			l0.2-0.2v-0.4l0.1,0.2l0.2-0.3l0.7-0.6l0.3-0.1v0.2l0.2-0.3h0.2l0.2,0.3l0.3-0.1l0.1,0.1l0.2-0.1l-0.1-0.2l0.4-0.2h0.4l0.4-0.5
			l-0.1-0.2l0.2-0.2l-0.1-1.2H-66l-0.1,0.1v-0.4l-0.2-1.1l-0.2-0.2v-0.7l-0.9-1.2l-0.8-0.9l-0.6-1.1l-0.2-0.3l-1.2-0.7l-0.2-0.3
			l-0.6-0.1l-0.1-0.4l0.2-0.2l-0.1-0.4v-0.4l0.4-0.3l0.1-0.3l0.3-0.2h0.3l0.1-0.2l0.2-0.2l-0.1-0.2l0.8-0.8l-0.1-0.1l0.4-0.3
			l0.1-0.4l-0.2-0.2v-0.8l-0.3-0.2v-0.5l0.2-0.8V385h0.2l0.5-0.6h0.1l-0.3-0.4v-0.1v-0.2l-0.1-0.1l-0.1-0.3v-0.1l0.2-0.1h0.4h0.1
			v-0.3v-0.2v-0.2l0.1-0.1V382v-0.3l-0.2-0.1v-0.5v-0.3v-0.4v-0.3l-0.2-0.3l-0.1-0.2l-0.1-0.2l-0.4-0.6l-0.1-0.3l0.1-0.1l0.2-0.1
			h0.2l0.2-0.2l0.1-0.2l0.3-0.4h0.1l0.3,0.1l0.2,0.1l1,0.2h0.2h0.2l0.1-0.2v-0.2l-0.1-0.2v-0.2l0.1-0.1l-0.1-0.2v-0.2l0.1-0.3
			l0.1-0.1l-0.1-0.2l-0.1-0.2v-0.1l0.2-0.1l-0.1-0.1v0.5l-0.1-0.2l0.1-0.2l0.2-0.1v-0.1l-0.1-0.2l-0.1-0.3v-0.4h0.1l0.1-0.1v-0.1
			l-0.1-0.1V374l-0.1-0.1l-0.1-0.1l0.1-0.2v-0.3l-0.1-0.1l-0.1-0.2v-0.1l0.2-0.3h0.2l0.1-0.1v-0.3l0.1-0.3l-0.2-0.1l-0.1-0.2v-0.2
			l-0.3-0.3l-0.1-0.2l0.2-0.1l-0.2-0.3l-0.1-0.2h-0.3l-0.2-0.1l-0.3-0.1l-0.2,0.2h-0.3l-0.2,0.2v0.2l-0.2,0.1h-0.2l-0.1,0.3h-0.3
			h-0.2l-0.1,0.2v0.2l-0.2,0.1l-0.1,0.3v0.2l-0.2,0.1l-0.2,0.2l-0.4,0.1l-0.2,0.1l-0.2-0.1l-0.1,0.1l-0.2,0.1l-0.1-0.2l-0.1-0.2
			h-0.2l-0.2,0.2l-0.2,0.1l-0.1-0.2l-0.2-0.3l-0.1-0.1l-0.3-0.4v-0.2l0.1-0.1l0.1-0.3l-0.1-0.3l-0.1-0.3h-0.3v-0.2V370l0.1-0.2v-0.2
			l-0.1-0.1h-0.1l-0.2,0.1h-0.2l-0.2,0.1h-0.2l-0.2-0.1h-0.2l-0.1-0.1l-0.3-0.2v-0.2L-74,369h-0.1l-0.2-0.1v-0.2h-0.2l-0.2-0.2
			l-0.1-0.2l-0.1-0.1h-0.2l-0.1,0.2h-0.2l-0.2,0.1v0.1l-0.2-0.1l-0.1-0.1l-0.2-0.1h-0.4l-0.1-0.1l0.1-0.1V368h0.1l-0.2,0.1h-0.3
			l-0.1,0.1l-0.2-0.1l-0.2,0.1h-0.2l-0.1-0.2l-0.3-0.1l-0.4-0.4l0-0.5v-0.2l-0.1-0.3h-0.2l-0.2-0.1v-0.3L-79,366l-0.1-0.3l-0.1-0.3
			l-0.6-0.4l-0.3-0.4v-0.2l-0.1-0.2l-0.2,0.1l-0.1-0.1V364v-0.1l-0.2-0.1l-0.1-0.3l-0.2-0.1l-0.1-0.2l-0.2-0.2l-0.1-0.3l-0.4-0.2
			v-0.2l0.1-0.2v-0.2h-0.4l-0.1-0.1v-0.2l-0.1-0.2v-0.2l-0.1-0.2l-0.2-0.1v-0.1l-0.1-0.1h-0.2l-0.3-0.1l-0.1-0.1l0.1-0.2l-0.1-0.1
			h-0.2l-0.2,0.1l-0.1-0.1H-84l-0.1-0.2v-0.2l-0.1-0.1l-0.2-0.1h-0.2l-0.2-0.2l-0.1,0.1h-0.2l-0.1-0.1l-0.1,0.1v0.2l-0.1,0.1
			l-0.3-0.1l-0.1-0.1l-0.2,0.1h-0.4l-0.1-0.1l-0.2-0.2h-0.5l-0.2-0.2h-0.2h-0.2h-0.1l-0.5,0.1l-0.1,0.2h-0.1l-0.1,0.1H-89h-0.2
			l-0.3-0.1l-0.2,0.2h0.3l-0.1,0.2l-0.2,0.1h-0.2l-0.1,0.1h-0.2l-0.2,0.1h-0.4l-0.2,0.1v0.2l-0.2,0.3l-0.1,0.3l-0.1,0.2v0.2
			l-0.1,0.1v0.4l0.1,0.1h0.2l0.4-0.2l0.2-0.1h0.2l0.2,0.4l0.1,0.3l0.2,0.2v0.2l0.1,0.2v0.4l-0.2,0.1l-0.2,0.3l-0.1,0.4l-0.2,0.2
			l-0.2,0.3v0.3l0.2,0.3l-0.1,0.2v0.3l0.2,0.2v0.3l-0.2,0.1l-0.1,0.2l0.1,0.3v0.5l-0.1,0.1v0.4h0.2l0.1,0.1l0.1-0.1l0.1,0.1l0.1,0.3
			l-0.1,0.3l-0.2,0.2L-91,369l-0.4,0.2l-0.7,0.7h-0.2l-0.2-0.2l-0.5-0.1l-0.3,0.1l-0.1-0.1h-0.2l-0.2,0.1l-0.1-0.2l-0.6-0.2
			l-0.5,0.1v0.2l-0.4,0.2h-0.3l-0.2-0.1l-0.3,0.2l-0.2-0.1l-0.2-0.3l-0.4-0.2h-0.3l-0.5,0.1l-0.1-0.1h-0.3l-0.2,0.2l-0.1,0.3
			l-0.2,0.2l-0.3,0.1l-0.2,0.3v0.1l-0.1,0.3l-0.3,0.3h-0.7h-0.3l-0.2,0.3h-0.4l-0.6,0.3l-0.2,0.4h-0.2l-0.3-0.2h-0.4l-0.2,0.1
			l-0.4,0.1h-0.9l-0.6-0.2l-0.7,0.1h-0.2l-0.3-0.3h-0.2l-0.2-0.1l-0.3-0.2l-0.2-0.5l-0.2-0.1l-0.3,0.1h-0.5l-0.6-0.2l-0.3-0.5h-0.6
			h-0.5l-0.4-0.2l-0.4,0.1h-0.4l-0.3,0.2h-0.6l-0.4,0.1l-0.3,0.3l-0.2,0.1l-0.2-0.1h-0.2l-0.2,0.1h-0.5l-0.1,0.1h-0.2l-0.5-0.2
			l-0.5-0.1l-0.1-0.2l-0.3-0.3h-0.2l-0.2-0.2v-0.3l-0.2-0.4l-0.1-0.2v0l-0.2-0.2v-0.2l-0.1-0.2l-0.2-0.1h-0.7h-0.3l-0.2-0.1h-0.4
			l-0.1-0.1l-0.2-0.1h-0.6h-0.4l-0.4-0.1l-0.1-0.1l-0.4-0.2l-0.4-0.1l-0.2-0.1h-0.3l-0.2,0.2v0.2l0.1,0.3l-0.1,0.3l-0.2-0.1
			l-0.3,0.1l-0.2,0.3v0.2l-0.3,0.4v0.8l0.1,0.4l0.5,0.1l0.2,0.2l0.3,0.1l0.1,0.2l-0.1,0.5v0.5l0.3,0.2l0.2,0.2l-0.3,0.5l-0.5,0.1
			l-0.3-0.1l-0.1,0.1h-0.3l-0.3-0.1h-0.7l-0.2,0.1l-0.2-0.2l-0.3-0.1h-0.3l-0.3,0.2l-0.3,0.1l-0.2,0.1l-0.6-0.3l-0.3-0.2l-0.8-0.4
			l-0.1-0.2l-0.1-0.3l-0.1-0.2h-0.5l-0.2,0.2h-0.3l-0.2,0.1h-0.3l-0.2-0.2v-0.2l-0.2-0.3h-0.1l-0.2,0.1h-0.4h-0.3l-0.3,0.1l-0.6,0.1
			l-0.2,0.1l-0.2,0.4l-0.2,0.1l-0.5-0.1l-0.1,0.1v0.2l0.2,0.1l-0.1,0.1l-0.2,0.3l-0.3,0.1l-0.3,0.2v0.2l-0.4,0.2l-0.1,0.3v0.3
			l-0.5,0.2l-0.3,0.3l-0.1,0.2h-0.7l-0.3,0.1l-0.2,0.6l0,0h-0.1l-0.3-0.1h-0.2l0,0l-0.3,0.3l-0.2,0.1l-0.4,0.4v0.2l0.1,0.2l-0.2,0.3
			l-0.5,0.2l-0.3,0.2l-0.1,0.4v0.7l0.3,0.6l0.3,0.4v0.2l-0.4,0.4l-0.1,0l-0.3,0.3l-0.2,0.1l-0.1-0.1l-0.1-0.2h-0.3l-0.6,0.1h-0.4
			l-0.6-0.2h-0.4h-0.2l-0.1,0.7l-0.1,0.5v0.4l-0.1,0.9v0.7l-0.1,0.2l0.2,0.1l0.4,0.2l-0.1,0.3v0.2h-0.2l-0.2,0.1h-0.5l-0.2-0.2
			l-0.2,0.1l-0.4,0.1l-0.7,0.1l-0.5,0.2h-0.2l-0.2-0.1l-0.3,0.1l-0.3,0.3v0.2l0.3,0.2h0.4h0.4v0.1l-0.2,0.2l0.1,0.5v0.2l0.1,0.2
			l0.1,0.3l0.3,0.5l0.1,0.3l0.3,0.2l0.1,0.6l-0.2,0.2l-0.1,0.3l0.3,0.3l-0.1,0.1v0.2l-0.3,0.2v0.4l-0.3,0.2l-0.7-0.2l-0.7-0.8
			l-0.3,0.1l-0.7-0.3l-1-0.1l-0.5,0.2l-0.8-0.2l-0.7,0.2l-0.4,0.1l-0.4-0.1l-0.3,0.2l-0.3,0.1l-0.9-0.1l-0.6-0.2l-0.3-0.2h-0.5
			l-0.2,0.1h-0.4l-0.3-0.1l-0.2,0.1v0.3l0.1,0.4v0.4l-0.5,0.1h-1l-1.2-0.1l-0.3-0.2l-0.5-0.1l-0.3,0.3l0.1,0.2l-0.3,0.2v0.1h-0.1
			h0.3v0.3l-0.5,0.8l-0.2,0.4l0.3,0.2l0.7,0.2l0.3,0.3l0.3,0.1l0.3-0.3v-0.4h0.2l0.8,0.6l0.1,0.3l-0.4,0.5h-0.5l-0.8,0.1l-0.1-0.2
			l-0.3-0.4l-0.5,0.5h-0.3l-0.4,0.3l-0.4,0.1v0.4l0.5,0.2v0.3l-0.5,0.2l-0.7,0.2l0.1,0.1l0.1,0.2l-0.6,0.2v0.4l-0.3,0.1l-0.7-0.1
			l-0.3,0.2v0.5l0.4,0.6l0.3-0.1h0.4l0.1,0.4l-0.1,0.3l0.2,0.4l0.3,0.1v0.4l-0.1,0.2l-0.3,0.8l-0.1,1l-0.1-0.2h-0.3l-0.3,0.2h-0.2
			l-0.2-0.3l-0.3-0.2l-0.5,0.1l-0.1-0.1l-0.3,0.1l-0.3-0.2l-0.4,0.1l-0.5,0.3h-0.1l-0.4,0.1l-0.2,0.1l-0.2,0.1v0.2l0.1,0.1v0.3
			l-0.4,0.4v0.4l-0.1,0.4l-0.2,0.1l-0.2,0.2l-0.1,0.2l-0.6,0.1l-0.5,0.3l0.1,0.2l-0.2,0.2v0.2l-0.2,0.3l-0.5,0.1l-0.2,0.2l-0.1-0.1
			l-0.1-0.2l-0.4-0.3h-0.3l-0.2,0.2h-0.3l-0.2-0.2l-0.4-0.1l-0.2,0.1l-0.1-0.2v-0.2l-0.1-0.4l0.1-0.2l-0.2-0.4l-0.4-0.2l-0.7-0.1
			l-0.6-0.9l-0.6-0.1l-0.3,0.1l-0.2,0.1l-0.1-0.5l-0.3-0.1l-0.6-0.3l-0.2,0.2h-0.2l-0.9-0.6l-0.5-0.1l-0.6-0.5h-0.4l-0.3-0.1
			l-0.3,0.1l-0.1,0.4l-0.6-0.1l-0.7,0.1l-0.7,0.6h-0.3l-0.2,0.3l-0.1,0.4h-0.8l-0.3,0.2l0.2,0.4l0.2,0.4l-0.1,0.4l-0.4-0.1l-0.9-0.1
			l-0.8,0.1l-1,0.3h-0.5l-0.9-0.3h-0.4l-0.8-0.3l-0.2-0.3l-0.1-0.3h-0.2l-0.4-0.2l-0.4,0.1l-0.3-0.1h-0.4l-0.3-0.3h-0.2l-0.1-0.1
			l0.1-0.4v-0.4l-0.2-0.3v-0.1l-0.1,0.1l-0.3-0.1l-0.1-0.2l-0.3-0.1l-0.5-0.6l0.5-0.3l-0.4-0.2l-0.1-0.2l0.2-0.2l-0.2-0.2l-0.1-0.2
			h-0.1v-0.1h-0.2l-0.3,0.2h-0.2l-0.2,0.3l-0.2,0.1l-0.3,0.4h-0.2l-0.1,0.2l-0.1,0.2l-0.3,0.1l-0.2-0.1l-0.3,0.1l0,0l-0.1,0.3
			l-0.4-0.2h-0.4l-0.4-0.2l-0.1-0.3l-0.7-0.4v-0.2l-0.1-0.3h-0.2l-0.2-0.3h-0.1l0,0l-0.2,0.1l-0.2,0.4h-0.4v0.2l0.2,0.3l0.1,0.6v0.3
			v0.4h0.4l0.1,0.2l-0.2,0.5v0.5v0.2l0.4,0.2l0.3,0.6l0.1,0.4l-0.1,0.3l-0.3,0.1l-0.3-0.1v-0.3l-0.2-0.1l-0.4,0.1l-0.5-0.1h-0.6
			l-0.2,0.1h-0.4l-0.4,0.4l0.1,0.1l-0.2-0.2h-0.4l-0.6,0.2h-0.8l-0.3,0.1h-0.4l-0.6,0.2l-0.2,0.3l-0.4,0.1l-0.1,0.1h-0.7l-0.5-0.1
			l-0.2-0.1l-0.3-0.1l-0.8,0.1l-0.2,0.1h-0.2l-0.8,0.3l-0.3-0.1l-0.5-0.1l-0.1,0.2v0.6l-0.2,0.1v0.4l-0.3,0.1l-0.3,0.1l-0.3-0.1l0,0
			l-0.2,0.1l0.1,0.5l0.3,0.5l0.1,0.4l-0.1,0.3v0.6v0.1h-0.2l-0.1,1.1l-0.3,0.4l-0.3,0.4v0.4v0.1l-0.3,0.4l-0.1,1.1l-0.5,0.9
			l-0.5,0.7l0.2,0.1l0.3,0.5l0.2,0.6l0.4,0.7l0.3,0.8l-0.1,0.4l0.2,0.5l0.2-0.3l0,0v0.2l-0.1-0.1v0.1v0.6v0.7l-0.2,0.5v0.2l0.2-0.1
			l0.1,0.1l0.2-0.1l0.4,0.2l-0.1,0.1l0.7,0.8l0.1,0.3l0.2,0.1l0.1,0.3l0.3,0.3h0.2l0.5,0.8v0.2l0.1,0.3h0.2l0.1,0.4l0.2,0.2l0.4,0.2
			l0.3,0.7l0.2,0.2l0.1,0.5l-0.1,0.2v0.2l0.3,0.2v0.3l0.2,0.1l0.2-0.2l0.3,0.3l0.5,0.2l0.4,0.4l0.1,0.3h0.1v0.4l0.2,0.1l0.1,0.5
			l0.3,0.3l0.1,0.5l0.1,0.2l-0.1,0.5l-0.1,0.1l0.1,0.2l0.2,0.6l0.1,0.6l0.3,0.2v0.2l0.8,0.9l0.3,0.1h0.3l0.2,0.3h0.2l0.5,0.4v0.2
			l0.4,0.1v0.2l0.2,0.1l0.4,1.4l0.3,0.2v0.4l1.2,1.2h0.2l0.1,0.7l0.5,0.1l0.3,0.8l0.1,0.3l0.1,0.8v0.5h-0.2v0.2l-0.2-0.1l0.1,0.2
			h0.2v0.2l0.4,0.5l0.2,1.5l0.4,0.4v0.4l-0.2,0.1l0.2,0.4l0.3,0.4l0.1,0.4l0.1,0.3h0.3l0.1-0.1l0.4,0.1l0.3-0.1l0.3-0.3h0.3l0.2,0.2
			l0.3-0.1l0.3-0.4h0.2l0.2-0.4l0.4-0.2l0.2-0.1h0.2l0.1,0.1h0.5l0.1,0.1l0.3,0.1l0.7-0.3l0.6-0.1l0.2-0.2v-0.2l0.6-0.4h0.2l0.2,0.2
			h0.2l0.1-0.1l0.1,0.1h0.2l0.5-0.4l0.3-0.5l0.3-0.1h0.2l1.7-0.5l0.2-0.2l1-0.2l0.6-0.3l0.3-0.3l0.7-0.1l-0.1-0.2v-0.1l-0.1-0.1
			v-0.4l0.5-0.7l0.6-0.1l0.3-0.1l0.2-0.1l0.1,0.1h0.3l0.2-0.3h0.3l0.6-0.3h0.3l0.3-0.1l0.2,0.2h0.2l0.4-0.6V437h0.1v-0.2l-0.1-0.1
			v-0.2v-0.2l0.2-0.2l0.1-0.1h0.5l0.4-0.1l0.2,0.1l0.3-0.3l0.1-0.1V435l0.6-0.7l0.4-0.1l0.2,0.1l0.2-0.1l0.8-0.1l0.1-0.2l-0.1-0.1
			l-0.2-0.6h0.1l-0.1-0.3h-0.1l0.1-0.2v-0.3l0.3-0.5h0.2l-0.1-0.2h0.1l0.2-0.3l0.2-0.1l0.1,0.1l-0.1,0.2v0.2l0.2,0.1h0.2l0.2-0.6
			l0.2-0.2l0.2-0.4l0.4-0.3l0.6-0.9l0.1-0.2v-0.2l0.2-0.3v-0.3l-0.1-0.1l-0.3-0.1l-0.6-0.5l-0.1-0.3l-0.3-0.2l-0.1-0.4l-0.4-0.6
			h-0.2l-0.4,0.1l-0.7-0.1h-0.3l-0.2,0.1l-0.4-0.1l-0.9-0.7v-0.2l-0.5-0.6l-0.1-0.9v-0.4v-0.2h-0.1l-0.1-0.1l0,0V423l0.1-0.2v-0.4
			h-0.1l0.1-0.2l-0.1-0.1l0.1-0.1h0.1l-0.1-0.1h-0.1h-0.1l-0.1,0.4l-0.1,0.1l-0.1-0.1l-0.1,0.1v0.1v0.2l-0.1,0.2l-1,0.6v0.4
			l-0.9,0.8l-0.1,0.2h0.1l0.1,0.2l-0.4,0.4l-0.1-0.2l-0.1,0.1h-0.2v0.2h-0.1l-0.1,0.1l-0.5,0.1h-0.3l-0.1-0.2h-0.3l-0.1-0.1h-0.2
			l-0.5-0.1l-0.6,0.5l-0.2-0.1h-0.2l-0.2,0.1l-0.1-0.7l-0.1,0.1l-0.1-0.1l0,0h-0.1l-0.1-0.2v-0.2l0.1-0.2h-0.3v-0.1l0,0h0.2l0.1-0.8
			l-0.2-0.3h-0.1l-0.1-0.5h0.1l0.1-0.5l-0.1-0.1h-0.1v-0.2l-0.3-0.2h-0.1v0.1h-0.1v0.1l-0.1,0.1l0.1,0.2h-0.1l0.1,0.5l-0.1-0.1h-1.2
			v0.5l0.1,0.2l0.1,0.1v0.3l-0.1,0.1l-0.1,0.1l-0.3-0.4l-0.1-0.4l-0.8-1l-0.2-0.4h0.2v-0.2l-0.3-0.8v0.1l-0.2-0.3h-0.1l-0.5-0.7
			h-0.2l-0.2-0.2v-0.1h0.1l0.1,0.1l-0.1-0.2h-0.3l-0.5-0.1l-0.3-0.8l-0.2-0.4l-0.1-0.3v-0.3l-0.1,0.1l-0.1-0.2l-0.2-0.2h0.1h0.1
			l-0.2-0.2v-0.3l-0.1-0.2l-0.1,0.1l-0.6-0.4l0.9-0.2l-0.2-0.7v-0.1l0.2-0.4l0.2-0.1l0.1-0.1v0.1l0.2,0.3h0.2l0.2-0.2v-0.3l-0.2-0.2
			h0.2h0.2l0.1-0.1l-0.1,0.2v0.2l0.4,0.2l0.1-0.1l0.2,0.3h0.2l0.5-0.4l0.2,0.1l0.3,0.4v0.3l0.6,0.7v0.5l0.2,0.1h0.2l0.2,0.3h-0.1
			l-0.1-0.1l-0.1,0.1l0.3,0.2h0.1l0.1,0.2l0.5,1.1l0.3,0.2l0.6-0.1l0.4,0.1l0.2,0.2h0.5l0.1,0.1h0.3v0.1l-0.2,0.2l0.5,0.5l0.4,0.1
			l0.2,0.2h0.3l0.5,0.5l0.2-0.1l0.4-0.1l0.5,0.1l0.6,0.4l0.5-0.5l0.7-0.4V420v0.1h0.3l0.4-0.3l0.3-0.1l0.5,0.1v0.1h0.1v0.2l0.3,0.4
			l0.2,0.6l0.3,0.6v0.4l0.2,0.1l0.1,0.2h0.8h0.3l0.3,0.2l0.4-0.3h0.1l0.4,0.4l0.9-0.1l0.5,0.2h0.7l0.3,0.1h0.1l0.2,0.2h0.1l0.1-0.3
			h0.2l0.2,0.3l0.4,0.1l0.5,0.2l0.2-0.1l0.1-0.1h0.1h0.2v0.2l0.1,0.1l0.5-0.3h0.4v0.1h0.1l0.2-0.2h0.3h0.2l0.3-0.1h0.2h0.2v-0.2
			l0.1-0.2l0.3,0.2h0.2v-0.1h0.2l0.1,0.2h0.2l0.2,0.2h0.2l0.4-0.3h0.4l0.2,0.1l0.2-0.2h0.2v-0.1l0.1,0.1l0.5,0.1l0.4-0.1h0.5
			l0.3,0.3l0.1,0.3l-0.1,0.3l0.1,0.1h-0.1v0.1h0.3l0.5-0.2v0.3l0.3,0.4l0.1,0.6l0.1,0.1v0.2l-0.1,0.1h0.1h0.1l0.1,0.3h0.3h0.5
			l0.6,0.3v0.2l0.3-0.2l0.4-0.3l0.4-0.1l-0.3,0.2l-0.3,0.4v0.3l0.2,0.1l0.5,0.5l1,0.4l0.3-0.1h0.4l0.7-0.3v-0.1v-0.1l0.1,0.1h0.3
			l-0.1,0.3h-0.1l-0.3,0.5h-0.2l-0.6,0.5v0.1l-0.2-0.1h-0.1l-0.2,0.1h-0.3V428l-0.2,0.1l-0.1-0.1h-0.2l-0.1,0.2l0.1,0.2l0.7,0.7
			l0.2,0.1h0.1v0.1l0.5,0.7l1.2,1l0.6,0.1l0.4-0.1l0.8-0.5l0.5-0.3V430l0.2-0.2l0.1-0.6l-0.2-0.3l0.2-0.6V428v-0.2l0.1,0.3h0.4
			l0.2,0.1l0.3-0.2l-0.1,0.2l-0.3,0.3h-0.2l-0.1,0.1l-0.1,0.3l0.1,0.3v0.3h0.2l0.4-0.1l0.3,0.1h-0.3l-0.1,0.2l-0.3,0.2l0.1,0.7
			l0.2,0.1l0.1,0.5v0.5l-0.2,0.4v0.3l0.2,0.1l-0.3,0.1l0.1,0.5l0.5,0.9v0.3l0.2,0.2h-0.2v0.3l0.5,0.6h-0.3l0.3,0.5v0.4l0.7,1.3v0.9
			l0.2,0.7l0.3,0.2l0.1,0.5l0.2,0.1v0.2l0.4,0.7h0.1v0.2l0.4,0.5h0.1v0.6l0.2,0.2l0.2,0.3l0.1,0.5l0.3,0.7l0.2,0.3v0.7l0.1,0.1
			l0.2,0.4l0.4,0.5h0.1l0.3,0.4l0.5,0.5l0.1,0.5l0.2,0.4h0.1v0.3l0.4,0.7l0.2,0.6v0.7l0.6,1.2l0.5,0.5l0.5,0.3h0.5l0.6-0.4l0.1-0.4
			l-0.1-0.1l0.1-0.1v-0.2l0.2-0.3l0.5-0.2h0.1l0.7-0.2l0.2,0.1l0.1,0.1v-0.1l-0.1-0.1l-0.5-0.3v-0.2l0.1-0.2l0.4-0.5l-0.1-0.1
			l0.2-0.3l0.4-0.1l0.2,0.1l0.3-0.1V448l-0.1-1.3l-0.2-0.2v-0.6l0.4-0.7l0.4-1l-0.1-0.8l-0.4-0.1v-1.2v-0.4l0.2-0.3l-0.3-0.8V440
			l0.2-0.3l0.5-0.5h0.1l0.2,0.2h0.2l0.4-0.5v-0.3l0.3-0.3l0.7,0.1l0.4-0.2l0.3-0.4l-0.1-0.4v-0.3l0.4-0.4l0.6-0.2l0.3-0.3l0.2-0.4
			l1.4-1.1l0.3-0.7l1.1-0.9l-0.1-0.1l-0.1,0.1l-0.3,0.1l0.1-0.4h0.2l0.3-0.2h0.1l0.1,0.1v0.2l0.1,0.1l0.9-0.4v-0.2l0.6-0.4l-0.1-0.2
			h0.2l0.1-0.3l0.4-0.3h-0.1v-0.1l-0.2-0.3l-0.1-0.2l0.2-0.3l0.1-0.2l0.2-0.1l1-0.4l0.2-0.3v-0.2l0.1-0.2l0.1-0.1l-0.1-0.1h-0.2
			v-0.1h0.3l0.2,0.2l-0.1,0.2l0.1,0.4l0.3,0.1v-0.1h0.2l0.1-0.1v0.1v-0.2v-0.1l0.1,0.2l0.1,0.4l0.2,0.1V429l0.2,0.3l0.2-0.3
			l-0.2-0.4h0.1l0.2-0.1l0.1,0.3l0.1,0.1h0.2l0.1-0.2l0.1-0.1l0.2,0.1l0,0l0.2-0.1v-0.3l-0.2-0.4h0.1v-0.3l0.1-0.2l-0.1-0.1l0.1,0.1
			v0.1l-0.2,0.5l0.2,0.3l0.2-0.3l0.2-0.1l-0.1,0.1l-0.1,0.1l-0.1,0.3l0.2,0.2l0.3-0.5l0.3-0.1v-0.4l-0.2-0.3l-0.2-0.1l0.3-0.1v-0.2
			l-0.2-0.3l-0.1-0.5l0.1,0.5l0.3,0.3h0.2l0.1,0.1l0.6,0.3l0.3-0.2h0.1V427h0.1l0.5,1.1l0.2,0.1v0.2l-0.1,0.4l0.1,0.1l-0.1,0.5
			l0.1,0.1l0.2-0.2v-0.1v0.2l-0.1,0.2l0.1,0.2l0.3,0.4l0.2,0.6l0,0l-0.1-0.4l0,0l0,0l0.2,0.3l0.1,0.4l0.7,0.6l-0.2-0.3v-0.1l0.2,0.2
			h0.3l-0.2,0.3v0.1h0.3v-0.2l0.1,0.2h0.3l0.1,0.2l0.5,0.1l0.3,0.5v0.3l-0.2,0.1l-0.2-0.2l-0.2,0.1l0.2,0.2h0.1l-0.1,0.1l-0.2-0.1
			l-0.1-0.2h-0.3v0.2l0.3,0.3v0.2l0.3,0.3l0.6,0.2l-0.1-0.5l-0.1-0.3l0.4,0.2v0.3l0.1,0.2l0.2,0.2l0.1,0.5l0.2,0.2l-0.1,0.1l0.1,0.2
			l0.2,0.1v0.6l0.3,0.7l0.1,0.1l-0.4,0.2l-0.3,1.6l0.1,0.3v0.1v0.1l0.2-0.4l0.3-0.3l0.2-0.5v0.5l-0.4,0.4v0.4h0.2V439l0.4-0.2
			l0.2,0.2h0.2v-0.2v0.1h0.2v-0.1h0.3l0.6-0.4l0.1-0.3L-112.4,438.1z M-94.3,441.3L-94.3,441.3h-0.3H-94.3z M-97.3,441.1l-0.2,0.1
			l-0.2,0.1L-97.3,441.1z M-208.7,411.4v0.3v-0.1V411.4L-208.7,411.4h0.1H-208.7z M-208.5,409.9L-208.5,409.9h-0.2H-208.5
			L-208.5,409.9z M-169.4,415.6L-169.4,415.6l1.2-1.6L-169.4,415.6z"/>
		<polygon points="-116.9,434.1 -116.8,434.3 -116.5,434.5 -116.4,434.2 -116.7,434 		"/>
		<polygon points="-137.1,451.8 -137.1,451.5 -137,451.5 -137,451.4 -137.2,451.5 -137.2,451.8 -137.2,452.1 		"/>
		<polygon points="-133.8,453.1 -133.9,452.9 -133.8,452.7 -134.1,452.5 -134.3,451.8 -134.5,451.3 -134.8,451.3 -134.8,451.3
			-135.1,451.2 -134.7,451.1 -134.8,450.9 -134.9,450.9 -135.1,450.5 -135.3,450.5 -135.4,450.2 -135.5,450.1 -135.5,449.9
			-135.9,449.8 -136,449.9 -136.2,449.8 -136.2,449.7 -136.5,449.6 -136.5,449.7 -136.5,449.8 -136.5,449.8 -136.6,449.8
			-136.6,450 -136.6,450.2 -136.8,450.4 -136.8,450.4 -137,450.3 -137.2,450.2 -137.2,450.3 -137,450.4 -136.9,450.5 -137,450.6
			-136.9,450.9 -136.9,451.3 -137,451.5 -137.1,452.2 -137,452.4 -137.1,452.5 -137,453.1 -137,453.3 -136.8,454 -136.6,454.9
			-136.4,455.2 -136,455.4 -135.7,455.4 -135.1,455.3 -134.6,455.1 -134.1,454.6 -133.9,454.2 -133.8,453.9 -133.8,453.6
			-133.8,453.5 		"/>
		<polygon points="-136.4,449.4 -136.1,449.5 -136,449.7 -135.7,449.7 -135.6,449.8 -135.6,449.6 -136,449.4 -136,449.2
			-136.3,449.1 -136.3,449.2 -136.2,449.3 -136.4,449.3 		"/>
		<polygon points="-136.4,449 -136.5,449 -137,449 -137,449.2 -136.6,449.5 -136.7,449.3 -136.6,449.3 		"/>
		<polygon points="-125.3,429.1 -125.3,429.4 -125.1,429.5 -125.2,429.2 		"/>
		<polygon points="-124.7,429.4 -124.6,429.3 -124.7,429.1 		"/>
		<polygon points="-125.1,429.1 -125,429.3 -124.9,429.4 -124.9,429.2 -124.9,429 		"/>
		<polygon points="-125.8,429.2 -125.8,429.3 -125.7,429.3 -125.5,428.9 -125.6,428.8 		"/>
		<polygon points="-121.6,427.3 -121.9,427.4 -121.9,427.5 -121.7,428 -121.4,428 -121.4,427.5 		"/>
		<path d="M-121.3,427.3v0.1l0.2,0.3v0.3l0.1,0.2l0.2-0.4l-0.1-0.2L-121.3,427.3z"/>
		<polygon points="-120.7,427.5 -120.6,427.9 -120.5,427.8 -120.5,427.6 -120.6,427.5 		"/>
		<polygon points="-177.5,444.6 -177.7,444.4 -178,444.5 -178.2,444.6 -178.4,444.5 -178.5,444.4 -178.7,444.3 -178.9,444.5
			-178.9,444.7 -179.1,444.8 -178.9,445 -178.7,445.1 -178.4,445.2 -177.9,445.1 -177.6,444.9 -177.3,444.9 -177.2,444.7
			-177.2,444.6 		"/>
		<polygon points="-181,445.3 -180.6,445.4 -180.3,445.4 -180.7,445.2 		"/>
		<polygon points="-194.8,444.9 -194.9,444.9 -195.2,444.6 -195.2,444.4 -195.2,444.4 -195.3,444.4 -195.4,444.3 -195.5,444.4
			-195.7,444.3 -195.8,444.3 -196,444 -195.9,443.9 -196.1,443.6 -196.3,443.6 -196.6,442.9 -196.7,442.8 -196.7,442.9
			-196.9,442.9 -197.1,442.6 -197.4,442.5 -197.6,442.1 -198.2,441.5 -198.3,441.3 -198.7,441.2 -198.8,441 -199.1,440.7
			-199.3,440.8 -199.4,440.7 -199.7,440.8 -199.8,440.9 -200,440.7 -200.3,440.3 -200.2,440.2 -200.4,439.8 -200.6,439.8
			-200.6,440.1 -200.5,440.1 -200.5,440.6 -200.8,440.5 -200.8,440 -201,439.7 -201.2,439.6 -201.2,439.4 -201.3,439 -201.4,439
			-201.6,437.9 -202.3,436.1 -202.6,435.8 -202.6,435.8 -202.8,436.1 -203.1,436.2 -203.4,436.3 -203.5,436.5 -203.8,436.4
			-204,436.6 -204.3,436.7 -204.4,436.8 -204.3,437 -204.3,437.2 -204.7,437.2 -204.9,437.3 -204.9,437.6 -205.1,438 -204.9,438.1
			-204.9,438.2 -205,438.3 -205.1,438.8 -205.3,439.6 -205.5,440 -205.5,440.3 -205.7,440.4 -205.7,440.8 -205.5,441.5
			-205.5,441.8 -205.2,441.9 -204.9,441.9 -204.7,441.7 -204.5,441.7 -204.1,440.8 -203.9,441 -203.8,441.1 -203.2,441.3
			-202.9,441.3 -202.6,441.1 -202.3,441 -202.1,441.2 -202,441.1 -201.7,441.1 -201.2,441.5 -201.2,441.4 -200.9,441.4
			-200.6,441.5 -200.3,441.7 -200,441.8 -199.5,442.3 -199.4,442.5 -198.9,442.6 -198.9,442.7 -198.6,442.7 -198.5,442.8
			-198.1,443.1 -197.7,443.5 -197.4,443.6 -197.1,444 -197,444.3 -196.9,444.5 -196.7,444.5 -196.3,445.1 -195.9,445 -196.6,445.2
			-196.7,445.6 -196.8,445.8 -196.7,446.2 -196.9,446.5 -196.9,446.8 -197.2,447.2 -197,447.3 -196.4,447.3 -196.1,447.1
			-195.6,447 -195.4,447.2 -195.3,447.1 -195,446.4 -195,446.3 -195.4,446.3 -195.7,446.4 -195.8,446.4 -195.9,446.2 -195.6,446.2
			-195.4,445.9 -195.2,445.9 -194.9,445.6 -194.8,445.6 -194.8,445.1 		"/>
	</g>
</g>
<g id="Text">
</g>
</svg>
