<?xml version="1.0" encoding="utf-8"?>
<!-- Generator: Adobe Illustrator 19.0.1, SVG Export Plug-In . SVG Version: 6.00 Build 0)  -->
<svg version="1.1" id="Layer_1" xmlns="http://www.w3.org/2000/svg" xmlns:xlink="http://www.w3.org/1999/xlink" x="0px" y="0px"
	 viewBox="283.1 509.9 7.2 11.8" style="enable-background:new 283.1 509.9 7.2 11.8;" xml:space="preserve">
<style type="text/css">
	.st0{fill:#000000;}
</style>
<path class="st0" d="M287.5,518.2l0.1-0.1l0.2,0.2l-0.2,0.1L287.5,518.2L287.5,518.2z M285.2,519.4l-0.1-0.2l0.1-0.1h0.1l0.1-0.2
	l0.1,0.2v0.3h-0.1H285.2L285.2,519.4z M288.8,517.7l-0.2,0.2v0.2l0.1,0.2l0.2-0.1l0.1-0.2v-0.3L288.8,517.7L288.8,517.7z
	 M289.9,519.8v-0.2l0.1-0.2h0.2l-0.1,0.2l-0.1,0.1L289.9,519.8L289.9,519.8z M290.1,519.1l-0.1,0.1l-0.1-0.2v-0.3l0.1-0.2l0.1-0.1
	l0.1,0.1l0.1,0.2L290.1,519.1L290.1,519.1z M285.6,521.5l-0.1-0.2l0.2-0.2l0.7-0.2l0.3,0.1v0.2l-0.2,0.4l-0.6,0.1L285.6,521.5
	L285.6,521.5z M283.1,512.1L283.1,512.1l0.3-0.1h0.5l-0.2,0.1l0.6,0.5l0.4,0.6h0.2l-0.1,0.2l0.2,0.3l0.1,0.3l-0.5-0.2l-0.1-0.2
	l-0.1,0.3l-0.2-0.1l-0.3,0.5l0.7,0.3l0.2-0.1l0.2,0.3v0.7l0.2,0.1l0.1-0.1l0.3,0.5l-0.5,0.3v0.2l0.2,0.2v0.3l-0.2,0.1v0.3l0.2,0.3
	h-0.2l0.4,0.7h0.2l0.1,0.4l0.1,0.1v0.3l0.2-0.2v-0.4l0.1,0.2l0.2-0.3l0.7-0.6l0.3-0.1v0.2l0.2-0.3h0.2l0.2,0.3l0.3-0.1l0.1,0.1
	l0.2-0.1l-0.1-0.2l0.4-0.2h0.4l0.4-0.5l-0.1-0.2l0.2-0.2l-0.1-1.2h-0.1l-0.1,0.1v-0.4l-0.2-1.1l-0.2-0.2v-0.7l-0.9-1.2l-0.8-0.9
	l-0.6-1.1l-0.6,0.4l-1.1,0.1l-0.6,0.5L284,511l-0.5,0.5L283.1,512.1z"/>
</svg>
