<?xml version="1.0" encoding="utf-8"?>
<!-- Generator: Adobe Illustrator 26.0.1, SVG Export Plug-In . SVG Version: 6.00 Build 0)  -->
<svg version="1.1" id="_copy_2" xmlns="http://www.w3.org/2000/svg" xmlns:xlink="http://www.w3.org/1999/xlink" x="0px" y="0px"
	 viewBox="0 0 13 13" style="enable-background:new 0 0 13 13;" xml:space="preserve">
<style type="text/css">
	.st0{fill:#B3B3B3;}
	.st1{fill-rule:evenodd;clip-rule:evenodd;fill:#989898;}
	.st2{fill-rule:evenodd;clip-rule:evenodd;fill:#FFFFFF;}
</style>
<circle id="Ellipse_copy" class="st0" cx="6" cy="6" r="6"/>
<path id="Ellipse_copy_2" class="st1" d="M6,12.1c-3.3,0-6-2.7-6-6s2.7-6,6-6s6,2.7,6,6l0,0C12.1,9.4,9.4,12.1,6,12.1z M6,0.9
	C3.2,0.9,0.9,3.2,0.9,6s2.3,5.1,5.1,5.1s5.1-2.3,5.1-5.1l0,0C11.1,3.2,8.9,0.9,6,0.9z"/>
<path id="_copy" class="st2" d="M6.5,3.8V2.9h-1v0.9H6.5z M6.5,9.1V4.8h-1v4.3H6.5z"/>
</svg>
