<svg id="_copy_2" data-name="? copy 2" xmlns="http://www.w3.org/2000/svg" width="13" height="13" viewBox="0 0 14 14">
  <metadata><?xpacket begin="﻿" id="W5M0MpCehiHzreSzNTczkc9d"?>
<x:xmpmeta xmlns:x="adobe:ns:meta/" x:xmptk="Adobe XMP Core 5.6-c140 79.160451, 2017/05/06-01:08:21        ">
   <rdf:RDF xmlns:rdf="http://www.w3.org/1999/02/22-rdf-syntax-ns#">
      <rdf:Description rdf:about=""/>
   </rdf:RDF>
</x:xmpmeta>

<?xpacket end="w"?></metadata>
<defs>
    <style>
      .cls-1 {
        fill: #b3b3b3;
      }

      .cls-2 {
        fill: #989898;
      }

      .cls-2, .cls-3 {
        fill-rule: evenodd;
      }

      .cls-3 {
        fill: #fff;
      }
    </style>
  </defs>
  <circle id="Ellipse_copy" data-name="Ellipse  copy" class="cls-1" cx="6.5" cy="6.5" r="6.5"/>
  <path id="Ellipse_copy_2" data-name="Ellipse  copy 2" class="cls-2" d="M757.5,930a6.5,6.5,0,1,1,6.5-6.5A6.5,6.5,0,0,1,757.5,930Zm0-12a5.5,5.5,0,1,0,5.5,5.5A5.5,5.5,0,0,0,757.5,918Z" transform="translate(-751 -917)"/>
  <path id="_copy" data-name="? copy" class="cls-3" d="M757.933,925.314a3.021,3.021,0,0,1,.079-0.732,1.16,1.16,0,0,1,.212-0.4,4.425,4.425,0,0,1,.607-0.54,4.127,4.127,0,0,0,.929-0.925,1.539,1.539,0,0,0,.237-0.831,1.659,1.659,0,0,0-.675-1.328,2.787,2.787,0,0,0-1.811-.549,2.712,2.712,0,0,0-1.723.511A2.157,2.157,0,0,0,755,922l0.976,0.1a1.708,1.708,0,0,1,.533-1.056,1.534,1.534,0,0,1,1.014-.338,1.568,1.568,0,0,1,1.061.374,1.117,1.117,0,0,1,.433.866,0.915,0.915,0,0,1-.148.5,3.036,3.036,0,0,1-.641.617,6.794,6.794,0,0,0-.684.589,1.951,1.951,0,0,0-.375.55,2.139,2.139,0,0,0-.158.859c0,0.056,0,.14,0,0.253h0.913Zm0.111,1.7v-0.963h-1.082v0.963h1.082Z" transform="translate(-751 -917)"/>
</svg>
