<?xml version="1.0" encoding="utf-8"?>
<!-- Generator: Adobe Illustrator 27.0.0, SVG Export Plug-In . SVG Version: 6.00 Build 0)  -->
<svg version="1.1" id="Layer_1" xmlns="http://www.w3.org/2000/svg" xmlns:xlink="http://www.w3.org/1999/xlink" x="0px" y="0px"
	 viewBox="0 0 821 1000" style="enable-background:new 0 0 821 1000;" xml:space="preserve">
<style type="text/css">
	.st0{fill-rule:evenodd;clip-rule:evenodd;fill:#FFFFFF;}
</style>
<path class="st0" d="M821.1-0.2H0.9v830.8L411,999.8l410.1-169.2V-0.2z M751.9,784.4L411,924.8L70.1,784.4V69h681.8V784.4z"/>
<polygon class="st0" points="682.7,738 682.7,447.7 547.7,503.4 547.7,647.6 478.5,676.2 478.5,442.7 513.1,442.7 613.4,401.4 
	613.4,307.8 478.5,307.8 478.5,273.2 544.2,231.9 544.2,138.2 277.8,138.2 277.8,231.8 343.6,273.2 343.6,307.8 208.6,307.8 
	208.6,401.4 309,442.7 343.6,442.7 343.6,676.2 274.3,647.6 274.3,503.4 139.4,447.7 139.4,738.1 411,850 "/>
</svg>
