<svg id="Layer_1" data-name="Layer 1" xmlns="http://www.w3.org/2000/svg" width="248.44" height="108" viewBox="0 0 2415.96 1050.27"><defs><style>.cls-1,.cls-2{fill:#fff;}.cls-1{fill-rule:evenodd;}</style></defs><path class="cls-1" d="M1228.21,298.2h8.33l9.37,57.46h28.3l-10.67-64.88c5.24-4.46,9.47-10.88,9.47-19.18V245.19c0-17.51-18.61-26.73-26.68-26.73h-48v137.2h29.86Zm0-57.38h12a3,3,0,0,1,3,2.94V273a2.92,2.92,0,0,1-2.92,2.92h-12Z"/><path class="cls-1" d="M1139.11,356.8h21.6c8,0,26.5-10.44,26.5-28V245.64c0-17.56-18.45-28.3-26.5-28.3h-21.6c-8,0-26.5,10.74-26.5,28.3v83.19C1112.61,346.36,1131.07,356.8,1139.11,356.8Zm3.51-113.16a2.93,2.93,0,0,1,2.94-2.9h8.7a2.92,2.92,0,0,1,2.94,2.9v86.85a2.92,2.92,0,0,1-2.92,2.92h-8.74a2.92,2.92,0,0,1-2.92-2.92Z"/><path class="cls-1" d="M1868.74,430.33H1723.93v414l90.11,0V670.91l54.7,0c24.37,0,80.52-26.27,80.52-80.22V511C1949.26,458.27,1893.11,430.33,1868.74,430.33Zm-9.53,164.37a9,9,0,0,1-9.09,9l-36.08,0v-106l36.07,0a9.08,9.08,0,0,1,9.11,9Z"/><path class="cls-1" d="M1500.7,356.8h21.6c8,0,26.51-10.44,26.51-28V245.64c0-17.56-18.46-28.3-26.51-28.3h-21.6c-8,0-26.5,10.74-26.5,28.3v83.19C1474.2,346.36,1492.66,356.8,1500.7,356.8Zm3.52-113.16a2.92,2.92,0,0,1,2.93-2.9h8.7a2.92,2.92,0,0,1,2.94,2.9v86.85a2.91,2.91,0,0,1-2.92,2.92h-8.74a2.9,2.9,0,0,1-2.91-2.92Z"/><path class="cls-1" d="M1275.45,626.82,1184,590.46c-10.74-4.22-10.74-6.46-10.74-15.18v-69a8.83,8.83,0,0,1,8.86-8.77h26.26a8.84,8.84,0,0,1,8.87,8.77v76.11h90.56V512.29c0-53-55.7-85.39-80-85.39h-65.17c-24.28,0-80,32.43-80,85.39V597.6c0,24.67,10.32,41.67,32.34,50.41l92.57,36.71c9.67,4.2,9.63,4.18,9.63,14.63v69.2a8.83,8.83,0,0,1-8.86,8.77h-26.26a8.83,8.83,0,0,1-8.86-8.77V692.44H1082.7v70.09c0,53,55.68,85.39,80,85.39h65.16c24.28,0,80-32.43,80-85.39V677.22C1307.8,652.92,1297,635.38,1275.45,626.82Z"/><path class="cls-1" d="M1429.64,328.91v-83.8c0-17.55-18.59-26.64-26.65-26.64h-48V355.66h48C1411,355.66,1429.64,346.44,1429.64,328.91Zm-29.84,1.56a2.93,2.93,0,0,1-2.94,2.93h-12V240.73h12a2.94,2.94,0,0,1,3,2.92C1399.8,268.49,1399.8,305.15,1399.8,330.47Z"/><polygon class="cls-1" points="1343.9 330.36 1314.02 330.36 1314.02 218.47 1284.15 218.47 1284.15 355.66 1343.9 355.66 1343.9 330.36"/><path class="cls-1" d="M2208,677.22c0-24.3-10.76-41.84-32.35-50.4l-91.46-36.36c-10.74-4.22-10.74-6.46-10.74-15.18v-69a8.83,8.83,0,0,1,8.87-8.77h26.25a8.83,8.83,0,0,1,8.87,8.77v76.11H2208V512.29c0-53-55.69-85.39-80-85.39h-65.17c-24.28,0-80,32.43-80,85.39V597.6c0,24.67,10.32,41.67,32.34,50.41l92.57,36.71c9.67,4.2,9.63,4.18,9.63,14.63v69.2a8.83,8.83,0,0,1-8.86,8.77H2082.3a8.83,8.83,0,0,1-8.86-8.77V692.44h-90.56v70.09c0,53,55.69,85.39,80,85.39H2128c24.28,0,80-32.43,80-85.39Z"/><path class="cls-1" d="M1616.22,275.94h-26.4V243.75h34.44V218.47h-64.32V355.66h29.88V298.2h26.4Z"/><polygon class="cls-1" points="1476.47 603.72 1431.59 603.72 1431.59 430.33 1341.41 430.33 1341.41 844.28 1431.59 844.28 1431.59 670.89 1476.47 670.89 1476.47 844.28 1566.52 844.28 1566.52 430.33 1476.47 430.33 1476.47 603.72"/><path class="cls-1" d="M608.91,430.33l-44.62,414h85.38l10.43-97.13h51.71l10.45,97.13h85.38L763,430.33Zm59.38,240.56,17.64-164.3,17.67,164.3Z"/><path class="cls-1" d="M1037.64,355.66l7.48-66.15,7.5,66.15h37.45l14.79-137.19h-28.3l-10,93.18-10.4-93.18h-22l-10.4,93.18-10-93.18H985.4l14.79,137.19Z"/><path class="cls-1" d="M1049.08,590.63v-79.7c-.14-52.82-56.15-80.63-80.51-80.63H823.83v414h90.1V670.89h25.12l28.29,173.39h85.38l-32.21-195.77C1036.33,635,1049.08,615.68,1049.08,590.63Zm-90,4.29a8.79,8.79,0,0,1-8.82,8.8H913.93v-106h36.13a8.92,8.92,0,0,1,9,8.85Z"/><rect class="cls-2" x="1600.14" y="430.33" width="90.19" height="413.95"/><path class="cls-1" d="M484,430.33,453.72,711.47,422.34,430.33H356L324.66,711.47,294.35,430.33H209l44.62,414h113l22.6-199.6,22.6,199.6h113l44.61-413.95Z"/><path class="cls-1" d="M940.85,355.74V206H793V355.74l73.92,30.49ZM805.47,218.45h122.9v129l-61.45,25.31-61.45-25.31Z"/><polygon class="cls-1" points="915.89 339.05 915.89 286.71 891.57 296.74 891.57 322.75 879.09 327.9 879.09 285.81 885.32 285.81 903.41 278.35 903.41 261.49 879.09 261.49 879.09 255.25 890.93 247.8 890.93 230.93 842.91 230.93 842.91 247.79 854.76 255.25 854.76 261.49 830.44 261.49 830.44 278.36 848.53 285.81 854.76 285.81 854.76 327.9 842.27 322.75 842.27 296.74 817.95 286.7 817.95 339.05 866.92 359.24 915.89 339.05"/></svg>